#N canvas 43 147 1260 479 10;
#X obj 86 440 *~;
#X obj 203 114 vradio 12 1 0 4 empty empty empty 0 -8 0 10 -262144
-1 -1 2;
#X obj 23 22 sel 0 1 2 3;
#X obj 256 579 unpack f f f;
#X obj 624 114 vradio 12 1 0 5 empty empty empty 0 -8 0 10 -262144
-1 -1 2;
#X msg 23 337 0 0 0;
#X msg 43 315 1 1 1;
#X msg 63 295 0 0 1;
#X obj 23 272 sel 0 1 2;
#X obj 270 115 vradio 12 1 0 3 empty empty empty 0 -8 0 10 -262144
-1 -1 2;
#X text 622 100 DELAY;
#X text 201 100 TOPOLOGY;
#X obj 706 445 inlet;
#X obj 770 100 hradio 24 1 0 2 empty empty empty 0 -8 0 10 -228856
-1 -1 0;
#X obj 770 124 hradio 24 1 0 2 empty empty empty 0 -8 0 10 -262144
-1 -1 1;
#X obj 854 368 *~;
#X obj 890 368 *~;
#X obj 927 388 *~;
#X obj 963 388 *~;
#X obj 828 423 bitwiser;
#X obj 746 100 vradio 24 1 0 2 empty empty empty 0 -8 0 10 -262144
-1 -1 1;
#X obj 872 124 sel 0 1;
#X obj 952 148 sel 0 1;
#X msg 895 177 0 1;
#X msg 872 198 1 0;
#X msg 975 217 0 1;
#X msg 952 238 1 0;
#X obj 872 219 unpack f f;
#X obj 952 258 unpack f f;
#X obj 331 114 vradio 13 1 0 4 empty empty empty 0 -8 0 10 -262144
-1 -1 2;
#X obj 549 114 vradio 13 1 0 5 empty empty empty 0 -8 0 10 -262144
-1 -1 2;
#X obj 23 196 s topology\$1;
#X obj 50 177 s topology\$2;
#X obj 77 158 s topology\$3;
#X obj 87 470 throw~ reg\$1-inlet;
#X obj 23 413 s gates\$1;
#X obj 63 394 s gates\$2;
#X obj 104 375 s gates\$3;
#X obj 256 636 s delay\$1;
#X obj 296 617 s delay\$2;
#X obj 337 598 s delay\$3;
#X obj 445 692 s xor_inline_taps\$1\$2\$3;
#X obj 331 358 s xor_inline_onoff\$1\$2\$3;
#X obj 854 338 r~ signal_router\$1\$2\$3-0-outlet;
#X obj 927 357 r~ signal_router\$1\$2\$3-1-outlet;
#X text 345 112 OFF \; LEFT \; RIGHT \; ALL;
#X obj 747 445 loadbang;
#X text 216 113 OFF;
#X text 216 125 3;
#X text 216 137 1;
#X text 216 149 1+;
#X text 283 113 BYP;
#X text 283 125 XOR;
#X text 283 137 1 XOR;
#X msg 326 484 12 19 0;
#X text 637 162 12 19 0;
#X text 696 100 STEREO;
#X obj 697 114 vradio 12 1 0 4 empty empty empty 0 -8 0 10 -262144
-1 -1 3;
#X text 710 113 OFF;
#X text 710 125 3 ST;
#X text 710 137 3 M;
#X text 710 149 1 M;
#X obj 697 282 s stereochoice\$1\$2\$3;
#X obj 23 120 unpack f f f f f;
#X msg 23 100 0 0 0 0 0;
#X msg 41 81 2 2 2 0 1;
#X msg 60 62 1 1 0 1 3;
#X msg 78 43 3 3 0 1 3;
#X obj 925 83 unpack f f f;
#X msg 925 64 0 0 0;
#X msg 962 26 0 1 1;
#X obj 403 115 vradio 12 1 0 4 empty empty empty 0 -8 0 10 -262144
-1 -1 2;
#X text 330 100 GATES 2;
#X text 401 100 GATES 1;
#X text 269 100 GATES 3;
#X text 417 113 LEFT;
#X text 416 125 RIGHT;
#X text 416 137 XOR;
#X msg 943 45 1 0 0;
#X text 637 113 1s;
#X text 637 125 3 \, 25;
#X text 637 137 30;
#X msg 273 541 3 25 0;
#X msg 291 522 30 30 30;
#X obj 256 465 sel 0 1 2 3 4;
#X obj 23 356 unpack f f f;
#X msg 493 616 6 0 11 0;
#X text 548 100 TAPS 2;
#X obj 54 649 unpack f f f;
#X obj 1067 640 s freqtime\$1;
#X obj 1107 621 s freqtime\$2;
#X obj 1148 602 s freqtime\$3;
#X obj 1067 583 unpack f f f;
#X msg 445 673 0 0 5 0;
#X msg 461 654 0 0 10 0;
#X msg 477 635 0 5 0 10;
#X msg 510 597 0 5 6 10;
#X text 637 149 Sh/Long;
#X msg 308 503 20 100 0;
#X msg 526 578 5 0 10 0;
#X obj 925 -12 sel 0 1 2 3;
#X msg 980 7 0 0 1;
#X text 416 150 NULL;
#X text 563 114 0 4;
#X text 563 127 0 8;
#X text 563 139 0 4 8;
#X text 563 153 0 1 4;
#X text 563 166 0 5 4 8;
#X obj 445 464 sel 0 1 2 3 4 5 6 7 8 9 10;
#X msg 558 540 0 0 10 0;
#X msg 575 521 0 5 10 0;
#X msg 591 502 0 1 5 0;
#X msg 607 483 0 6 5 10;
#X msg 542 559 5 0 10 0;
#X obj 203 396 s topology\$1\$2\$3-send;
#X obj 203 1 r topology\$1\$2\$3-receive;
#X obj 23 3 r topology\$1\$2\$3-send;
#X obj 270 377 s gates3\$1\$2\$3-send;
#X obj 23 253 r gates3\$1\$2\$3-send;
#X obj 270 20 r gates3\$1\$2\$3-receive;
#X obj 697 72 r stereochoice\$1\$2\$3-receive;
#X obj 403 339 s gates1\$1\$2\$3-send;
#X obj 457 320 s taps3\$1\$2\$3-send;
#X obj 549 282 s taps2\$1\$2\$3-send;
#X obj 624 320 s delay\$1\$2\$3-send;
#X obj -12 215 s stereochoice\$1\$2\$3-receive;
#X obj 445 445 r taps2\$1\$2\$3-send;
#X obj 331 39 r gates2\$1\$2\$3-receive;
#X obj 403 58 r gates1\$1\$2\$3-receive;
#X obj 549 34 r taps2\$1\$2\$3-receive;
#X obj 925 -31 r gates1\$1\$2\$3-send;
#X obj 706 692 s topology\$1\$2\$3-receive;
#X obj 725 673 s gates3\$1\$2\$3-receive;
#X obj 744 654 s gates2\$1\$2\$3-receive;
#X obj 763 635 s gates1\$1\$2\$3-receive;
#X obj 802 597 s taps2\$1\$2\$3-receive;
#X obj 841 559 s stereochoice\$1\$2\$3-receive;
#X obj 624 53 r delay\$1\$2\$3-receive;
#X obj 821 578 s delay\$1\$2\$3-receive;
#X obj 457 -5 r taps3\$1\$2\$3-receive;
#X obj 537 14 r tapsettings\$1\$2\$3;
#X obj 783 616 s taps3\$1\$2\$3-receive;
#X obj 256 446 r delay\$1\$2\$3-send;
#X msg 256 560 1 1 1;
#X text 217 197 inject 1 \; inject 16 1s \; inject 16 random \; 3 1s
\; 2 1s and a 16 random \; 3 randoms \;;
#X obj 203 198 vradio 13 1 0 6 empty empty empty 0 -8 0 10 -262144
-1 -1 2;
#X obj 203 284 triggerer \$1 \$2 \$3;
#X obj 373 198 vradio 13 1 0 6 empty empty empty 0 -8 0 10 -262144
-1 -1 2;
#X text 387 197 50 0 0 \; 5000 0 0 \; 50 50 50 \; 5000 5000 5000 \;
50 1000 5000 \; 50 700 1300 \;;
#X msg 54 630 50 0 0;
#X obj 54 516 sel 0 1 2 3 4 5;
#X msg 71 611 5000 0 0;
#X msg 88 592 50 50 50;
#X msg 105 573 5000 5000 5000;
#X msg 122 554 50 500 5000;
#X msg 139 535 50 700 1300;
#X obj 54 706 s freq\$1;
#X obj 94 687 s freq\$2;
#X obj 135 668 s freq\$3;
#X obj 502 211 vradio 13 1 0 5 empty empty empty 0 -8 0 10 -262144
-1 -1 2;
#X text 516 210 5 5 5 \; 50 50 50 \; 200 200 200 \; 10 50 200 \; 50
200 10 \;;
#X obj 1067 464 sel 0 1 2 3 4;
#X msg 1067 564 5 5 5;
#X msg 1084 545 50 50 50;
#X msg 1102 526 200 200 200;
#X msg 1119 507 10 50 200;
#X msg 1137 488 50 200 10;
#X msg 706 464 3 0 0 2 0 0 1 3 0 0;
#X obj 879 521 s freqs\$1\$2\$3-receive;
#X obj 899 502 s freqtimes\$1\$2\$3;
#X obj 373 -24 r freqs\$1\$2\$3;
#X obj 502 -24 r freqtimes\$1\$2\$3;
#X obj 203 -24 r injection\$1\$2\$3;
#X text 203 184 WHEEL;
#X text 372 183 FREQ;
#X text 502 194 FREQ TIME;
#X obj 1057 311 threetapsfour \$1 \$2 \$3;
#X msg 1057 273 65535 65535 65535;
#X obj 457 114 vradio 13 1 0 5 empty empty empty 0 -8 0 10 -262144
-1 -1 2;
#X obj 1057 123 sel 0 1 2 3 4;
#X obj 1069 292 r randomtaps\$1\$2\$3;
#X msg 1074 254 0 0 0;
#X obj 1057 95 r taps3\$1\$2\$3-send;
#X text 459 100 TAPS 4;
#X obj 502 301 s freqtime\$1\$2\$3-send;
#X obj 1067 445 r freqtime\$1\$2\$3-send;
#X text 472 114 ALL ONES \; ALL ZERO \;;
#X obj 631 368 tapper \$1 \$2 \$3;
#X floatatom 631 387 5 0 0 0 - - -, f 5;
#X obj 643 215 nbx 5 12 -1e+37 1e+37 0 0 empty empty empty 0 -8 0 10
-262144 -1 -1 0 256;
#X obj 643 227 nbx 5 12 -1e+37 1e+37 0 0 empty empty empty 0 -8 0 10
-262144 -1 -1 0 256;
#X obj 643 239 nbx 5 12 -1e+37 1e+37 0 0 empty empty empty 0 -8 0 10
-262144 -1 -1 0 256;
#X obj 643 251 nbx 5 12 -1e+37 1e+37 0 0 empty empty empty 0 -8 0 10
-262144 -1 -1 0 256;
#X obj 631 215 vradio 12 1 0 4 empty empty empty 0 -8 0 10 -262144
-1 -1 3;
#X text 632 199 INCREMENTER;
#X obj 706 483 unpack f f f f f f f f f f f;
#X msg 860 540 s wheel\$1\$2\$3-receive;
#X obj 203 305 s wheel\$1\$2\$3-send;
#X obj 203 65 r wheel\$1\$2\$3-receive;
#X connect 0 0 34 0;
#X connect 1 0 114 0;
#X connect 2 0 64 0;
#X connect 2 1 65 0;
#X connect 2 2 66 0;
#X connect 2 3 67 0;
#X connect 3 0 38 0;
#X connect 3 1 39 0;
#X connect 3 2 40 0;
#X connect 4 0 124 0;
#X connect 5 0 85 0;
#X connect 6 0 85 0;
#X connect 7 0 85 0;
#X connect 8 0 5 0;
#X connect 8 1 6 0;
#X connect 8 2 7 0;
#X connect 9 0 117 0;
#X connect 12 0 167 0;
#X connect 13 0 21 0;
#X connect 14 0 22 0;
#X connect 15 0 19 1;
#X connect 16 0 19 2;
#X connect 17 0 19 1;
#X connect 18 0 19 2;
#X connect 19 0 0 0;
#X connect 20 0 19 0;
#X connect 21 0 24 0;
#X connect 21 1 23 0;
#X connect 22 0 26 0;
#X connect 22 1 25 0;
#X connect 23 0 27 0;
#X connect 24 0 27 0;
#X connect 25 0 28 0;
#X connect 26 0 28 0;
#X connect 27 0 15 1;
#X connect 27 1 17 1;
#X connect 28 0 16 1;
#X connect 28 1 18 1;
#X connect 29 0 42 0;
#X connect 30 0 123 0;
#X connect 43 0 15 0;
#X connect 43 0 16 0;
#X connect 44 0 17 0;
#X connect 44 0 18 0;
#X connect 46 0 167 0;
#X connect 54 0 3 0;
#X connect 57 0 62 0;
#X connect 63 0 31 0;
#X connect 63 1 32 0;
#X connect 63 2 33 0;
#X connect 63 3 0 1;
#X connect 63 4 125 0;
#X connect 64 0 63 0;
#X connect 65 0 63 0;
#X connect 66 0 63 0;
#X connect 67 0 63 0;
#X connect 68 0 13 0;
#X connect 68 1 14 0;
#X connect 68 2 20 0;
#X connect 69 0 68 0;
#X connect 70 0 68 0;
#X connect 71 0 121 0;
#X connect 78 0 68 0;
#X connect 82 0 3 0;
#X connect 83 0 3 0;
#X connect 84 0 143 0;
#X connect 84 1 82 0;
#X connect 84 2 83 0;
#X connect 84 3 98 0;
#X connect 84 4 54 0;
#X connect 85 0 35 0;
#X connect 85 1 36 0;
#X connect 85 2 37 0;
#X connect 86 0 41 0;
#X connect 88 0 156 0;
#X connect 88 1 157 0;
#X connect 88 2 158 0;
#X connect 92 0 89 0;
#X connect 92 1 90 0;
#X connect 92 2 91 0;
#X connect 93 0 41 0;
#X connect 94 0 41 0;
#X connect 95 0 41 0;
#X connect 96 0 41 0;
#X connect 98 0 3 0;
#X connect 99 0 41 0;
#X connect 100 0 69 0;
#X connect 100 1 78 0;
#X connect 100 2 70 0;
#X connect 100 3 101 0;
#X connect 101 0 68 0;
#X connect 108 0 93 0;
#X connect 108 1 94 0;
#X connect 108 2 95 0;
#X connect 108 3 86 0;
#X connect 108 4 96 0;
#X connect 108 5 99 0;
#X connect 108 6 113 0;
#X connect 108 7 109 0;
#X connect 108 8 110 0;
#X connect 108 9 111 0;
#X connect 108 10 112 0;
#X connect 109 0 41 0;
#X connect 110 0 41 0;
#X connect 111 0 41 0;
#X connect 112 0 41 0;
#X connect 113 0 41 0;
#X connect 115 0 1 0;
#X connect 116 0 2 0;
#X connect 118 0 8 0;
#X connect 119 0 9 0;
#X connect 120 0 57 0;
#X connect 126 0 108 0;
#X connect 127 0 29 0;
#X connect 128 0 71 0;
#X connect 129 0 30 0;
#X connect 130 0 100 0;
#X connect 137 0 4 0;
#X connect 139 0 178 0;
#X connect 142 0 84 0;
#X connect 143 0 3 0;
#X connect 145 0 146 0;
#X connect 145 0 197 0;
#X connect 147 0 150 0;
#X connect 149 0 88 0;
#X connect 150 0 149 0;
#X connect 150 1 151 0;
#X connect 150 2 152 0;
#X connect 150 3 153 0;
#X connect 150 4 154 0;
#X connect 150 5 155 0;
#X connect 151 0 88 0;
#X connect 152 0 88 0;
#X connect 153 0 88 0;
#X connect 154 0 88 0;
#X connect 155 0 88 0;
#X connect 159 0 184 0;
#X connect 161 0 162 0;
#X connect 161 1 163 0;
#X connect 161 2 164 0;
#X connect 161 3 165 0;
#X connect 161 4 166 0;
#X connect 162 0 92 0;
#X connect 163 0 92 0;
#X connect 164 0 92 0;
#X connect 165 0 92 0;
#X connect 166 0 92 0;
#X connect 167 0 195 0;
#X connect 170 0 147 0;
#X connect 171 0 159 0;
#X connect 172 0 145 0;
#X connect 177 0 176 0;
#X connect 178 0 122 0;
#X connect 179 0 177 0;
#X connect 179 1 181 0;
#X connect 180 0 176 0;
#X connect 181 0 176 0;
#X connect 182 0 179 0;
#X connect 185 0 161 0;
#X connect 187 0 188 0;
#X connect 189 0 187 1;
#X connect 190 0 187 2;
#X connect 191 0 187 3;
#X connect 192 0 187 4;
#X connect 193 0 187 0;
#X connect 195 0 131 0;
#X connect 195 1 132 0;
#X connect 195 2 133 0;
#X connect 195 3 134 0;
#X connect 195 4 141 0;
#X connect 195 5 135 0;
#X connect 195 6 138 0;
#X connect 195 7 136 0;
#X connect 195 8 196 0;
#X connect 195 9 168 0;
#X connect 195 10 169 0;
#X connect 198 0 145 0;
#X coords 0 -1 1 1 618 180 2 200 100;
