#N canvas 49 228 1242 526 10;
#X obj 86 380 *~;
#X obj 278 164 vradio 13 1 0 4 empty empty empty 0 -8 0 10 -262144
-1 -1 3;
#X obj 9 162 sel 0 1 2 3;
#X obj 623 164 vradio 13 1 0 5 empty empty empty 0 -8 0 10 -262144
-1 -1 1;
#X obj 327 165 vradio 13 1 0 3 empty empty empty 0 -8 0 10 -262144
-1 -1 0;
#X text 621 150 DELAY;
#X obj 758 150 hradio 24 1 0 2 empty empty empty 0 -8 0 10 -228856
-1 -1 0;
#X obj 758 174 hradio 24 1 0 2 empty empty empty 0 -8 0 10 -262144
-1 -1 1;
#X obj 934 327 *~;
#X obj 970 327 *~;
#X obj 1001 347 *~;
#X obj 1037 347 *~;
#X obj 908 363 bitwiser;
#X obj 734 150 vradio 24 1 0 2 empty empty empty 0 -8 0 10 -262144
-1 -1 1;
#X obj 952 174 sel 0 1;
#X obj 1032 198 sel 0 1;
#X msg 975 193 0 1;
#X msg 952 214 1 0;
#X msg 1055 217 0 1;
#X msg 1032 238 1 0;
#X obj 952 235 unpack f f;
#X obj 1032 258 unpack f f;
#X obj 379 164 vradio 13 1 0 4 empty empty empty 0 -8 0 10 -262144
-1 -1 0;
#X obj 565 164 vradio 13 1 0 5 empty empty empty 0 -8 0 10 -262144
-1 -1 0;
#X obj 9 336 s topology\$1;
#X obj 40 317 s topology\$2;
#X obj 72 298 s topology\$3;
#X obj 87 410 throw~ reg\$1-inlet;
#X obj 379 272 s xor_inline_onoff\$1\$2\$3;
#X obj 934 298 r~ signal_router\$1\$2\$3-0-outlet;
#X obj 1001 316 r~ signal_router\$1\$2\$3-1-outlet;
#X text 686 150 STEREO;
#X obj 687 164 vradio 13 1 0 4 empty empty empty 0 -8 0 10 -262144
-1 -1 3;
#X obj 687 253 s stereochoice\$1\$2\$3;
#X obj 1010 133 unpack f f f;
#X msg 1010 114 0 0 0;
#X msg 1047 76 0 1 1;
#X obj 430 165 vradio 12 1 0 4 empty empty empty 0 -8 0 10 -262144
-1 -1 2;
#X text 428 150 GATES 1;
#X msg 1028 95 1 0 0;
#X text 564 150 TAPS 2;
#X obj 1010 38 sel 0 1 2 3;
#X msg 1065 57 0 0 1;
#X obj 278 310 s topology\$1\$2\$3-send;
#X obj 278 65 r topology\$1\$2\$3-receive;
#X obj 9 143 r topology\$1\$2\$3-send;
#X obj 327 291 s gates3\$1\$2\$3-send;
#X obj 327 84 r gates3\$1\$2\$3-receive;
#X obj 687 122 r stereochoice\$1\$2\$3-receive;
#X obj 430 253 s gates1\$1\$2\$3-send;
#X obj 493 310 s taps3\$1\$2\$3-send;
#X obj 565 291 s taps2\$1\$2\$3-send;
#X obj 623 272 s delay\$1\$2\$3-send;
#X obj 379 103 r gates2\$1\$2\$3-receive;
#X obj 430 122 r gates1\$1\$2\$3-receive;
#X obj 565 84 r taps2\$1\$2\$3-receive;
#X obj 1010 19 r gates1\$1\$2\$3-send;
#X obj 623 103 r delay\$1\$2\$3-receive;
#X obj 493 65 r taps3\$1\$2\$3-receive;
#X obj 206 164 vradio 13 1 0 5 empty empty empty 0 -8 0 10 -262144
-1 -1 0;
#X obj 206 262 triggerer \$1 \$2 \$3;
#X text 206 150 WHEEL;
#X obj 493 164 vradio 13 1 0 5 empty empty empty 0 -8 0 10 -262144
-1 -1 0;
#X text 495 150 TAPS 4;
#X obj 206 46 r wheel\$1\$2\$3-receive;
#X text 507 163 ZEROES \; 1234 \; 1-12;
#X msg 64 183 3 3 0 1;
#X msg 46 202 1 1 0 1;
#X msg 27 221 2 2 2 0;
#X msg 9 240 0 0 0 0;
#X obj 9 260 unpack f f f f;
#X text 276 150 TOPOS;
#X text 291 163 OFF \; 3 \; 1 \; 1+;
#X text 341 164 BYP \; XOR \; 1XOR;
#X text 326 150 GATES3;
#X text 393 162 OFF \; L \; R \; ALL;
#X text 378 150 GATES2;
#X text 579 163 0 4 \; 4 8 \; 0 11 \; 5 8 \; 548;
#X text 442 163 LEFT \; RIGHT \; XOR \; NULL;
#X text 636 163 1s \; 3 \, 25 \; 6 \, 5 \; 12 \, 19 \; Sh/Lg;
#X text 700 163 OFF \; 3St \; 3Mo \; 1Mo;
#X text 220 163 1 1 1 \; 16 1 1 \; R 0 0 \; R 1 1 \; R R R \;;
#X obj 446 421 Translator;
#X connect 0 0 27 0;
#X connect 1 0 43 0;
#X connect 2 0 69 0;
#X connect 2 1 68 0;
#X connect 2 2 67 0;
#X connect 2 3 66 0;
#X connect 3 0 52 0;
#X connect 4 0 46 0;
#X connect 6 0 14 0;
#X connect 7 0 15 0;
#X connect 8 0 12 1;
#X connect 9 0 12 2;
#X connect 10 0 12 1;
#X connect 11 0 12 2;
#X connect 12 0 0 0;
#X connect 13 0 12 0;
#X connect 14 0 17 0;
#X connect 14 1 16 0;
#X connect 15 0 19 0;
#X connect 15 1 18 0;
#X connect 16 0 20 0;
#X connect 17 0 20 0;
#X connect 18 0 21 0;
#X connect 19 0 21 0;
#X connect 20 0 8 1;
#X connect 20 1 10 1;
#X connect 21 0 9 1;
#X connect 21 1 11 1;
#X connect 22 0 28 0;
#X connect 23 0 51 0;
#X connect 29 0 8 0;
#X connect 29 0 9 0;
#X connect 30 0 10 0;
#X connect 30 0 11 0;
#X connect 32 0 33 0;
#X connect 34 0 6 0;
#X connect 34 1 7 0;
#X connect 34 2 13 0;
#X connect 35 0 34 0;
#X connect 36 0 34 0;
#X connect 37 0 49 0;
#X connect 39 0 34 0;
#X connect 41 0 35 0;
#X connect 41 1 39 0;
#X connect 41 2 36 0;
#X connect 41 3 42 0;
#X connect 42 0 34 0;
#X connect 44 0 1 0;
#X connect 45 0 2 0;
#X connect 47 0 4 0;
#X connect 48 0 32 0;
#X connect 53 0 22 0;
#X connect 54 0 37 0;
#X connect 55 0 23 0;
#X connect 56 0 41 0;
#X connect 57 0 3 0;
#X connect 58 0 62 0;
#X connect 59 0 60 0;
#X connect 62 0 50 0;
#X connect 64 0 59 0;
#X connect 66 0 70 0;
#X connect 67 0 70 0;
#X connect 68 0 70 0;
#X connect 69 0 70 0;
#X connect 70 0 24 0;
#X connect 70 1 25 0;
#X connect 70 2 26 0;
#X connect 70 3 0 1;
#X coords 0 -1 1 1 606 100 2 200 150;
