#N canvas 43 156 1323 594 10;
#X obj 86 440 *~;
#X obj 203 114 vradio 12 1 0 4 empty empty empty 0 -8 0 10 -262144
-1 -1 3;
#X obj 23 22 sel 0 1 2 3;
#X obj 256 579 unpack f f f;
#X obj 666 114 vradio 12 1 0 12 empty empty empty 0 -8 0 10 -262144
-1 -1 1;
#X msg 23 337 0 0 0;
#X msg 43 315 1 1 1;
#X msg 63 295 0 0 1;
#X obj 23 272 sel 0 1 2;
#X obj 274 115 vradio 12 1 0 3 empty empty empty 0 -8 0 10 -262144
-1 -1 2;
#X text 664 100 DELAY;
#X text 201 100 TOPOLOGY;
#X obj 758 100 hradio 24 1 0 2 empty empty empty 0 -8 0 10 -228856
-1 -1 0;
#X obj 758 124 hradio 24 1 0 2 empty empty empty 0 -8 0 10 -262144
-1 -1 0;
#X obj 854 368 *~;
#X obj 890 368 *~;
#X obj 927 388 *~;
#X obj 963 388 *~;
#X obj 828 423 bitwiser;
#X obj 734 100 vradio 24 1 0 2 empty empty empty 0 -8 0 10 -262144
-1 -1 1;
#X obj 872 124 sel 0 1;
#X obj 952 148 sel 0 1;
#X msg 895 177 0 1;
#X msg 872 198 1 0;
#X msg 975 217 0 1;
#X msg 952 238 1 0;
#X obj 872 219 unpack f f;
#X obj 952 258 unpack f f;
#X obj 341 114 vradio 13 1 0 4 empty empty empty 0 -8 0 10 -262144
-1 -1 3;
#X obj 571 114 vradio 12 1 0 12 empty empty empty 0 -8 0 10 -262144
-1 -1 0;
#X obj 23 196 s topology\$1;
#X obj 50 177 s topology\$2;
#X obj 77 158 s topology\$3;
#X obj 87 470 throw~ reg\$1-inlet;
#X obj 256 636 s delay\$1;
#X obj 296 617 s delay\$2;
#X obj 337 598 s delay\$3;
#X obj 445 692 s xor_inline_taps\$1\$2\$3;
#X obj 341 339 s xor_inline_onoff\$1\$2\$3;
#X obj 854 338 r~ signal_router\$1\$2\$3-0-outlet;
#X obj 927 357 r~ signal_router\$1\$2\$3-1-outlet;
#X text 355 112 OFF \; LEFT \; RIGHT \; ALL;
#X text 216 113 OFF;
#X text 216 125 3;
#X text 216 137 1;
#X text 216 149 1+;
#X text 287 113 BYP;
#X text 287 125 XOR;
#X text 287 137 1 XOR;
#X msg 326 484 12 19 0;
#X text 679 162 12 19 0;
#X text 749 164 STEREO;
#X obj 750 178 vradio 12 1 0 4 empty empty empty 0 -8 0 10 -262144
-1 -1 3;
#X text 763 177 OFF;
#X text 763 189 3 ST;
#X text 763 201 3 M;
#X text 763 213 1 M;
#X obj 750 320 s stereochoice\$1\$2\$3;
#X obj 23 120 unpack f f f f f;
#X msg 23 100 0 0 0 0 0;
#X msg 41 81 2 2 2 0 1;
#X msg 60 62 1 1 0 1 3;
#X msg 78 43 3 3 0 1 3;
#X obj 925 83 unpack f f f;
#X msg 925 64 0 0 0;
#X msg 962 26 0 1 1;
#X obj 413 115 vradio 12 1 0 4 empty empty empty 0 -8 0 10 -262144
-1 -1 3;
#X text 340 100 GATES 2;
#X text 411 100 GATES 1;
#X text 273 100 GATES 3;
#X text 427 113 LEFT;
#X text 426 125 RIGHT;
#X text 426 137 XOR;
#X msg 943 45 1 0 0;
#X text 679 113 1s;
#X text 679 125 3 \, 25;
#X text 679 137 30;
#X msg 273 541 3 25 0;
#X msg 291 522 30 30 30;
#X obj 256 465 sel 0 1 2 3 4;
#X text 570 100 TAPS 2;
#X obj 54 649 unpack f f f;
#X obj 1067 640 s freqtime\$1;
#X obj 1107 621 s freqtime\$2;
#X obj 1148 602 s freqtime\$3;
#X obj 1067 583 unpack f f f;
#X msg 445 673 0 0 5 0;
#X msg 510 597 0 5 6 10;
#X text 679 149 Sh/Long;
#X msg 308 503 20 100 0;
#X msg 526 578 5 0 10 0;
#X obj 925 -12 sel 0 1 2 3;
#X msg 980 7 0 0 1;
#X text 426 150 NULL;
#X obj 445 464 sel 0 1 2 3 4 5 6 7 8 9 10;
#X msg 558 540 0 0 10 0;
#X msg 575 521 0 5 10 0;
#X msg 591 502 0 1 5 0;
#X msg 607 483 0 6 5 10;
#X msg 542 559 5 0 10 0;
#X obj 203 377 s topology\$1\$2\$3-send;
#X obj 203 1 r topology\$1\$2\$3-receive;
#X obj 23 3 r topology\$1\$2\$3-send;
#X obj 274 358 s gates3\$1\$2\$3-send;
#X obj 274 20 r gates3\$1\$2\$3-receive;
#X obj 684 77 r stereochoice\$1\$2\$3-receive;
#X obj 413 320 s gates1\$1\$2\$3-send;
#X obj 482 301 s taps3\$1\$2\$3-send;
#X obj 571 282 s taps2\$1\$2\$3-send;
#X obj 666 301 s delay\$1\$2\$3-send;
#X obj -12 215 s stereochoice\$1\$2\$3-receive;
#X obj 445 445 r taps2\$1\$2\$3-send;
#X obj 341 39 r gates2\$1\$2\$3-receive;
#X obj 413 58 r gates1\$1\$2\$3-receive;
#X obj 571 34 r taps2\$1\$2\$3-receive;
#X obj 925 -31 r gates1\$1\$2\$3-send;
#X obj 706 692 s topology\$1\$2\$3-receive;
#X obj 725 673 s gates3\$1\$2\$3-receive;
#X obj 744 654 s gates2\$1\$2\$3-receive;
#X obj 763 635 s gates1\$1\$2\$3-receive;
#X obj 802 597 s taps2\$1\$2\$3-receive;
#X obj 841 559 s stereochoice\$1\$2\$3-receive;
#X obj 666 53 r delay\$1\$2\$3-receive;
#X obj 821 578 s delay\$1\$2\$3-receive;
#X obj 482 -5 r taps3\$1\$2\$3-receive;
#X obj 537 14 r tapsettings\$1\$2\$3;
#X obj 783 616 s taps3\$1\$2\$3-receive;
#X obj 256 446 r delay\$1\$2\$3-send;
#X msg 256 560 1 1 1;
#X obj 203 183 vradio 13 1 0 6 empty empty empty 0 -8 0 10 -262144
-1 -1 0;
#X obj 203 284 triggerer \$1 \$2 \$3;
#X obj 294 183 vradio 13 1 0 6 empty empty empty 0 -8 0 10 -262144
-1 -1 0;
#X msg 54 630 50 0 0;
#X obj 54 516 sel 0 1 2 3 4 5;
#X msg 71 611 5000 0 0;
#X msg 88 592 50 50 50;
#X msg 105 573 5000 5000 5000;
#X msg 122 554 50 500 5000;
#X msg 139 535 50 700 1300;
#X obj 54 706 s freq\$1;
#X obj 94 687 s freq\$2;
#X obj 135 668 s freq\$3;
#X obj 391 193 vradio 13 1 0 5 empty empty empty 0 -8 0 10 -262144
-1 -1 0;
#X obj 1067 464 sel 0 1 2 3 4;
#X msg 1067 564 5 5 5;
#X msg 1084 545 50 50 50;
#X msg 1102 526 200 200 200;
#X msg 1119 507 10 50 200;
#X msg 1137 488 50 200 10;
#X obj 879 521 s freqs\$1\$2\$3-receive;
#X obj 899 502 s freqtimes\$1\$2\$3;
#X obj 294 -43 r freqs\$1\$2\$3;
#X obj 391 -24 r freqtimes\$1\$2\$3;
#X obj 203 -24 r injection\$1\$2\$3;
#X text 203 169 WHEEL;
#X text 293 169 FREQ;
#X text 390 179 FREQ TIME;
#X obj 482 114 vradio 12 1 0 12 empty empty empty 0 -8 0 10 -262144
-1 -1 0;
#X obj 1055 63 sel 0 1 2 3 4;
#X obj 1055 35 r taps3\$1\$2\$3-send;
#X text 484 100 TAPS 4;
#X obj 391 377 s freqtime\$1\$2\$3-send;
#X obj 1067 445 r freqtime\$1\$2\$3-send;
#X obj 706 483 unpack f f f f f f f f f f f;
#X msg 860 540 s wheel\$1\$2\$3-receive;
#X obj 203 305 s wheel\$1\$2\$3-send;
#X obj 203 65 r wheel\$1\$2\$3-receive;
#X obj 706 464 inlet presets\$1\$2\$3;
#X msg 461 654 5 0 10 0;
#X msg 477 635 0 0 13 0;
#X text 585 113 0 4 \; 4 8 \; 0 11 \; 5 8 \; 0 5 4 8 \;;
#X msg 493 616 5 0 10 0;
#X text 217 182 1 \; 16 \; random \; 3 1s \; 2 1s&rand \; 3 random
\;;
#X text 308 182 50 0 0 \; 5k 0 0 \; 50 50 50 \; 5k 5k 5k \; 50 1k 5k
\; 50 700 13k \;;
#X text 405 192 5 5 5 \; 50x 3 \; 200x3 \; 10 50 200 \; 50 200 10 \;
;
#X obj 1055 315 s tap_indices\$1;
#X obj 1123 294 s tap_indices\$2;
#X obj 1191 273 s tap_indices\$3;
#X msg 1055 251 0 0 0 0;
#X msg 1123 251 0 0 0 0;
#X msg 1191 251 0 0 0 0;
#X msg 1055 213 1 2 3 4;
#X msg 1123 213 1 2 3 4;
#X msg 1191 213 1 2 3 4;
#X msg 1055 175 1 2 3 4;
#X msg 1123 175 5 6 7 8;
#X msg 1191 175 9 10 11 12;
#X text 496 113 ZEROES \; 1234 \; 1-12;
#X obj 1055 234 t b b b;
#X obj 1055 196 t b b b;
#X obj 1055 158 t b b b;
#X obj 23 359 s gates3\$1\$2-topanel;
#X obj 23 253 r gates3\$1\$2\$3-send;
#X obj 23 379 s gates3\$2\$3-topanel;
#X obj 23 399 s gates3\$3\$1-topanel;
#X connect 0 0 33 0;
#X connect 1 0 100 0;
#X connect 2 0 59 0;
#X connect 2 1 60 0;
#X connect 2 2 61 0;
#X connect 2 3 62 0;
#X connect 3 0 34 0;
#X connect 3 1 35 0;
#X connect 3 2 36 0;
#X connect 4 0 109 0;
#X connect 5 0 191 0;
#X connect 5 0 193 0;
#X connect 5 0 194 0;
#X connect 6 0 191 0;
#X connect 6 0 193 0;
#X connect 6 0 194 0;
#X connect 7 0 191 0;
#X connect 7 0 193 0;
#X connect 7 0 194 0;
#X connect 8 0 5 0;
#X connect 8 1 6 0;
#X connect 8 2 7 0;
#X connect 9 0 103 0;
#X connect 12 0 20 0;
#X connect 13 0 21 0;
#X connect 14 0 18 1;
#X connect 15 0 18 2;
#X connect 16 0 18 1;
#X connect 17 0 18 2;
#X connect 18 0 0 0;
#X connect 19 0 18 0;
#X connect 20 0 23 0;
#X connect 20 1 22 0;
#X connect 21 0 25 0;
#X connect 21 1 24 0;
#X connect 22 0 26 0;
#X connect 23 0 26 0;
#X connect 24 0 27 0;
#X connect 25 0 27 0;
#X connect 26 0 14 1;
#X connect 26 1 16 1;
#X connect 27 0 15 1;
#X connect 27 1 17 1;
#X connect 28 0 38 0;
#X connect 29 0 108 0;
#X connect 39 0 14 0;
#X connect 39 0 15 0;
#X connect 40 0 16 0;
#X connect 40 0 17 0;
#X connect 49 0 3 0;
#X connect 52 0 57 0;
#X connect 58 0 30 0;
#X connect 58 1 31 0;
#X connect 58 2 32 0;
#X connect 58 3 0 1;
#X connect 58 4 110 0;
#X connect 59 0 58 0;
#X connect 60 0 58 0;
#X connect 61 0 58 0;
#X connect 62 0 58 0;
#X connect 63 0 12 0;
#X connect 63 1 13 0;
#X connect 63 2 19 0;
#X connect 64 0 63 0;
#X connect 65 0 63 0;
#X connect 66 0 106 0;
#X connect 73 0 63 0;
#X connect 77 0 3 0;
#X connect 78 0 3 0;
#X connect 79 0 128 0;
#X connect 79 1 77 0;
#X connect 79 2 78 0;
#X connect 79 3 89 0;
#X connect 79 4 49 0;
#X connect 81 0 139 0;
#X connect 81 1 140 0;
#X connect 81 2 141 0;
#X connect 85 0 82 0;
#X connect 85 1 83 0;
#X connect 85 2 84 0;
#X connect 86 0 37 0;
#X connect 87 0 37 0;
#X connect 89 0 3 0;
#X connect 90 0 37 0;
#X connect 91 0 64 0;
#X connect 91 1 73 0;
#X connect 91 2 65 0;
#X connect 91 3 92 0;
#X connect 92 0 63 0;
#X connect 94 0 86 0;
#X connect 94 1 168 0;
#X connect 94 2 169 0;
#X connect 94 3 171 0;
#X connect 94 4 87 0;
#X connect 94 5 90 0;
#X connect 94 6 99 0;
#X connect 94 7 95 0;
#X connect 94 8 96 0;
#X connect 94 9 97 0;
#X connect 94 10 98 0;
#X connect 95 0 37 0;
#X connect 96 0 37 0;
#X connect 97 0 37 0;
#X connect 98 0 37 0;
#X connect 99 0 37 0;
#X connect 101 0 1 0;
#X connect 102 0 2 0;
#X connect 104 0 9 0;
#X connect 105 0 52 0;
#X connect 111 0 94 0;
#X connect 112 0 28 0;
#X connect 113 0 66 0;
#X connect 114 0 29 0;
#X connect 115 0 91 0;
#X connect 122 0 4 0;
#X connect 124 0 157 0;
#X connect 127 0 79 0;
#X connect 128 0 3 0;
#X connect 129 0 130 0;
#X connect 129 0 165 0;
#X connect 131 0 133 0;
#X connect 132 0 81 0;
#X connect 133 0 132 0;
#X connect 133 1 134 0;
#X connect 133 2 135 0;
#X connect 133 3 136 0;
#X connect 133 4 137 0;
#X connect 133 5 138 0;
#X connect 134 0 81 0;
#X connect 135 0 81 0;
#X connect 136 0 81 0;
#X connect 137 0 81 0;
#X connect 138 0 81 0;
#X connect 142 0 161 0;
#X connect 143 0 144 0;
#X connect 143 1 145 0;
#X connect 143 2 146 0;
#X connect 143 3 147 0;
#X connect 143 4 148 0;
#X connect 144 0 85 0;
#X connect 145 0 85 0;
#X connect 146 0 85 0;
#X connect 147 0 85 0;
#X connect 148 0 85 0;
#X connect 151 0 131 0;
#X connect 152 0 142 0;
#X connect 153 0 129 0;
#X connect 157 0 107 0;
#X connect 158 0 188 0;
#X connect 158 1 189 0;
#X connect 158 2 190 0;
#X connect 159 0 158 0;
#X connect 162 0 143 0;
#X connect 163 0 116 0;
#X connect 163 1 117 0;
#X connect 163 2 118 0;
#X connect 163 3 119 0;
#X connect 163 4 126 0;
#X connect 163 5 120 0;
#X connect 163 6 123 0;
#X connect 163 7 121 0;
#X connect 163 8 164 0;
#X connect 163 9 149 0;
#X connect 163 10 150 0;
#X connect 166 0 129 0;
#X connect 167 0 163 0;
#X connect 168 0 37 0;
#X connect 169 0 37 0;
#X connect 171 0 37 0;
#X connect 178 0 175 0;
#X connect 179 0 176 0;
#X connect 180 0 177 0;
#X connect 181 0 175 0;
#X connect 182 0 176 0;
#X connect 183 0 177 0;
#X connect 184 0 175 0;
#X connect 185 0 176 0;
#X connect 186 0 177 0;
#X connect 188 0 178 0;
#X connect 188 1 179 0;
#X connect 188 2 180 0;
#X connect 189 0 181 0;
#X connect 189 1 182 0;
#X connect 189 2 183 0;
#X connect 190 0 184 0;
#X connect 190 1 185 0;
#X connect 190 2 186 0;
#X connect 192 0 8 0;
#X coords 0 -1 1 1 606 166 2 200 100;
