#N canvas 106 258 1199 564 10;
#X obj 106 397 s topology0;
#X obj 137 377 s topology1;
#X obj 169 357 s topology2;
#X obj 258 550 dac~;
#X obj 106 334 unpack f f f f;
#X obj 93 444 r~ reg0-tap0;
#X obj 93 489 r~ reg1-tap0;
#X obj 93 539 r~ reg2-tap2;
#X obj 94 595 dac~;
#X obj 94 465 *~ 0.3;
#X obj 93 513 *~ 0.3;
#X obj 93 561 *~ 0.3;
#X obj 210 448 unpack f f;
#X msg 239 424 0 1;
#X msg 187 425 0.3 0;
#X obj 259 483 *~;
#X obj 201 397 sel 0 1;
#X obj 300 453 r~ four_xor_send;
#X msg 110 312 2 2 2 0;
#X msg 167 292 1 1 0 1;
#X msg 172 311 3 3 0 1;
#X msg 105 293 0 0 0 0;
#X obj 104 118 vradio 15 1 0 4 empty empty empty 0 -8 0 10 -262144
-1 -1 0;
#X text 123 117 0 0 0 0;
#X text 123 133 2 2 2 0;
#X text 123 149 1 1 0 1;
#X text 123 165 3 3 0 1;
#X obj 104 270 sel 0 1 2 3;
#X obj 307 519 throw~ reg0-inlet;
#X obj 1042 562 s delay0;
#X obj 1042 496 unpack f f f;
#X obj 486 119 vradio 15 1 0 7 empty empty empty 0 -8 0 10 -262144
-1 -1 5;
#X msg 1042 470 0 0 0;
#X msg 1060 449 100 100 100;
#X msg 1079 428 300 300 300;
#X msg 1097 407 101 211 331;
#X obj 591 532 s tap_indices1;
#X obj 581 513 s tap_indices0;
#X obj 601 551 s tap_indices2;
#X msg 607 350 32 32 32 32;
#X msg 608 328 7 15 23 31;
#X obj 629 371 bng 15 250 50 0 empty empty empty 17 7 0 10 -262144
-1 -1;
#X obj 629 492 pack f f f f;
#X obj 675 411 random 32;
#X obj 660 431 random 32;
#X obj 644 451 random 32;
#X obj 629 471 random 32;
#X obj 690 594 pack f f f f;
#X obj 738 513 random 32;
#X obj 722 533 random 32;
#X obj 707 553 random 32;
#X obj 690 573 random 32;
#X obj 754 492 pack f f f f;
#X obj 801 411 random 32;
#X obj 785 431 random 32;
#X obj 769 451 random 32;
#X obj 754 471 random 32;
#X obj 629 390 t b b b b b b b b b b b b;
#X obj 413 23 s wheel\$1;
#X obj 491 23 s trigger\$1;
#X obj 930 551 s freq0;
#X obj 940 572 s freq1;
#X obj 951 593 s freq2;
#X obj 930 469 random 700;
#X obj 930 448 t b b b;
#X obj 1008 429 bng 15 250 50 0 empty empty empty 17 7 0 10 -262144
-1 -1;
#X obj 940 490 random 200;
#X obj 951 511 random 500;
#X obj 930 531 unpack f f f;
#X msg 930 426 40 120 80;
#X obj 433 454 s gates0;
#X obj 456 475 s gates1;
#X obj 482 496 s gates2;
#X msg 409 417 0 0 0;
#X msg 384 397 1 1 1;
#X msg 355 374 0 0 1;
#X obj 438 357 sel 0 1 2;
#X obj 194 117 vradio 15 1 0 3 empty empty empty 0 -8 0 10 -262144
-1 -1 1;
#X obj 609 300 sel 0 1 2;
#X obj 287 119 vradio 15 1 0 3 empty empty empty 0 -8 0 10 -262144
-1 -1 1;
#X msg 930 406 500 1000 4000;
#X obj 930 349 sel 0 1 2;
#X obj 367 120 vradio 15 1 0 3 empty empty empty 0 -8 0 10 -262144
-1 -1 1;
#X text 484 102 DELAY;
#X text 503 135 ALL 100;
#X text 503 119 ALL 0;
#X text 503 151 ALL 300;
#X text 366 104 FREQ;
#X text 503 166 MIXED;
#X text 384 121 40 120 80;
#X text 384 136 500 1000 4000;
#X text 384 152 RANDOM;
#X text 286 102 TAPS;
#X text 304 119 ZEROES;
#X text 304 135 LINEAR;
#X text 304 150 RANDOM;
#X text 192 102 GATES;
#X text 211 133 ALL XOR;
#X text 211 148 ONE XOR;
#X text 103 102 TOPOLOGY;
#X obj 1082 541 s delay1;
#X obj 1123 520 s delay2;
#X obj 80 3 loadbang;
#X obj 234 69 unpack f f f f f;
#X msg 234 37 0 0 0 0 0;
#X obj 178 9 inlet;
#X obj 985 100 hradio 44 1 0 2 empty empty empty 0 -8 0 10 -228856
-1 -1 0;
#X obj 985 144 hradio 44 1 0 2 empty empty empty 0 -8 0 10 -262144
-1 -1 1;
#X obj 1079 98 r~ signal_router0-outlet;
#X obj 1152 128 r~ signal_router1-outlet;
#X obj 1078 160 *~;
#X obj 1114 160 *~;
#X obj 1151 190 *~;
#X obj 1187 190 *~;
#X obj 1052 275 bitwiser;
#X obj 940 111 vradio 33 1 0 2 empty empty empty 0 -8 0 10 -262144
-1 -1 0;
#X obj 700 45 loadbang;
#X obj 1053 306 s~ four_xor_send;
#X obj 873 -28 sel 0 1;
#X obj 953 -43 sel 0 1;
#X msg 896 25 0 1;
#X msg 873 46 1 0;
#X msg 976 26 0 1;
#X msg 953 47 1 0;
#X obj 873 67 unpack f f;
#X obj 953 67 unpack f f;
#X msg 777 70 0;
#X msg 994 208 \; pd dsp \$1;
#X obj 994 191 tgl 15 0 empty empty empty 17 7 0 10 -262144 -1 -1 1
1;
#X text 1012 191 DSP;
#X text 566 102 INLINE ON/OFF;
#X obj 568 119 vradio 15 1 0 4 empty empty empty 0 -8 0 10 -262144
-1 -1 3;
#X text 585 119 ALL OFF;
#X text 585 135 LEFT ON;
#X text 585 151 RIGHT ON;
#X text 585 166 ALL ON;
#X obj 881 296 s xor_inline_onoff;
#X text 671 102 INLINE TAPS;
#X obj 673 119 vradio 15 1 0 4 empty empty empty 0 -8 0 10 -262144
-1 -1 1;
#X obj 872 258 s xor_inline_taps;
#X text 211 118 ALL BYP;
#X text 502 181 ALL 25;
#X text 502 196 ALL 1;
#X obj 1042 336 sel 0 1 2 3 4 5 6;
#X msg 1111 385 25 25 25;
#X msg 1124 362 1 1 1;
#X text 690 135 4 8 9 14;
#X text 690 119 0 9 4 14;
#X obj 766 113 bng 15 250 50 0 empty empty empty 17 7 0 10 -262144
-1 -1;
#X obj 735 316 s trigger0;
#X obj 745 336 s trigger1;
#X obj 755 356 s trigger2;
#X obj 735 296 t b b b;
#X text 783 113 TRIGGER FREQ;
#X obj 766 143 bng 15 250 50 0 empty empty empty 17 7 0 10 -262144
-1 -1;
#X text 783 143 TRIGGER WHEEL;
#X obj 425 266 t b b b;
#X obj 435 306 s trigger1_wheel;
#X obj 445 326 s trigger2_wheel;
#X obj 425 286 s trigger0_wheel;
#X connect 4 0 0 0;
#X connect 4 1 1 0;
#X connect 4 2 2 0;
#X connect 4 3 16 0;
#X connect 5 0 9 0;
#X connect 6 0 10 0;
#X connect 7 0 11 0;
#X connect 9 0 8 0;
#X connect 9 0 8 1;
#X connect 10 0 8 0;
#X connect 10 0 8 1;
#X connect 11 0 8 0;
#X connect 11 0 8 1;
#X connect 12 0 9 1;
#X connect 12 0 10 1;
#X connect 12 0 11 1;
#X connect 12 1 15 1;
#X connect 13 0 12 0;
#X connect 14 0 12 0;
#X connect 15 0 3 0;
#X connect 15 0 3 1;
#X connect 15 0 28 0;
#X connect 16 0 14 0;
#X connect 16 1 13 0;
#X connect 17 0 15 0;
#X connect 18 0 4 0;
#X connect 19 0 4 0;
#X connect 20 0 4 0;
#X connect 21 0 4 0;
#X connect 22 0 27 0;
#X connect 27 0 21 0;
#X connect 27 1 18 0;
#X connect 27 2 19 0;
#X connect 27 3 20 0;
#X connect 30 0 29 0;
#X connect 30 1 100 0;
#X connect 30 2 101 0;
#X connect 31 0 143 0;
#X connect 32 0 30 0;
#X connect 33 0 30 0;
#X connect 34 0 30 0;
#X connect 35 0 30 0;
#X connect 39 0 37 0;
#X connect 39 0 36 0;
#X connect 39 0 38 0;
#X connect 40 0 37 0;
#X connect 40 0 36 0;
#X connect 40 0 38 0;
#X connect 41 0 57 0;
#X connect 42 0 37 0;
#X connect 43 0 42 3;
#X connect 44 0 42 2;
#X connect 45 0 42 1;
#X connect 46 0 42 0;
#X connect 47 0 36 0;
#X connect 48 0 47 3;
#X connect 49 0 47 2;
#X connect 50 0 47 1;
#X connect 51 0 47 0;
#X connect 52 0 38 0;
#X connect 53 0 52 3;
#X connect 54 0 52 2;
#X connect 55 0 52 1;
#X connect 56 0 52 0;
#X connect 57 0 46 0;
#X connect 57 1 45 0;
#X connect 57 2 44 0;
#X connect 57 3 43 0;
#X connect 57 4 51 0;
#X connect 57 5 50 0;
#X connect 57 6 49 0;
#X connect 57 7 48 0;
#X connect 57 8 56 0;
#X connect 57 9 55 0;
#X connect 57 10 54 0;
#X connect 57 11 53 0;
#X connect 63 0 60 0;
#X connect 64 0 63 0;
#X connect 64 1 66 0;
#X connect 64 2 67 0;
#X connect 65 0 64 0;
#X connect 66 0 61 0;
#X connect 67 0 62 0;
#X connect 68 0 60 0;
#X connect 68 1 61 0;
#X connect 68 2 62 0;
#X connect 69 0 68 0;
#X connect 73 0 70 0;
#X connect 73 0 71 0;
#X connect 73 0 72 0;
#X connect 74 0 70 0;
#X connect 74 0 71 0;
#X connect 74 0 72 0;
#X connect 75 0 70 0;
#X connect 75 0 71 0;
#X connect 75 0 72 0;
#X connect 76 0 73 0;
#X connect 76 1 74 0;
#X connect 76 2 75 0;
#X connect 77 0 76 0;
#X connect 78 0 39 0;
#X connect 78 1 40 0;
#X connect 78 2 41 0;
#X connect 79 0 78 0;
#X connect 80 0 68 0;
#X connect 81 0 69 0;
#X connect 81 1 80 0;
#X connect 81 2 65 0;
#X connect 82 0 81 0;
#X connect 103 0 22 0;
#X connect 103 1 77 0;
#X connect 103 2 79 0;
#X connect 103 3 82 0;
#X connect 103 4 31 0;
#X connect 104 0 103 0;
#X connect 105 0 104 0;
#X connect 106 0 118 0;
#X connect 107 0 119 0;
#X connect 108 0 110 0;
#X connect 108 0 111 0;
#X connect 109 0 112 0;
#X connect 109 0 113 0;
#X connect 110 0 114 1;
#X connect 111 0 114 2;
#X connect 112 0 114 1;
#X connect 113 0 114 2;
#X connect 114 0 117 0;
#X connect 115 0 114 0;
#X connect 116 0 126 0;
#X connect 118 0 121 0;
#X connect 118 1 120 0;
#X connect 119 0 123 0;
#X connect 119 1 122 0;
#X connect 120 0 124 0;
#X connect 121 0 124 0;
#X connect 122 0 125 0;
#X connect 123 0 125 0;
#X connect 124 0 110 1;
#X connect 124 1 112 1;
#X connect 125 0 111 1;
#X connect 125 1 113 1;
#X connect 126 0 106 0;
#X connect 126 0 115 0;
#X connect 126 0 107 0;
#X connect 128 0 127 0;
#X connect 131 0 136 0;
#X connect 138 0 139 0;
#X connect 143 0 32 0;
#X connect 143 1 33 0;
#X connect 143 2 34 0;
#X connect 143 3 35 0;
#X connect 143 4 144 0;
#X connect 143 5 145 0;
#X connect 144 0 30 0;
#X connect 145 0 30 0;
#X connect 148 0 152 0;
#X connect 152 0 149 0;
#X connect 152 1 150 0;
#X connect 152 2 151 0;
#X connect 154 0 156 0;
#X connect 156 0 159 0;
#X connect 156 1 157 0;
#X connect 156 2 158 0;
#X coords 0 -1 1 1 973 150 2 100 100;
