#N canvas 51 233 1288 528 10;
#X obj 490 253 r ctl-42;
#X obj 348 253 r ctl-43;
#X obj 419 253 r ctl-44;
#X obj 632 253 r ctl-45;
#X obj 978 10 r ctl-46;
#X obj 17 165 r ctl-58;
#X obj 141 172 r ctl-59;
#X obj 413 15 r ctl-60;
#X obj 807 10 r ctl-61;
#X obj 205 15 r ctl-62;
#X obj 978 66 s cyclebutton;
#X obj 413 71 s setbutton;
#X obj 807 66 s markerbackbutton;
#X obj 205 71 s markerforwardbutton;
#X obj 17 193 sel 127;
#X obj 141 203 sel 127;
#X obj 205 92 r markerforwardbutton;
#X obj 978 87 r cyclebutton;
#X obj 978 115 s walker-preset-confirm;
#X obj 413 92 r setbutton;
#X obj 807 115 s rhythmer-presets-zero;
#X obj 205 120 s rhythmer-presets-increment;
#X obj 413 120 s rhythmer-presets-confirm;
#X msg 807 38 sel 127;
#X obj 205 43 sel 127;
#X obj 978 38 sel 127;
#X obj 413 43 sel 127;
#X obj 807 87 r markerbackbutton;
#X obj 561 253 r ctl-41;
#X obj 394 301 sel 127;
#X obj 465 301 sel 127;
#X obj 607 301 sel 127;
#X obj 536 301 sel 127;
#X obj 323 301 sel 127;
#X obj 323 329 bng 15 250 50 0 empty empty empty 17 7 0 10 -262144
-1 -1;
#X msg 323 355 0;
#X obj 394 329 bng 15 250 50 0 empty empty empty 17 7 0 10 -262144
-1 -1;
#X msg 394 355 1;
#X obj 465 329 bng 15 250 50 0 empty empty empty 17 7 0 10 -262144
-1 -1;
#X msg 465 355 2;
#X obj 536 329 bng 15 250 50 0 empty empty empty 17 7 0 10 -262144
-1 -1;
#X msg 536 355 3;
#X obj 607 329 bng 15 250 50 0 empty empty empty 17 7 0 10 -262144
-1 -1;
#X msg 607 355 4;
#X obj 72 121 r fromconverter;
#X obj 659 61 Converter;
#X obj 47 291 Gate;
#X obj 117 304 Gate;
#X obj 47 238 tgl 15 0 empty empty empty 17 7 0 10 -262144 -1 -1 1
1;
#X obj 117 263 tgl 15 0 empty empty empty 17 7 0 10 -262144 -1 -1 0
1;
#X obj 46 27 loadbang;
#X obj 47 262 + 1;
#X obj 117 283 + 1;
#X msg 47 49 0;
#X msg 117 44 1;
#X obj 323 279 Gate;
#X obj 394 279 Gate;
#X obj 465 279 Gate;
#X obj 536 279 Gate;
#X obj 607 279 Gate;
#X obj 900 274 r ctl-42;
#X obj 758 274 r ctl-43;
#X obj 829 274 r ctl-44;
#X obj 1042 274 r ctl-45;
#X obj 971 274 r ctl-41;
#X obj 804 322 sel 127;
#X obj 875 322 sel 127;
#X obj 1017 322 sel 127;
#X obj 946 322 sel 127;
#X obj 733 322 sel 127;
#X obj 733 350 bng 15 250 50 0 empty empty empty 17 7 0 10 -262144
-1 -1;
#X msg 733 376 0;
#X obj 804 350 bng 15 250 50 0 empty empty empty 17 7 0 10 -262144
-1 -1;
#X msg 804 376 1;
#X obj 875 350 bng 15 250 50 0 empty empty empty 17 7 0 10 -262144
-1 -1;
#X msg 875 376 2;
#X obj 946 350 bng 15 250 50 0 empty empty empty 17 7 0 10 -262144
-1 -1;
#X msg 946 376 3;
#X obj 1017 350 bng 15 250 50 0 empty empty empty 17 7 0 10 -262144
-1 -1;
#X msg 1017 376 4;
#X obj 793 424 Gate5, f 10;
#X obj 733 300 Gate;
#X obj 804 300 Gate;
#X obj 875 300 Gate;
#X obj 946 300 Gate;
#X obj 1017 300 Gate;
#X obj 399 472 s pads012-1;
#X obj 383 492 s pads012-0;
#X obj 416 452 s pads012-2;
#X obj 433 432 s pads012-3;
#X obj 450 412 s pads012-4;
#X obj 793 526 s pads345-0;
#X obj 809 506 s pads345-1;
#X obj 826 486 s pads345-2;
#X obj 843 466 s pads345-3;
#X obj 860 446 s pads345-4;
#X floatatom 981 462 5 0 0 0 - - -, f 5;
#X obj 383 385 Gate5, f 10;
#X floatatom 193 393 5 0 0 0 - - -, f 5;
#X floatatom 51 383 5 0 0 0 - - -, f 5;
#X connect 0 0 57 1;
#X connect 1 0 55 1;
#X connect 2 0 56 1;
#X connect 3 0 59 1;
#X connect 4 0 25 0;
#X connect 5 0 14 0;
#X connect 6 0 15 0;
#X connect 7 0 26 0;
#X connect 8 0 23 0;
#X connect 9 0 24 0;
#X connect 14 0 48 0;
#X connect 15 0 49 0;
#X connect 16 0 21 0;
#X connect 17 0 18 0;
#X connect 19 0 22 0;
#X connect 23 0 12 0;
#X connect 24 0 13 0;
#X connect 25 0 10 0;
#X connect 26 0 11 0;
#X connect 27 0 20 0;
#X connect 28 0 58 1;
#X connect 29 0 36 0;
#X connect 30 0 38 0;
#X connect 31 0 42 0;
#X connect 32 0 40 0;
#X connect 33 0 34 0;
#X connect 34 0 35 0;
#X connect 35 0 97 1;
#X connect 36 0 37 0;
#X connect 37 0 97 1;
#X connect 38 0 39 0;
#X connect 39 0 97 1;
#X connect 40 0 41 0;
#X connect 41 0 97 1;
#X connect 42 0 43 0;
#X connect 43 0 97 1;
#X connect 44 0 46 1;
#X connect 44 0 47 1;
#X connect 46 0 97 0;
#X connect 46 0 99 0;
#X connect 47 0 80 0;
#X connect 47 0 98 0;
#X connect 48 0 51 0;
#X connect 49 0 52 0;
#X connect 50 0 53 0;
#X connect 50 0 54 0;
#X connect 51 0 46 0;
#X connect 51 0 55 0;
#X connect 51 0 56 0;
#X connect 51 0 57 0;
#X connect 51 0 58 0;
#X connect 51 0 59 0;
#X connect 52 0 47 0;
#X connect 52 0 81 0;
#X connect 52 0 82 0;
#X connect 52 0 83 0;
#X connect 52 0 84 0;
#X connect 52 0 85 0;
#X connect 53 0 48 0;
#X connect 54 0 49 0;
#X connect 55 0 33 0;
#X connect 56 0 29 0;
#X connect 57 0 30 0;
#X connect 58 0 32 0;
#X connect 59 0 31 0;
#X connect 60 0 83 1;
#X connect 61 0 81 1;
#X connect 62 0 82 1;
#X connect 63 0 85 1;
#X connect 64 0 84 1;
#X connect 65 0 72 0;
#X connect 66 0 74 0;
#X connect 67 0 78 0;
#X connect 68 0 76 0;
#X connect 69 0 70 0;
#X connect 70 0 71 0;
#X connect 71 0 80 1;
#X connect 72 0 73 0;
#X connect 73 0 80 1;
#X connect 74 0 75 0;
#X connect 75 0 80 1;
#X connect 76 0 77 0;
#X connect 77 0 80 1;
#X connect 78 0 79 0;
#X connect 79 0 80 1;
#X connect 80 0 91 0;
#X connect 80 1 92 0;
#X connect 80 2 93 0;
#X connect 80 2 96 0;
#X connect 80 3 94 0;
#X connect 80 4 95 0;
#X connect 81 0 69 0;
#X connect 82 0 65 0;
#X connect 83 0 66 0;
#X connect 84 0 68 0;
#X connect 85 0 67 0;
#X connect 97 0 87 0;
#X connect 97 1 86 0;
#X connect 97 2 88 0;
#X connect 97 3 89 0;
#X connect 97 4 90 0;
