#N canvas 43 163 1323 585 10;
#X obj 10 229 unpack f f f f;
#X obj 87 530 *~;
#X msg 14 207 2 2 2 0;
#X msg 71 187 1 1 0 1;
#X msg 76 206 3 3 0 1;
#X msg 9 188 0 0 0 0;
#X obj 304 113 vradio 12 1 0 4 empty empty empty 0 -8 0 10 -262144
-1 -1 3;
#X obj 8 165 sel 0 1 2 3;
#X obj 723 442 unpack f f f;
#X obj 624 113 vradio 12 1 0 6 empty empty empty 0 -8 0 10 -262144
-1 -1 4;
#X msg 723 416 0 0 0;
#X msg 741 395 100 100 100;
#X msg 760 374 300 300 300;
#X msg 778 353 101 211 331;
#X msg 302 280 32 32 32 32;
#X msg 303 259 7 15 23 31;
#X obj 343 403 pack f f f f;
#X obj 389 322 random 32;
#X obj 374 342 random 32;
#X obj 358 362 random 32;
#X obj 343 382 random 32;
#X obj 377 506 pack f f f f;
#X obj 452 424 random 32;
#X obj 436 444 random 32;
#X obj 421 464 random 32;
#X obj 404 484 random 32;
#X obj 468 403 pack f f f f;
#X obj 515 322 random 32;
#X obj 499 342 random 32;
#X obj 483 362 random 32;
#X obj 468 382 random 32;
#X obj 343 301 t b b b b b b b b b b b b;
#X obj 601 384 random 700;
#X obj 601 363 t b b b;
#X obj 679 388 bng 15 250 50 0 empty empty empty 17 7 0 10 -262144
-1 -1;
#X obj 611 405 random 200;
#X obj 622 426 random 500;
#X obj 601 446 unpack f f f;
#X msg 601 341 40 120 80;
#X msg 236 313 0 0 0;
#X msg 211 293 1 1 1;
#X msg 182 270 0 0 1;
#X obj 214 253 sel 0 1 2;
#X obj 304 175 vradio 12 1 0 3 empty empty empty 0 -8 0 10 -262144
-1 -1 2;
#X obj 303 238 sel 0 1 2;
#X obj 383 183 vradio 13 1 0 3 empty empty empty 0 -8 0 10 -262144
-1 -1 1;
#X msg 601 321 500 1000 4000;
#X obj 601 299 sel 0 1 2;
#X obj 457 183 vradio 13 1 0 3 empty empty empty 0 -8 0 10 -262144
-1 -1 2;
#X text 622 99 DELAY;
#X text 456 169 FREQ;
#X text 378 169 TAPS;
#X text 301 161 GATES;
#X text 302 99 TOPOLOGY;
#X obj 369 26 inlet;
#X obj 870 100 hradio 24 1 0 2 empty empty empty 0 -8 0 10 -228856
-1 -1 0;
#X obj 870 124 hradio 24 1 0 2 empty empty empty 0 -8 0 10 -262144
-1 -1 0;
#X obj 1034 398 *~;
#X obj 1070 398 *~;
#X obj 1107 428 *~;
#X obj 1143 428 *~;
#X obj 1008 513 bitwiser;
#X obj 846 100 vradio 24 1 0 2 empty empty empty 0 -8 0 10 -262144
-1 -1 0;
#X obj 839 35 loadbang;
#X obj 1052 124 sel 0 1;
#X obj 1132 148 sel 0 1;
#X msg 1075 177 0 1;
#X msg 1052 198 1 0;
#X msg 1155 217 0 1;
#X msg 1132 238 1 0;
#X obj 1052 219 unpack f f;
#X obj 1132 258 unpack f f;
#X msg 846 62 0;
#X obj 463 114 vradio 13 1 0 4 empty empty empty 0 -8 0 10 -262144
-1 -1 3;
#X text 536 100 INLINE TAPS;
#X obj 537 114 vradio 13 1 0 2 empty empty empty 0 -8 0 10 -262144
-1 -1 1;
#X obj 723 282 sel 0 1 2 3 4 5 6;
#X msg 792 331 25 25 25;
#X msg 805 308 1 1 1;
#X obj 10 292 s topology\$1;
#X obj 41 271 s topology\$2;
#X obj 73 252 s topology\$3;
#X obj 88 560 throw~ reg\$1-inlet;
#X obj 141 293 s gates\$1;
#X obj 164 314 s gates\$2;
#X obj 190 335 s gates\$3;
#X obj 295 424 s tap_indices\$1;
#X obj 306 443 s tap_indices\$2;
#X obj 315 462 s tap_indices\$3;
#X obj 601 466 s freq\$1;
#X obj 611 487 s freq\$2;
#X obj 622 508 s freq\$3;
#X obj 723 508 s delay\$1;
#X obj 763 487 s delay\$2;
#X obj 804 466 s delay\$3;
#X obj 537 237 s xor_inline_taps\$1\$2\$3;
#X obj 463 267 s xor_inline_onoff\$1\$2\$3;
#X obj 1034 320 r~ signal_router\$1\$2\$3-0-outlet;
#X obj 1077 357 r~ signal_router\$1\$2\$3-1-outlet;
#X obj 381 115 vradio 13 1 0 4 empty empty empty 0 -8 0 10 -262144
-1 -1 3;
#X obj 141 167 s stereochoice\$1\$2\$3;
#X text 382 99 STEREO;
#X text 400 183 ZEROES \; LINEAR \; RANDOM;
#X text 399 114 OFF \; 3 STER \; 3 MONO \; 1 MONO;
#X text 474 184 4 12 8 \; 5 10 40 \; RANDOM;
#X text 480 114 OFF \; LEFT \; RIGHT \; ALL;
#X text 462 100 INLINE;
#X text 554 114 0 9 4 14 \; 4 8 9 14;
#X obj 288 16 loadbang;
#X obj 369 68 unpack f f f f f f f f f;
#X msg 369 47 3 2 1 2 4 3 3 3 1;
#X text 317 112 0 0 0 0;
#X text 317 124 2 2 2 2;
#X text 317 136 1 1 0 1;
#X text 317 148 3 3 0 1;
#X text 317 174 ALL BYP;
#X text 317 186 ALL XOR;
#X text 317 198 ONE XOR;
#X text 637 112 ALL 0;
#X text 637 124 ALL 100;
#X text 637 136 ALL 300;
#X text 637 148 MIXED;
#X text 637 160 ALL 25;
#X text 637 172 ALL 1;
#X connect 0 0 79 0;
#X connect 0 1 80 0;
#X connect 0 2 81 0;
#X connect 0 3 1 1;
#X connect 1 0 82 0;
#X connect 2 0 0 0;
#X connect 3 0 0 0;
#X connect 4 0 0 0;
#X connect 5 0 0 0;
#X connect 6 0 7 0;
#X connect 7 0 5 0;
#X connect 7 1 2 0;
#X connect 7 2 3 0;
#X connect 7 3 4 0;
#X connect 8 0 92 0;
#X connect 8 1 93 0;
#X connect 8 2 94 0;
#X connect 9 0 76 0;
#X connect 10 0 8 0;
#X connect 11 0 8 0;
#X connect 12 0 8 0;
#X connect 13 0 8 0;
#X connect 14 0 86 0;
#X connect 14 0 87 0;
#X connect 14 0 88 0;
#X connect 15 0 86 0;
#X connect 15 0 87 0;
#X connect 15 0 88 0;
#X connect 16 0 86 0;
#X connect 17 0 16 3;
#X connect 18 0 16 2;
#X connect 19 0 16 1;
#X connect 20 0 16 0;
#X connect 21 0 87 0;
#X connect 22 0 21 3;
#X connect 23 0 21 2;
#X connect 24 0 21 1;
#X connect 25 0 21 0;
#X connect 26 0 88 0;
#X connect 27 0 26 3;
#X connect 28 0 26 2;
#X connect 29 0 26 1;
#X connect 30 0 26 0;
#X connect 31 0 20 0;
#X connect 31 1 19 0;
#X connect 31 2 18 0;
#X connect 31 3 17 0;
#X connect 31 4 25 0;
#X connect 31 5 24 0;
#X connect 31 6 23 0;
#X connect 31 7 22 0;
#X connect 31 8 30 0;
#X connect 31 9 29 0;
#X connect 31 10 28 0;
#X connect 31 11 27 0;
#X connect 32 0 89 0;
#X connect 33 0 32 0;
#X connect 33 1 35 0;
#X connect 33 2 36 0;
#X connect 34 0 33 0;
#X connect 35 0 90 0;
#X connect 36 0 91 0;
#X connect 37 0 89 0;
#X connect 37 1 90 0;
#X connect 37 2 91 0;
#X connect 38 0 37 0;
#X connect 39 0 83 0;
#X connect 39 0 84 0;
#X connect 39 0 85 0;
#X connect 40 0 83 0;
#X connect 40 0 84 0;
#X connect 40 0 85 0;
#X connect 41 0 83 0;
#X connect 41 0 84 0;
#X connect 41 0 85 0;
#X connect 42 0 39 0;
#X connect 42 1 40 0;
#X connect 42 2 41 0;
#X connect 43 0 42 0;
#X connect 44 0 14 0;
#X connect 44 1 15 0;
#X connect 44 2 31 0;
#X connect 45 0 44 0;
#X connect 46 0 37 0;
#X connect 47 0 38 0;
#X connect 47 1 46 0;
#X connect 47 2 34 0;
#X connect 48 0 47 0;
#X connect 54 0 110 0;
#X connect 55 0 64 0;
#X connect 56 0 65 0;
#X connect 57 0 61 1;
#X connect 58 0 61 2;
#X connect 59 0 61 1;
#X connect 60 0 61 2;
#X connect 61 0 1 0;
#X connect 62 0 61 0;
#X connect 63 0 72 0;
#X connect 64 0 67 0;
#X connect 64 1 66 0;
#X connect 65 0 69 0;
#X connect 65 1 68 0;
#X connect 66 0 70 0;
#X connect 67 0 70 0;
#X connect 68 0 71 0;
#X connect 69 0 71 0;
#X connect 70 0 57 1;
#X connect 70 1 59 1;
#X connect 71 0 58 1;
#X connect 71 1 60 1;
#X connect 72 0 55 0;
#X connect 72 0 62 0;
#X connect 72 0 56 0;
#X connect 73 0 96 0;
#X connect 75 0 95 0;
#X connect 76 0 10 0;
#X connect 76 1 11 0;
#X connect 76 2 12 0;
#X connect 76 3 13 0;
#X connect 76 4 77 0;
#X connect 76 5 78 0;
#X connect 77 0 8 0;
#X connect 78 0 8 0;
#X connect 97 0 57 0;
#X connect 97 0 58 0;
#X connect 98 0 59 0;
#X connect 98 0 60 0;
#X connect 99 0 100 0;
#X connect 108 0 110 0;
#X connect 109 0 6 0;
#X connect 109 1 43 0;
#X connect 109 2 45 0;
#X connect 109 3 48 0;
#X connect 109 4 9 0;
#X connect 109 6 99 0;
#X connect 109 7 73 0;
#X connect 109 8 75 0;
#X connect 110 0 109 0;
#X coords 0 -1 1 1 618 124 2 300 100;
