#N canvas 143 258 809 375 10;
#X obj 151 61 ctlin;
#X floatatom 151 124 5 0 0 0 - - -, f 5;
#X obj 197 219 s;
#X floatatom 215 124 5 0 0 0 - - -, f 5;
#X msg 215 174 symbol ctl-\$1;
#X obj 311 292 Controller-Side;
#X obj 482 38 Fader 0 16 32 48 64;
#X obj 151 174 route 0;
#X obj 482 66 Fader 1 17 33 49 65;
#X obj 482 94 Fader 2 18 34 50 66;
#X obj 482 122 Fader 3 19 35 51 67;
#X obj 482 150 Fader 4 20 36 52 68;
#X obj 482 178 Fader 5 21 37 53 69;
#X obj 482 206 Fader 6 22 38 54 70;
#X obj 482 234 Fader 7 23 39 55 71;
#X connect 0 0 1 0;
#X connect 0 1 3 0;
#X connect 1 0 7 0;
#X connect 3 0 4 0;
#X connect 4 0 2 1;
#X connect 7 1 2 0;
