#N canvas 65 133 1227 635 10;
#X obj 86 440 *~;
#X obj 203 114 vradio 12 1 0 4 empty empty empty 0 -8 0 10 -262144
-1 -1 3;
#X obj 23 22 sel 0 1 2 3;
#X obj 256 579 unpack f f f;
#X obj 624 114 vradio 12 1 0 5 empty empty empty 0 -8 0 10 -262144
-1 -1 1;
#X msg 23 337 0 0 0;
#X msg 43 315 1 1 1;
#X msg 63 295 0 0 1;
#X obj 23 272 sel 0 1 2;
#X obj 270 115 vradio 12 1 0 3 empty empty empty 0 -8 0 10 -262144
-1 -1 0;
#X text 622 100 DELAY;
#X text 201 100 TOPOLOGY;
#X obj 706 445 inlet;
#X obj 770 100 hradio 24 1 0 2 empty empty empty 0 -8 0 10 -228856
-1 -1 0;
#X obj 770 124 hradio 24 1 0 2 empty empty empty 0 -8 0 10 -262144
-1 -1 1;
#X obj 854 368 *~;
#X obj 890 368 *~;
#X obj 927 388 *~;
#X obj 963 388 *~;
#X obj 828 423 bitwiser;
#X obj 746 100 vradio 24 1 0 2 empty empty empty 0 -8 0 10 -262144
-1 -1 1;
#X obj 872 124 sel 0 1;
#X obj 952 148 sel 0 1;
#X msg 895 177 0 1;
#X msg 872 198 1 0;
#X msg 975 217 0 1;
#X msg 952 238 1 0;
#X obj 872 219 unpack f f;
#X obj 952 258 unpack f f;
#X obj 331 114 vradio 13 1 0 4 empty empty empty 0 -8 0 10 -262144
-1 -1 0;
#X obj 549 114 vradio 13 1 0 5 empty empty empty 0 -8 0 10 -262144
-1 -1 0;
#X obj 23 196 s topology\$1;
#X obj 50 177 s topology\$2;
#X obj 77 158 s topology\$3;
#X obj 87 470 throw~ reg\$1-inlet;
#X obj 23 413 s gates\$1;
#X obj 63 394 s gates\$2;
#X obj 104 375 s gates\$3;
#X obj 256 636 s delay\$1;
#X obj 296 617 s delay\$2;
#X obj 337 598 s delay\$3;
#X obj 445 641 s xor_inline_taps\$1\$2\$3;
#X obj 331 329 s xor_inline_onoff\$1\$2\$3;
#X obj 854 338 r~ signal_router\$1\$2\$3-0-outlet;
#X obj 927 357 r~ signal_router\$1\$2\$3-1-outlet;
#X text 345 112 OFF \; LEFT \; RIGHT \; ALL;
#X obj 747 445 loadbang;
#X text 216 113 OFF;
#X text 216 125 3;
#X text 216 137 1;
#X text 216 149 1+;
#X text 283 113 BYP;
#X text 283 125 XOR;
#X text 283 137 1 XOR;
#X msg 326 484 12 19 0;
#X text 637 162 12 19 0;
#X text 696 100 STEREO;
#X obj 697 114 vradio 12 1 0 4 empty empty empty 0 -8 0 10 -262144
-1 -1 3;
#X text 710 113 OFF;
#X text 710 125 3 ST;
#X text 710 137 3 M;
#X text 710 149 1 M;
#X obj 697 272 s stereochoice\$1\$2\$3;
#X obj 23 120 unpack f f f f f;
#X msg 23 100 0 0 0 0 0;
#X msg 41 81 2 2 2 0 1;
#X msg 60 62 1 1 0 1 3;
#X msg 78 43 3 3 0 1 3;
#X obj 925 83 unpack f f f;
#X msg 925 64 0 0 0;
#X msg 962 54 0 1 1;
#X obj 403 115 vradio 12 1 0 4 empty empty empty 0 -8 0 10 -262144
-1 -1 2;
#X text 330 100 GATES 2;
#X text 401 100 GATES 1;
#X text 269 100 GATES 3;
#X text 417 113 LEFT;
#X text 416 125 RIGHT;
#X text 416 137 XOR;
#X msg 943 59 1 0 0;
#X text 637 113 1s;
#X text 637 125 3 \, 25;
#X text 637 137 30;
#X msg 273 541 3 25 0;
#X msg 291 522 30 30 30;
#X obj 256 465 sel 0 1 2 3 4;
#X obj 23 356 unpack f f f;
#X msg 493 565 6 0 11 0;
#X text 548 100 TAPS 2;
#X obj 1079 39 unpack f f f;
#X obj 1079 96 s freqtime\$1;
#X obj 1119 77 s freqtime\$2;
#X obj 1160 58 s freqtime\$3;
#X msg 1079 20 10 20 30;
#X obj 1079 2 bng 15 250 50 0 empty empty empty 17 7 0 10 -262144 -1
-1;
#X obj 1092 277 unpack f f f;
#X obj 1092 296 s freq\$1;
#X obj 1132 315 s freq\$2;
#X obj 1173 334 s freq\$3;
#X msg 1092 258 191 293 477;
#X obj 1091 240 bng 15 250 50 0 empty empty empty 17 7 0 10 -262144
-1 -1;
#X obj 1078 168 unpack f f f;
#X msg 1078 149 191 293 477;
#X obj 1078 187 s wheel\$1;
#X obj 1118 206 s wheel\$2;
#X obj 1159 225 s wheel\$3;
#X obj 1078 131 bng 15 250 50 0 empty empty empty 17 7 0 10 -262144
-1 -1;
#X msg 445 622 0 0 5 0;
#X msg 461 603 0 0 10 0;
#X msg 477 584 0 5 0 10;
#X msg 510 546 0 5 6 10;
#X text 637 149 Sh/Long;
#X msg 308 503 20 100 0;
#X msg 526 527 5 0 10 0;
#X obj 925 25 sel 0 1 2 3;
#X msg 980 44 0 0 1;
#X text 416 150 NULL;
#X text 563 114 0 4;
#X text 563 127 0 8;
#X text 563 139 0 4 8;
#X text 563 153 0 1 4;
#X text 563 166 0 5 4 8;
#X obj 445 413 sel 0 1 2 3 4 5 6 7 8 9 10;
#X msg 558 489 0 0 10 0;
#X msg 575 470 0 5 10 0;
#X msg 591 451 0 1 5 0;
#X msg 607 432 0 6 5 10;
#X msg 542 508 5 0 10 0;
#X obj 203 367 s topology\$1\$2\$3-send;
#X obj 203 1 r topology\$1\$2\$3-receive;
#X obj 23 3 r topology\$1\$2\$3-send;
#X obj 270 348 s gates3\$1\$2\$3-send;
#X obj 23 253 r gates3\$1\$2\$3-send;
#X obj 270 20 r gates3\$1\$2\$3-receive;
#X obj 697 72 r stereochoice\$1\$2\$3-receive;
#X obj 403 310 s gates1\$1\$2\$3-send;
#X obj 457 291 s taps3\$1\$2\$3-send;
#X obj 549 272 s taps2\$1\$2\$3-send;
#X obj 624 291 s delay\$1\$2\$3-send;
#X obj -12 215 s stereochoice\$1\$2\$3-receive;
#X obj 445 394 r taps2\$1\$2\$3-send;
#X obj 331 39 r gates2\$1\$2\$3-receive;
#X obj 403 58 r gates1\$1\$2\$3-receive;
#X obj 549 34 r taps2\$1\$2\$3-receive;
#X obj 457 100 threetaps \$1 \$2 \$3;
#X obj 925 6 r gates1\$1\$2\$3-send;
#X obj 1055 386 + 5;
#X msg 1041 424 3;
#X msg 1009 424 2;
#X obj 1041 462 s gates1\$1\$2\$3-receive;
#X obj 706 635 s topology\$1\$2\$3-receive;
#X obj 727 616 s gates3\$1\$2\$3-receive;
#X obj 749 597 s gates2\$1\$2\$3-receive;
#X obj 770 578 s gates1\$1\$2\$3-receive;
#X obj 813 540 s taps2\$1\$2\$3-receive;
#X obj 857 502 s stereochoice\$1\$2\$3-receive;
#X obj 624 53 r delay\$1\$2\$3-receive;
#X obj 706 483 unpack f f f f f f f f;
#X obj 835 521 s delay\$1\$2\$3-receive;
#X msg 706 464 3 0 0 2 0 0 1 3;
#X obj 1009 481 s trigger0_wheel;
#X obj 1009 405 del 100;
#X obj 457 -5 r taps3\$1\$2\$3-receive;
#X obj 537 14 r tapsettings\$1\$2\$3;
#X obj 792 559 s taps3\$1\$2\$3-receive;
#X obj 1009 386 t b b;
#X obj 1009 443 t b f;
#X obj 256 446 r delay\$1\$2\$3-send;
#X msg 256 560 1 1 1;
#X text 217 167 inject 1 \; inject 16 1s \; inject 16 random \; 3 1s
\; 2 1s and a 16 random \; 3 randoms \;;
#X obj 203 168 vradio 13 1 0 6 empty empty empty 0 -8 0 10 -262144
-1 -1 0;
#X obj 223 260 triggerer \$1 \$2 \$3;
#X connect 0 0 34 0;
#X connect 1 0 127 0;
#X connect 2 0 64 0;
#X connect 2 1 65 0;
#X connect 2 2 66 0;
#X connect 2 3 67 0;
#X connect 3 0 38 0;
#X connect 3 1 39 0;
#X connect 3 2 40 0;
#X connect 4 0 137 0;
#X connect 5 0 85 0;
#X connect 6 0 85 0;
#X connect 7 0 85 0;
#X connect 8 0 5 0;
#X connect 8 1 6 0;
#X connect 8 2 7 0;
#X connect 9 0 130 0;
#X connect 12 0 158 0;
#X connect 13 0 21 0;
#X connect 14 0 22 0;
#X connect 15 0 19 1;
#X connect 16 0 19 2;
#X connect 17 0 19 1;
#X connect 18 0 19 2;
#X connect 19 0 0 0;
#X connect 20 0 19 0;
#X connect 21 0 24 0;
#X connect 21 1 23 0;
#X connect 22 0 26 0;
#X connect 22 1 25 0;
#X connect 23 0 27 0;
#X connect 24 0 27 0;
#X connect 25 0 28 0;
#X connect 26 0 28 0;
#X connect 27 0 15 1;
#X connect 27 1 17 1;
#X connect 28 0 16 1;
#X connect 28 1 18 1;
#X connect 29 0 42 0;
#X connect 30 0 136 0;
#X connect 43 0 15 0;
#X connect 43 0 16 0;
#X connect 44 0 17 0;
#X connect 44 0 18 0;
#X connect 46 0 158 0;
#X connect 54 0 3 0;
#X connect 57 0 62 0;
#X connect 63 0 31 0;
#X connect 63 1 32 0;
#X connect 63 2 33 0;
#X connect 63 3 0 1;
#X connect 63 4 138 0;
#X connect 64 0 63 0;
#X connect 65 0 63 0;
#X connect 66 0 63 0;
#X connect 67 0 63 0;
#X connect 68 0 13 0;
#X connect 68 1 14 0;
#X connect 68 2 20 0;
#X connect 69 0 68 0;
#X connect 70 0 68 0;
#X connect 71 0 134 0;
#X connect 78 0 68 0;
#X connect 82 0 3 0;
#X connect 83 0 3 0;
#X connect 84 0 167 0;
#X connect 84 1 82 0;
#X connect 84 2 83 0;
#X connect 84 3 111 0;
#X connect 84 4 54 0;
#X connect 85 0 35 0;
#X connect 85 1 36 0;
#X connect 85 2 37 0;
#X connect 86 0 41 0;
#X connect 88 0 89 0;
#X connect 88 1 90 0;
#X connect 88 2 91 0;
#X connect 92 0 88 0;
#X connect 93 0 92 0;
#X connect 94 0 95 0;
#X connect 94 1 96 0;
#X connect 94 2 97 0;
#X connect 98 0 94 0;
#X connect 99 0 98 0;
#X connect 100 0 102 0;
#X connect 100 1 103 0;
#X connect 100 2 104 0;
#X connect 101 0 100 0;
#X connect 105 0 101 0;
#X connect 106 0 41 0;
#X connect 107 0 41 0;
#X connect 108 0 41 0;
#X connect 109 0 41 0;
#X connect 111 0 3 0;
#X connect 112 0 41 0;
#X connect 113 0 69 0;
#X connect 113 1 78 0;
#X connect 113 2 70 0;
#X connect 113 3 114 0;
#X connect 114 0 68 0;
#X connect 121 0 106 0;
#X connect 121 1 107 0;
#X connect 121 2 108 0;
#X connect 121 3 86 0;
#X connect 121 4 109 0;
#X connect 121 5 112 0;
#X connect 121 6 126 0;
#X connect 121 7 122 0;
#X connect 121 8 123 0;
#X connect 121 9 124 0;
#X connect 121 10 125 0;
#X connect 122 0 41 0;
#X connect 123 0 41 0;
#X connect 124 0 41 0;
#X connect 125 0 41 0;
#X connect 126 0 41 0;
#X connect 128 0 1 0;
#X connect 129 0 2 0;
#X connect 131 0 8 0;
#X connect 132 0 9 0;
#X connect 133 0 57 0;
#X connect 139 0 121 0;
#X connect 140 0 29 0;
#X connect 141 0 71 0;
#X connect 142 0 30 0;
#X connect 143 0 135 0;
#X connect 143 0 30 0;
#X connect 143 0 164 0;
#X connect 144 0 113 0;
#X connect 145 0 160 1;
#X connect 146 0 148 0;
#X connect 147 0 165 0;
#X connect 155 0 4 0;
#X connect 156 0 149 0;
#X connect 156 1 150 0;
#X connect 156 2 151 0;
#X connect 156 3 152 0;
#X connect 156 4 163 0;
#X connect 156 5 153 0;
#X connect 156 6 157 0;
#X connect 156 7 154 0;
#X connect 158 0 156 0;
#X connect 160 0 147 0;
#X connect 161 0 143 0;
#X connect 162 0 143 1;
#X connect 164 0 160 0;
#X connect 164 1 146 0;
#X connect 165 0 159 0;
#X connect 165 1 148 0;
#X connect 166 0 84 0;
#X connect 167 0 3 0;
#X connect 169 0 170 0;
#X coords 0 -1 1 1 618 150 2 200 100;
