#N canvas 169 154 1086 528 10;
#X obj 201 351 r ctl-42;
#X obj 808 47 r ctl-43;
#X obj 201 206 r ctl-44;
#X obj 18 206 r ctl-45;
#X obj 804 206 r ctl-46;
#X obj 427 206 r ctl-58;
#X obj 597 206 r ctl-59;
#X obj 805 351 r ctl-60;
#X obj 427 351 r ctl-61;
#X obj 597 351 r ctl-62;
#X obj 201 407 s stopbutton;
#X obj 808 79 s rewindbutton;
#X obj 201 262 s fastforwardbutton;
#X obj 18 262 s recordbutton;
#X obj 804 262 s cyclebutton;
#X obj 427 262 s trackbackbutton;
#X obj 597 262 s trackforwardbutton;
#X obj 805 407 s setbutton;
#X obj 427 407 s markerbackbutton;
#X obj 597 407 s markerforwardbutton;
#X obj 427 234 sel 127;
#X obj 597 234 sel 127;
#X obj 427 311 s walker-preset-zero;
#X obj 597 311 s walker-preset-increment;
#X obj 427 283 r trackbackbutton;
#X obj 597 283 r trackforwardbutton;
#X obj 597 428 r markerforwardbutton;
#X obj 804 283 r cyclebutton;
#X obj 804 311 s walker-preset-confirm;
#X obj 805 428 r setbutton;
#X obj 427 456 s rhythmer-presets-zero;
#X obj 597 456 s rhythmer-presets-increment;
#X obj 805 456 s rhythmer-presets-confirm;
#X msg 427 379 sel 127;
#X obj 597 379 sel 127;
#X obj 804 234 sel 127;
#X obj 805 379 sel 127;
#X obj 427 428 r markerbackbutton;
#X obj 20 351 r ctl-41;
#X obj 20 407 s playbutton;
#X text 791 64 IN USE: NUMB CONTROLLER;
#X obj 201 283 r fastforwardbutton;
#X obj 201 234 sel 127;
#X obj 201 311 s absolute-relative-receive;
#X obj 201 428 r stopbutton;
#X obj 201 456 s multiplex-controller;
#X obj 201 379 sel 127;
#X obj 20 428 r playbutton;
#X obj 18 311 s reverb-bypass-receive;
#X obj 18 283 r recordbutton;
#X obj 18 234 sel 127;
#X obj 20 379 sel 127;
#X obj 20 456 s dsp-on-off-receive;
#X connect 0 0 46 0;
#X connect 1 0 11 0;
#X connect 2 0 42 0;
#X connect 3 0 50 0;
#X connect 4 0 35 0;
#X connect 5 0 20 0;
#X connect 6 0 21 0;
#X connect 7 0 36 0;
#X connect 8 0 33 0;
#X connect 9 0 34 0;
#X connect 20 0 15 0;
#X connect 21 0 16 0;
#X connect 24 0 22 0;
#X connect 25 0 23 0;
#X connect 26 0 31 0;
#X connect 27 0 28 0;
#X connect 29 0 32 0;
#X connect 33 0 18 0;
#X connect 34 0 19 0;
#X connect 35 0 14 0;
#X connect 36 0 17 0;
#X connect 37 0 30 0;
#X connect 38 0 51 0;
#X connect 41 0 43 0;
#X connect 42 0 12 0;
#X connect 44 0 45 0;
#X connect 46 0 10 0;
#X connect 47 0 52 0;
#X connect 49 0 48 0;
#X connect 50 0 13 0;
#X connect 51 0 39 0;
