#N canvas 73 85 1242 637 10;
#X obj 86 380 *~;
#X obj 278 164 vradio 13 1 0 4 empty empty empty 0 -8 0 10 -262144
-1 -1 3;
#X obj 9 162 sel 0 1 2 3;
#X obj 236 523 unpack f f f;
#X obj 623 164 vradio 13 1 0 5 empty empty empty 0 -8 0 10 -262144
-1 -1 1;
#X msg 51 519 0 0 0;
#X msg 71 497 1 1 1;
#X msg 91 477 0 0 1;
#X obj 51 454 sel 0 1 2;
#X obj 327 165 vradio 13 1 0 3 empty empty empty 0 -8 0 10 -262144
-1 -1 0;
#X text 621 150 DELAY;
#X obj 758 150 hradio 24 1 0 2 empty empty empty 0 -8 0 10 -228856
-1 -1 0;
#X obj 758 174 hradio 24 1 0 2 empty empty empty 0 -8 0 10 -262144
-1 -1 1;
#X obj 854 327 *~;
#X obj 890 327 *~;
#X obj 921 347 *~;
#X obj 957 347 *~;
#X obj 828 363 bitwiser;
#X obj 734 150 vradio 24 1 0 2 empty empty empty 0 -8 0 10 -262144
-1 -1 1;
#X obj 872 174 sel 0 1;
#X obj 952 198 sel 0 1;
#X msg 895 193 0 1;
#X msg 872 214 1 0;
#X msg 975 217 0 1;
#X msg 952 238 1 0;
#X obj 872 235 unpack f f;
#X obj 952 258 unpack f f;
#X obj 379 164 vradio 13 1 0 4 empty empty empty 0 -8 0 10 -262144
-1 -1 0;
#X obj 565 164 vradio 13 1 0 5 empty empty empty 0 -8 0 10 -262144
-1 -1 0;
#X obj 9 336 s topology\$1;
#X obj 40 317 s topology\$2;
#X obj 72 298 s topology\$3;
#X obj 87 410 throw~ reg\$1-inlet;
#X obj 236 580 s delay\$1;
#X obj 276 561 s delay\$2;
#X obj 317 542 s delay\$3;
#X obj 400 600 s xor_inline_taps\$1\$2\$3;
#X obj 379 272 s xor_inline_onoff\$1\$2\$3;
#X obj 854 298 r~ signal_router\$1\$2\$3-0-outlet;
#X obj 921 316 r~ signal_router\$1\$2\$3-1-outlet;
#X msg 306 428 12 19 0;
#X text 686 150 STEREO;
#X obj 687 164 vradio 13 1 0 4 empty empty empty 0 -8 0 10 -262144
-1 -1 3;
#X obj 687 253 s stereochoice\$1\$2\$3;
#X obj 1010 133 unpack f f f;
#X msg 1010 114 0 0 0;
#X msg 1047 76 0 1 1;
#X obj 430 165 vradio 12 1 0 4 empty empty empty 0 -8 0 10 -262144
-1 -1 2;
#X text 428 150 GATES 1;
#X msg 1028 95 1 0 0;
#X msg 253 485 3 25 0;
#X msg 271 466 30 30 30;
#X obj 236 409 sel 0 1 2 3 4;
#X text 564 150 TAPS 2;
#X msg 400 581 0 0 5 0;
#X msg 465 505 0 5 6 10;
#X msg 288 447 20 100 0;
#X msg 481 486 5 0 10 0;
#X obj 1010 38 sel 0 1 2 3;
#X msg 1065 57 0 0 1;
#X obj 400 372 sel 0 1 2 3 4 5 6 7 8 9 10;
#X msg 513 448 0 0 10 0;
#X msg 530 429 0 5 10 0;
#X msg 546 410 0 1 5 0;
#X msg 562 391 0 6 5 10;
#X msg 497 467 5 0 10 0;
#X obj 278 310 s topology\$1\$2\$3-send;
#X obj 278 65 r topology\$1\$2\$3-receive;
#X obj 9 143 r topology\$1\$2\$3-send;
#X obj 327 291 s gates3\$1\$2\$3-send;
#X obj 327 84 r gates3\$1\$2\$3-receive;
#X obj 687 122 r stereochoice\$1\$2\$3-receive;
#X obj 430 253 s gates1\$1\$2\$3-send;
#X obj 493 310 s taps3\$1\$2\$3-send;
#X obj 565 291 s taps2\$1\$2\$3-send;
#X obj 623 272 s delay\$1\$2\$3-send;
#X obj 400 353 r taps2\$1\$2\$3-send;
#X obj 379 103 r gates2\$1\$2\$3-receive;
#X obj 430 122 r gates1\$1\$2\$3-receive;
#X obj 565 84 r taps2\$1\$2\$3-receive;
#X obj 1010 19 r gates1\$1\$2\$3-send;
#X obj 895 600 s topology\$1\$2\$3-receive;
#X obj 914 581 s gates3\$1\$2\$3-receive;
#X obj 933 562 s gates2\$1\$2\$3-receive;
#X obj 952 543 s gates1\$1\$2\$3-receive;
#X obj 991 505 s taps2\$1\$2\$3-receive;
#X obj 1030 467 s stereochoice\$1\$2\$3-receive;
#X obj 623 103 r delay\$1\$2\$3-receive;
#X obj 1010 486 s delay\$1\$2\$3-receive;
#X obj 493 65 r taps3\$1\$2\$3-receive;
#X obj 972 524 s taps3\$1\$2\$3-receive;
#X obj 236 390 r delay\$1\$2\$3-send;
#X msg 236 504 1 1 1;
#X obj 206 164 vradio 13 1 0 6 empty empty empty 0 -8 0 10 -262144
-1 -1 0;
#X obj 206 256 triggerer \$1 \$2 \$3;
#X obj 1068 429 s freqs\$1\$2\$3-receive;
#X obj 1088 410 s freqtimes\$1\$2\$3;
#X text 206 150 WHEEL;
#X obj 493 164 vradio 13 1 0 5 empty empty empty 0 -8 0 10 -262144
-1 -1 0;
#X obj 632 415 sel 0 1 2 3 4;
#X obj 632 357 r taps3\$1\$2\$3-send;
#X text 495 150 TAPS 4;
#X obj 895 391 unpack f f f f f f f f f f f;
#X msg 1049 448 s wheel\$1\$2\$3-receive;
#X obj 206 329 s wheel\$1\$2\$3-send;
#X obj 206 46 r wheel\$1\$2\$3-receive;
#X obj 895 372 inlet presets\$1\$2\$3;
#X msg 416 562 5 0 10 0;
#X msg 432 543 0 0 13 0;
#X msg 448 524 5 0 10 0;
#X obj 632 600 s tap_indices\$1;
#X obj 700 579 s tap_indices\$2;
#X obj 768 558 s tap_indices\$3;
#X msg 632 536 0 0 0 0;
#X msg 700 536 0 0 0 0;
#X msg 768 536 0 0 0 0;
#X msg 632 498 1 2 3 4;
#X msg 700 498 1 2 3 4;
#X msg 768 498 1 2 3 4;
#X msg 632 460 1 2 3 4;
#X msg 700 460 5 6 7 8;
#X msg 768 460 9 10 11 12;
#X text 507 163 ZEROES \; 1234 \; 1-12;
#X obj 632 519 t b b b;
#X obj 632 481 t b b b;
#X obj 632 443 t b b b;
#X obj 51 541 s gates3\$1\$2-topanel;
#X obj 51 435 r gates3\$1\$2\$3-send;
#X obj 51 561 s gates3\$2\$3-topanel;
#X obj 51 581 s gates3\$3\$1-topanel;
#X msg 64 183 3 3 0 1;
#X msg 46 202 1 1 0 1;
#X msg 27 221 2 2 2 0;
#X msg 9 240 0 0 0 0;
#X obj 9 260 unpack f f f f;
#X text 276 150 TOPOS;
#X text 291 163 OFF \; 3 \; 1 \; 1+;
#X text 341 164 BYP \; XOR \; 1XOR;
#X text 326 150 GATES3;
#X text 393 162 OFF \; L \; R \; ALL;
#X text 378 150 GATES2;
#X text 220 163 1 \; 16 \; random \; 3rand \; 2rand \; 3rand \;;
#X text 579 163 0 4 \; 4 8 \; 0 11 \; 5 8 \; 548;
#X text 636 163 1s \; 3 \, 25 \; 30 \; Sh/Lg \; 12190;
#X text 700 163 OFF \; 3ST \; 3M \; 1M;
#X text 442 163 LEFT \; RIGHT \; XOR \; NULL;
#X connect 0 0 32 0;
#X connect 1 0 66 0;
#X connect 2 0 133 0;
#X connect 2 1 132 0;
#X connect 2 2 131 0;
#X connect 2 3 130 0;
#X connect 3 0 33 0;
#X connect 3 1 34 0;
#X connect 3 2 35 0;
#X connect 4 0 75 0;
#X connect 5 0 126 0;
#X connect 5 0 128 0;
#X connect 5 0 129 0;
#X connect 6 0 126 0;
#X connect 6 0 128 0;
#X connect 6 0 129 0;
#X connect 7 0 126 0;
#X connect 7 0 128 0;
#X connect 7 0 129 0;
#X connect 8 0 5 0;
#X connect 8 1 6 0;
#X connect 8 2 7 0;
#X connect 9 0 69 0;
#X connect 11 0 19 0;
#X connect 12 0 20 0;
#X connect 13 0 17 1;
#X connect 14 0 17 2;
#X connect 15 0 17 1;
#X connect 16 0 17 2;
#X connect 17 0 0 0;
#X connect 18 0 17 0;
#X connect 19 0 22 0;
#X connect 19 1 21 0;
#X connect 20 0 24 0;
#X connect 20 1 23 0;
#X connect 21 0 25 0;
#X connect 22 0 25 0;
#X connect 23 0 26 0;
#X connect 24 0 26 0;
#X connect 25 0 13 1;
#X connect 25 1 15 1;
#X connect 26 0 14 1;
#X connect 26 1 16 1;
#X connect 27 0 37 0;
#X connect 28 0 74 0;
#X connect 38 0 13 0;
#X connect 38 0 14 0;
#X connect 39 0 15 0;
#X connect 39 0 16 0;
#X connect 40 0 3 0;
#X connect 42 0 43 0;
#X connect 44 0 11 0;
#X connect 44 1 12 0;
#X connect 44 2 18 0;
#X connect 45 0 44 0;
#X connect 46 0 44 0;
#X connect 47 0 72 0;
#X connect 49 0 44 0;
#X connect 50 0 3 0;
#X connect 51 0 3 0;
#X connect 52 0 92 0;
#X connect 52 1 50 0;
#X connect 52 2 51 0;
#X connect 52 3 56 0;
#X connect 52 4 40 0;
#X connect 54 0 36 0;
#X connect 55 0 36 0;
#X connect 56 0 3 0;
#X connect 57 0 36 0;
#X connect 58 0 45 0;
#X connect 58 1 49 0;
#X connect 58 2 46 0;
#X connect 58 3 59 0;
#X connect 59 0 44 0;
#X connect 60 0 54 0;
#X connect 60 1 107 0;
#X connect 60 2 108 0;
#X connect 60 3 109 0;
#X connect 60 4 55 0;
#X connect 60 5 57 0;
#X connect 60 6 65 0;
#X connect 60 7 61 0;
#X connect 60 8 62 0;
#X connect 60 9 63 0;
#X connect 60 10 64 0;
#X connect 61 0 36 0;
#X connect 62 0 36 0;
#X connect 63 0 36 0;
#X connect 64 0 36 0;
#X connect 65 0 36 0;
#X connect 67 0 1 0;
#X connect 68 0 2 0;
#X connect 70 0 9 0;
#X connect 71 0 42 0;
#X connect 76 0 60 0;
#X connect 77 0 27 0;
#X connect 78 0 47 0;
#X connect 79 0 28 0;
#X connect 80 0 58 0;
#X connect 87 0 4 0;
#X connect 89 0 98 0;
#X connect 91 0 52 0;
#X connect 92 0 3 0;
#X connect 93 0 94 0;
#X connect 93 0 104 0;
#X connect 98 0 73 0;
#X connect 99 0 123 0;
#X connect 99 1 124 0;
#X connect 99 2 125 0;
#X connect 100 0 99 0;
#X connect 102 0 81 0;
#X connect 102 1 82 0;
#X connect 102 2 83 0;
#X connect 102 3 84 0;
#X connect 102 4 90 0;
#X connect 102 5 85 0;
#X connect 102 6 88 0;
#X connect 102 7 86 0;
#X connect 102 8 103 0;
#X connect 102 9 95 0;
#X connect 102 10 96 0;
#X connect 105 0 93 0;
#X connect 106 0 102 0;
#X connect 107 0 36 0;
#X connect 108 0 36 0;
#X connect 109 0 36 0;
#X connect 113 0 110 0;
#X connect 114 0 111 0;
#X connect 115 0 112 0;
#X connect 116 0 110 0;
#X connect 117 0 111 0;
#X connect 118 0 112 0;
#X connect 119 0 110 0;
#X connect 120 0 111 0;
#X connect 121 0 112 0;
#X connect 123 0 113 0;
#X connect 123 1 114 0;
#X connect 123 2 115 0;
#X connect 124 0 116 0;
#X connect 124 1 117 0;
#X connect 124 2 118 0;
#X connect 125 0 119 0;
#X connect 125 1 120 0;
#X connect 125 2 121 0;
#X connect 127 0 8 0;
#X connect 130 0 134 0;
#X connect 131 0 134 0;
#X connect 132 0 134 0;
#X connect 133 0 134 0;
#X connect 134 0 29 0;
#X connect 134 1 30 0;
#X connect 134 2 31 0;
#X connect 134 3 0 1;
#X coords 0 -1 1 1 606 100 2 200 150;
