#N canvas 43 183 1323 585 10;
#X obj 337 530 *~;
#X obj 203 113 vradio 12 1 0 4 empty empty empty 0 -8 0 10 -262144
-1 -1 3;
#X obj 204 301 sel 0 1 2 3;
#X obj 401 442 unpack f f f;
#X obj 401 113 vradio 12 1 0 5 empty empty empty 0 -8 0 10 -262144
-1 -1 1;
#X msg 401 416 0 0 0;
#X msg 453 353 101 211 331;
#X msg 742 309 32 32 32 32;
#X msg 781 286 7 15 23 31;
#X obj 786 455 pack f f f f;
#X obj 832 374 random 32;
#X obj 817 394 random 32;
#X obj 801 414 random 32;
#X obj 786 434 random 32;
#X obj 820 558 pack f f f f;
#X obj 895 476 random 32;
#X obj 879 496 random 32;
#X obj 864 516 random 32;
#X obj 847 536 random 32;
#X obj 911 455 pack f f f f;
#X obj 958 374 random 32;
#X obj 942 394 random 32;
#X obj 926 414 random 32;
#X obj 911 434 random 32;
#X obj 786 353 t b b b b b b b b b b b b;
#X msg 561 434 0 0 0;
#X msg 581 412 1 1 1;
#X msg 601 392 0 0 1;
#X obj 561 369 sel 0 1 2;
#X obj 453 115 vradio 12 1 0 3 empty empty empty 0 -8 0 10 -262144
-1 -1 0;
#X obj 518 114 vradio 13 1 0 4 empty empty empty 0 -8 0 10 -262144
-1 -1 3;
#X text 399 99 DELAY;
#X text 517 100 TAPS;
#X text 201 99 TOPOLOGY;
#X obj 379 5 inlet;
#X obj 770 100 hradio 24 1 0 2 empty empty empty 0 -8 0 10 -228856
-1 -1 0;
#X obj 770 124 hradio 24 1 0 2 empty empty empty 0 -8 0 10 -262144
-1 -1 1;
#X obj 1054 398 *~;
#X obj 1090 398 *~;
#X obj 1127 428 *~;
#X obj 1163 428 *~;
#X obj 1028 513 bitwiser;
#X obj 746 100 vradio 24 1 0 2 empty empty empty 0 -8 0 10 -262144
-1 -1 1;
#X obj 1052 124 sel 0 1;
#X obj 1132 148 sel 0 1;
#X msg 1075 177 0 1;
#X msg 1052 198 1 0;
#X msg 1155 217 0 1;
#X msg 1132 238 1 0;
#X obj 1052 219 unpack f f;
#X obj 1132 258 unpack f f;
#X obj 330 113 vradio 13 1 0 4 empty empty empty 0 -8 0 10 -262144
-1 -1 0;
#X text 585 100 INLINE TAPS;
#X obj 586 114 vradio 13 1 0 3 empty empty empty 0 -8 0 10 -262144
-1 -1 2;
#X obj 204 460 s topology\$1;
#X obj 231 441 s topology\$2;
#X obj 258 422 s topology\$3;
#X obj 338 560 throw~ reg\$1-inlet;
#X obj 561 510 s gates\$1;
#X obj 601 491 s gates\$2;
#X obj 642 472 s gates\$3;
#X obj 729 476 s tap_indices\$1;
#X obj 740 495 s tap_indices\$2;
#X obj 749 514 s tap_indices\$3;
#X obj 401 499 s delay\$1;
#X obj 441 480 s delay\$2;
#X obj 482 461 s delay\$3;
#X obj 586 336 s xor_inline_taps\$1\$2\$3;
#X obj 330 231 s xor_inline_onoff\$1\$2\$3;
#X obj 1054 320 r~ signal_router\$1\$2\$3-0-outlet;
#X obj 1097 357 r~ signal_router\$1\$2\$3-1-outlet;
#X text 347 113 OFF \; LEFT \; RIGHT \; ALL;
#X obj 308 5 loadbang;
#X text 216 112 OFF;
#X text 216 124 3;
#X text 216 136 1;
#X text 216 148 1+;
#X text 414 148 MIX;
#X text 466 113 BYP;
#X text 466 125 XOR;
#X text 466 137 1 XOR;
#X text 535 114 ZERO \; LIN \; RAND;
#X msg 471 330 12 19 0;
#X text 413 161 12 19 0;
#X msg 942 324 0 0 0 0;
#X obj 896 246 t b b b;
#X msg 868 281 21 0 0 0;
#X text 604 140 5 0 10 0;
#X text 271 99 STEREO;
#X obj 272 113 vradio 12 1 0 4 empty empty empty 0 -8 0 10 -262144
-1 -1 3;
#X text 285 112 OFF;
#X text 285 124 3 ST;
#X text 285 136 3 M;
#X text 285 148 1 M;
#X obj 272 253 s stereochoice\$1\$2\$3;
#X obj 204 399 unpack f f f f f;
#X msg 204 379 0 0 0 0 0;
#X msg 222 360 2 2 2 0 1;
#X msg 241 341 1 1 0 1 3;
#X msg 259 322 3 3 0 1 3;
#X obj 742 261 sel 0 1 2 3;
#X text 536 153 WHAT;
#X obj 700 5 sel 0 1 2;
#X obj 706 66 unpack f f f;
#X msg 700 40 0 0 0;
#X msg 818 32 0 1 1;
#X obj 681 115 vradio 12 1 0 3 empty empty empty 0 -8 0 10 -262144
-1 -1 2;
#X text 329 99 GATES 2;
#X text 678 100 GATES 1;
#X text 450 100 GATES 3;
#X text 694 113 LEFT;
#X text 694 125 RIGHT;
#X text 694 137 XOR;
#X msg 751 33 1 0 0;
#X text 414 112 1s;
#X text 414 124 3 \, 25;
#X text 414 136 30;
#X msg 418 395 3 25 0;
#X msg 436 374 30 30 30;
#X obj 401 311 sel 0 1 2 3 4;
#X obj 561 453 unpack f f f;
#X obj 366 55 unpack f f f f f f f;
#X text 603 114 0 9 4 14 \; 4 8 9 14;
#X msg 586 317 0 9 4 14;
#X msg 604 298 4 8 9 14;
#X msg 623 279 5 0 10 0;
#X obj 586 241 sel 0 1 2 3;
#X msg 641 260 6 0 11 0;
#X msg 379 26 3 0 1 0 3 2 2;
#X msg 902 314 9 0 0 0;
#X connect 0 0 57 0;
#X connect 1 0 2 0;
#X connect 2 0 96 0;
#X connect 2 1 97 0;
#X connect 2 2 98 0;
#X connect 2 3 99 0;
#X connect 3 0 64 0;
#X connect 3 1 65 0;
#X connect 3 2 66 0;
#X connect 4 0 119 0;
#X connect 5 0 3 0;
#X connect 6 0 3 0;
#X connect 7 0 61 0;
#X connect 7 0 62 0;
#X connect 7 0 63 0;
#X connect 8 0 61 0;
#X connect 8 0 62 0;
#X connect 8 0 63 0;
#X connect 9 0 61 0;
#X connect 10 0 9 3;
#X connect 11 0 9 2;
#X connect 12 0 9 1;
#X connect 13 0 9 0;
#X connect 14 0 62 0;
#X connect 15 0 14 3;
#X connect 16 0 14 2;
#X connect 17 0 14 1;
#X connect 18 0 14 0;
#X connect 19 0 63 0;
#X connect 20 0 19 3;
#X connect 21 0 19 2;
#X connect 22 0 19 1;
#X connect 23 0 19 0;
#X connect 24 0 13 0;
#X connect 24 1 12 0;
#X connect 24 2 11 0;
#X connect 24 3 10 0;
#X connect 24 4 18 0;
#X connect 24 5 17 0;
#X connect 24 6 16 0;
#X connect 24 7 15 0;
#X connect 24 8 23 0;
#X connect 24 9 22 0;
#X connect 24 10 21 0;
#X connect 24 11 20 0;
#X connect 25 0 120 0;
#X connect 26 0 120 0;
#X connect 27 0 120 0;
#X connect 28 0 25 0;
#X connect 28 1 26 0;
#X connect 28 2 27 0;
#X connect 29 0 28 0;
#X connect 30 0 100 0;
#X connect 34 0 128 0;
#X connect 35 0 43 0;
#X connect 36 0 44 0;
#X connect 37 0 41 1;
#X connect 38 0 41 2;
#X connect 39 0 41 1;
#X connect 40 0 41 2;
#X connect 41 0 0 0;
#X connect 42 0 41 0;
#X connect 43 0 46 0;
#X connect 43 1 45 0;
#X connect 44 0 48 0;
#X connect 44 1 47 0;
#X connect 45 0 49 0;
#X connect 46 0 49 0;
#X connect 47 0 50 0;
#X connect 48 0 50 0;
#X connect 49 0 37 1;
#X connect 49 1 39 1;
#X connect 50 0 38 1;
#X connect 50 1 40 1;
#X connect 51 0 68 0;
#X connect 53 0 126 0;
#X connect 69 0 37 0;
#X connect 69 0 38 0;
#X connect 70 0 39 0;
#X connect 70 0 40 0;
#X connect 72 0 128 0;
#X connect 82 0 3 0;
#X connect 84 0 61 0;
#X connect 85 0 86 0;
#X connect 85 1 129 0;
#X connect 85 2 84 0;
#X connect 86 0 63 0;
#X connect 89 0 94 0;
#X connect 95 0 54 0;
#X connect 95 1 55 0;
#X connect 95 2 56 0;
#X connect 95 3 0 1;
#X connect 95 4 89 0;
#X connect 96 0 95 0;
#X connect 97 0 95 0;
#X connect 98 0 95 0;
#X connect 99 0 95 0;
#X connect 100 0 7 0;
#X connect 100 1 8 0;
#X connect 100 2 24 0;
#X connect 100 3 85 0;
#X connect 102 0 104 0;
#X connect 102 1 113 0;
#X connect 102 2 105 0;
#X connect 103 0 35 0;
#X connect 103 1 36 0;
#X connect 103 2 42 0;
#X connect 104 0 103 0;
#X connect 105 0 103 0;
#X connect 106 0 102 0;
#X connect 113 0 103 0;
#X connect 117 0 3 0;
#X connect 118 0 3 0;
#X connect 119 0 5 0;
#X connect 119 1 117 0;
#X connect 119 2 118 0;
#X connect 119 3 6 0;
#X connect 119 4 82 0;
#X connect 120 0 58 0;
#X connect 120 1 59 0;
#X connect 120 2 60 0;
#X connect 121 0 1 0;
#X connect 121 1 51 0;
#X connect 121 2 4 0;
#X connect 121 3 29 0;
#X connect 121 4 30 0;
#X connect 121 5 53 0;
#X connect 121 6 106 0;
#X connect 123 0 67 0;
#X connect 124 0 67 0;
#X connect 125 0 67 0;
#X connect 126 0 123 0;
#X connect 126 1 124 0;
#X connect 126 2 125 0;
#X connect 126 3 127 0;
#X connect 127 0 67 0;
#X connect 128 0 121 0;
#X connect 129 0 62 0;
#X coords 0 -1 1 1 618 120 2 200 100;
