#N canvas 43 181 1323 585 10;
#X obj 106 334 unpack f f f f;
#X obj 210 448 unpack f f;
#X msg 239 424 0 1;
#X msg 187 425 0.3 0;
#X obj 359 487 *~;
#X obj 201 397 sel 0 1;
#X msg 110 312 2 2 2 0;
#X msg 167 292 1 1 0 1;
#X msg 172 311 3 3 0 1;
#X msg 105 293 0 0 0 0;
#X obj 104 168 vradio 13 1 0 4 empty empty empty 0 -8 0 10 -262144
-1 -1 3;
#X obj 104 270 sel 0 1 2 3;
#X obj 1042 496 unpack f f f;
#X obj 422 116 vradio 13 1 0 7 empty empty empty 0 -8 0 10 -262144
-1 -1 4;
#X msg 1042 470 0 0 0;
#X msg 1060 449 100 100 100;
#X msg 1079 428 300 300 300;
#X msg 1097 407 101 211 331;
#X msg 607 350 32 32 32 32;
#X msg 608 328 7 15 23 31;
#X obj 629 371 bng 15 250 50 0 empty empty empty 17 7 0 10 -262144
-1 -1;
#X obj 629 492 pack f f f f;
#X obj 675 411 random 32;
#X obj 660 431 random 32;
#X obj 644 451 random 32;
#X obj 629 471 random 32;
#X obj 690 594 pack f f f f;
#X obj 738 513 random 32;
#X obj 722 533 random 32;
#X obj 707 553 random 32;
#X obj 690 573 random 32;
#X obj 754 492 pack f f f f;
#X obj 801 411 random 32;
#X obj 785 431 random 32;
#X obj 769 451 random 32;
#X obj 754 471 random 32;
#X obj 629 390 t b b b b b b b b b b b b;
#X obj 413 23 s wheel\$1;
#X obj 491 23 s trigger\$1;
#X obj 930 469 random 700;
#X obj 930 448 t b b b;
#X obj 1008 429 bng 15 250 50 0 empty empty empty 17 7 0 10 -262144
-1 -1;
#X obj 940 490 random 200;
#X obj 951 511 random 500;
#X obj 930 531 unpack f f f;
#X msg 930 426 40 120 80;
#X msg 409 417 0 0 0;
#X msg 384 397 1 1 1;
#X msg 355 374 0 0 1;
#X obj 438 357 sel 0 1 2;
#X obj 181 113 vradio 13 1 0 3 empty empty empty 0 -8 0 10 -262144
-1 -1 2;
#X obj 609 300 sel 0 1 2;
#X obj 260 113 vradio 13 1 0 3 empty empty empty 0 -8 0 10 -262144
-1 -1 1;
#X msg 930 406 500 1000 4000;
#X obj 930 349 sel 0 1 2;
#X obj 334 113 vradio 13 1 0 3 empty empty empty 0 -8 0 10 -262144
-1 -1 1;
#X text 420 99 DELAY;
#X text 333 99 FREQ;
#X text 255 99 TAPS;
#X text 178 99 GATES;
#X text 102 154 TOPOLOGY;
#X obj 234 69 unpack f f f f f;
#X msg 234 37 0 0 0 0 0;
#X obj 234 9 inlet;
#X obj 697 100 hradio 28 1 0 2 empty empty empty 0 -8 0 10 -228856
-1 -1 0;
#X obj 697 128 hradio 28 1 0 2 empty empty empty 0 -8 0 10 -262144
-1 -1 0;
#X obj 1078 160 *~;
#X obj 1114 160 *~;
#X obj 1151 190 *~;
#X obj 1187 190 *~;
#X obj 1052 275 bitwiser;
#X obj 669 100 vradio 28 1 0 2 empty empty empty 0 -8 0 10 -262144
-1 -1 0;
#X obj 700 45 loadbang;
#X obj 873 -28 sel 0 1;
#X obj 953 -43 sel 0 1;
#X msg 896 25 0 1;
#X msg 873 46 1 0;
#X msg 976 26 0 1;
#X msg 953 47 1 0;
#X obj 873 67 unpack f f;
#X obj 953 67 unpack f f;
#X msg 777 70 0;
#X obj 260 169 vradio 13 1 0 4 empty empty empty 0 -8 0 10 -262144
-1 -1 3;
#X text 333 155 INLINE TAPS;
#X obj 334 169 vradio 13 1 0 4 empty empty empty 0 -8 0 10 -262144
-1 -1 1;
#X obj 1042 336 sel 0 1 2 3 4 5 6;
#X msg 1111 385 25 25 25;
#X msg 1124 362 1 1 1;
#X obj 106 397 s topology\$1;
#X obj 137 376 s topology\$2;
#X obj 169 357 s topology\$3;
#X obj 218 546 throw~ reg\$1-inlet;
#X obj 433 454 s gates\$1;
#X obj 456 475 s gates\$2;
#X obj 482 496 s gates\$3;
#X obj 581 513 s tap_indices\$1;
#X obj 592 532 s tap_indices\$2;
#X obj 601 551 s tap_indices\$3;
#X obj 930 551 s freq\$1;
#X obj 940 572 s freq\$2;
#X obj 951 593 s freq\$3;
#X obj 1042 562 s delay\$1;
#X obj 1082 541 s delay\$2;
#X obj 1123 520 s delay\$3;
#X obj 872 256 s xor_inline_taps\$1\$2\$3;
#X obj 872 278 s xor_inline_onoff\$1\$2\$3;
#X obj 1078 42 r~ signal_router\$1\$2\$3-0-outlet;
#X obj 1121 79 r~ signal_router\$1\$2\$3-1-outlet;
#X obj 104 113 vradio 13 1 0 3 empty empty empty 0 -8 0 10 -262144
-1 -1 2;
#X obj 242 268 s tapchoice\$1\$2\$3;
#X obj 181 169 vradio 13 1 0 4 empty empty empty 0 -8 0 10 -262144
-1 -1 1;
#X obj 248 301 s stereochoice\$1\$2\$3;
#X text 118 168 0 0 0 0 \; 2 2 2 0 \; 1 1 0 1 \; 3 3 0 1;
#X text 196 113 ALL BYP \; ALL XOR \; ONE XOR;
#X text 102 99 TAPCHOICE;
#X text 179 154 STEREO;
#X text 277 113 ZEROES \; LINEAR \; RANDOM;
#X text 196 169 OFF \; 3 STER \; 3 MONO \; 1 MONO;
#X text 351 114 4 12 8 \; 5 10 40 \; RANDOM;
#X text 277 169 OFF \; LEFT \; RIGHT \; ALL;
#X text 259 155 INLINE;
#X text 351 169 0 9 4 14 \; 4 8 9 14;
#X text 438 116 ALL 0 \; ALL 100 \; ALL 300 \; MIXED \; ALL 25 \; ALL
1;
#X connect 0 0 88 0;
#X connect 0 1 89 0;
#X connect 0 2 90 0;
#X connect 0 3 5 0;
#X connect 1 1 4 1;
#X connect 2 0 1 0;
#X connect 3 0 1 0;
#X connect 4 0 91 0;
#X connect 5 0 3 0;
#X connect 5 1 2 0;
#X connect 6 0 0 0;
#X connect 7 0 0 0;
#X connect 8 0 0 0;
#X connect 9 0 0 0;
#X connect 10 0 11 0;
#X connect 11 0 9 0;
#X connect 11 1 6 0;
#X connect 11 2 7 0;
#X connect 11 3 8 0;
#X connect 12 0 101 0;
#X connect 12 1 102 0;
#X connect 12 2 103 0;
#X connect 13 0 85 0;
#X connect 14 0 12 0;
#X connect 15 0 12 0;
#X connect 16 0 12 0;
#X connect 17 0 12 0;
#X connect 18 0 95 0;
#X connect 18 0 96 0;
#X connect 18 0 97 0;
#X connect 19 0 95 0;
#X connect 19 0 96 0;
#X connect 19 0 97 0;
#X connect 20 0 36 0;
#X connect 21 0 95 0;
#X connect 22 0 21 3;
#X connect 23 0 21 2;
#X connect 24 0 21 1;
#X connect 25 0 21 0;
#X connect 26 0 96 0;
#X connect 27 0 26 3;
#X connect 28 0 26 2;
#X connect 29 0 26 1;
#X connect 30 0 26 0;
#X connect 31 0 97 0;
#X connect 32 0 31 3;
#X connect 33 0 31 2;
#X connect 34 0 31 1;
#X connect 35 0 31 0;
#X connect 36 0 25 0;
#X connect 36 1 24 0;
#X connect 36 2 23 0;
#X connect 36 3 22 0;
#X connect 36 4 30 0;
#X connect 36 5 29 0;
#X connect 36 6 28 0;
#X connect 36 7 27 0;
#X connect 36 8 35 0;
#X connect 36 9 34 0;
#X connect 36 10 33 0;
#X connect 36 11 32 0;
#X connect 39 0 98 0;
#X connect 40 0 39 0;
#X connect 40 1 42 0;
#X connect 40 2 43 0;
#X connect 41 0 40 0;
#X connect 42 0 99 0;
#X connect 43 0 100 0;
#X connect 44 0 98 0;
#X connect 44 1 99 0;
#X connect 44 2 100 0;
#X connect 45 0 44 0;
#X connect 46 0 92 0;
#X connect 46 0 93 0;
#X connect 46 0 94 0;
#X connect 47 0 92 0;
#X connect 47 0 93 0;
#X connect 47 0 94 0;
#X connect 48 0 92 0;
#X connect 48 0 93 0;
#X connect 48 0 94 0;
#X connect 49 0 46 0;
#X connect 49 1 47 0;
#X connect 49 2 48 0;
#X connect 50 0 49 0;
#X connect 51 0 18 0;
#X connect 51 1 19 0;
#X connect 51 2 20 0;
#X connect 52 0 51 0;
#X connect 53 0 44 0;
#X connect 54 0 45 0;
#X connect 54 1 53 0;
#X connect 54 2 41 0;
#X connect 55 0 54 0;
#X connect 61 0 10 0;
#X connect 61 1 50 0;
#X connect 61 2 52 0;
#X connect 61 3 55 0;
#X connect 61 4 13 0;
#X connect 62 0 61 0;
#X connect 63 0 62 0;
#X connect 64 0 73 0;
#X connect 65 0 74 0;
#X connect 66 0 70 1;
#X connect 67 0 70 2;
#X connect 68 0 70 1;
#X connect 69 0 70 2;
#X connect 70 0 4 0;
#X connect 71 0 70 0;
#X connect 72 0 81 0;
#X connect 73 0 76 0;
#X connect 73 1 75 0;
#X connect 74 0 78 0;
#X connect 74 1 77 0;
#X connect 75 0 79 0;
#X connect 76 0 79 0;
#X connect 77 0 80 0;
#X connect 78 0 80 0;
#X connect 79 0 66 1;
#X connect 79 1 68 1;
#X connect 80 0 67 1;
#X connect 80 1 69 1;
#X connect 81 0 64 0;
#X connect 81 0 71 0;
#X connect 81 0 65 0;
#X connect 82 0 105 0;
#X connect 84 0 104 0;
#X connect 85 0 14 0;
#X connect 85 1 15 0;
#X connect 85 2 16 0;
#X connect 85 3 17 0;
#X connect 85 4 86 0;
#X connect 85 5 87 0;
#X connect 86 0 12 0;
#X connect 87 0 12 0;
#X connect 106 0 66 0;
#X connect 106 0 67 0;
#X connect 107 0 68 0;
#X connect 107 0 69 0;
#X connect 108 0 109 0;
#X connect 110 0 111 0;
#X coords 0 -1 1 1 653 124 2 100 100;
