#N canvas 154 222 1323 585 10;
#X obj 106 334 unpack f f f f;
#X obj 94 465 *~ 0.3;
#X obj 93 513 *~ 0.3;
#X obj 93 561 *~ 0.3;
#X obj 210 448 unpack f f;
#X msg 239 424 0 1;
#X msg 187 425 0.3 0;
#X obj 359 487 *~;
#X obj 201 397 sel 0 1;
#X msg 110 312 2 2 2 0;
#X msg 167 292 1 1 0 1;
#X msg 172 311 3 3 0 1;
#X msg 105 293 0 0 0 0;
#X obj 104 118 vradio 15 1 0 4 empty empty empty 0 -8 0 10 -262144
-1 -1 3;
#X text 123 117 0 0 0 0;
#X text 123 133 2 2 2 0;
#X text 123 149 1 1 0 1;
#X text 123 165 3 3 0 1;
#X obj 104 270 sel 0 1 2 3;
#X obj 1042 496 unpack f f f;
#X obj 486 119 vradio 15 1 0 7 empty empty empty 0 -8 0 10 -262144
-1 -1 4;
#X msg 1042 470 0 0 0;
#X msg 1060 449 100 100 100;
#X msg 1079 428 300 300 300;
#X msg 1097 407 101 211 331;
#X msg 607 350 32 32 32 32;
#X msg 608 328 7 15 23 31;
#X obj 629 371 bng 15 250 50 0 empty empty empty 17 7 0 10 -262144
-1 -1;
#X obj 629 492 pack f f f f;
#X obj 675 411 random 32;
#X obj 660 431 random 32;
#X obj 644 451 random 32;
#X obj 629 471 random 32;
#X obj 690 594 pack f f f f;
#X obj 738 513 random 32;
#X obj 722 533 random 32;
#X obj 707 553 random 32;
#X obj 690 573 random 32;
#X obj 754 492 pack f f f f;
#X obj 801 411 random 32;
#X obj 785 431 random 32;
#X obj 769 451 random 32;
#X obj 754 471 random 32;
#X obj 629 390 t b b b b b b b b b b b b;
#X obj 413 23 s wheel\$1;
#X obj 491 23 s trigger\$1;
#X obj 930 469 random 700;
#X obj 930 448 t b b b;
#X obj 1008 429 bng 15 250 50 0 empty empty empty 17 7 0 10 -262144
-1 -1;
#X obj 940 490 random 200;
#X obj 951 511 random 500;
#X obj 930 531 unpack f f f;
#X msg 930 426 40 120 80;
#X msg 409 417 0 0 0;
#X msg 384 397 1 1 1;
#X msg 355 374 0 0 1;
#X obj 438 357 sel 0 1 2;
#X obj 194 117 vradio 15 1 0 3 empty empty empty 0 -8 0 10 -262144
-1 -1 2;
#X obj 609 300 sel 0 1 2;
#X obj 287 119 vradio 15 1 0 3 empty empty empty 0 -8 0 10 -262144
-1 -1 1;
#X msg 930 406 500 1000 4000;
#X obj 930 349 sel 0 1 2;
#X obj 367 120 vradio 15 1 0 3 empty empty empty 0 -8 0 10 -262144
-1 -1 1;
#X text 484 102 DELAY;
#X text 503 135 ALL 100;
#X text 503 119 ALL 0;
#X text 503 151 ALL 300;
#X text 366 104 FREQ;
#X text 503 166 MIXED;
#X text 384 121 40 120 80;
#X text 384 136 500 1000 4000;
#X text 384 152 RANDOM;
#X text 286 102 TAPS;
#X text 304 119 ZEROES;
#X text 304 135 LINEAR;
#X text 304 150 RANDOM;
#X text 192 102 GATES;
#X text 211 133 ALL XOR;
#X text 211 148 ONE XOR;
#X text 103 102 TOPOLOGY;
#X obj 234 69 unpack f f f f f;
#X msg 234 37 0 0 0 0 0;
#X obj 234 9 inlet;
#X obj 985 100 hradio 44 1 0 2 empty empty empty 0 -8 0 10 -228856
-1 -1 0;
#X obj 985 144 hradio 44 1 0 2 empty empty empty 0 -8 0 10 -262144
-1 -1 0;
#X obj 1078 160 *~;
#X obj 1114 160 *~;
#X obj 1151 190 *~;
#X obj 1187 190 *~;
#X obj 1052 275 bitwiser;
#X obj 940 111 vradio 33 1 0 2 empty empty empty 0 -8 0 10 -262144
-1 -1 0;
#X obj 700 45 loadbang;
#X obj 873 -28 sel 0 1;
#X obj 953 -43 sel 0 1;
#X msg 896 25 0 1;
#X msg 873 46 1 0;
#X msg 976 26 0 1;
#X msg 953 47 1 0;
#X obj 873 67 unpack f f;
#X obj 953 67 unpack f f;
#X msg 777 70 0;
#X text 566 102 INLINE ON/OFF;
#X obj 568 119 vradio 15 1 0 4 empty empty empty 0 -8 0 10 -262144
-1 -1 3;
#X text 585 119 ALL OFF;
#X text 585 135 LEFT ON;
#X text 585 151 RIGHT ON;
#X text 585 166 ALL ON;
#X text 671 102 INLINE TAPS;
#X obj 673 119 vradio 15 1 0 4 empty empty empty 0 -8 0 10 -262144
-1 -1 1;
#X text 211 118 ALL BYP;
#X text 502 181 ALL 25;
#X text 502 196 ALL 1;
#X obj 1042 336 sel 0 1 2 3 4 5 6;
#X msg 1111 385 25 25 25;
#X msg 1124 362 1 1 1;
#X text 690 135 4 8 9 14;
#X text 690 119 0 9 4 14;
#X obj 766 113 bng 15 250 50 0 empty empty empty 17 7 0 10 -262144
-1 -1;
#X obj 735 296 t b b b;
#X text 783 113 TRIGGER FREQ;
#X obj 766 143 bng 15 250 50 0 empty empty empty 17 7 0 10 -262144
-1 -1;
#X text 783 143 TRIGGER WHEEL;
#X obj 425 266 t b b b;
#X obj 106 397 s topology\$1;
#X obj 137 376 s topology\$2;
#X obj 169 357 s topology\$3;
#X obj 93 444 r~ reg\$1-tap0;
#X obj 93 489 r~ reg\$2-tap0;
#X obj 93 539 r~ reg\$3-tap2;
#X obj 405 549 throw~ reg\$1-inlet;
#X obj 433 454 s gates\$1;
#X obj 456 475 s gates\$2;
#X obj 482 496 s gates\$3;
#X obj 581 513 s tap_indices\$1;
#X obj 592 532 s tap_indices\$2;
#X obj 601 551 s tap_indices\$3;
#X obj 735 316 s trigger\$1;
#X obj 745 336 s trigger\$2;
#X obj 755 356 s trigger\$3;
#X obj 930 551 s freq\$1;
#X obj 940 572 s freq\$2;
#X obj 951 593 s freq\$3;
#X obj 1042 562 s delay\$1;
#X obj 1082 541 s delay\$2;
#X obj 1123 520 s delay\$3;
#X obj 425 286 s trigger\$1_wheel;
#X obj 435 306 s trigger\$2_wheel;
#X obj 445 326 s trigger\$3_wheel;
#X obj 872 256 s xor_inline_taps\$1\$2\$3;
#X obj 872 278 s xor_inline_onoff\$1\$2\$3;
#X obj 1078 42 r~ signal_router\$1\$2\$3-0-outlet;
#X obj 1121 79 r~ signal_router\$1\$2\$3-1-outlet;
#X obj 253 556 throw~ \$1\$2\$3-todac;
#X obj 27 592 throw~ \$1\$2\$3-todac-left;
#X obj 204 592 throw~ \$1\$2\$3-todac-right;
#X connect 0 0 123 0;
#X connect 0 1 124 0;
#X connect 0 2 125 0;
#X connect 0 3 8 0;
#X connect 1 0 153 0;
#X connect 2 0 153 0;
#X connect 3 0 153 0;
#X connect 4 0 1 1;
#X connect 4 0 2 1;
#X connect 4 0 3 1;
#X connect 4 1 7 1;
#X connect 5 0 4 0;
#X connect 6 0 4 0;
#X connect 7 0 129 0;
#X connect 7 0 152 0;
#X connect 8 0 6 0;
#X connect 8 1 5 0;
#X connect 9 0 0 0;
#X connect 10 0 0 0;
#X connect 11 0 0 0;
#X connect 12 0 0 0;
#X connect 13 0 18 0;
#X connect 18 0 12 0;
#X connect 18 1 9 0;
#X connect 18 2 10 0;
#X connect 18 3 11 0;
#X connect 19 0 142 0;
#X connect 19 1 143 0;
#X connect 19 2 144 0;
#X connect 20 0 112 0;
#X connect 21 0 19 0;
#X connect 22 0 19 0;
#X connect 23 0 19 0;
#X connect 24 0 19 0;
#X connect 25 0 133 0;
#X connect 25 0 134 0;
#X connect 25 0 135 0;
#X connect 26 0 133 0;
#X connect 26 0 134 0;
#X connect 26 0 135 0;
#X connect 27 0 43 0;
#X connect 28 0 133 0;
#X connect 29 0 28 3;
#X connect 30 0 28 2;
#X connect 31 0 28 1;
#X connect 32 0 28 0;
#X connect 33 0 134 0;
#X connect 34 0 33 3;
#X connect 35 0 33 2;
#X connect 36 0 33 1;
#X connect 37 0 33 0;
#X connect 38 0 135 0;
#X connect 39 0 38 3;
#X connect 40 0 38 2;
#X connect 41 0 38 1;
#X connect 42 0 38 0;
#X connect 43 0 32 0;
#X connect 43 1 31 0;
#X connect 43 2 30 0;
#X connect 43 3 29 0;
#X connect 43 4 37 0;
#X connect 43 5 36 0;
#X connect 43 6 35 0;
#X connect 43 7 34 0;
#X connect 43 8 42 0;
#X connect 43 9 41 0;
#X connect 43 10 40 0;
#X connect 43 11 39 0;
#X connect 46 0 139 0;
#X connect 47 0 46 0;
#X connect 47 1 49 0;
#X connect 47 2 50 0;
#X connect 48 0 47 0;
#X connect 49 0 140 0;
#X connect 50 0 141 0;
#X connect 51 0 139 0;
#X connect 51 1 140 0;
#X connect 51 2 141 0;
#X connect 52 0 51 0;
#X connect 53 0 130 0;
#X connect 53 0 131 0;
#X connect 53 0 132 0;
#X connect 54 0 130 0;
#X connect 54 0 131 0;
#X connect 54 0 132 0;
#X connect 55 0 130 0;
#X connect 55 0 131 0;
#X connect 55 0 132 0;
#X connect 56 0 53 0;
#X connect 56 1 54 0;
#X connect 56 2 55 0;
#X connect 57 0 56 0;
#X connect 58 0 25 0;
#X connect 58 1 26 0;
#X connect 58 2 27 0;
#X connect 59 0 58 0;
#X connect 60 0 51 0;
#X connect 61 0 52 0;
#X connect 61 1 60 0;
#X connect 61 2 48 0;
#X connect 62 0 61 0;
#X connect 80 0 13 0;
#X connect 80 1 57 0;
#X connect 80 2 59 0;
#X connect 80 3 62 0;
#X connect 80 4 20 0;
#X connect 81 0 80 0;
#X connect 82 0 81 0;
#X connect 83 0 92 0;
#X connect 84 0 93 0;
#X connect 85 0 89 1;
#X connect 86 0 89 2;
#X connect 87 0 89 1;
#X connect 88 0 89 2;
#X connect 89 0 7 0;
#X connect 90 0 89 0;
#X connect 91 0 100 0;
#X connect 92 0 95 0;
#X connect 92 1 94 0;
#X connect 93 0 97 0;
#X connect 93 1 96 0;
#X connect 94 0 98 0;
#X connect 95 0 98 0;
#X connect 96 0 99 0;
#X connect 97 0 99 0;
#X connect 98 0 85 1;
#X connect 98 1 87 1;
#X connect 99 0 86 1;
#X connect 99 1 88 1;
#X connect 100 0 83 0;
#X connect 100 0 90 0;
#X connect 100 0 84 0;
#X connect 102 0 149 0;
#X connect 108 0 148 0;
#X connect 112 0 21 0;
#X connect 112 1 22 0;
#X connect 112 2 23 0;
#X connect 112 3 24 0;
#X connect 112 4 113 0;
#X connect 112 5 114 0;
#X connect 113 0 19 0;
#X connect 114 0 19 0;
#X connect 117 0 118 0;
#X connect 118 0 136 0;
#X connect 118 1 137 0;
#X connect 118 2 138 0;
#X connect 120 0 122 0;
#X connect 122 0 145 0;
#X connect 122 1 146 0;
#X connect 122 2 147 0;
#X connect 126 0 1 0;
#X connect 127 0 2 0;
#X connect 128 0 3 0;
#X connect 150 0 85 0;
#X connect 150 0 86 0;
#X connect 151 0 87 0;
#X connect 151 0 88 0;
#X coords 0 -1 1 1 973 150 2 100 100;
