#N canvas 43 167 1323 585 10;
#X obj 260 359 unpack f f f f;
#X obj 337 530 *~;
#X msg 264 337 2 2 2 0;
#X msg 321 317 1 1 0 1;
#X msg 326 336 3 3 0 1;
#X msg 259 318 0 0 0 0;
#X obj 204 113 vradio 12 1 0 4 empty empty empty 0 -8 0 10 -262144
-1 -1 3;
#X obj 258 291 sel 0 1 2 3;
#X obj 450 442 unpack f f f;
#X obj 343 114 vradio 12 1 0 8 empty empty empty 0 -8 0 10 -262144
-1 -1 2;
#X msg 450 416 0 0 0;
#X msg 468 395 100 100 100;
#X msg 487 374 300 300 300;
#X msg 505 353 101 211 331;
#X msg 752 280 32 32 32 32;
#X msg 749 259 7 15 23 31;
#X obj 793 403 pack f f f f;
#X obj 839 322 random 32;
#X obj 824 342 random 32;
#X obj 808 362 random 32;
#X obj 793 382 random 32;
#X obj 827 506 pack f f f f;
#X obj 902 424 random 32;
#X obj 886 444 random 32;
#X obj 871 464 random 32;
#X obj 854 484 random 32;
#X obj 918 403 pack f f f f;
#X obj 965 322 random 32;
#X obj 949 342 random 32;
#X obj 933 362 random 32;
#X obj 918 382 random 32;
#X obj 793 301 t b b b b b b b b b b b b;
#X msg 631 364 0 0 0;
#X msg 651 343 1 1 1;
#X msg 671 322 0 0 1;
#X obj 631 299 sel 0 1 2;
#X obj 405 115 vradio 12 1 0 3 empty empty empty 0 -8 0 10 -262144
-1 -1 4;
#X obj 749 238 sel 0 1 2;
#X obj 493 114 vradio 13 1 0 3 empty empty empty 0 -8 0 10 -262144
-1 -1 3;
#X text 341 100 DELAY;
#X text 488 100 TAPS;
#X text 202 99 TOPOLOGY;
#X obj 459 26 inlet;
#X obj 770 100 hradio 24 1 0 2 empty empty empty 0 -8 0 10 -228856
-1 -1 0;
#X obj 770 124 hradio 24 1 0 2 empty empty empty 0 -8 0 10 -262144
-1 -1 0;
#X obj 1054 398 *~;
#X obj 1090 398 *~;
#X obj 1127 428 *~;
#X obj 1163 428 *~;
#X obj 1028 513 bitwiser;
#X obj 746 100 vradio 24 1 0 2 empty empty empty 0 -8 0 10 -262144
-1 -1 0;
#X obj 839 35 loadbang;
#X obj 1052 124 sel 0 1;
#X obj 1132 148 sel 0 1;
#X msg 1075 177 0 1;
#X msg 1052 198 1 0;
#X msg 1155 217 0 1;
#X msg 1132 238 1 0;
#X obj 1052 219 unpack f f;
#X obj 1132 258 unpack f f;
#X msg 846 62 0;
#X obj 266 114 vradio 13 1 0 4 empty empty empty 0 -8 0 10 -262144
-1 -1 1;
#X text 552 100 INLINE TAPS;
#X obj 553 114 vradio 13 1 0 5 empty empty empty 0 -8 0 10 -262144
-1 -1 2;
#X obj 450 282 sel 0 1 2 3 4 5 6;
#X msg 519 331 25 25 25;
#X msg 532 308 1 1 1;
#X obj 260 422 s topology\$1;
#X obj 291 401 s topology\$2;
#X obj 323 382 s topology\$3;
#X obj 338 560 throw~ reg\$1-inlet;
#X obj 582 393 s gates\$1;
#X obj 605 414 s gates\$2;
#X obj 631 435 s gates\$3;
#X obj 745 424 s tap_indices\$1;
#X obj 756 443 s tap_indices\$2;
#X obj 765 462 s tap_indices\$3;
#X obj 450 508 s delay\$1;
#X obj 490 487 s delay\$2;
#X obj 531 466 s delay\$3;
#X obj 827 237 s xor_inline_taps\$1\$2\$3;
#X obj 383 257 s xor_inline_onoff\$1\$2\$3;
#X obj 1054 320 r~ signal_router\$1\$2\$3-0-outlet;
#X obj 1097 357 r~ signal_router\$1\$2\$3-1-outlet;
#X text 283 114 OFF \; LEFT \; RIGHT \; ALL;
#X text 265 100 INLINE;
#X text 570 114 0 9 4 14 \; 4 8 9 14;
#X obj 378 16 loadbang;
#X obj 459 68 unpack f f f f f f f f f;
#X msg 459 47 3 2 1 2 4 3 3 3 1;
#X text 402 100 REG GATES;
#X text 217 112 OFF;
#X text 217 124 3;
#X text 217 136 1;
#X text 217 148 1+;
#X text 356 113 0;
#X text 356 125 100;
#X text 356 137 300;
#X text 356 149 MIX;
#X text 356 161 25;
#X text 356 173 1;
#X text 418 113 BYP;
#X text 418 125 XOR;
#X text 418 137 1 XOR;
#X text 510 114 ZERO \; LIN \; RAND;
#X msg 589 270 12 19 0;
#X text 355 186 12 19 0;
#X msg 674 248 0 0 0 0;
#X obj 496 159 bng 15 250 50 0 empty empty empty 17 7 0 10 -262144
-1 -1;
#X obj 615 206 t b b b;
#X msg 634 238 12 0 0 0;
#X msg 587 231 21 0 0 0;
#X text 571 140 5 0 10 0;
#X connect 0 0 67 0;
#X connect 0 1 68 0;
#X connect 0 2 69 0;
#X connect 0 3 1 1;
#X connect 1 0 70 0;
#X connect 2 0 0 0;
#X connect 3 0 0 0;
#X connect 4 0 0 0;
#X connect 5 0 0 0;
#X connect 6 0 7 0;
#X connect 7 0 5 0;
#X connect 7 1 2 0;
#X connect 7 2 3 0;
#X connect 7 3 4 0;
#X connect 8 0 77 0;
#X connect 8 1 78 0;
#X connect 8 2 79 0;
#X connect 9 0 64 0;
#X connect 10 0 8 0;
#X connect 11 0 8 0;
#X connect 12 0 8 0;
#X connect 13 0 8 0;
#X connect 14 0 74 0;
#X connect 14 0 75 0;
#X connect 14 0 76 0;
#X connect 15 0 74 0;
#X connect 15 0 75 0;
#X connect 15 0 76 0;
#X connect 16 0 74 0;
#X connect 17 0 16 3;
#X connect 18 0 16 2;
#X connect 19 0 16 1;
#X connect 20 0 16 0;
#X connect 21 0 75 0;
#X connect 22 0 21 3;
#X connect 23 0 21 2;
#X connect 24 0 21 1;
#X connect 25 0 21 0;
#X connect 26 0 76 0;
#X connect 27 0 26 3;
#X connect 28 0 26 2;
#X connect 29 0 26 1;
#X connect 30 0 26 0;
#X connect 31 0 20 0;
#X connect 31 1 19 0;
#X connect 31 2 18 0;
#X connect 31 3 17 0;
#X connect 31 4 25 0;
#X connect 31 5 24 0;
#X connect 31 6 23 0;
#X connect 31 7 22 0;
#X connect 31 8 30 0;
#X connect 31 9 29 0;
#X connect 31 10 28 0;
#X connect 31 11 27 0;
#X connect 32 0 71 0;
#X connect 32 0 72 0;
#X connect 32 0 73 0;
#X connect 33 0 71 0;
#X connect 33 0 72 0;
#X connect 33 0 73 0;
#X connect 34 0 71 0;
#X connect 34 0 72 0;
#X connect 34 0 73 0;
#X connect 35 0 32 0;
#X connect 35 1 33 0;
#X connect 35 2 34 0;
#X connect 36 0 35 0;
#X connect 37 0 14 0;
#X connect 37 1 15 0;
#X connect 37 2 31 0;
#X connect 38 0 37 0;
#X connect 42 0 89 0;
#X connect 43 0 52 0;
#X connect 44 0 53 0;
#X connect 45 0 49 1;
#X connect 46 0 49 2;
#X connect 47 0 49 1;
#X connect 48 0 49 2;
#X connect 49 0 1 0;
#X connect 50 0 49 0;
#X connect 51 0 60 0;
#X connect 52 0 55 0;
#X connect 52 1 54 0;
#X connect 53 0 57 0;
#X connect 53 1 56 0;
#X connect 54 0 58 0;
#X connect 55 0 58 0;
#X connect 56 0 59 0;
#X connect 57 0 59 0;
#X connect 58 0 45 1;
#X connect 58 1 47 1;
#X connect 59 0 46 1;
#X connect 59 1 48 1;
#X connect 60 0 43 0;
#X connect 60 0 50 0;
#X connect 60 0 44 0;
#X connect 61 0 81 0;
#X connect 63 0 80 0;
#X connect 64 0 10 0;
#X connect 64 1 11 0;
#X connect 64 2 12 0;
#X connect 64 3 13 0;
#X connect 64 4 65 0;
#X connect 64 5 66 0;
#X connect 64 6 105 0;
#X connect 65 0 8 0;
#X connect 66 0 8 0;
#X connect 82 0 45 0;
#X connect 82 0 46 0;
#X connect 83 0 47 0;
#X connect 83 0 48 0;
#X connect 87 0 89 0;
#X connect 88 0 6 0;
#X connect 88 2 61 0;
#X connect 88 3 9 0;
#X connect 88 4 36 0;
#X connect 88 5 38 0;
#X connect 88 6 63 0;
#X connect 89 0 88 0;
#X connect 105 0 8 0;
#X connect 107 0 74 0;
#X connect 108 0 109 0;
#X connect 109 0 111 0;
#X connect 109 1 110 0;
#X connect 109 2 107 0;
#X connect 110 0 75 0;
#X connect 111 0 76 0;
#X coords 0 -1 1 1 618 120 2 200 100;
