#N canvas 69 186 1288 572 10;
#X obj 428 24 r ctl-46;
#X obj 17 165 r ctl-58;
#X obj 141 172 r ctl-59;
#X obj 231 24 r ctl-60;
#X obj 753 32 r ctl-61;
#X obj 789 82 r ctl-62;
#X obj 428 80 s cyclebutton;
#X obj 231 80 s setbutton;
#X obj 17 193 sel 127;
#X obj 141 203 sel 127;
#X obj 789 110 sel 127;
#X obj 428 52 sel 127;
#X obj 231 52 sel 127;
#X obj 352 366 bng 15 250 50 0 empty empty empty 17 7 0 10 -262144
-1 -1;
#X msg 352 392 0;
#X obj 423 366 bng 15 250 50 0 empty empty empty 17 7 0 10 -262144
-1 -1;
#X msg 423 392 1;
#X obj 494 366 bng 15 250 50 0 empty empty empty 17 7 0 10 -262144
-1 -1;
#X msg 494 392 2;
#X obj 565 366 bng 15 250 50 0 empty empty empty 17 7 0 10 -262144
-1 -1;
#X msg 565 392 3;
#X obj 636 366 bng 15 250 50 0 empty empty empty 17 7 0 10 -262144
-1 -1;
#X msg 636 392 4;
#X obj 72 121 r fromconverter;
#X obj 559 48 Converter;
#X obj 47 355 Gate;
#X obj 117 368 Gate;
#X obj 47 302 tgl 15 0 empty empty empty 17 7 0 10 -262144 -1 -1 0
1;
#X obj 117 327 tgl 15 0 empty empty empty 17 7 0 10 -262144 -1 -1 1
1;
#X obj 46 27 loadbang;
#X obj 47 326 + 1;
#X obj 116 346 + 1;
#X msg 47 49 0;
#X msg 117 44 1;
#X obj 352 343 Gate;
#X obj 423 343 Gate;
#X obj 494 343 Gate;
#X obj 565 343 Gate;
#X obj 636 343 Gate;
#X obj 430 145 r ctl-42;
#X obj 288 145 r ctl-43;
#X obj 359 145 r ctl-44;
#X obj 572 145 r ctl-45;
#X obj 501 145 r ctl-41;
#X obj 762 384 bng 15 250 50 0 empty empty empty 17 7 0 10 -262144
-1 -1;
#X msg 762 410 0;
#X obj 833 384 bng 15 250 50 0 empty empty empty 17 7 0 10 -262144
-1 -1;
#X msg 833 410 1;
#X obj 904 384 bng 15 250 50 0 empty empty empty 17 7 0 10 -262144
-1 -1;
#X msg 904 410 2;
#X obj 975 384 bng 15 250 50 0 empty empty empty 17 7 0 10 -262144
-1 -1;
#X msg 975 410 3;
#X obj 1046 384 bng 15 250 50 0 empty empty empty 17 7 0 10 -262144
-1 -1;
#X msg 1046 410 4;
#X obj 822 448 Gate5, f 10;
#X obj 762 363 Gate;
#X obj 833 363 Gate;
#X obj 904 363 Gate;
#X obj 975 363 Gate;
#X obj 1046 363 Gate;
#X obj 428 509 s pads012-1;
#X obj 412 529 s pads012-0;
#X obj 445 489 s pads012-2;
#X obj 462 469 s pads012-3;
#X obj 479 449 s pads012-4;
#X obj 822 550 s pads345-0;
#X obj 838 530 s pads345-1;
#X obj 855 510 s pads345-2;
#X obj 872 490 s pads345-3;
#X obj 889 470 s pads345-4;
#X obj 412 422 Gate5, f 10;
#X floatatom 117 407 5 0 0 0 - - -, f 5;
#X floatatom 47 407 5 0 0 0 - - -, f 5;
#X obj 753 57 sel 127;
#X obj 757 190 f;
#X obj 793 190 +;
#X msg 789 143 1;
#X msg 753 141 -1;
#X obj 768 168 t b f;
#X msg 841 151 0;
#X floatatom 793 211 5 0 0 0 - - -, f 5;
#X obj 841 172 t f f;
#X obj 841 130 loadbang;
#X text 822 50 Marker forward / back;
#X obj 484 320 sel 0 1 2 3 4;
#X obj 793 229 % 5;
#X obj 876 339 sel 0 1 2 3 4;
#X connect 0 0 11 0;
#X connect 1 0 8 0;
#X connect 2 0 9 0;
#X connect 3 0 12 0;
#X connect 4 0 73 0;
#X connect 5 0 10 0;
#X connect 8 0 27 0;
#X connect 9 0 28 0;
#X connect 10 0 76 0;
#X connect 11 0 6 0;
#X connect 12 0 7 0;
#X connect 13 0 14 0;
#X connect 14 0 70 1;
#X connect 15 0 16 0;
#X connect 16 0 70 1;
#X connect 17 0 18 0;
#X connect 18 0 70 1;
#X connect 19 0 20 0;
#X connect 20 0 70 1;
#X connect 21 0 22 0;
#X connect 22 0 70 1;
#X connect 23 0 25 1;
#X connect 23 0 26 1;
#X connect 25 0 70 0;
#X connect 25 0 72 0;
#X connect 26 0 54 0;
#X connect 26 0 71 0;
#X connect 27 0 30 0;
#X connect 28 0 31 0;
#X connect 29 0 32 0;
#X connect 29 0 33 0;
#X connect 30 0 25 0;
#X connect 30 0 34 0;
#X connect 30 0 35 0;
#X connect 30 0 36 0;
#X connect 30 0 37 0;
#X connect 30 0 38 0;
#X connect 31 0 26 0;
#X connect 31 0 55 0;
#X connect 31 0 56 0;
#X connect 31 0 59 0;
#X connect 31 0 57 0;
#X connect 31 0 58 0;
#X connect 32 0 27 0;
#X connect 33 0 28 0;
#X connect 34 0 13 0;
#X connect 35 0 15 0;
#X connect 36 0 17 0;
#X connect 37 0 19 0;
#X connect 38 0 21 0;
#X connect 44 0 45 0;
#X connect 45 0 54 1;
#X connect 46 0 47 0;
#X connect 47 0 54 1;
#X connect 48 0 49 0;
#X connect 49 0 54 1;
#X connect 50 0 51 0;
#X connect 51 0 54 1;
#X connect 52 0 53 0;
#X connect 53 0 54 1;
#X connect 54 0 65 0;
#X connect 54 1 66 0;
#X connect 54 2 67 0;
#X connect 54 3 68 0;
#X connect 54 4 69 0;
#X connect 55 0 44 0;
#X connect 56 0 46 0;
#X connect 57 0 48 0;
#X connect 58 0 50 0;
#X connect 59 0 52 0;
#X connect 70 0 61 0;
#X connect 70 1 60 0;
#X connect 70 2 62 0;
#X connect 70 3 63 0;
#X connect 70 4 64 0;
#X connect 73 0 77 0;
#X connect 74 0 75 0;
#X connect 75 0 74 1;
#X connect 75 0 80 0;
#X connect 76 0 78 0;
#X connect 77 0 78 0;
#X connect 78 0 74 0;
#X connect 78 1 75 1;
#X connect 79 0 81 0;
#X connect 80 0 85 0;
#X connect 81 0 74 1;
#X connect 81 1 80 0;
#X connect 82 0 79 0;
#X connect 84 0 34 1;
#X connect 84 1 35 1;
#X connect 84 2 36 1;
#X connect 84 3 37 1;
#X connect 84 4 38 1;
#X connect 85 0 84 0;
#X connect 85 0 86 0;
#X connect 86 0 55 1;
#X connect 86 1 56 1;
#X connect 86 2 57 1;
#X connect 86 3 58 1;
#X connect 86 4 59 1;
