#N canvas 43 153 1323 585 10;
#X obj 86 520 *~;
#X obj 203 114 vradio 12 1 0 4 empty empty empty 0 -8 0 10 -262144
-1 -1 3;
#X obj 23 232 sel 0 1 2 3;
#X obj 1027 696 unpack f f f;
#X obj 697 184 vradio 12 1 0 5 empty empty empty 0 -8 0 10 -262144
-1 -1 1;
#X msg 1027 670 0 0 0;
#X msg 24 92 0 0 0;
#X msg 44 70 1 1 1;
#X msg 64 50 0 0 1;
#X obj 24 27 sel 0 1 2;
#X obj 270 115 vradio 12 1 0 3 empty empty empty 0 -8 0 10 -262144
-1 -1 0;
#X obj 464 114 vradio 13 1 0 11 empty empty empty 0 -8 0 10 -262144
-1 -1 3;
#X text 695 170 DELAY;
#X text 201 100 TOPOLOGY;
#X obj 1216 445 inlet;
#X obj 770 100 hradio 24 1 0 2 empty empty empty 0 -8 0 10 -228856
-1 -1 0;
#X obj 770 124 hradio 24 1 0 2 empty empty empty 0 -8 0 10 -262144
-1 -1 1;
#X obj 874 398 *~;
#X obj 910 398 *~;
#X obj 947 428 *~;
#X obj 983 428 *~;
#X obj 848 503 bitwiser;
#X obj 746 100 vradio 24 1 0 2 empty empty empty 0 -8 0 10 -262144
-1 -1 1;
#X obj 872 124 sel 0 1;
#X obj 952 148 sel 0 1;
#X msg 895 177 0 1;
#X msg 872 198 1 0;
#X msg 975 217 0 1;
#X msg 952 238 1 0;
#X obj 872 219 unpack f f;
#X obj 952 258 unpack f f;
#X obj 331 114 vradio 13 1 0 4 empty empty empty 0 -8 0 10 -262144
-1 -1 0;
#X obj 549 114 vradio 13 1 0 11 empty empty empty 0 -8 0 10 -262144
-1 -1 5;
#X obj 23 406 s topology\$1;
#X obj 50 387 s topology\$2;
#X obj 77 368 s topology\$3;
#X obj 87 550 throw~ reg\$1-inlet;
#X obj 24 168 s gates\$1;
#X obj 64 149 s gates\$2;
#X obj 105 130 s gates\$3;
#X obj 1027 767 s delay\$1;
#X obj 1067 748 s delay\$2;
#X obj 1108 729 s delay\$3;
#X obj 791 775 s xor_inline_taps\$1\$2\$3;
#X obj 331 329 s xor_inline_onoff\$1\$2\$3;
#X obj 874 320 r~ signal_router\$1\$2\$3-0-outlet;
#X obj 917 357 r~ signal_router\$1\$2\$3-1-outlet;
#X text 348 114 OFF \; LEFT \; RIGHT \; ALL;
#X obj 1145 445 loadbang;
#X text 216 113 OFF;
#X text 216 125 3;
#X text 216 137 1;
#X text 216 149 1+;
#X text 283 113 BYP;
#X text 283 125 XOR;
#X text 283 137 1 XOR;
#X text 481 114 ZERO \; LIN \; RAND;
#X msg 1097 584 12 19 0;
#X text 709 232 12 19 0;
#X text 696 100 STEREO;
#X obj 697 114 vradio 12 1 0 4 empty empty empty 0 -8 0 10 -262144
-1 -1 3;
#X text 710 113 OFF;
#X text 710 125 3 ST;
#X text 710 137 3 M;
#X text 710 149 1 M;
#X obj 697 272 s stereochoice\$1\$2\$3;
#X obj 23 330 unpack f f f f f;
#X msg 23 310 0 0 0 0 0;
#X msg 41 291 2 2 2 0 1;
#X msg 60 272 1 1 0 1 3;
#X msg 78 253 3 3 0 1 3;
#X text 482 153 WHAT;
#X obj 925 83 unpack f f f;
#X msg 925 65 0 0 0;
#X msg 962 55 0 1 1;
#X obj 403 115 vradio 12 1 0 4 empty empty empty 0 -8 0 10 -262144
-1 -1 2;
#X text 330 100 GATES 2;
#X text 401 100 GATES 1;
#X text 269 100 GATES 3;
#X text 417 113 LEFT;
#X text 416 125 RIGHT;
#X text 416 137 XOR;
#X msg 943 60 1 0 0;
#X text 710 183 1s;
#X text 710 195 3 \, 25;
#X text 710 207 30;
#X msg 1044 649 3 25 0;
#X msg 1062 628 30 30 30;
#X obj 1027 565 sel 0 1 2 3 4;
#X obj 24 111 unpack f f f;
#X obj 1216 485 unpack f f f f f f f;
#X msg 839 699 6 0 11 0;
#X text 463 100 TAPS 3;
#X text 548 100 TAPS 2;
#X obj 311 585 tapper \$1 \$2 \$3;
#X obj 1137 49 unpack f f f;
#X obj 1137 106 s freqtime\$1;
#X obj 1177 87 s freqtime\$2;
#X obj 1218 68 s freqtime\$3;
#X msg 1137 30 10 20 30;
#X obj 1137 12 bng 15 250 50 0 empty empty empty 17 7 0 10 -262144
-1 -1;
#X obj 1154 295 unpack f f f;
#X obj 1154 314 s freq\$1;
#X obj 1194 333 s freq\$2;
#X obj 1235 352 s freq\$3;
#X msg 1154 276 191 293 477;
#X obj 1153 258 bng 15 250 50 0 empty empty empty 17 7 0 10 -262144
-1 -1;
#X obj 1138 175 unpack f f f;
#X msg 1138 156 191 293 477;
#X obj 1138 194 s wheel\$1;
#X obj 1178 213 s wheel\$2;
#X obj 1219 232 s wheel\$3;
#X obj 1138 138 bng 15 250 50 0 empty empty empty 17 7 0 10 -262144
-1 -1;
#X msg 791 756 0 0 5 0;
#X msg 807 737 0 0 10 0;
#X text 566 114 0 0 5 0 \; 0 0 10 0 \;;
#X msg 823 718 0 5 0 10;
#X msg 856 680 0 5 6 10;
#X text 710 219 Sh/Long;
#X msg 1079 607 20 100 0;
#X text 567 140 0 1 6 0 \; 6 0 11 0 \; 0 5 6 10 \; 5 0 10 0;
#X msg 1216 466 3 0 0 2 3 5 1;
#X msg 872 661 5 0 10 0;
#X obj 925 22 sel 0 1 2 3;
#X msg 1017 45 0 0 1;
#X text 416 150 NULL;
#X msg 589 589 3;
#X msg 575 681 2;
#X obj 543 662 t b b;
#X obj 575 719 s wheel\$1;
#X msg 543 681 2;
#X obj 543 700 t b f;
#X obj 543 738 s trigger\$1_wheel;
#X msg 311 685 set \$1;
#X msg 336 666 set \$1;
#X obj 477 192 nbx 6 13 -1e+37 1e+37 0 0 empty empty empty 0 -8 0 10
-262144 -1 -1 0 256;
#X msg 362 647 set \$1;
#X msg 387 628 set \$1;
#X msg 413 609 set \$1;
#X obj 477 205 nbx 6 13 -1e+37 1e+37 0 0 empty empty empty 0 -8 0 10
-262144 -1 -1 0 256;
#X obj 477 218 nbx 6 13 -1e+37 1e+37 0 0 empty empty empty 0 -8 0 10
-262144 -1 -1 0 256;
#X obj 477 231 nbx 6 13 -1e+37 1e+37 0 0 empty empty empty 0 -8 0 10
-262144 -1 -1 0 256;
#X obj 477 244 nbx 6 13 -1e+37 1e+37 0 0 empty empty empty 0 -8 0 10
-262144 -1 -1 0 256;
#X obj 451 192 vradio 13 1 0 5 empty empty empty 0 -8 0 10 -262144
-1 -1 0;
#X obj 543 550 + 6;
#X obj 543 569 t b f b;
#X msg 566 608 set \$1;
#X floatatom 543 646 5 0 0 0 - - -, f 5;
#X obj 543 627 del 250;
#X text 567 191 0 4;
#X text 567 205 0 8;
#X text 567 218 0 4 8;
#X text 567 231 0 1 4;
#X text 567 245 0 5 4 8;
#X obj 791 547 sel 0 1 2 3 4 5 6 7 8 9 10;
#X msg 904 623 0 0 10 0;
#X msg 921 604 0 5 10 0;
#X msg 937 585 0 1 5 0;
#X msg 953 566 0 6 5 10;
#X msg 888 642 5 0 10 0;
#X msg 509 633 0;
#X msg 509 650 1;
#X msg 509 667 2;
#X msg 509 684 3;
#X msg 509 701 4;
#X obj 203 367 s topology\$1\$2\$3-send;
#X obj 203 1 r topology\$1\$2\$3-receive;
#X obj 23 213 r topology\$1\$2\$3-send;
#X obj 270 348 s gates3\$1\$2\$3-send;
#X obj 24 8 r gates3\$1\$2\$3-send;
#X obj 270 20 r gates3\$1\$2\$3-receive;
#X obj 697 72 r stereochoice\$1\$2\$3-receive;
#X obj 403 310 s gates1\$1\$2\$3-send;
#X obj 464 291 s taps3\$1\$2\$3-send;
#X obj 549 272 s taps2\$1\$2\$3-send;
#X obj 697 291 s delay\$1\$2\$3-send;
#X obj 1027 546 r delay\$1\$2\$3-receive;
#X obj 132 407 s stereochoice\$1\$2\$3-receive;
#X obj 791 528 r taps2\$1\$2\$3-send;
#X obj 331 39 r gates2\$1\$2\$3-receive;
#X obj 403 58 r gates1\$1\$2\$3-receive;
#X msg 465 20 r taps3\$1\$2\$3-receive;
#X obj 549 39 r taps2\$1\$2\$3-receive;
#X connect 0 0 36 0;
#X connect 1 0 165 0;
#X connect 2 0 67 0;
#X connect 2 1 68 0;
#X connect 2 2 69 0;
#X connect 2 3 70 0;
#X connect 3 0 40 0;
#X connect 3 1 41 0;
#X connect 3 2 42 0;
#X connect 4 0 175 0;
#X connect 5 0 3 0;
#X connect 6 0 89 0;
#X connect 7 0 89 0;
#X connect 8 0 89 0;
#X connect 9 0 6 0;
#X connect 9 1 7 0;
#X connect 9 2 8 0;
#X connect 10 0 168 0;
#X connect 11 0 173 0;
#X connect 14 0 121 0;
#X connect 15 0 23 0;
#X connect 16 0 24 0;
#X connect 17 0 21 1;
#X connect 18 0 21 2;
#X connect 19 0 21 1;
#X connect 20 0 21 2;
#X connect 21 0 0 0;
#X connect 22 0 21 0;
#X connect 23 0 26 0;
#X connect 23 1 25 0;
#X connect 24 0 28 0;
#X connect 24 1 27 0;
#X connect 25 0 29 0;
#X connect 26 0 29 0;
#X connect 27 0 30 0;
#X connect 28 0 30 0;
#X connect 29 0 17 1;
#X connect 29 1 19 1;
#X connect 30 0 18 1;
#X connect 30 1 20 1;
#X connect 31 0 44 0;
#X connect 32 0 174 0;
#X connect 45 0 17 0;
#X connect 45 0 18 0;
#X connect 46 0 19 0;
#X connect 46 0 20 0;
#X connect 48 0 121 0;
#X connect 57 0 3 0;
#X connect 60 0 65 0;
#X connect 66 0 33 0;
#X connect 66 1 34 0;
#X connect 66 2 35 0;
#X connect 66 3 0 1;
#X connect 66 4 177 0;
#X connect 67 0 66 0;
#X connect 68 0 66 0;
#X connect 69 0 66 0;
#X connect 70 0 66 0;
#X connect 72 0 15 0;
#X connect 72 1 16 0;
#X connect 72 2 22 0;
#X connect 73 0 72 0;
#X connect 74 0 72 0;
#X connect 75 0 172 0;
#X connect 82 0 72 0;
#X connect 86 0 3 0;
#X connect 87 0 3 0;
#X connect 88 0 5 0;
#X connect 88 1 86 0;
#X connect 88 2 87 0;
#X connect 88 3 119 0;
#X connect 88 4 57 0;
#X connect 89 0 37 0;
#X connect 89 1 38 0;
#X connect 89 2 39 0;
#X connect 91 0 43 0;
#X connect 94 0 133 0;
#X connect 94 1 134 0;
#X connect 94 2 136 0;
#X connect 94 3 137 0;
#X connect 94 4 138 0;
#X connect 95 0 96 0;
#X connect 95 1 97 0;
#X connect 95 2 98 0;
#X connect 99 0 95 0;
#X connect 100 0 99 0;
#X connect 101 0 102 0;
#X connect 101 1 103 0;
#X connect 101 2 104 0;
#X connect 105 0 101 0;
#X connect 106 0 105 0;
#X connect 107 0 109 0;
#X connect 107 1 110 0;
#X connect 107 2 111 0;
#X connect 108 0 107 0;
#X connect 112 0 108 0;
#X connect 113 0 43 0;
#X connect 114 0 43 0;
#X connect 116 0 43 0;
#X connect 117 0 43 0;
#X connect 119 0 3 0;
#X connect 121 0 90 0;
#X connect 122 0 43 0;
#X connect 123 0 73 0;
#X connect 123 1 82 0;
#X connect 123 2 74 0;
#X connect 123 3 124 0;
#X connect 124 0 72 0;
#X connect 128 0 130 0;
#X connect 128 1 127 0;
#X connect 130 0 131 0;
#X connect 131 0 132 0;
#X connect 131 1 129 0;
#X connect 144 0 145 0;
#X connect 145 0 148 0;
#X connect 145 1 146 0;
#X connect 145 2 126 0;
#X connect 146 0 147 0;
#X connect 147 0 128 0;
#X connect 148 0 147 0;
#X connect 154 0 113 0;
#X connect 154 1 114 0;
#X connect 154 2 116 0;
#X connect 154 3 91 0;
#X connect 154 4 117 0;
#X connect 154 5 122 0;
#X connect 154 6 159 0;
#X connect 154 7 155 0;
#X connect 154 8 156 0;
#X connect 154 9 157 0;
#X connect 154 10 158 0;
#X connect 155 0 43 0;
#X connect 156 0 43 0;
#X connect 157 0 43 0;
#X connect 158 0 43 0;
#X connect 159 0 43 0;
#X connect 160 0 144 0;
#X connect 161 0 144 0;
#X connect 162 0 144 0;
#X connect 163 0 144 0;
#X connect 164 0 144 0;
#X connect 166 0 1 0;
#X connect 167 0 2 0;
#X connect 169 0 9 0;
#X connect 170 0 10 0;
#X connect 171 0 60 0;
#X connect 176 0 88 0;
#X connect 178 0 154 0;
#X connect 179 0 31 0;
#X connect 180 0 75 0;
#X connect 181 0 11 0;
#X connect 182 0 32 0;
#X coords 0 -1 1 1 618 170 2 200 100;
