#N canvas 82 135 1199 624 10;
#X obj 106 397 s topology0;
#X obj 137 377 s topology1;
#X obj 169 357 s topology2;
#X obj 258 550 dac~;
#X obj 106 334 unpack f f f f;
#X obj 93 444 r~ reg0-tap0;
#X obj 93 489 r~ reg1-tap0;
#X obj 93 539 r~ reg2-tap2;
#X obj 94 595 dac~;
#X obj 94 465 *~ 0.3;
#X obj 93 513 *~ 0.3;
#X obj 93 561 *~ 0.3;
#X obj 210 448 unpack f f;
#X msg 239 424 0 1;
#X msg 187 425 0.3 0;
#X obj 259 483 *~;
#X obj 201 397 sel 0 1;
#X obj 300 453 r~ four_xor_send;
#X msg 110 312 2 2 2 0;
#X msg 167 292 1 1 0 1;
#X msg 172 311 3 3 0 1;
#X msg 105 293 0 0 0 0;
#X obj 104 118 vradio 15 1 0 4 empty empty empty 0 -8 0 10 -262144
-1 -1 0;
#X text 123 117 0 0 0 0;
#X text 123 133 2 2 2 0;
#X text 123 149 1 1 0 1;
#X text 123 165 3 3 0 1;
#X obj 104 270 sel 0 1 2 3;
#X obj 307 519 throw~ reg0-inlet;
#X obj 1042 562 s delay0;
#X obj 1042 496 unpack f f f;
#X obj 1042 386 sel 0 1 2 3;
#X obj 481 119 vradio 15 1 0 4 empty empty empty 0 -8 0 10 -262144
-1 -1 2;
#X msg 1042 470 0 0 0;
#X msg 1060 449 100 100 100;
#X msg 1079 428 300 300 300;
#X msg 1097 407 101 211 331;
#X obj 591 532 s tap_indices1;
#X obj 581 513 s tap_indices0;
#X obj 601 551 s tap_indices2;
#X msg 607 350 32 32 32 32;
#X msg 608 328 7 15 23 31;
#X obj 629 371 bng 15 250 50 0 empty empty empty 17 7 0 10 -262144
-1 -1;
#X obj 629 492 pack f f f f;
#X obj 675 411 random 32;
#X obj 660 431 random 32;
#X obj 644 451 random 32;
#X obj 629 471 random 32;
#X obj 690 594 pack f f f f;
#X obj 738 513 random 32;
#X obj 722 533 random 32;
#X obj 707 553 random 32;
#X obj 690 573 random 32;
#X obj 754 492 pack f f f f;
#X obj 801 411 random 32;
#X obj 785 431 random 32;
#X obj 769 451 random 32;
#X obj 754 471 random 32;
#X obj 629 390 t b b b b b b b b b b b b;
#X obj 525 25 s wheel\$1;
#X obj 603 25 s trigger\$1;
#X obj 930 551 s freq0;
#X obj 940 572 s freq1;
#X obj 951 593 s freq2;
#X obj 930 469 random 700;
#X obj 930 448 t b b b;
#X obj 1008 429 bng 15 250 50 0 empty empty empty 17 7 0 10 -262144
-1 -1;
#X obj 940 490 random 200;
#X obj 951 511 random 500;
#X obj 930 531 unpack f f f;
#X msg 930 426 40 120 80;
#X obj 433 454 s gates0;
#X obj 456 475 s gates1;
#X obj 482 496 s gates2;
#X msg 409 417 0 0 0;
#X msg 384 397 1 1 1;
#X msg 355 374 0 0 1;
#X obj 438 357 sel 0 1 2;
#X obj 187 117 vradio 15 1 0 3 empty empty empty 0 -8 0 10 -262144
-1 -1 1;
#X obj 609 300 sel 0 1 2;
#X obj 288 119 vradio 15 1 0 3 empty empty empty 0 -8 0 10 -262144
-1 -1 1;
#X msg 930 406 500 1000 4000;
#X obj 930 362 sel 0 1 2;
#X obj 362 118 vradio 15 1 0 3 empty empty empty 0 -8 0 10 -262144
-1 -1 1;
#X text 479 102 DELAY;
#X text 498 135 ALL 100;
#X text 498 119 ALL 0;
#X text 498 151 ALL 300;
#X text 361 102 FREQ;
#X text 498 166 MIXED;
#X text 379 119 40 120 80;
#X text 379 134 500 1000 4000;
#X text 379 150 RANDOM;
#X text 287 102 TAPS;
#X text 305 119 ZEROES;
#X text 305 135 LINEAR;
#X text 305 150 RANDOM;
#X text 185 102 GATES;
#X text 204 118 ALL BYPASS;
#X text 204 133 ALL XOR;
#X text 204 148 ONE XOR;
#X text 103 102 TOPOLOGY;
#X obj 1082 541 s delay1;
#X obj 1123 520 s delay2;
#X obj 80 3 loadbang;
#X obj 234 69 unpack f f f f f;
#X msg 234 37 0 0 0 0 0;
#X obj 178 9 inlet;
#X obj 985 100 hradio 44 1 0 2 empty empty empty 0 -8 0 10 -228856
-1 -1 0;
#X obj 985 144 hradio 44 1 0 2 empty empty empty 0 -8 0 10 -262144
-1 -1 0;
#X obj 1079 98 r~ signal_router0-outlet;
#X obj 1152 128 r~ signal_router1-outlet;
#X obj 1078 160 *~;
#X obj 1114 160 *~;
#X obj 1151 190 *~;
#X obj 1187 190 *~;
#X obj 1052 275 bitwiser;
#X obj 940 111 vradio 33 1 0 2 empty empty empty 0 -8 0 10 -262144
-1 -1 0;
#X obj 700 45 loadbang;
#X obj 1053 306 s~ four_xor_send;
#X obj 873 -28 sel 0 1;
#X obj 953 -43 sel 0 1;
#X msg 896 25 0 1;
#X msg 873 46 1 0;
#X msg 976 26 0 1;
#X msg 953 47 1 0;
#X obj 873 67 unpack f f;
#X obj 953 67 unpack f f;
#X msg 777 70 0;
#X msg 994 208 \; pd dsp \$1;
#X obj 994 191 tgl 15 0 empty empty empty 17 7 0 10 -262144 -1 -1 0
1;
#X text 1012 191 DSP;
#X connect 4 0 0 0;
#X connect 4 1 1 0;
#X connect 4 2 2 0;
#X connect 4 3 16 0;
#X connect 5 0 9 0;
#X connect 6 0 10 0;
#X connect 7 0 11 0;
#X connect 9 0 8 0;
#X connect 9 0 8 1;
#X connect 10 0 8 0;
#X connect 10 0 8 1;
#X connect 11 0 8 0;
#X connect 11 0 8 1;
#X connect 12 0 9 1;
#X connect 12 0 10 1;
#X connect 12 0 11 1;
#X connect 12 1 15 1;
#X connect 13 0 12 0;
#X connect 14 0 12 0;
#X connect 15 0 3 0;
#X connect 15 0 3 1;
#X connect 15 0 28 0;
#X connect 16 0 14 0;
#X connect 16 1 13 0;
#X connect 17 0 15 0;
#X connect 18 0 4 0;
#X connect 19 0 4 0;
#X connect 20 0 4 0;
#X connect 21 0 4 0;
#X connect 22 0 27 0;
#X connect 27 0 21 0;
#X connect 27 1 18 0;
#X connect 27 2 19 0;
#X connect 27 3 20 0;
#X connect 30 0 29 0;
#X connect 30 1 102 0;
#X connect 30 2 103 0;
#X connect 31 0 33 0;
#X connect 31 1 34 0;
#X connect 31 2 35 0;
#X connect 31 3 36 0;
#X connect 32 0 31 0;
#X connect 33 0 30 0;
#X connect 34 0 30 0;
#X connect 35 0 30 0;
#X connect 36 0 30 0;
#X connect 40 0 38 0;
#X connect 40 0 37 0;
#X connect 40 0 39 0;
#X connect 41 0 38 0;
#X connect 41 0 37 0;
#X connect 41 0 39 0;
#X connect 42 0 58 0;
#X connect 43 0 38 0;
#X connect 44 0 43 3;
#X connect 45 0 43 2;
#X connect 46 0 43 1;
#X connect 47 0 43 0;
#X connect 48 0 37 0;
#X connect 49 0 48 3;
#X connect 50 0 48 2;
#X connect 51 0 48 1;
#X connect 52 0 48 0;
#X connect 53 0 39 0;
#X connect 54 0 53 3;
#X connect 55 0 53 2;
#X connect 56 0 53 1;
#X connect 57 0 53 0;
#X connect 58 0 47 0;
#X connect 58 1 46 0;
#X connect 58 2 45 0;
#X connect 58 3 44 0;
#X connect 58 4 52 0;
#X connect 58 5 51 0;
#X connect 58 6 50 0;
#X connect 58 7 49 0;
#X connect 58 8 57 0;
#X connect 58 9 56 0;
#X connect 58 10 55 0;
#X connect 58 11 54 0;
#X connect 64 0 61 0;
#X connect 65 0 64 0;
#X connect 65 1 67 0;
#X connect 65 2 68 0;
#X connect 66 0 65 0;
#X connect 67 0 62 0;
#X connect 68 0 63 0;
#X connect 69 0 61 0;
#X connect 69 1 62 0;
#X connect 69 2 63 0;
#X connect 70 0 69 0;
#X connect 74 0 71 0;
#X connect 74 0 72 0;
#X connect 74 0 73 0;
#X connect 75 0 71 0;
#X connect 75 0 72 0;
#X connect 75 0 73 0;
#X connect 76 0 71 0;
#X connect 76 0 72 0;
#X connect 76 0 73 0;
#X connect 77 0 74 0;
#X connect 77 1 75 0;
#X connect 77 2 76 0;
#X connect 78 0 77 0;
#X connect 79 0 40 0;
#X connect 79 1 41 0;
#X connect 79 2 42 0;
#X connect 80 0 79 0;
#X connect 81 0 69 0;
#X connect 82 0 70 0;
#X connect 82 1 81 0;
#X connect 82 2 66 0;
#X connect 83 0 82 0;
#X connect 105 0 22 0;
#X connect 105 1 78 0;
#X connect 105 2 80 0;
#X connect 105 3 83 0;
#X connect 105 4 32 0;
#X connect 106 0 105 0;
#X connect 107 0 106 0;
#X connect 108 0 120 0;
#X connect 109 0 121 0;
#X connect 110 0 112 0;
#X connect 110 0 113 0;
#X connect 111 0 114 0;
#X connect 111 0 115 0;
#X connect 112 0 116 1;
#X connect 113 0 116 2;
#X connect 114 0 116 1;
#X connect 115 0 116 2;
#X connect 116 0 119 0;
#X connect 117 0 116 0;
#X connect 118 0 128 0;
#X connect 120 0 123 0;
#X connect 120 1 122 0;
#X connect 121 0 125 0;
#X connect 121 1 124 0;
#X connect 122 0 126 0;
#X connect 123 0 126 0;
#X connect 124 0 127 0;
#X connect 125 0 127 0;
#X connect 126 0 112 1;
#X connect 126 1 114 1;
#X connect 127 0 113 1;
#X connect 127 1 115 1;
#X connect 128 0 108 0;
#X connect 128 0 117 0;
#X connect 128 0 109 0;
#X connect 130 0 129 0;
#X coords 0 -1 1 1 973 140 2 100 100;
