#N canvas 144 260 987 420 10;
#X obj 87 83 r sbutton-0;
#X obj 87 141 r mbutton-0;
#X obj 87 199 r rbutton-0;
#X obj 189 83 r sbutton-1;
#X obj 189 141 r mbutton-1;
#X obj 189 199 r rbutton-1;
#X obj 291 83 r sbutton-2;
#X obj 291 141 r mbutton-2;
#X obj 291 199 r rbutton-2;
#X obj 393 199 r rbutton-3;
#X obj 393 141 r mbutton-3;
#X obj 393 83 r sbutton-3;
#X obj 495 83 r sbutton-4;
#X obj 495 141 r mbutton-4;
#X obj 495 199 r rbutton-4;
#X obj 597 83 r sbutton-5;
#X obj 597 141 r mbutton-5;
#X obj 597 199 r rbutton-5;
#X obj 699 83 r sbutton-6;
#X obj 699 141 r mbutton-6;
#X obj 699 199 r rbutton-6;
#X obj 801 83 r sbutton-7;
#X obj 801 141 r mbutton-7;
#X obj 801 199 r rbutton-7;
#X msg 87 111 0;
#X msg 189 111 1;
#X msg 291 111 2;
#X msg 393 111 3;
#X msg 495 111 4;
#X msg 597 111 5;
#X msg 699 111 6;
#X msg 801 111 7;
#X msg 87 169 8;
#X msg 189 169 9;
#X msg 291 169 10;
#X msg 393 169 11;
#X msg 495 169 12;
#X msg 597 169 13;
#X msg 699 169 14;
#X msg 801 169 15;
#X msg 87 227 16;
#X msg 189 227 17;
#X msg 291 227 18;
#X msg 393 227 19;
#X msg 495 227 20;
#X msg 597 227 21;
#X msg 699 227 22;
#X msg 801 227 23;
#X obj 446 380 s fromconverter;
#X obj 25 145 bng 15 250 50 0 empty empty empty 17 7 0 10 -262144 -1
-1;
#X connect 0 0 24 0;
#X connect 1 0 32 0;
#X connect 2 0 40 0;
#X connect 3 0 25 0;
#X connect 4 0 33 0;
#X connect 5 0 41 0;
#X connect 6 0 26 0;
#X connect 7 0 34 0;
#X connect 8 0 42 0;
#X connect 9 0 43 0;
#X connect 10 0 35 0;
#X connect 11 0 27 0;
#X connect 12 0 28 0;
#X connect 13 0 36 0;
#X connect 14 0 44 0;
#X connect 15 0 29 0;
#X connect 16 0 37 0;
#X connect 17 0 45 0;
#X connect 18 0 30 0;
#X connect 19 0 38 0;
#X connect 20 0 46 0;
#X connect 21 0 31 0;
#X connect 22 0 39 0;
#X connect 23 0 47 0;
#X connect 24 0 48 0;
#X connect 24 0 49 0;
#X connect 25 0 48 0;
#X connect 26 0 48 0;
#X connect 27 0 48 0;
#X connect 28 0 48 0;
#X connect 29 0 48 0;
#X connect 30 0 48 0;
#X connect 31 0 48 0;
#X connect 32 0 48 0;
#X connect 33 0 48 0;
#X connect 34 0 48 0;
#X connect 35 0 48 0;
#X connect 36 0 48 0;
#X connect 37 0 48 0;
#X connect 38 0 48 0;
#X connect 39 0 48 0;
#X connect 40 0 48 0;
#X connect 41 0 48 0;
#X connect 42 0 48 0;
#X connect 43 0 48 0;
#X connect 44 0 48 0;
#X connect 45 0 48 0;
#X connect 46 0 48 0;
#X connect 47 0 48 0;
