#N canvas 43 155 1257 597 10;
#X msg 712 142 \; pd dsp \$1;
#X obj 712 67 tgl 25 0 empty empty empty 17 7 0 10 -262144 -1 -1 0
1;
#X obj 172 440 *~;
#X obj 212 440 *~;
#X obj 253 440 *~;
#X obj 190 403 unpack f f f;
#X msg 190 335 0.333 0.166 0.333;
#X msg 213 356 0.166 0.166 0.166;
#X obj 138 492 *~;
#X obj 171 492 *~;
#X obj 198 492 *~;
#X obj 226 492 *~;
#X obj 254 492 *~;
#X obj 291 492 *~;
#X obj 297 445 unpack f f f f f f;
#X msg 297 378 1 0 1 1 0 1;
#X msg 305 398 1 1 1 1 1 1;
#X obj 261 197 hradio 15 1 0 4 empty empty empty 0 -8 0 10 -262144
-1 -1 3;
#X msg 190 312 0 0 0;
#X msg 357 355 0 0 0 0 0 0;
#X msg 330 302 1 0 0;
#X obj 261 235 sel 0 1 2 3;
#X msg 324 420 1 1 0 0 0 0;
#X obj 572 440 *~;
#X obj 612 440 *~;
#X obj 653 440 *~;
#X obj 590 403 unpack f f f;
#X msg 590 335 0.333 0.166 0.333;
#X msg 613 356 0.166 0.166 0.166;
#X obj 538 492 *~;
#X obj 571 492 *~;
#X obj 598 492 *~;
#X obj 626 492 *~;
#X obj 654 492 *~;
#X obj 691 492 *~;
#X obj 697 445 unpack f f f f f f;
#X msg 697 378 1 0 1 1 0 1;
#X msg 705 398 1 1 1 1 1 1;
#X obj 661 247 hradio 15 1 0 4 empty empty empty 0 -8 0 10 -262144
-1 -1 3;
#X msg 590 312 0 0 0;
#X msg 757 355 0 0 0 0 0 0;
#X msg 730 302 1 0 0;
#X obj 661 265 sel 0 1 2 3;
#X msg 724 420 1 1 0 0 0 0;
#X obj 1036 493 dac~;
#X obj 981 290 lop~;
#X obj 1008 318 lop~;
#X obj 204 552 throw~ todac-r0;
#X obj 139 573 throw~ todac-l0;
#X obj 605 555 throw~ todac-r1;
#X obj 539 576 throw~ todac-l1;
#X obj 982 230 catch~ todac-l0;
#X obj 1008 249 catch~ todac-r0;
#X obj 1081 330 lop~;
#X obj 1108 358 lop~;
#X obj 1082 270 catch~ todac-l1;
#X obj 1108 289 catch~ todac-r1;
#X text 352 195 volume scheme \; 0: off \; 1: 3 stereo \; 2: 3 mono
\; 3: 1 mono \;;
#X text 712 93 DSP;
#X obj 261 169 r stereochoice012;
#X obj 661 227 r stereochoice345;
#X obj 45 283 r~ reg0-tap0;
#X obj 55 303 r~ reg1-tap0;
#X obj 65 323 r~ reg2-tap0;
#X obj 484 331 r~ reg3-tap0;
#X obj 494 351 r~ reg4-tap0;
#X obj 504 371 r~ reg5-tap0;
#X obj 97 31 loadbang;
#X msg 97 180 1;
#X obj 532 91 hsl 128 15 0 1 0 0 empty empty empty -2 -8 0 10 -262144
-1 -1 6350 1;
#X obj 529 124 t f f;
#X obj 529 162 abs;
#X floatatom 529 181 5 0 0 0 - - -, f 5;
#X obj 529 143 - 1;
#X floatatom 577 181 5 0 0 0 - - -, f 5;
#X obj 980 439 *~;
#X obj 1007 439 *~;
#X obj 1080 439 *~;
#X obj 1107 439 *~;
#X obj 577 197 s 012r;
#X obj 529 197 s 012l;
#X obj 998 390 r 012l;
#X obj 1025 411 r 012r;
#X obj 1098 390 r 345l;
#X obj 1125 411 r 345r;
#X obj 777 91 hsl 128 15 0 1 0 0 empty empty empty -2 -8 0 10 -262144
-1 -1 6350 1;
#X obj 794 124 t f f;
#X obj 794 162 abs;
#X floatatom 794 181 5 0 0 0 - - -, f 5;
#X obj 794 143 - 1;
#X floatatom 842 181 5 0 0 0 - - -, f 5;
#X obj 794 197 s 345l;
#X obj 842 197 s 345r;
#X obj 532 65 hsl 128 15 0.001 1 1 0 empty empty empty -2 -8 0 10 -262144
-1 -1 12700 1;
#X obj 777 65 hsl 128 15 0.001 1 1 0 empty empty empty -2 -8 0 10 -262144
-1 -1 12700 1;
#X text 500 65 LoP;
#X text 745 65 LoP;
#X text 501 91 Pan;
#X text 745 91 Pan;
#X obj 529 33 r lopassl;
#X obj 774 33 r lopassr;
#X obj 617 33 r panl;
#X obj 861 33 r panr;
#X msg 296 48 1;
#X msg 296 74 0.5;
#X obj 433 80 * 10000;
#X obj 985 80 * 10000;
#X floatatom 910 65 5 0 0 0 - - -, f 5;
#X floatatom 665 65 5 0 0 0 - - -, f 5;
#X connect 1 0 0 0;
#X connect 2 0 8 0;
#X connect 2 0 9 0;
#X connect 3 0 10 0;
#X connect 3 0 11 0;
#X connect 4 0 12 0;
#X connect 4 0 13 0;
#X connect 5 0 2 1;
#X connect 5 1 3 1;
#X connect 5 2 4 1;
#X connect 6 0 5 0;
#X connect 7 0 5 0;
#X connect 8 0 48 0;
#X connect 9 0 47 0;
#X connect 10 0 48 0;
#X connect 11 0 47 0;
#X connect 12 0 48 0;
#X connect 13 0 47 0;
#X connect 14 0 8 1;
#X connect 14 1 9 1;
#X connect 14 2 10 1;
#X connect 14 3 11 1;
#X connect 14 4 12 1;
#X connect 14 5 13 1;
#X connect 15 0 14 0;
#X connect 16 0 14 0;
#X connect 17 0 21 0;
#X connect 18 0 5 0;
#X connect 19 0 14 0;
#X connect 20 0 5 0;
#X connect 21 0 18 0;
#X connect 21 0 19 0;
#X connect 21 1 6 0;
#X connect 21 1 15 0;
#X connect 21 2 7 0;
#X connect 21 2 16 0;
#X connect 21 3 20 0;
#X connect 21 3 22 0;
#X connect 22 0 14 0;
#X connect 23 0 29 0;
#X connect 23 0 30 0;
#X connect 24 0 31 0;
#X connect 24 0 32 0;
#X connect 25 0 33 0;
#X connect 25 0 34 0;
#X connect 26 0 23 1;
#X connect 26 1 24 1;
#X connect 26 2 25 1;
#X connect 27 0 26 0;
#X connect 28 0 26 0;
#X connect 29 0 50 0;
#X connect 30 0 49 0;
#X connect 31 0 50 0;
#X connect 32 0 49 0;
#X connect 33 0 50 0;
#X connect 34 0 49 0;
#X connect 35 0 29 1;
#X connect 35 1 30 1;
#X connect 35 2 31 1;
#X connect 35 3 32 1;
#X connect 35 4 33 1;
#X connect 35 5 34 1;
#X connect 36 0 35 0;
#X connect 37 0 35 0;
#X connect 38 0 42 0;
#X connect 39 0 26 0;
#X connect 40 0 35 0;
#X connect 41 0 26 0;
#X connect 42 0 39 0;
#X connect 42 0 40 0;
#X connect 42 1 27 0;
#X connect 42 1 36 0;
#X connect 42 2 28 0;
#X connect 42 2 37 0;
#X connect 42 3 41 0;
#X connect 42 3 43 0;
#X connect 43 0 35 0;
#X connect 45 0 75 0;
#X connect 46 0 76 0;
#X connect 51 0 45 0;
#X connect 52 0 46 0;
#X connect 53 0 77 0;
#X connect 54 0 78 0;
#X connect 55 0 53 0;
#X connect 56 0 54 0;
#X connect 59 0 17 0;
#X connect 60 0 38 0;
#X connect 61 0 2 0;
#X connect 62 0 3 0;
#X connect 63 0 4 0;
#X connect 64 0 23 0;
#X connect 65 0 24 0;
#X connect 66 0 25 0;
#X connect 67 0 68 0;
#X connect 67 0 103 0;
#X connect 67 0 104 0;
#X connect 68 0 17 0;
#X connect 69 0 70 0;
#X connect 70 0 73 0;
#X connect 70 1 74 0;
#X connect 71 0 72 0;
#X connect 72 0 80 0;
#X connect 73 0 71 0;
#X connect 74 0 79 0;
#X connect 75 0 44 0;
#X connect 76 0 44 1;
#X connect 77 0 44 0;
#X connect 78 0 44 1;
#X connect 81 0 75 1;
#X connect 82 0 76 1;
#X connect 83 0 77 1;
#X connect 84 0 78 1;
#X connect 85 0 86 0;
#X connect 86 0 89 0;
#X connect 86 1 90 0;
#X connect 87 0 88 0;
#X connect 88 0 91 0;
#X connect 89 0 87 0;
#X connect 90 0 92 0;
#X connect 93 0 105 0;
#X connect 94 0 106 0;
#X connect 99 0 93 0;
#X connect 100 0 94 0;
#X connect 101 0 69 0;
#X connect 102 0 85 0;
#X connect 103 0 93 0;
#X connect 103 0 94 0;
#X connect 104 0 69 0;
#X connect 104 0 85 0;
#X connect 105 0 45 1;
#X connect 105 0 46 1;
#X connect 105 0 108 0;
#X connect 106 0 53 1;
#X connect 106 0 54 1;
#X connect 106 0 107 0;
#X coords 0 -1 1 1 450 50 2 500 60;
