#N canvas 109 126 1257 662 10;
#X msg 612 377 \; pd dsp \$1;
#X obj 612 240 tgl 25 0 empty empty empty 17 7 0 10 -262144 -1 -1 0
1;
#X obj 671 616 dac~;
#X obj 131 459 lop~;
#X obj 322 487 lop~;
#X obj 921 499 lop~;
#X obj 1112 507 lop~;
#X text 612 265 DSP;
#X obj 23 14 loadbang;
#X obj 362 251 hsl 128 15 0 1 0 0 empty empty empty -2 -8 0 10 -262144
-1 -1 6350 1;
#X obj 208 519 t f f;
#X obj 208 557 abs;
#X obj 208 538 - 1;
#X obj 438 599 *~;
#X obj 493 598 *~;
#X obj 920 598 *~;
#X obj 1111 598 *~;
#X obj 747 251 hsl 128 15 0 1 0 0 empty empty empty -2 -8 0 10 -262144
-1 -1 6350 1;
#X obj 1004 524 t f f;
#X obj 1004 562 abs;
#X obj 1004 543 - 1;
#X obj 362 228 hsl 128 15 0.001 1 1 0 empty empty empty -2 -8 0 10
-262144 -1 -1 12700 1;
#X obj 747 228 hsl 128 15 0.001 1 1 0 empty empty empty -2 -8 0 10
-262144 -1 -1 12700 1;
#X text 330 228 LoP;
#X text 715 228 LoP;
#X text 330 251 Pan;
#X text 715 251 Pan;
#X msg 23 211 1;
#X msg 23 234 0.5;
#X obj 495 153 * 10000;
#X obj 880 148 * 10000;
#X floatatom 880 228 5 0 0 0 - - -, f 5;
#X floatatom 495 228 5 0 0 0 - - -, f 5;
#X obj 591 616 writesf~ 2;
#X msg 591 550 start;
#X msg 591 578 stop;
#X msg 591 522 open testshift.wav;
#X floatatom 1021 416 5 0 0 0 - - -, f 5;
#X floatatom 231 394 5 0 0 0 - - -, f 5;
#X obj 359 108 r fader-0;
#X obj 359 128 r trim-0;
#X obj 744 108 r fader-1;
#X obj 744 129 r trim-1;
#X obj 362 274 hsl 128 15 0 1 0 0 empty empty empty -2 -8 0 10 -262144
-1 -1 12700 1;
#X obj 747 274 hsl 128 15 0 1 0 0 empty empty empty -2 -8 0 10 -262144
-1 -1 12700 1;
#X text 715 274 Vol;
#X text 330 274 Vol;
#X obj 321 524 *~;
#X obj 132 524 *~;
#X obj 920 547 *~;
#X obj 1112 551 *~;
#X obj 744 150 r fader-3;
#X obj 359 149 r fader-2;
#X msg 359 88 1;
#X msg 744 88 1;
#X obj 620 301 tgl 15 0 empty empty empty 17 7 0 10 -262144 -1 -1 0
1;
#X obj 130 336 r~ panpre012-l-send;
#X obj 321 336 r~ panpre012-r-send;
#X obj 920 336 r~ panpre345-l-send;
#X obj 1111 336 r~ panpre345-r-send;
#X obj 565 210 hradio 20 1 0 6 empty empty empty 0 -8 0 5 -262144 -1
-1 5;
#X obj 747 297 hsl 128 15 0 1 0 0 empty empty empty -2 -8 0 10 -262144
-1 -1 0 1;
#X text 715 297 Rev;
#X obj 362 297 hsl 128 15 0 1 0 0 empty empty empty -2 -8 0 10 -262144
-1 -1 0 1;
#X text 330 297 Rev;
#X obj 457 541 Reverber;
#X floatatom 511 433 5 0 0 0 - - -, f 5;
#X msg 150 103 0;
#X obj 357 170 r trim-2;
#X obj 744 171 r trim-3;
#X obj 565 146 r globalpresets;
#X obj 612 169 r cyclebutton;
#X obj 619 21 r setbutton;
#X connect 1 0 0 0;
#X connect 3 0 48 0;
#X connect 4 0 47 0;
#X connect 5 0 49 0;
#X connect 6 0 50 0;
#X connect 8 0 27 0;
#X connect 8 0 28 0;
#X connect 8 0 53 0;
#X connect 8 0 54 0;
#X connect 8 0 67 0;
#X connect 9 0 10 0;
#X connect 10 0 12 0;
#X connect 10 1 14 1;
#X connect 11 0 13 1;
#X connect 12 0 11 0;
#X connect 13 0 2 0;
#X connect 13 0 33 0;
#X connect 14 0 2 1;
#X connect 14 0 33 1;
#X connect 15 0 2 0;
#X connect 15 0 33 0;
#X connect 16 0 2 1;
#X connect 16 0 33 1;
#X connect 17 0 18 0;
#X connect 18 0 20 0;
#X connect 18 1 16 1;
#X connect 19 0 15 1;
#X connect 20 0 19 0;
#X connect 21 0 29 0;
#X connect 22 0 30 0;
#X connect 27 0 21 0;
#X connect 27 0 22 0;
#X connect 28 0 9 0;
#X connect 28 0 17 0;
#X connect 29 0 32 0;
#X connect 30 0 31 0;
#X connect 31 0 37 0;
#X connect 32 0 38 0;
#X connect 34 0 33 0;
#X connect 35 0 33 0;
#X connect 36 0 33 0;
#X connect 37 0 5 1;
#X connect 37 0 6 1;
#X connect 38 0 3 1;
#X connect 38 0 4 1;
#X connect 39 0 21 0;
#X connect 40 0 9 0;
#X connect 41 0 22 0;
#X connect 42 0 17 0;
#X connect 43 0 48 1;
#X connect 43 0 47 1;
#X connect 44 0 49 1;
#X connect 44 0 50 1;
#X connect 47 0 65 2;
#X connect 48 0 65 1;
#X connect 49 0 15 0;
#X connect 50 0 16 0;
#X connect 51 0 44 0;
#X connect 52 0 43 0;
#X connect 53 0 43 0;
#X connect 54 0 44 0;
#X connect 55 0 65 3;
#X connect 56 0 3 0;
#X connect 57 0 4 0;
#X connect 58 0 5 0;
#X connect 59 0 6 0;
#X connect 63 0 66 0;
#X connect 65 0 13 1;
#X connect 65 1 14 1;
#X connect 66 0 65 0;
#X connect 67 0 63 0;
#X connect 68 0 63 0;
#X connect 69 0 61 0;
#X connect 70 0 60 0;
#X connect 71 0 1 0;
#X connect 72 0 55 0;
#X coords 0 -1 1 1 1000 120 2 125 200;
