#N canvas 43 89 1257 662 10;
#X msg 612 377 \; pd dsp \$1;
#X obj 612 206 tgl 25 0 empty empty empty 17 7 0 10 -262144 -1 -1 1
1;
#X obj 671 616 dac~;
#X obj 131 459 lop~;
#X obj 322 487 lop~;
#X obj 921 499 lop~;
#X obj 1112 507 lop~;
#X text 612 231 DSP;
#X obj 23 14 loadbang;
#X obj 402 227 hsl 128 15 0 1 0 0 empty empty empty -2 -8 0 10 -262144
-1 -1 6350 1;
#X obj 208 519 t f f;
#X obj 208 557 abs;
#X obj 208 538 - 1;
#X obj 433 599 *~;
#X obj 493 598 *~;
#X obj 920 598 *~;
#X obj 1111 598 *~;
#X obj 707 227 hsl 128 15 0 1 0 0 empty empty empty -2 -8 0 10 -262144
-1 -1 6350 1;
#X obj 1004 524 t f f;
#X obj 1004 562 abs;
#X obj 1004 543 - 1;
#X obj 402 204 hsl 128 15 0.001 1 1 0 empty empty empty -2 -8 0 10
-262144 -1 -1 12700 1;
#X obj 707 204 hsl 128 15 0.001 1 1 0 empty empty empty -2 -8 0 10
-262144 -1 -1 12700 1;
#X text 370 204 LoP;
#X text 675 204 LoP;
#X text 371 227 Pan;
#X text 675 227 Pan;
#X msg 23 187 1;
#X msg 23 231 0.5;
#X obj 535 163 * 10000;
#X obj 840 158 * 10000;
#X floatatom 840 204 5 0 0 0 - - -, f 5;
#X floatatom 535 204 5 0 0 0 - - -, f 5;
#X obj 591 616 writesf~ 2;
#X msg 591 550 start;
#X msg 591 578 stop;
#X msg 591 522 open testshift.wav;
#X obj 169 117 panner-presets 0 1 2;
#X floatatom 1021 416 5 0 0 0 - - -, f 5;
#X floatatom 231 394 5 0 0 0 - - -, f 5;
#X obj 399 118 r fader-0;
#X obj 399 138 r trim-0;
#X obj 704 118 r fader-1;
#X obj 704 139 r trim-1;
#X obj 402 250 hsl 128 15 0 1 0 0 empty empty empty -2 -8 0 10 -262144
-1 -1 12700 1;
#X obj 707 250 hsl 128 15 0 1 0 0 empty empty empty -2 -8 0 10 -262144
-1 -1 12700 1;
#X text 676 250 Vol;
#X text 371 250 Vol;
#X obj 321 524 *~;
#X obj 132 524 *~;
#X obj 920 547 *~;
#X obj 1112 551 *~;
#X obj 704 160 r fader-3;
#X obj 399 159 r fader-2;
#X msg 399 98 1;
#X msg 704 98 1;
#X obj 434 542 freeverb~;
#X msg 434 385 roomsize \$1;
#X msg 434 407 damping \$1;
#X msg 434 429 width \$1;
#X msg 434 451 wet \$1;
#X msg 434 473 dry \$1;
#X msg 434 495 freeze \$1;
#X msg 434 517 bypass \$1;
#X obj 402 366 bng 15 250 50 0 empty empty empty 17 7 0 10 -262144
-1 -1;
#X obj 455 301 tgl 15 0 empty empty empty 17 7 0 10 -262144 -1 -1 1
1;
#X msg 402 407 0.1;
#X msg 402 473 0.8;
#X msg 402 451 0.2;
#X msg 402 385 0.4;
#X msg 402 429 1;
#X obj 130 336 r~ panpre012-l-send;
#X obj 321 336 r~ panpre012-r-send;
#X obj 920 336 r~ panpre345-l-send;
#X obj 1111 336 r~ panpre345-r-send;
#X connect 1 0 0 0;
#X connect 3 0 49 0;
#X connect 4 0 48 0;
#X connect 5 0 50 0;
#X connect 6 0 51 0;
#X connect 8 0 27 0;
#X connect 8 0 28 0;
#X connect 8 0 54 0;
#X connect 8 0 55 0;
#X connect 8 0 64 0;
#X connect 9 0 10 0;
#X connect 10 0 12 0;
#X connect 10 1 14 1;
#X connect 11 0 13 1;
#X connect 12 0 11 0;
#X connect 13 0 2 0;
#X connect 13 0 33 0;
#X connect 14 0 2 1;
#X connect 14 0 33 1;
#X connect 15 0 2 0;
#X connect 15 0 33 0;
#X connect 16 0 2 1;
#X connect 16 0 33 1;
#X connect 17 0 18 0;
#X connect 18 0 20 0;
#X connect 18 1 16 1;
#X connect 19 0 15 1;
#X connect 20 0 19 0;
#X connect 21 0 29 0;
#X connect 22 0 30 0;
#X connect 27 0 21 0;
#X connect 27 0 22 0;
#X connect 28 0 9 0;
#X connect 28 0 17 0;
#X connect 29 0 32 0;
#X connect 30 0 31 0;
#X connect 31 0 38 0;
#X connect 32 0 39 0;
#X connect 34 0 33 0;
#X connect 35 0 33 0;
#X connect 36 0 33 0;
#X connect 38 0 5 1;
#X connect 38 0 6 1;
#X connect 39 0 3 1;
#X connect 39 0 4 1;
#X connect 40 0 21 0;
#X connect 41 0 9 0;
#X connect 42 0 22 0;
#X connect 43 0 17 0;
#X connect 44 0 49 1;
#X connect 44 0 48 1;
#X connect 45 0 50 1;
#X connect 45 0 51 1;
#X connect 48 0 56 1;
#X connect 49 0 56 0;
#X connect 50 0 15 0;
#X connect 51 0 16 0;
#X connect 52 0 45 0;
#X connect 53 0 44 0;
#X connect 54 0 44 0;
#X connect 55 0 45 0;
#X connect 56 0 13 0;
#X connect 56 1 14 0;
#X connect 57 0 56 0;
#X connect 58 0 56 0;
#X connect 59 0 56 0;
#X connect 60 0 56 0;
#X connect 61 0 56 0;
#X connect 62 0 56 0;
#X connect 63 0 56 0;
#X connect 64 0 69 0;
#X connect 64 0 66 0;
#X connect 64 0 70 0;
#X connect 64 0 68 0;
#X connect 64 0 67 0;
#X connect 65 0 63 0;
#X connect 66 0 58 0;
#X connect 67 0 61 0;
#X connect 68 0 60 0;
#X connect 69 0 57 0;
#X connect 70 0 59 0;
#X connect 71 0 3 0;
#X connect 72 0 4 0;
#X connect 73 0 5 0;
#X connect 74 0 6 0;
#X coords 0 -1 1 1 1000 120 2 125 200;
