#N canvas 67 147 1257 597 10;
#X msg 928 34 \; pd dsp \$1;
#X obj 803 53 tgl 15 0 empty empty empty 17 7 0 10 -262144 -1 -1 0
1;
#X obj 84 331 r~;
#X msg 84 232 set reg0-tap\$1;
#X msg 94 252 set reg1-tap\$1;
#X msg 104 272 set reg2-tap\$1;
#X obj 94 351 r~;
#X obj 104 371 r~;
#X obj 172 440 *~;
#X obj 212 440 *~;
#X obj 253 440 *~;
#X obj 190 403 unpack f f f;
#X msg 190 335 0.333 0.166 0.333;
#X msg 213 356 0.166 0.166 0.166;
#X obj 138 492 *~;
#X obj 171 492 *~;
#X obj 198 492 *~;
#X obj 226 492 *~;
#X obj 254 492 *~;
#X obj 291 492 *~;
#X obj 297 445 unpack f f f f f f;
#X msg 297 378 1 0 1 1 0 1;
#X msg 305 398 1 1 1 1 1 1;
#X obj 261 197 hradio 15 1 0 4 empty empty empty 0 -8 0 10 -262144
-1 -1 0;
#X msg 190 312 0 0 0;
#X msg 357 355 0 0 0 0 0 0;
#X msg 330 302 1 0 0;
#X obj 261 235 sel 0 1 2 3;
#X msg 324 420 1 1 0 0 0 0;
#X obj 484 331 r~;
#X obj 494 351 r~;
#X obj 504 371 r~;
#X obj 572 440 *~;
#X obj 612 440 *~;
#X obj 653 440 *~;
#X obj 590 403 unpack f f f;
#X msg 590 335 0.333 0.166 0.333;
#X msg 613 356 0.166 0.166 0.166;
#X obj 538 492 *~;
#X obj 571 492 *~;
#X obj 598 492 *~;
#X obj 626 492 *~;
#X obj 654 492 *~;
#X obj 691 492 *~;
#X obj 697 445 unpack f f f f f f;
#X msg 697 378 1 0 1 1 0 1;
#X msg 705 398 1 1 1 1 1 1;
#X obj 661 197 hradio 15 1 0 4 empty empty empty 0 -8 0 10 -262144
-1 -1 0;
#X msg 590 312 0 0 0;
#X msg 757 355 0 0 0 0 0 0;
#X msg 730 302 1 0 0;
#X obj 661 235 sel 0 1 2 3;
#X msg 724 420 1 1 0 0 0 0;
#X msg 484 232 set reg3-tap\$1;
#X msg 494 252 set reg4-tap\$1;
#X msg 504 272 set reg5-tap\$1;
#X obj 84 147 hradio 15 1 0 3 empty empty empty 0 -8 0 10 -262144 -1
-1 0;
#X obj 484 147 hradio 15 1 0 3 empty empty empty 0 -8 0 10 -262144
-1 -1 0;
#X obj 902 317 dac~;
#X obj 901 220 lop~;
#X obj 928 248 lop~;
#X obj 204 552 throw~ todac-r0;
#X obj 139 573 throw~ todac-l0;
#X obj 605 555 throw~ todac-r1;
#X obj 539 576 throw~ todac-l1;
#X obj 902 160 catch~ todac-l0;
#X obj 928 179 catch~ todac-r0;
#X obj 971 260 lop~;
#X obj 998 288 lop~;
#X obj 972 200 catch~ todac-l1;
#X obj 998 219 catch~ todac-r1;
#X floatatom 803 72 5 0 0 0 - - -, f 5;
#X floatatom 803 91 5 0 0 0 - - -, f 5;
#X text 132 147 Which taps to draw from.;
#X text 352 195 volume scheme \; 0: off \; 1: 3 stereo \; 2: 3 mono
\; 3: 1 mono \;;
#X obj 84 110 r tapchoice012;
#X obj 484 105 r tapchoice345;
#X obj 261 169 r stereochoice123;
#X obj 661 171 r stereochoice123;
#X text 819 52 DSP;
#X text 843 71 LoP 1;
#X text 843 92 LoP 2;
#X connect 1 0 0 0;
#X connect 2 0 8 0;
#X connect 3 0 2 0;
#X connect 4 0 6 0;
#X connect 5 0 7 0;
#X connect 6 0 9 0;
#X connect 7 0 10 0;
#X connect 8 0 14 0;
#X connect 8 0 15 0;
#X connect 9 0 16 0;
#X connect 9 0 17 0;
#X connect 10 0 18 0;
#X connect 10 0 19 0;
#X connect 11 0 8 1;
#X connect 11 1 9 1;
#X connect 11 2 10 1;
#X connect 12 0 11 0;
#X connect 13 0 11 0;
#X connect 14 0 62 0;
#X connect 15 0 61 0;
#X connect 16 0 62 0;
#X connect 17 0 61 0;
#X connect 18 0 62 0;
#X connect 19 0 61 0;
#X connect 20 0 14 1;
#X connect 20 1 15 1;
#X connect 20 2 16 1;
#X connect 20 3 17 1;
#X connect 20 4 18 1;
#X connect 20 5 19 1;
#X connect 21 0 20 0;
#X connect 22 0 20 0;
#X connect 23 0 27 0;
#X connect 24 0 11 0;
#X connect 25 0 20 0;
#X connect 26 0 11 0;
#X connect 27 0 24 0;
#X connect 27 0 25 0;
#X connect 27 1 12 0;
#X connect 27 1 21 0;
#X connect 27 2 13 0;
#X connect 27 2 22 0;
#X connect 27 3 26 0;
#X connect 27 3 28 0;
#X connect 28 0 20 0;
#X connect 29 0 32 0;
#X connect 30 0 33 0;
#X connect 31 0 34 0;
#X connect 32 0 38 0;
#X connect 32 0 39 0;
#X connect 33 0 40 0;
#X connect 33 0 41 0;
#X connect 34 0 42 0;
#X connect 34 0 43 0;
#X connect 35 0 32 1;
#X connect 35 1 33 1;
#X connect 35 2 34 1;
#X connect 36 0 35 0;
#X connect 37 0 35 0;
#X connect 38 0 64 0;
#X connect 39 0 63 0;
#X connect 40 0 64 0;
#X connect 41 0 63 0;
#X connect 42 0 64 0;
#X connect 43 0 63 0;
#X connect 44 0 38 1;
#X connect 44 1 39 1;
#X connect 44 2 40 1;
#X connect 44 3 41 1;
#X connect 44 4 42 1;
#X connect 44 5 43 1;
#X connect 45 0 44 0;
#X connect 46 0 44 0;
#X connect 47 0 51 0;
#X connect 48 0 35 0;
#X connect 49 0 44 0;
#X connect 50 0 35 0;
#X connect 51 0 48 0;
#X connect 51 0 49 0;
#X connect 51 1 36 0;
#X connect 51 1 45 0;
#X connect 51 2 37 0;
#X connect 51 2 46 0;
#X connect 51 3 50 0;
#X connect 51 3 52 0;
#X connect 52 0 44 0;
#X connect 53 0 29 0;
#X connect 54 0 30 0;
#X connect 55 0 31 0;
#X connect 56 0 3 0;
#X connect 56 0 4 0;
#X connect 56 0 5 0;
#X connect 57 0 53 0;
#X connect 57 0 54 0;
#X connect 57 0 55 0;
#X connect 59 0 58 0;
#X connect 60 0 58 1;
#X connect 65 0 59 0;
#X connect 66 0 60 0;
#X connect 67 0 58 0;
#X connect 68 0 58 1;
#X connect 69 0 67 0;
#X connect 70 0 68 0;
#X connect 71 0 59 1;
#X connect 71 0 60 1;
#X connect 72 0 67 1;
#X connect 72 0 68 1;
#X connect 75 0 56 0;
#X connect 76 0 57 0;
#X connect 77 0 23 0;
#X connect 78 0 47 0;
#X coords 0 -1 1 1 85 60 2 800 50;
