#N canvas 43 155 1257 597 10;
#X msg 928 34 \; pd dsp \$1;
#X obj 803 53 tgl 15 0 empty empty empty 17 7 0 10 -262144 -1 -1 1
1;
#X obj 172 440 *~;
#X obj 212 440 *~;
#X obj 253 440 *~;
#X obj 190 403 unpack f f f;
#X msg 190 335 0.333 0.166 0.333;
#X msg 213 356 0.166 0.166 0.166;
#X obj 138 492 *~;
#X obj 171 492 *~;
#X obj 198 492 *~;
#X obj 226 492 *~;
#X obj 254 492 *~;
#X obj 291 492 *~;
#X obj 297 445 unpack f f f f f f;
#X msg 297 378 1 0 1 1 0 1;
#X msg 305 398 1 1 1 1 1 1;
#X obj 261 197 hradio 15 1 0 4 empty empty empty 0 -8 0 10 -262144
-1 -1 2;
#X msg 190 312 0 0 0;
#X msg 357 355 0 0 0 0 0 0;
#X msg 330 302 1 0 0;
#X obj 261 235 sel 0 1 2 3;
#X msg 324 420 1 1 0 0 0 0;
#X obj 572 440 *~;
#X obj 612 440 *~;
#X obj 653 440 *~;
#X obj 590 403 unpack f f f;
#X msg 590 335 0.333 0.166 0.333;
#X msg 613 356 0.166 0.166 0.166;
#X obj 538 492 *~;
#X obj 571 492 *~;
#X obj 598 492 *~;
#X obj 626 492 *~;
#X obj 654 492 *~;
#X obj 691 492 *~;
#X obj 697 445 unpack f f f f f f;
#X msg 697 378 1 0 1 1 0 1;
#X msg 705 398 1 1 1 1 1 1;
#X obj 661 197 hradio 15 1 0 4 empty empty empty 0 -8 0 10 -262144
-1 -1 3;
#X msg 590 312 0 0 0;
#X msg 757 355 0 0 0 0 0 0;
#X msg 730 302 1 0 0;
#X obj 661 235 sel 0 1 2 3;
#X msg 724 420 1 1 0 0 0 0;
#X obj 902 317 dac~;
#X obj 901 220 lop~;
#X obj 928 248 lop~;
#X obj 204 552 throw~ todac-r0;
#X obj 139 573 throw~ todac-l0;
#X obj 605 555 throw~ todac-r1;
#X obj 539 576 throw~ todac-l1;
#X obj 902 160 catch~ todac-l0;
#X obj 928 179 catch~ todac-r0;
#X obj 971 260 lop~;
#X obj 998 288 lop~;
#X obj 972 200 catch~ todac-l1;
#X obj 998 219 catch~ todac-r1;
#X floatatom 803 72 5 0 0 0 - - -, f 5;
#X floatatom 803 91 5 0 0 0 - - -, f 5;
#X text 352 195 volume scheme \; 0: off \; 1: 3 stereo \; 2: 3 mono
\; 3: 1 mono \;;
#X text 819 52 DSP;
#X text 843 71 LoP 1;
#X text 843 92 LoP 2;
#X obj 261 169 r stereochoice012;
#X obj 592 16 loadbang;
#X msg 632 53 10000;
#X obj 661 171 r stereochoice345;
#X obj 84 331 r~ reg0-tap0;
#X obj 94 351 r~ reg1-tap0;
#X obj 104 371 r~ reg2-tap0;
#X obj 484 331 r~ reg3-tap0;
#X obj 494 351 r~ reg4-tap0;
#X obj 504 371 r~ reg5-tap0;
#X obj 247 97 loadbang;
#X msg 248 119 2;
#X connect 1 0 0 0;
#X connect 2 0 8 0;
#X connect 2 0 9 0;
#X connect 3 0 10 0;
#X connect 3 0 11 0;
#X connect 4 0 12 0;
#X connect 4 0 13 0;
#X connect 5 0 2 1;
#X connect 5 1 3 1;
#X connect 5 2 4 1;
#X connect 6 0 5 0;
#X connect 7 0 5 0;
#X connect 8 0 48 0;
#X connect 9 0 47 0;
#X connect 10 0 48 0;
#X connect 11 0 47 0;
#X connect 12 0 48 0;
#X connect 13 0 47 0;
#X connect 14 0 8 1;
#X connect 14 1 9 1;
#X connect 14 2 10 1;
#X connect 14 3 11 1;
#X connect 14 4 12 1;
#X connect 14 5 13 1;
#X connect 15 0 14 0;
#X connect 16 0 14 0;
#X connect 17 0 21 0;
#X connect 18 0 5 0;
#X connect 19 0 14 0;
#X connect 20 0 5 0;
#X connect 21 0 18 0;
#X connect 21 0 19 0;
#X connect 21 1 6 0;
#X connect 21 1 15 0;
#X connect 21 2 7 0;
#X connect 21 2 16 0;
#X connect 21 3 20 0;
#X connect 21 3 22 0;
#X connect 22 0 14 0;
#X connect 23 0 29 0;
#X connect 23 0 30 0;
#X connect 24 0 31 0;
#X connect 24 0 32 0;
#X connect 25 0 33 0;
#X connect 25 0 34 0;
#X connect 26 0 23 1;
#X connect 26 1 24 1;
#X connect 26 2 25 1;
#X connect 27 0 26 0;
#X connect 28 0 26 0;
#X connect 29 0 50 0;
#X connect 30 0 49 0;
#X connect 31 0 50 0;
#X connect 32 0 49 0;
#X connect 33 0 50 0;
#X connect 34 0 49 0;
#X connect 35 0 29 1;
#X connect 35 1 30 1;
#X connect 35 2 31 1;
#X connect 35 3 32 1;
#X connect 35 4 33 1;
#X connect 35 5 34 1;
#X connect 36 0 35 0;
#X connect 37 0 35 0;
#X connect 38 0 42 0;
#X connect 39 0 26 0;
#X connect 40 0 35 0;
#X connect 41 0 26 0;
#X connect 42 0 39 0;
#X connect 42 0 40 0;
#X connect 42 1 27 0;
#X connect 42 1 36 0;
#X connect 42 2 28 0;
#X connect 42 2 37 0;
#X connect 42 3 41 0;
#X connect 42 3 43 0;
#X connect 43 0 35 0;
#X connect 45 0 44 0;
#X connect 46 0 44 1;
#X connect 51 0 45 0;
#X connect 52 0 46 0;
#X connect 53 0 44 0;
#X connect 54 0 44 1;
#X connect 55 0 53 0;
#X connect 56 0 54 0;
#X connect 57 0 45 1;
#X connect 57 0 46 1;
#X connect 58 0 53 1;
#X connect 58 0 54 1;
#X connect 63 0 17 0;
#X connect 64 0 65 0;
#X connect 65 0 57 0;
#X connect 65 0 58 0;
#X connect 66 0 38 0;
#X connect 67 0 2 0;
#X connect 68 0 3 0;
#X connect 69 0 4 0;
#X connect 70 0 23 0;
#X connect 71 0 24 0;
#X connect 72 0 25 0;
#X connect 73 0 74 0;
#X connect 74 0 17 0;
#X coords 0 -1 1 1 85 60 2 800 50;
