#N canvas 43 89 1257 662 10;
#X msg 612 377 \; pd dsp \$1;
#X obj 612 206 tgl 25 0 empty empty empty 17 7 0 10 -262144 -1 -1 0
1;
#X obj 671 616 dac~;
#X obj 131 459 lop~;
#X obj 322 487 lop~;
#X obj 921 499 lop~;
#X obj 1112 507 lop~;
#X text 612 231 DSP;
#X obj 23 14 loadbang;
#X obj 402 227 hsl 128 15 0 1 0 0 empty empty empty -2 -8 0 10 -262144
-1 -1 4200 1;
#X obj 208 519 t f f;
#X obj 208 557 abs;
#X obj 208 538 - 1;
#X obj 132 599 *~;
#X obj 321 599 *~;
#X obj 920 598 *~;
#X obj 1111 598 *~;
#X obj 707 227 hsl 128 15 0 1 0 0 empty empty empty -2 -8 0 10 -262144
-1 -1 5600 1;
#X obj 1004 524 t f f;
#X obj 1004 562 abs;
#X obj 1004 543 - 1;
#X obj 402 204 hsl 128 15 0.001 1 1 0 empty empty empty -2 -8 0 10
-262144 -1 -1 10751 1;
#X obj 707 204 hsl 128 15 0.001 1 1 0 empty empty empty -2 -8 0 10
-262144 -1 -1 10107 1;
#X text 370 204 LoP;
#X text 675 204 LoP;
#X text 371 227 Pan;
#X text 675 227 Pan;
#X msg 23 187 1;
#X msg 23 231 0.5;
#X obj 535 163 * 10000;
#X obj 840 158 * 10000;
#X floatatom 840 204 5 0 0 0 - - -, f 5;
#X floatatom 535 204 5 0 0 0 - - -, f 5;
#X obj 591 616 writesf~ 2;
#X msg 591 550 start;
#X msg 591 578 stop;
#X msg 591 522 open testshift.wav;
#X obj 920 205 panner-presets 3 4 5;
#X obj 130 205 panner-presets 0 1 2;
#X floatatom 1021 416 5 0 0 0 - - -, f 5;
#X floatatom 231 394 5 0 0 0 - - -, f 5;
#X msg 572 31 0;
#X obj 399 118 r fader-0;
#X obj 399 138 r trim-0;
#X obj 704 118 r fader-1;
#X obj 704 139 r trim-1;
#X obj 402 250 hsl 128 15 0 1 0 0 empty empty empty -2 -8 0 10 -262144
-1 -1 9800 1;
#X obj 707 250 hsl 128 15 0 1 0 0 empty empty empty -2 -8 0 10 -262144
-1 -1 8800 1;
#X text 676 250 Vol;
#X text 371 250 Vol;
#X obj 321 524 *~;
#X obj 132 524 *~;
#X obj 920 547 *~;
#X obj 1112 551 *~;
#X obj 704 160 r fader-3;
#X obj 399 159 r fader-2;
#X connect 1 0 0 0;
#X connect 3 0 51 0;
#X connect 4 0 50 0;
#X connect 5 0 52 0;
#X connect 6 0 53 0;
#X connect 8 0 41 0;
#X connect 8 0 27 0;
#X connect 8 0 28 0;
#X connect 9 0 10 0;
#X connect 10 0 12 0;
#X connect 10 1 14 1;
#X connect 11 0 13 1;
#X connect 12 0 11 0;
#X connect 13 0 2 0;
#X connect 13 0 33 0;
#X connect 14 0 2 1;
#X connect 14 0 33 1;
#X connect 15 0 2 0;
#X connect 15 0 33 0;
#X connect 16 0 2 1;
#X connect 16 0 33 1;
#X connect 17 0 18 0;
#X connect 18 0 20 0;
#X connect 18 1 16 1;
#X connect 19 0 15 1;
#X connect 20 0 19 0;
#X connect 21 0 29 0;
#X connect 22 0 30 0;
#X connect 27 0 21 0;
#X connect 27 0 22 0;
#X connect 28 0 9 0;
#X connect 28 0 17 0;
#X connect 29 0 32 0;
#X connect 30 0 31 0;
#X connect 31 0 39 0;
#X connect 32 0 40 0;
#X connect 34 0 33 0;
#X connect 35 0 33 0;
#X connect 36 0 33 0;
#X connect 37 0 5 0;
#X connect 37 1 6 0;
#X connect 38 0 3 0;
#X connect 38 1 4 0;
#X connect 39 0 5 1;
#X connect 39 0 6 1;
#X connect 40 0 3 1;
#X connect 40 0 4 1;
#X connect 41 0 38 0;
#X connect 41 0 37 0;
#X connect 42 0 21 0;
#X connect 43 0 9 0;
#X connect 44 0 22 0;
#X connect 45 0 17 0;
#X connect 46 0 51 1;
#X connect 46 0 50 1;
#X connect 47 0 52 1;
#X connect 47 0 53 1;
#X connect 50 0 14 0;
#X connect 51 0 13 0;
#X connect 52 0 15 0;
#X connect 53 0 16 0;
#X connect 54 0 47 0;
#X connect 55 0 46 0;
#X coords 0 -1 1 1 1000 70 2 125 200;
