#N canvas 67 94 1257 662 10;
#X msg 612 377 \; pd dsp \$1;
#X obj 612 237 tgl 25 0 empty empty empty 17 7 0 10 -262144 -1 -1 0
1;
#X obj 695 645 dac~;
#X obj 131 459 lop~;
#X obj 322 487 lop~;
#X obj 921 499 lop~;
#X obj 1112 507 lop~;
#X text 641 242 DSP;
#X obj 23 14 loadbang;
#X obj 362 226 hsl 128 15 0 1 0 0 empty empty empty -2 -8 0 10 -262144
-1 -1 6350 1;
#X obj 262 546 t f f;
#X obj 208 592 abs;
#X obj 208 573 - 1;
#X obj 438 598 *~;
#X obj 493 598 *~;
#X obj 920 598 *~;
#X obj 1111 598 *~;
#X obj 747 226 hsl 128 15 0 1 0 0 empty empty empty -2 -8 0 10 -262144
-1 -1 6350 1;
#X obj 1004 524 t f f;
#X obj 1004 562 abs;
#X obj 1004 543 - 1;
#X obj 362 203 hsl 128 15 0.001 1 1 0 empty empty empty -2 -8 0 10
-262144 -1 -1 12700 1;
#X obj 747 203 hsl 128 15 0.001 1 1 0 empty empty empty -2 -8 0 10
-262144 -1 -1 12700 1;
#X text 330 203 LoP;
#X text 715 203 LoP;
#X text 330 226 Pan;
#X text 715 226 Pan;
#X msg 23 186 1;
#X msg 23 209 0.5;
#X obj 495 153 * 10000;
#X obj 880 148 * 10000;
#X floatatom 880 203 5 0 0 0 - - -, f 5;
#X floatatom 495 203 5 0 0 0 - - -, f 5;
#X floatatom 1021 416 5 0 0 0 - - -, f 5;
#X floatatom 231 394 5 0 0 0 - - -, f 5;
#X obj 359 108 r fader-0;
#X obj 359 88 r trim-0;
#X obj 362 249 hsl 128 15 0 1 0 0 empty empty empty -2 -8 0 10 -262144
-1 -1 12700 1;
#X obj 747 249 hsl 128 15 0 1 0 0 empty empty empty -2 -8 0 10 -262144
-1 -1 12700 1;
#X text 715 249 Vol;
#X text 330 249 Vol;
#X obj 321 524 *~;
#X obj 132 524 *~;
#X obj 920 547 *~;
#X obj 1112 551 *~;
#X obj 744 159 r fader-3;
#X msg 359 31 1;
#X msg 744 31 1;
#X obj 618 269 tgl 15 0 empty empty empty 17 7 0 10 -262144 -1 -1 0
1;
#X obj 130 336 r~ panpre012-l-send;
#X obj 321 336 r~ panpre012-r-send;
#X obj 920 336 r~ panpre345-l-send;
#X obj 1111 336 r~ panpre345-r-send;
#X obj 565 203 hradio 20 1 0 6 empty empty empty 0 -8 0 5 -262144 -1
-1 0;
#X obj 747 272 hsl 128 15 0 1 0 0 empty empty empty -2 -8 0 10 -262144
-1 -1 0 1;
#X text 715 272 Rev;
#X obj 362 272 hsl 128 15 0 1 0 0 empty empty empty -2 -8 0 10 -262144
-1 -1 0 1;
#X text 330 272 Rev;
#X obj 457 541 Reverber;
#X floatatom 457 453 5 0 0 0 - - -, f 5;
#X msg 325 31 0;
#X obj 744 139 r trim-3;
#X obj 565 146 r globalpresets;
#X obj 612 169 r recordbutton;
#X obj 618 44 r stopbutton;
#X obj 359 148 r fader-1;
#X obj 359 128 r trim-1;
#X obj 744 119 r fader-2;
#X obj 744 99 r trim-2;
#X msg 710 31 0;
#X connect 1 0 0 0;
#X connect 3 0 42 0;
#X connect 4 0 41 0;
#X connect 5 0 43 0;
#X connect 6 0 44 0;
#X connect 8 0 27 0;
#X connect 8 0 28 0;
#X connect 8 0 46 0;
#X connect 8 0 47 0;
#X connect 8 0 60 0;
#X connect 8 0 69 0;
#X connect 9 0 10 0;
#X connect 10 0 12 0;
#X connect 10 1 14 1;
#X connect 11 0 13 1;
#X connect 12 0 11 0;
#X connect 13 0 2 0;
#X connect 14 0 2 1;
#X connect 15 0 2 0;
#X connect 16 0 2 1;
#X connect 17 0 18 0;
#X connect 18 0 20 0;
#X connect 18 1 16 1;
#X connect 19 0 15 1;
#X connect 20 0 19 0;
#X connect 21 0 29 0;
#X connect 22 0 30 0;
#X connect 27 0 21 0;
#X connect 27 0 22 0;
#X connect 28 0 9 0;
#X connect 28 0 17 0;
#X connect 29 0 32 0;
#X connect 30 0 31 0;
#X connect 31 0 33 0;
#X connect 32 0 34 0;
#X connect 33 0 5 1;
#X connect 33 0 6 1;
#X connect 34 0 3 1;
#X connect 34 0 4 1;
#X connect 35 0 9 0;
#X connect 36 0 21 0;
#X connect 37 0 42 1;
#X connect 37 0 41 1;
#X connect 38 0 43 1;
#X connect 38 0 44 1;
#X connect 41 0 58 2;
#X connect 42 0 58 1;
#X connect 43 0 15 0;
#X connect 44 0 16 0;
#X connect 45 0 54 0;
#X connect 46 0 37 0;
#X connect 47 0 38 0;
#X connect 48 0 58 3;
#X connect 49 0 3 0;
#X connect 50 0 4 0;
#X connect 51 0 5 0;
#X connect 52 0 6 0;
#X connect 56 0 59 0;
#X connect 58 0 13 0;
#X connect 58 1 14 0;
#X connect 59 0 58 0;
#X connect 60 0 56 0;
#X connect 61 0 38 0;
#X connect 62 0 53 0;
#X connect 63 0 1 0;
#X connect 64 0 48 0;
#X connect 65 0 56 0;
#X connect 66 0 37 0;
#X connect 67 0 17 0;
#X connect 68 0 22 0;
#X connect 69 0 54 0;
#X coords 0 -1 1 1 645 90 2 300 200;
