#N canvas 565 181 1552 857 10;
#X msg 1125 394 destroy;
#X obj 1057 218 Gem;
#X obj 97 347 rotateXYZ, f 15;
#X floatatom 117 253 5 0 0 0 - - -, f 5;
#X obj 97 509 scopeXYZ~ 2048;
#X floatatom 151 253 5 0 0 0 - - -, f 5;
#X floatatom 186 253 5 0 0 0 - - -, f 5;
#X obj 97 171 translateXYZ, f 16;
#X obj 1125 366 inlet;
#X obj 117 232 unpack f f f;
#X obj 97 10 gemhead;
#X obj 195 477 *~;
#X floatatom 249 475 5 0 0 0 - - -, f 5;
#X obj 1126 764 pix_record;
#X msg 1125 478 codeclist;
#X msg 1177 607 file /home/joshua/Desktop/Github_Repos/Statfeed_PD_Controller/Statfeed_PD_Controller_GEM-Center/whatever3.mp4
;
#X obj 1125 560 bng 15 250 50 0 empty empty empty 0 -6 0 8 -258699
-1 -1;
#N canvas 0 50 450 300 savepanel 0;
#X obj 114 62 inlet;
#X obj 114 254 outlet;
#X obj 114 199 t b a;
#X obj 114 125 savepanel;
#X msg 114 162 set file \$1;
#X connect 0 0 3 0;
#X connect 2 0 1 0;
#X connect 2 1 1 0;
#X connect 3 0 4 0;
#X connect 4 0 2 0;
#X restore 1125 586 pd savepanel;
#X msg 1125 532 record \$1;
#X obj 1125 506 tgl 15 0 empty empty empty 0 -6 0 8 -262144 -1 -1 0
1;
#X obj 1125 642 t a;
#X floatatom 1159 796 5 0 0 0 - - -, f 5;
#X obj 787 78 openpanel;
#X obj 787 60 bng 15 250 50 0 empty empty empty 17 7 0 10 -262144 -1
-1;
#X obj 508 635 dac~;
#X obj 750 152 readsf~ 3;
#X obj 787 283 tgl 25 0 empty empty empty 17 7 0 10 -262144 -1 -1 1
1;
#X msg 787 107 open \$1;
#X obj 508 606 *~ 0.333;
#X msg 838 285 0;
#X obj 1198 793 print;
#X obj 1126 708 pix_texture;
#X obj 1126 736 pix_rectangle;
#X msg 1125 450 codec 20;
#X obj 1186 670 pix_video;
#N canvas 67 325 853 379 gemwin 0;
#X obj 67 117 outlet;
#X obj 67 10 inlet;
#X obj 67 41 route create;
#X msg 67 90 set destroy;
#X msg 203 62 set create;
#X msg 172 227 destroy \, reset;
#X obj 322 300 outlet;
#X msg 22 162 dimen 683 384 \, create \, 1;
#X obj 56 246 gemwin;
#X obj 529 139 expr (1366 * 1.5);
#X obj 608 68 bng 15 250 50 0 empty empty empty 17 7 0 10 -262144 -1
-1;
#X floatatom 697 231 5 0 0 0 - - -, f 5;
#X floatatom 531 217 5 0 0 0 - - -, f 5;
#X obj 659 139 expr (768 * 1.5);
#X msg 232 162 dimen 1366 768 \, create \, 1;
#X connect 1 0 2 0;
#X connect 2 0 3 0;
#X connect 2 0 14 0;
#X connect 2 1 4 0;
#X connect 2 1 5 0;
#X connect 3 0 0 0;
#X connect 4 0 0 0;
#X connect 5 0 8 0;
#X connect 8 0 6 0;
#X connect 9 0 12 0;
#X connect 10 0 9 0;
#X connect 10 0 13 0;
#X connect 13 0 11 0;
#X connect 14 0 8 0;
#X restore 1125 422 pd gemwin;
#X obj 124 35 r translator1;
#X obj 117 203 r rotator1;
#X obj 124 147 line;
#X obj 193 148 line;
#X floatatom 124 85 5 0 0 0 - - -, f 5;
#X floatatom 158 85 5 0 0 0 - - -, f 5;
#X floatatom 193 85 5 0 0 0 - - -, f 5;
#X obj 124 64 unpack f f f;
#X obj 124 129 pack;
#X obj 124 111 r speed;
#X obj 159 130 pack;
#X obj 160 111 r speed;
#X obj 193 130 pack;
#X obj 194 111 r speed;
#X obj 159 148 line;
#X obj 117 317 line;
#X obj 186 318 line;
#X obj 117 299 pack;
#X obj 117 281 r speed;
#X obj 152 300 pack;
#X obj 153 281 r speed;
#X obj 186 300 pack;
#X obj 187 281 r speed;
#X obj 152 318 line;
#X obj 317 347 rotateXYZ, f 15;
#X floatatom 337 253 5 0 0 0 - - -, f 5;
#X obj 317 509 scopeXYZ~ 2048;
#X floatatom 371 253 5 0 0 0 - - -, f 5;
#X floatatom 406 253 5 0 0 0 - - -, f 5;
#X obj 317 171 translateXYZ, f 16;
#X obj 337 232 unpack f f f;
#X obj 317 10 gemhead;
#X obj 432 481 *~;
#X floatatom 411 453 5 0 0 0 - - -, f 5;
#X obj 344 147 line;
#X obj 413 148 line;
#X floatatom 344 85 5 0 0 0 - - -, f 5;
#X floatatom 378 85 5 0 0 0 - - -, f 5;
#X floatatom 413 85 5 0 0 0 - - -, f 5;
#X obj 344 64 unpack f f f;
#X obj 344 129 pack;
#X obj 344 111 r speed;
#X obj 379 130 pack;
#X obj 380 111 r speed;
#X obj 413 130 pack;
#X obj 414 111 r speed;
#X obj 379 148 line;
#X obj 337 317 line;
#X obj 406 318 line;
#X obj 337 299 pack;
#X obj 337 281 r speed;
#X obj 372 300 pack;
#X obj 373 281 r speed;
#X obj 406 300 pack;
#X obj 407 281 r speed;
#X obj 372 318 line;
#X obj 537 347 rotateXYZ, f 15;
#X floatatom 557 253 5 0 0 0 - - -, f 5;
#X obj 537 509 scopeXYZ~ 2048;
#X floatatom 591 253 5 0 0 0 - - -, f 5;
#X floatatom 626 253 5 0 0 0 - - -, f 5;
#X obj 537 171 translateXYZ, f 16;
#X obj 557 232 unpack f f f;
#X obj 537 10 gemhead;
#X obj 603 464 *~;
#X floatatom 631 453 5 0 0 0 - - -, f 5;
#X obj 564 147 line;
#X obj 633 148 line;
#X floatatom 564 85 5 0 0 0 - - -, f 5;
#X floatatom 598 85 5 0 0 0 - - -, f 5;
#X floatatom 633 85 5 0 0 0 - - -, f 5;
#X obj 564 64 unpack f f f;
#X obj 564 129 pack;
#X obj 564 111 r speed;
#X obj 599 130 pack;
#X obj 600 111 r speed;
#X obj 633 130 pack;
#X obj 634 111 r speed;
#X obj 599 148 line;
#X obj 557 317 line;
#X obj 626 318 line;
#X obj 557 299 pack;
#X obj 557 281 r speed;
#X obj 592 300 pack;
#X obj 593 281 r speed;
#X obj 626 300 pack;
#X obj 627 281 r speed;
#X obj 592 318 line;
#X obj 344 35 r translator2;
#X obj 337 203 r rotator2;
#X obj 564 35 r translator3;
#X obj 557 203 r rotator3;
#X obj 920 283 s speed;
#X floatatom 920 255 5 0 0 0 - - -, f 5;
#X floatatom 26 68 5 0 0 0 - - -, f 5;
#X obj 26 85 * -1;
#X floatatom 15 237 5 0 0 0 - - -, f 5;
#X obj 15 254 * -1;
#X floatatom 250 624 5 0 0 0 - - -, f 5;
#X floatatom 15 287 5 0 0 0 - - -, f 5;
#X floatatom 26 123 5 0 0 0 - - -, f 5;
#X floatatom 700 62 5 0 0 0 - - -, f 5;
#X msg 164 432 0;
#X obj 116 380 r phase1;
#X obj 164 413 t b f;
#X msg 384 435 0;
#X obj 384 416 t b f;
#X msg 604 432 0;
#X obj 604 413 t b f;
#X obj 329 416 r phase2;
#X obj 549 413 r phase3;
#X obj 69 654 unpack f f f f f f f;
#X obj 69 698 pack f f f;
#X obj 144 698 pack f f f;
#X obj 217 672 s phase1;
#X obj 69 618 r toring1;
#X obj 329 654 unpack f f f f f f f;
#X obj 329 698 pack f f f;
#X obj 404 698 pack f f f;
#X obj 477 672 s phase2;
#X obj 329 618 r toring2;
#X obj 589 654 unpack f f f f f f f;
#X obj 589 698 pack f f f;
#X obj 664 698 pack f f f;
#X obj 589 618 r toring3;
#X obj 737 672 s phase3;
#X obj 824 616 trader;
#X obj 824 578 hradio 15 1 0 3 empty empty empty 0 -8 0 10 -262144
-1 -1 1;
#X obj 424 738 s rotator2;
#X obj 69 738 s translator1;
#X obj 164 738 s rotator1;
#X obj 329 738 s translator2;
#X obj 589 738 s translator3;
#X obj 684 738 s rotator3;
#X obj 264 416 bng 15 250 50 0 empty empty empty 17 7 0 10 -262144
-1 -1;
#X obj 857 598 hradio 15 1 0 4 empty empty empty 0 -8 0 10 -262144
-1 -1 3;
#X floatatom 217 380 5 0 0 0 - - -, f 5;
#X floatatom 364 387 5 0 0 0 - - -, f 5;
#X floatatom 565 376 5 0 0 0 - - -, f 5;
#X obj 936 62 notein;
#X obj 952 107 / 127;
#X obj 952 137 * 800;
#X msg 936 589 0;
#X msg 951 560 1;
#X msg 966 589 2;
#X msg 982 560 0;
#X msg 997 589 1;
#X msg 1012 560 2;
#X msg 1026 589 3;
#X obj 936 531 sel 0 2 4 5 7 9 11;
#X obj 774 219 loadbang;
#X obj 694 525 metro;
#X obj 694 504 tgl 15 0 empty empty empty 17 7 0 10 -262144 -1 -1 0
1;
#X obj 726 597 statfeed;
#X msg 784 569 8;
#X floatatom 623 580 5 0 0 0 - - -, f 5;
#X msg 820 668 \$1 \$1;
#X obj 897 535 % 4;
#X obj 873 358 * 0.9;
#X obj 917 478 route 0 1 2 3 4 5 6 7 8 9;
#X msg 758 542 10;
#X obj 694 546 random 10;
#X obj 697 576 / 9;
#X obj 855 237 + 200;
#X obj 1034 301 metro 2000;
#X obj 903 423 + 5;
#X obj 906 392 random 12;
#X obj 972 423 + 5;
#X obj 975 392 random 12;
#X obj 1040 422 + 5;
#X obj 1043 391 random 12;
#X obj 1041 271 tgl 15 0 empty empty empty 17 7 0 10 -262144 -1 -1
0 1;
#X obj 811 452 line;
#X msg 811 427 \$1 1500;
#X obj 801 395 line;
#X msg 801 370 \$1 1500;
#X obj 791 515 line;
#X msg 791 490 \$1 1500;
#X obj 855 212 random 400;
#X floatatom 331 806 5 0 0 0 - - -, f 5;
#X floatatom 44 356 5 0 0 0 - - -, f 5;
#X obj 328 468 phasor~;
#X obj 38 433 phasor~;
#X obj 519 541 phasor~ 30;
#X obj 549 575 *~;
#X obj 319 575 *~;
#X obj 56 538 *~;
#X obj 191 600 line;
#X msg 186 572 \$1 250;
#X msg 105 583 1;
#X floatatom 189 542 5 0 0 0 - - -, f 5;
#X msg 138 559 0.02;
#X msg 144 590 2.9;
#X obj 1060 40 unpack f f f f f f f f f;
#X msg 17 329 18;
#X msg 870 6 -7 2 0 -7 0 0 -7 -2 0;
#X msg 230 789 14;
#X obj 453 424 *~ 0.5;
#X msg 40 799 draw tri;
#X connect 0 0 35 0;
#X connect 2 0 4 0;
#X connect 3 0 51 0;
#X connect 5 0 59 0;
#X connect 6 0 52 1;
#X connect 7 0 2 0;
#X connect 8 0 0 0;
#X connect 9 0 3 0;
#X connect 9 1 5 0;
#X connect 9 2 6 0;
#X connect 10 0 7 0;
#X connect 11 0 4 2;
#X connect 12 0 11 1;
#X connect 13 0 30 0;
#X connect 13 1 21 0;
#X connect 13 2 30 0;
#X connect 14 0 20 0;
#X connect 15 0 20 0;
#X connect 16 0 17 0;
#X connect 17 0 15 0;
#X connect 18 0 20 0;
#X connect 19 0 18 0;
#X connect 20 0 13 0;
#X connect 22 0 27 0;
#X connect 23 0 22 0;
#X connect 25 0 11 0;
#X connect 25 0 28 0;
#X connect 25 0 233 0;
#X connect 25 1 28 0;
#X connect 25 1 100 0;
#X connect 25 1 233 0;
#X connect 25 3 29 0;
#X connect 26 0 25 0;
#X connect 27 0 25 0;
#X connect 28 0 24 0;
#X connect 28 0 24 1;
#X connect 29 0 26 0;
#X connect 31 0 32 0;
#X connect 32 0 13 0;
#X connect 33 0 20 0;
#X connect 34 0 31 0;
#X connect 35 0 0 0;
#X connect 35 1 34 0;
#X connect 36 0 43 0;
#X connect 37 0 9 0;
#X connect 38 0 7 1;
#X connect 39 0 7 3;
#X connect 40 0 44 0;
#X connect 41 0 46 0;
#X connect 42 0 48 0;
#X connect 43 0 40 0;
#X connect 43 1 41 0;
#X connect 43 2 42 0;
#X connect 44 0 38 0;
#X connect 45 0 44 1;
#X connect 46 0 50 0;
#X connect 47 0 46 1;
#X connect 48 0 39 0;
#X connect 49 0 48 1;
#X connect 50 0 7 2;
#X connect 51 0 2 1;
#X connect 52 0 2 3;
#X connect 53 0 51 0;
#X connect 54 0 53 1;
#X connect 55 0 59 0;
#X connect 56 0 55 1;
#X connect 57 0 52 0;
#X connect 58 0 57 1;
#X connect 59 0 2 2;
#X connect 60 0 62 0;
#X connect 61 0 83 0;
#X connect 63 0 91 0;
#X connect 64 0 84 1;
#X connect 65 0 60 0;
#X connect 66 0 61 0;
#X connect 66 1 63 0;
#X connect 66 2 64 0;
#X connect 67 0 65 0;
#X connect 68 0 62 2;
#X connect 69 0 68 1;
#X connect 70 0 65 1;
#X connect 71 0 65 3;
#X connect 72 0 76 0;
#X connect 73 0 78 0;
#X connect 74 0 80 0;
#X connect 75 0 72 0;
#X connect 75 1 73 0;
#X connect 75 2 74 0;
#X connect 76 0 70 0;
#X connect 77 0 76 1;
#X connect 78 0 82 0;
#X connect 79 0 78 1;
#X connect 80 0 71 0;
#X connect 81 0 80 1;
#X connect 82 0 65 2;
#X connect 83 0 60 1;
#X connect 84 0 60 3;
#X connect 85 0 83 0;
#X connect 86 0 85 1;
#X connect 87 0 91 0;
#X connect 88 0 87 1;
#X connect 89 0 84 0;
#X connect 90 0 89 1;
#X connect 91 0 60 2;
#X connect 92 0 94 0;
#X connect 93 0 115 0;
#X connect 95 0 123 0;
#X connect 96 0 116 1;
#X connect 97 0 92 0;
#X connect 98 0 93 0;
#X connect 98 1 95 0;
#X connect 98 2 96 0;
#X connect 99 0 97 0;
#X connect 100 0 94 2;
#X connect 101 0 100 1;
#X connect 102 0 97 1;
#X connect 103 0 97 3;
#X connect 104 0 108 0;
#X connect 105 0 110 0;
#X connect 106 0 112 0;
#X connect 107 0 104 0;
#X connect 107 1 105 0;
#X connect 107 2 106 0;
#X connect 108 0 102 0;
#X connect 109 0 108 1;
#X connect 110 0 114 0;
#X connect 111 0 110 1;
#X connect 112 0 103 0;
#X connect 113 0 112 1;
#X connect 114 0 97 2;
#X connect 115 0 92 1;
#X connect 116 0 92 3;
#X connect 117 0 115 0;
#X connect 118 0 117 1;
#X connect 119 0 123 0;
#X connect 120 0 119 1;
#X connect 121 0 116 0;
#X connect 122 0 121 1;
#X connect 123 0 92 2;
#X connect 124 0 75 0;
#X connect 125 0 66 0;
#X connect 126 0 107 0;
#X connect 127 0 98 0;
#X connect 129 0 128 0;
#X connect 129 0 194 0;
#X connect 130 0 131 0;
#X connect 130 0 40 0;
#X connect 131 0 104 0;
#X connect 132 0 133 0;
#X connect 132 0 5 0;
#X connect 133 0 95 0;
#X connect 134 0 12 0;
#X connect 134 0 69 0;
#X connect 134 0 101 0;
#X connect 135 0 3 0;
#X connect 135 0 93 0;
#X connect 136 0 41 0;
#X connect 136 0 105 0;
#X connect 137 0 42 0;
#X connect 137 0 106 0;
#X connect 138 0 218 1;
#X connect 139 0 140 0;
#X connect 140 0 138 0;
#X connect 141 0 217 1;
#X connect 142 0 141 0;
#X connect 143 0 219 1;
#X connect 144 0 143 0;
#X connect 145 0 142 0;
#X connect 146 0 144 0;
#X connect 147 0 148 0;
#X connect 147 1 148 1;
#X connect 147 2 148 2;
#X connect 147 3 149 0;
#X connect 147 4 149 1;
#X connect 147 5 149 2;
#X connect 147 6 150 0;
#X connect 148 0 165 0;
#X connect 149 0 166 0;
#X connect 151 0 147 0;
#X connect 152 0 153 0;
#X connect 152 1 153 1;
#X connect 152 2 153 2;
#X connect 152 3 154 0;
#X connect 152 4 154 1;
#X connect 152 5 154 2;
#X connect 152 6 155 0;
#X connect 153 0 167 0;
#X connect 154 0 164 0;
#X connect 156 0 152 0;
#X connect 157 0 158 0;
#X connect 157 1 158 1;
#X connect 157 2 158 2;
#X connect 157 3 159 0;
#X connect 157 4 159 1;
#X connect 157 5 159 2;
#X connect 157 6 161 0;
#X connect 158 0 168 0;
#X connect 159 0 169 0;
#X connect 160 0 157 0;
#X connect 163 0 162 0;
#X connect 170 0 140 0;
#X connect 171 0 162 1;
#X connect 172 0 140 0;
#X connect 173 0 142 0;
#X connect 174 0 144 0;
#X connect 175 0 185 0;
#X connect 175 1 176 0;
#X connect 176 0 177 0;
#X connect 177 0 129 0;
#X connect 178 0 163 0;
#X connect 179 0 163 0;
#X connect 180 0 163 0;
#X connect 181 0 171 0;
#X connect 182 0 171 0;
#X connect 183 0 171 0;
#X connect 184 0 171 0;
#X connect 185 0 178 0;
#X connect 185 1 179 0;
#X connect 185 2 180 0;
#X connect 185 3 181 0;
#X connect 185 4 182 0;
#X connect 185 5 183 0;
#X connect 185 6 184 0;
#X connect 186 0 196 0;
#X connect 186 0 190 0;
#X connect 186 0 230 0;
#X connect 186 0 228 0;
#X connect 186 0 232 0;
#X connect 187 0 197 0;
#X connect 187 0 214 0;
#X connect 188 0 187 0;
#X connect 189 0 191 0;
#X connect 189 0 192 0;
#X connect 190 0 189 2;
#X connect 192 0 195 0;
#X connect 193 0 171 0;
#X connect 194 0 187 1;
#X connect 195 0 163 0;
#X connect 195 1 163 0;
#X connect 195 2 163 0;
#X connect 195 3 193 0;
#X connect 195 4 193 0;
#X connect 195 5 193 0;
#X connect 195 6 193 0;
#X connect 196 0 189 1;
#X connect 197 0 198 0;
#X connect 198 0 189 0;
#X connect 199 0 129 0;
#X connect 200 0 202 0;
#X connect 200 0 204 0;
#X connect 200 0 206 0;
#X connect 201 0 209 0;
#X connect 202 0 201 0;
#X connect 203 0 211 0;
#X connect 204 0 203 0;
#X connect 205 0 213 0;
#X connect 206 0 205 0;
#X connect 207 0 200 0;
#X connect 208 0 101 0;
#X connect 209 0 208 0;
#X connect 210 0 69 0;
#X connect 211 0 210 0;
#X connect 212 0 12 0;
#X connect 213 0 212 0;
#X connect 214 0 199 0;
#X connect 215 0 220 1;
#X connect 215 0 221 1;
#X connect 215 0 222 1;
#X connect 216 0 218 0;
#X connect 216 0 217 0;
#X connect 216 0 219 0;
#X connect 217 0 221 0;
#X connect 218 0 222 0;
#X connect 219 0 220 0;
#X connect 220 0 94 1;
#X connect 221 0 62 1;
#X connect 222 0 4 1;
#X connect 223 0 134 0;
#X connect 224 0 223 0;
#X connect 225 0 226 0;
#X connect 226 0 224 0;
#X connect 227 0 226 0;
#X connect 228 0 226 0;
#X connect 229 0 40 0;
#X connect 229 1 41 0;
#X connect 229 2 42 0;
#X connect 229 3 72 0;
#X connect 229 4 73 0;
#X connect 229 5 74 0;
#X connect 229 6 104 0;
#X connect 229 7 105 0;
#X connect 229 8 106 0;
#X connect 230 0 216 0;
#X connect 231 0 229 0;
#X connect 232 0 215 0;
#X connect 233 0 68 0;
#X connect 234 0 4 0;
#X connect 234 0 94 0;
#X connect 234 0 62 0;
