#N canvas 91 127 1239 616 10;
#X obj 300 388 shift_register_sixteen_bit~;
#X obj 476 122 hradio 12 1 0 32 empty empty empty 0 -8 0 10 -262144
-1 -1 12;
#X obj 476 134 hradio 12 1 0 32 empty empty empty 0 -8 0 10 -262144
-1 -1 8;
#X obj 476 146 hradio 12 1 0 32 empty empty empty 0 -8 0 10 -262144
-1 -1 10;
#X obj 476 158 hradio 12 1 0 32 empty empty empty 0 -8 0 10 -228856
-1 -1 9;
#X obj 680 388 shift_register_sixteen_bit~;
#X obj 618 58 unpack f f f f;
#X obj 203 550 s~ reg\$1-tap0;
#X obj 375 578 s~ reg\$1-tap1;
#X obj 460 122 vradio 12 1 0 2 empty empty empty 0 -8 0 10 -262144
-1 -1 1;
#X obj 460 146 vradio 12 1 0 2 empty empty empty 0 -8 0 10 -262144
-1 -1 1;
#X obj 444 134 vradio 12 1 0 2 empty empty empty 0 -8 0 10 -262144
-1 -1 1;
#X obj 858 295 triple_bitwise \$1 \$2;
#X obj 393 550 s~ reg\$1-tap2;
#X obj 565 550 s~ reg\$1-tap3;
#X obj 689 584 delwrite~ buffer\$1 1000;
#X obj 1008 384 delread~ buffer\$1;
#X obj 688 547 *~;
#X obj 774 543 *~;
#X obj 1006 547 *~;
#X obj 1148 547 *~;
#X obj 1147 584 throw~ reg\$2-inlet;
#X obj 301 341 catch~ reg\$1-inlet;
#X obj 1006 584 throw~ reg\$1-inlet;
#X obj 866 547 *~;
#X obj 865 584 throw~ reg\$2-inlet;
#X obj 1104 530 unpack f f f f f;
#X floatatom 724 547 5 0 0 0 - - -, f 5;
#X floatatom 810 547 5 0 0 0 - - -, f 5;
#X floatatom 900 547 5 0 0 0 - - -, f 5;
#X floatatom 1042 547 5 0 0 0 - - -, f 5;
#X floatatom 1184 547 5 0 0 0 - - -, f 5;
#X msg 1104 482 1 0 0 1 0;
#X msg 1104 442 0 0 0 0 0;
#X text 1174 443 OFF;
#X text 1173 483 SINGLE;
#X msg 1104 462 0 0 1 0 0;
#X text 1174 464 BYPASS;
#X msg 1104 502 0 1 0 0 1;
#X text 1175 503 BYPASS DELAY;
#X obj 1104 422 sel 0 1 2 3;
#X obj 1104 402 r topology\$1;
#X floatatom 319 122 5 0 0 0 - - -, f 5;
#X obj 302 122 bng 14 250 50 0 empty empty empty 17 7 0 10 -262144
-1 -1;
#X floatatom 319 136 5 0 0 0 - - -, f 5;
#X obj 81 195 osc~ 440;
#X obj 127 228 *~;
#X msg 145 195 0;
#X msg 177 195 1;
#X obj 618 25 r tap_indices\$1;
#X obj 82 16 r freq\$1;
#X obj 157 16 r wheel\$1;
#X obj 235 16 r trigger\$1;
#X obj 8 16 r delay\$1;
#X obj 302 150 bng 14 250 50 0 empty empty empty 17 7 0 10 -262144
-1 -1;
#X obj 222 46 r trigger\$1_wheel;
#X floatatom 302 168 5 0 0 0 - - -, f 5;
#N canvas 43 81 450 250 (subpatch) 0;
#X array scope\$1 79 float 1;
#A 0 0 0 0 0 0 0 0 0 0 0 0 0 0 0 0 0 0 0 0 0 0 0 0 0 0 0 0 0 0 0 0
0 0 0 0 0 0 0 0 0 0 0 0 0 0 0 0 0 0 0 0 0 0 0 0 0 0 0 0 0 0 0 0 0 0
0 0 0 0 0 0 0 0 0 0 0 0 0 0;
#X coords 0 1 78 0 79 42 2 0 0;
#X restore 362 137 graph;
#X obj 625 191 tgl 15 0 empty empty empty 17 7 0 10 -262144 -1 -1 1
1;
#X obj 527 214 loadbang;
#X obj 625 235 tabwrite~ scope\$1;
#X obj 625 212 metro 50;
#X obj 383 300 chooser;
#X obj 474 300 chooser;
#X obj 656 300 chooser;
#X obj 565 300 chooser;
#X obj 584 483 signal_router_sixteen_bit;
#X obj 204 483 signal_router_sixteen_bit;
#X obj 393 483 signal_router_sixteen_bit;
#X obj 774 483 signal_router_sixteen_bit;
#X obj 165 146 t b b;
#X floatatom 319 150 5 0 0 0 - - -, f 5;
#X obj 221 186 del;
#X obj 60 41 r freqtime\$1;
#X text 460 168 comment;
#X text 501 168 3;
#X msg 409 208 set \$1;
#X floatatom 409 236 5 0 0 0 - - -, f 5;
#X obj 302 193 s delay\$1-send;
#X obj 416 42 unpack f f f;
#X obj 415 21 r gates3\$1\$2-topanel;
#X obj 1050 268 s gates3\$1\$2-frompanel;
#X obj 1050 248 pack f f f;
#X obj 1013 145 s tap_indices\$1-send;
#X obj 1013 125 pack f f f f;
#X obj 1062 41 t b f;
#X obj 1035 69 t b f;
#X obj 1008 97 t b f;
#X obj 1051 192 t b f;
#X obj 1085 220 t b f;
#X connect 0 0 67 2;
#X connect 0 0 68 2;
#X connect 0 1 67 3;
#X connect 0 1 68 3;
#X connect 0 2 67 4;
#X connect 0 2 68 4;
#X connect 0 3 67 5;
#X connect 0 3 68 5;
#X connect 0 4 67 6;
#X connect 0 4 68 6;
#X connect 0 5 67 7;
#X connect 0 5 68 7;
#X connect 0 6 67 8;
#X connect 0 6 68 8;
#X connect 0 7 67 9;
#X connect 0 7 68 9;
#X connect 0 8 67 10;
#X connect 0 8 68 10;
#X connect 0 9 67 11;
#X connect 0 9 68 11;
#X connect 0 10 67 12;
#X connect 0 10 68 12;
#X connect 0 11 67 13;
#X connect 0 11 68 13;
#X connect 0 12 67 14;
#X connect 0 12 68 14;
#X connect 0 13 67 15;
#X connect 0 13 68 15;
#X connect 0 14 67 16;
#X connect 0 14 68 16;
#X connect 0 15 5 0;
#X connect 0 15 60 0;
#X connect 0 15 67 17;
#X connect 0 15 68 17;
#X connect 1 0 62 0;
#X connect 1 0 84 0;
#X connect 2 0 63 0;
#X connect 2 0 87 0;
#X connect 3 0 65 0;
#X connect 3 0 86 0;
#X connect 4 0 64 0;
#X connect 4 0 85 0;
#X connect 5 0 66 2;
#X connect 5 0 69 2;
#X connect 5 1 66 3;
#X connect 5 1 69 3;
#X connect 5 2 66 4;
#X connect 5 2 69 4;
#X connect 5 3 66 5;
#X connect 5 3 69 5;
#X connect 5 4 66 6;
#X connect 5 4 69 6;
#X connect 5 5 66 7;
#X connect 5 5 69 7;
#X connect 5 6 66 8;
#X connect 5 6 69 8;
#X connect 5 7 66 9;
#X connect 5 7 69 9;
#X connect 5 8 66 10;
#X connect 5 8 69 10;
#X connect 5 9 66 11;
#X connect 5 9 69 11;
#X connect 5 10 66 12;
#X connect 5 10 69 12;
#X connect 5 11 66 13;
#X connect 5 11 69 13;
#X connect 5 12 66 14;
#X connect 5 12 69 14;
#X connect 5 13 66 15;
#X connect 5 13 69 15;
#X connect 5 14 66 16;
#X connect 5 14 69 16;
#X connect 5 15 18 0;
#X connect 5 15 24 0;
#X connect 5 15 66 17;
#X connect 5 15 69 17;
#X connect 6 0 1 0;
#X connect 6 1 2 0;
#X connect 6 2 3 0;
#X connect 6 3 4 0;
#X connect 9 0 12 0;
#X connect 9 0 88 0;
#X connect 10 0 12 1;
#X connect 10 0 89 0;
#X connect 11 0 12 2;
#X connect 11 0 82 0;
#X connect 12 0 17 0;
#X connect 16 0 19 0;
#X connect 16 0 20 0;
#X connect 17 0 15 0;
#X connect 18 0 15 0;
#X connect 19 0 23 0;
#X connect 20 0 21 0;
#X connect 22 0 0 0;
#X connect 24 0 25 0;
#X connect 26 0 27 0;
#X connect 26 1 28 0;
#X connect 26 2 29 0;
#X connect 26 3 30 0;
#X connect 26 4 31 0;
#X connect 27 0 17 1;
#X connect 28 0 18 1;
#X connect 29 0 24 1;
#X connect 30 0 19 1;
#X connect 31 0 20 1;
#X connect 32 0 26 0;
#X connect 33 0 26 0;
#X connect 36 0 26 0;
#X connect 38 0 26 0;
#X connect 40 0 33 0;
#X connect 40 1 36 0;
#X connect 40 2 32 0;
#X connect 40 3 38 0;
#X connect 41 0 40 0;
#X connect 42 0 45 0;
#X connect 43 0 70 0;
#X connect 44 0 72 1;
#X connect 45 0 46 0;
#X connect 46 0 0 0;
#X connect 47 0 46 1;
#X connect 48 0 46 1;
#X connect 49 0 6 0;
#X connect 50 0 42 0;
#X connect 51 0 71 0;
#X connect 52 0 43 0;
#X connect 53 0 56 0;
#X connect 54 0 77 0;
#X connect 55 0 54 0;
#X connect 56 0 16 0;
#X connect 56 0 78 0;
#X connect 58 0 61 0;
#X connect 59 0 58 0;
#X connect 61 0 60 0;
#X connect 62 0 67 0;
#X connect 62 1 66 0;
#X connect 63 0 67 1;
#X connect 63 1 66 1;
#X connect 64 0 68 1;
#X connect 64 1 69 1;
#X connect 65 0 68 0;
#X connect 65 1 69 0;
#X connect 66 0 7 0;
#X connect 66 1 8 0;
#X connect 67 0 7 0;
#X connect 67 1 8 0;
#X connect 68 0 13 0;
#X connect 68 1 14 0;
#X connect 69 0 13 0;
#X connect 69 1 14 0;
#X connect 70 0 72 0;
#X connect 70 1 48 0;
#X connect 71 0 76 0;
#X connect 72 0 47 0;
#X connect 73 0 44 0;
#X connect 76 0 77 0;
#X connect 77 0 0 1;
#X connect 79 0 11 0;
#X connect 79 1 9 0;
#X connect 79 2 10 0;
#X connect 80 0 79 0;
#X connect 82 0 81 0;
#X connect 84 0 83 0;
#X connect 85 0 84 0;
#X connect 85 1 84 3;
#X connect 86 0 84 0;
#X connect 86 1 84 2;
#X connect 87 0 84 0;
#X connect 87 1 84 1;
#X connect 88 0 82 0;
#X connect 88 1 82 1;
#X connect 89 0 82 0;
#X connect 89 1 82 2;
#X coords 0 -1 1 1 558 60 2 302 122;
