#N canvas 43 144 1323 616 10;
#X obj 300 388 shift_register_sixteen_bit~;
#X obj 476 122 hradio 12 1 0 33 empty empty empty 0 -8 0 10 -262144
-1 -1 7;
#X obj 476 134 hradio 12 1 0 33 empty empty empty 0 -8 0 10 -262144
-1 -1 15;
#X obj 476 146 hradio 12 1 0 33 empty empty empty 0 -8 0 10 -262144
-1 -1 23;
#X obj 476 158 hradio 12 1 0 33 empty empty empty 0 -8 0 10 -228856
-1 -1 31;
#X obj 204 483 signal_router_sixteen_bit;
#X obj 680 388 shift_register_sixteen_bit~;
#X obj 393 483 signal_router_sixteen_bit;
#X obj 774 483 signal_router_sixteen_bit;
#X obj 584 483 signal_router_sixteen_bit;
#X obj 81 157 < 16;
#X obj 81 178 sel 1;
#X obj 81 199 t b b b;
#X msg 104 241 0;
#X msg 81 262 1;
#X msg 127 220 17;
#X obj 44 290 spigot;
#X obj 21 311 spigot;
#X obj 17 199 t b b b;
#X msg 40 241 0;
#X msg 17 262 1;
#X msg 63 220 17;
#X obj 21 136 t f f f;
#X obj 460 49 unpack f f f f;
#X obj 232 171 < 16;
#X obj 232 192 sel 1;
#X obj 232 213 t b b b;
#X msg 255 255 0;
#X msg 232 276 1;
#X msg 278 234 17;
#X obj 195 304 spigot;
#X obj 172 325 spigot;
#X obj 168 213 t b b b;
#X msg 191 255 0;
#X msg 168 276 1;
#X msg 214 234 17;
#X obj 172 150 t f f f;
#X obj 1087 -73 < 16;
#X obj 1087 -52 sel 1;
#X obj 1087 -31 t b b b;
#X msg 1110 11 0;
#X msg 1087 32 1;
#X msg 1133 -10 17;
#X obj 1050 60 spigot;
#X obj 1027 81 spigot;
#X obj 1023 -31 t b b b;
#X msg 1046 11 0;
#X msg 1023 32 1;
#X msg 1069 -10 17;
#X obj 1027 -94 t f f f;
#X obj 1238 -59 < 16;
#X obj 1238 -38 sel 1;
#X obj 1238 -17 t b b b;
#X msg 1261 25 0;
#X msg 1238 46 1;
#X msg 1284 4 17;
#X obj 1201 74 spigot;
#X obj 1178 95 spigot;
#X obj 1174 -17 t b b b;
#X msg 1197 25 0;
#X msg 1174 46 1;
#X msg 1220 4 17;
#X obj 1178 -80 t f f f;
#X obj 584 307 - 16;
#X obj 594 328 - 16;
#X obj 774 328 - 16;
#X obj 784 349 - 16;
#X obj 203 550 s~ reg\$1-tap0;
#X obj 375 578 s~ reg\$1-tap1;
#X obj 460 122 vradio 12 1 0 2 empty empty empty 0 -8 0 10 -262144
-1 -1 0;
#X obj 460 146 vradio 12 1 0 2 empty empty empty 0 -8 0 10 -262144
-1 -1 1;
#X obj 444 134 vradio 12 1 0 2 empty empty empty 0 -8 0 10 -262144
-1 -1 1;
#X obj 442 341 triple_bitwise \$1 \$2;
#X obj 393 550 s~ reg\$1-tap2;
#X obj 565 550 s~ reg\$1-tap3;
#X obj 689 584 delwrite~ buffer\$1 1000;
#X obj 1008 384 delread~ buffer\$1;
#X obj 688 547 *~;
#X obj 774 547 *~;
#X obj 1006 547 *~;
#X obj 1148 547 *~;
#X obj 1147 584 throw~ reg\$2-inlet;
#X obj 301 341 catch~ reg\$1-inlet;
#X obj 1006 584 throw~ reg\$1-inlet;
#X obj 864 548 *~;
#X obj 865 584 throw~ reg\$2-inlet;
#X obj 1104 530 unpack f f f f f;
#X floatatom 724 547 5 0 0 0 - - -, f 5;
#X floatatom 810 547 5 0 0 0 - - -, f 5;
#X floatatom 900 547 5 0 0 0 - - -, f 5;
#X floatatom 1042 547 5 0 0 0 - - -, f 5;
#X floatatom 1184 547 5 0 0 0 - - -, f 5;
#X msg 1104 482 1 0 0 1 0;
#X msg 1104 442 0 0 0 0 0;
#X text 1174 443 OFF;
#X text 1173 483 SINGLE;
#X msg 1104 462 0 0 1 0 0;
#X text 1174 464 BYPASS;
#X msg 1104 502 0 1 0 0 1;
#X text 1175 503 BYPASS DELAY;
#X obj 1104 422 sel 0 1 2 3;
#X obj 1104 402 r topology\$1;
#X floatatom 322 125 5 0 0 0 - - -, f 5;
#X obj 305 125 bng 14 250 50 0 empty empty empty 17 7 0 10 -262144
-1 -1;
#X floatatom 322 142 5 0 0 0 - - -, f 5;
#X obj 29 505 osc~ 440;
#X obj 75 538 *~;
#X obj 113 477 del 10;
#X obj 113 456 t b b;
#X msg 93 505 0;
#X msg 125 505 1;
#X obj 460 16 r tap_indices\$1;
#X obj 357 49 unpack f f f;
#X obj 357 16 r gates\$1;
#X obj 86 16 r freq\$1;
#X obj 157 16 r wheel\$1;
#X obj 235 16 r trigger\$1;
#X obj 8 16 r delay\$1;
#X obj 305 142 bng 14 250 50 0 empty empty empty 17 7 0 10 -262144
-1 -1;
#X msg 157 40 set \$1;
#X obj 224 46 r trigger\$1_wheel;
#X floatatom 305 165 5 0 0 0 - - -, f 5;
#N canvas 43 81 450 250 (subpatch) 0;
#X array scope\$1 79 float 1;
#A 0 0 0 0 0 0 0 0 0 0 0 0 0 0 0 0 0 0 0 0 0 0 0 0 0 0 0 0 0 0 0 0
0 0 0 0 0 0 0 0 0 0 0 0 0 0 0 0 0 0 0 0 0 0 0 0 0 0 0 0 0 0 0 0 0 0
0 0 0 0 0 0 0 0 0 0 0 0 0 0;
#X coords 0 1 78 0 79 42 2 0 0;
#X restore 362 137 graph;
#X obj 625 191 tgl 15 0 empty empty empty 17 7 0 10 -262144 -1 -1 1
1;
#X obj 725 187 loadbang;
#X obj 625 235 tabwrite~ scope\$1;
#X obj 625 212 metro 50;
#X connect 0 0 5 2;
#X connect 0 0 7 2;
#X connect 0 1 5 3;
#X connect 0 1 7 3;
#X connect 0 2 5 4;
#X connect 0 2 7 4;
#X connect 0 3 5 5;
#X connect 0 3 7 5;
#X connect 0 4 5 6;
#X connect 0 4 7 6;
#X connect 0 5 5 7;
#X connect 0 5 7 7;
#X connect 0 6 5 8;
#X connect 0 6 7 8;
#X connect 0 7 5 9;
#X connect 0 7 7 9;
#X connect 0 8 5 10;
#X connect 0 8 7 10;
#X connect 0 9 5 11;
#X connect 0 9 7 11;
#X connect 0 10 5 12;
#X connect 0 10 7 12;
#X connect 0 11 5 13;
#X connect 0 11 7 13;
#X connect 0 12 5 14;
#X connect 0 12 7 14;
#X connect 0 13 5 15;
#X connect 0 13 7 15;
#X connect 0 14 5 16;
#X connect 0 14 7 16;
#X connect 0 15 5 17;
#X connect 0 15 7 17;
#X connect 0 15 6 0;
#X connect 0 15 125 0;
#X connect 1 0 22 0;
#X connect 2 0 36 0;
#X connect 3 0 49 0;
#X connect 4 0 62 0;
#X connect 5 0 67 0;
#X connect 5 1 68 0;
#X connect 6 0 8 2;
#X connect 6 0 9 2;
#X connect 6 1 8 3;
#X connect 6 1 9 3;
#X connect 6 2 8 4;
#X connect 6 2 9 4;
#X connect 6 3 8 5;
#X connect 6 3 9 5;
#X connect 6 4 8 6;
#X connect 6 4 9 6;
#X connect 6 5 8 7;
#X connect 6 5 9 7;
#X connect 6 6 8 8;
#X connect 6 6 9 8;
#X connect 6 7 8 9;
#X connect 6 7 9 9;
#X connect 6 8 8 10;
#X connect 6 8 9 10;
#X connect 6 9 8 11;
#X connect 6 9 9 11;
#X connect 6 10 8 12;
#X connect 6 10 9 12;
#X connect 6 11 8 13;
#X connect 6 11 9 13;
#X connect 6 12 8 14;
#X connect 6 12 9 14;
#X connect 6 13 8 15;
#X connect 6 13 9 15;
#X connect 6 14 8 16;
#X connect 6 14 9 16;
#X connect 6 15 8 17;
#X connect 6 15 9 17;
#X connect 7 0 73 0;
#X connect 7 1 74 0;
#X connect 7 1 78 0;
#X connect 7 1 84 0;
#X connect 8 0 73 0;
#X connect 8 1 74 0;
#X connect 8 1 78 0;
#X connect 8 1 84 0;
#X connect 9 0 67 0;
#X connect 9 1 68 0;
#X connect 10 0 11 0;
#X connect 11 0 12 0;
#X connect 11 1 18 0;
#X connect 12 0 14 0;
#X connect 12 1 13 0;
#X connect 12 2 15 0;
#X connect 13 0 16 1;
#X connect 14 0 17 1;
#X connect 15 0 9 0;
#X connect 16 0 63 0;
#X connect 17 0 5 0;
#X connect 18 0 20 0;
#X connect 18 1 19 0;
#X connect 18 2 21 0;
#X connect 19 0 17 1;
#X connect 20 0 16 1;
#X connect 21 0 5 0;
#X connect 22 0 17 0;
#X connect 22 1 16 0;
#X connect 22 2 10 0;
#X connect 23 0 1 0;
#X connect 23 1 2 0;
#X connect 23 2 3 0;
#X connect 23 3 4 0;
#X connect 24 0 25 0;
#X connect 25 0 26 0;
#X connect 25 1 32 0;
#X connect 26 0 28 0;
#X connect 26 1 27 0;
#X connect 26 2 29 0;
#X connect 27 0 30 1;
#X connect 28 0 31 1;
#X connect 29 0 9 1;
#X connect 30 0 64 0;
#X connect 31 0 5 1;
#X connect 32 0 34 0;
#X connect 32 1 33 0;
#X connect 32 2 35 0;
#X connect 33 0 31 1;
#X connect 34 0 30 1;
#X connect 35 0 5 1;
#X connect 36 0 31 0;
#X connect 36 1 30 0;
#X connect 36 2 24 0;
#X connect 37 0 38 0;
#X connect 38 0 39 0;
#X connect 38 1 45 0;
#X connect 39 0 41 0;
#X connect 39 1 40 0;
#X connect 39 2 42 0;
#X connect 40 0 43 1;
#X connect 41 0 44 1;
#X connect 42 0 8 0;
#X connect 43 0 65 0;
#X connect 44 0 7 0;
#X connect 45 0 47 0;
#X connect 45 1 46 0;
#X connect 45 2 48 0;
#X connect 46 0 44 1;
#X connect 47 0 43 1;
#X connect 48 0 7 0;
#X connect 49 0 44 0;
#X connect 49 1 43 0;
#X connect 49 2 37 0;
#X connect 50 0 51 0;
#X connect 51 0 52 0;
#X connect 51 1 58 0;
#X connect 52 0 54 0;
#X connect 52 1 53 0;
#X connect 52 2 55 0;
#X connect 53 0 56 1;
#X connect 54 0 57 1;
#X connect 55 0 8 1;
#X connect 56 0 66 0;
#X connect 57 0 7 1;
#X connect 58 0 60 0;
#X connect 58 1 59 0;
#X connect 58 2 61 0;
#X connect 59 0 57 1;
#X connect 60 0 56 1;
#X connect 61 0 7 1;
#X connect 62 0 57 0;
#X connect 62 1 56 0;
#X connect 62 2 50 0;
#X connect 63 0 9 0;
#X connect 64 0 9 1;
#X connect 65 0 8 0;
#X connect 66 0 8 1;
#X connect 69 0 72 0;
#X connect 70 0 72 1;
#X connect 71 0 72 2;
#X connect 72 0 77 0;
#X connect 76 0 79 0;
#X connect 76 0 80 0;
#X connect 77 0 75 0;
#X connect 78 0 75 0;
#X connect 79 0 83 0;
#X connect 80 0 81 0;
#X connect 82 0 0 0;
#X connect 84 0 85 0;
#X connect 86 0 87 0;
#X connect 86 1 88 0;
#X connect 86 2 89 0;
#X connect 86 3 90 0;
#X connect 86 4 91 0;
#X connect 87 0 77 1;
#X connect 88 0 78 1;
#X connect 89 0 84 1;
#X connect 90 0 79 1;
#X connect 91 0 80 1;
#X connect 92 0 86 0;
#X connect 93 0 86 0;
#X connect 96 0 86 0;
#X connect 98 0 86 0;
#X connect 100 0 93 0;
#X connect 100 1 96 0;
#X connect 100 2 92 0;
#X connect 100 3 98 0;
#X connect 101 0 100 0;
#X connect 102 0 105 0;
#X connect 103 0 108 0;
#X connect 104 0 0 1;
#X connect 105 0 106 0;
#X connect 106 0 0 0;
#X connect 107 0 109 0;
#X connect 108 0 107 0;
#X connect 108 1 110 0;
#X connect 109 0 106 1;
#X connect 110 0 106 1;
#X connect 111 0 23 0;
#X connect 112 0 69 0;
#X connect 112 1 70 0;
#X connect 112 2 71 0;
#X connect 113 0 112 0;
#X connect 114 0 102 0;
#X connect 115 0 119 0;
#X connect 116 0 103 0;
#X connect 117 0 121 0;
#X connect 118 0 104 0;
#X connect 119 0 104 0;
#X connect 120 0 118 0;
#X connect 121 0 76 0;
#X connect 123 0 126 0;
#X connect 124 0 123 0;
#X connect 126 0 125 0;
#X coords 0 -1 1 1 570 60 2 302 122;
