#N canvas 192 121 874 592 10;
#X obj 502 65 inlet~;
#X obj 410 290 *~;
#X obj 602 290 *~;
#X obj 503 205 *~;
#X text 529 207 Volume;
#X text 441 291 Stereo Left and Right;
#X obj 177 65 inlet;
#X obj 177 217 - 1;
#X obj 177 245 abs;
#X floatatom 177 276 5 0 0 0 - - -, f 5;
#X obj 409 390 outlet~;
#X obj 602 390 outlet~;
#X text 104 45 Pan value (0=left to 1=right);
#X text 455 45 Signal to be panned;
#X obj 368 103 inlet;
#X connect 0 0 3 0;
#X connect 1 0 10 0;
#X connect 2 0 11 0;
#X connect 3 0 1 0;
#X connect 3 0 2 0;
#X connect 6 0 7 0;
#X connect 6 0 2 1;
#X connect 7 0 8 0;
#X connect 8 0 9 0;
#X connect 9 0 1 1;
#X connect 14 0 3 1;
