#N canvas 564 249 781 443 10;
#X obj 103 103 bng 15 250 50 0 empty empty empty 17 7 0 10 -262144
-1 -1;
#X obj 258 158 inlet;
#X obj 299 158 loadbang;
#X obj 258 405 s topology\$1\$2\$3-receive;
#X obj 277 386 s gates3\$1\$2\$3-receive;
#X obj 296 367 s gates2\$1\$2\$3-receive;
#X obj 315 348 s gates1\$1\$2\$3-receive;
#X obj 354 310 s taps2\$1\$2\$3-receive;
#X obj 373 291 s delay\$1\$2\$3-receive;
#X obj 335 329 s taps3\$1\$2\$3-receive;
#X obj 451 215 s freqtimes\$1\$2\$3;
#X obj 258 196 unpack f f f f f f f f f f f;
#X msg 258 177 3 0 0 2 0 0 1 3 0 0 0;
#X text 120 103 OFF;
#X msg 63 159 2 2 2 2 2 2 2 2 2 2 2;
#X obj 431 234 s freqs\$1\$2\$3;
#X obj 412 253 s wheel\$1\$2\$3-receive;
#X obj 393 272 s stereochoice\$1\$2\$3-receive;
#X connect 0 0 14 0;
#X connect 1 0 12 0;
#X connect 2 0 12 0;
#X connect 11 0 3 0;
#X connect 11 1 4 0;
#X connect 11 2 5 0;
#X connect 11 3 6 0;
#X connect 11 4 9 0;
#X connect 11 5 7 0;
#X connect 11 6 8 0;
#X connect 11 7 17 0;
#X connect 11 8 16 0;
#X connect 11 9 15 0;
#X connect 11 10 10 0;
#X connect 12 0 11 0;
#X connect 14 0 11 0;
#X coords 0 -1 1 1 618 50 2 100 100;
