#N canvas 145 105 1084 640 10;
#X obj 303 103 bng 15 250 50 0 empty empty empty 17 7 0 10 -262144
-1 -1;
#X obj 3 348 inlet;
#X obj 44 348 loadbang;
#X obj 3 595 s topology\$1\$2\$3-receive;
#X obj 22 576 s gates3\$1\$2\$3-receive;
#X obj 41 557 s gates2\$1\$2\$3-receive;
#X obj 60 538 s gates1\$1\$2\$3-receive;
#X obj 99 500 s taps2\$1\$2\$3-receive;
#X obj 118 481 s delay\$1\$2\$3-receive;
#X obj 80 519 s taps3\$1\$2\$3-receive;
#X obj 196 405 s freqtimes\$1\$2\$3;
#X obj 3 386 unpack f f f f f f f f f f f;
#X msg 3 367 3 0 0 2 0 0 1 3 0 0 0;
#X text 320 103 OFF;
#X msg 3 329 2 2 2 2 2 2 2 2 2 2 2;
#X obj 176 424 s freqs\$1\$2\$3;
#X obj 157 443 s wheel\$1\$2\$3-receive;
#X obj 138 462 s stereochoice\$1\$2\$3-receive;
#X obj 176 211 tapper \$1 \$2 \$3;
#X obj 315 134 nbx 5 12 -1e+37 1e+37 0 0 empty empty empty 0 -8 0 10
-262144 -1 -1 41 256;
#X obj 315 146 nbx 5 12 -1e+37 1e+37 0 0 empty empty empty 0 -8 0 10
-262144 -1 -1 21 256;
#X obj 315 158 nbx 5 12 -1e+37 1e+37 0 0 empty empty empty 0 -8 0 10
-262144 -1 -1 11 256;
#X obj 315 170 nbx 5 12 -1e+37 1e+37 0 0 empty empty empty 0 -8 0 10
-262144 -1 -1 0 256;
#X obj 303 134 vradio 12 1 0 4 empty empty empty 0 -8 0 10 -262144
-1 -1 0;
#X text 304 120 INCREMENTER;
#X msg 176 287 set \$1;
#X msg 210 268 set \$1;
#X msg 244 249 set \$1;
#X msg 278 230 set \$1;
#X obj 349 262 del;
#X obj 349 243 t b b;
#X obj 349 291 s trigger\$1_wheel;
#X obj 303 194 t b f b;
#X connect 0 0 14 0;
#X connect 1 0 12 0;
#X connect 2 0 12 0;
#X connect 11 0 3 0;
#X connect 11 1 4 0;
#X connect 11 2 5 0;
#X connect 11 3 6 0;
#X connect 11 4 9 0;
#X connect 11 5 7 0;
#X connect 11 6 8 0;
#X connect 11 7 17 0;
#X connect 11 8 16 0;
#X connect 11 9 15 0;
#X connect 11 10 10 0;
#X connect 12 0 11 0;
#X connect 14 0 11 0;
#X connect 18 0 25 0;
#X connect 18 1 26 0;
#X connect 18 2 27 0;
#X connect 18 3 28 0;
#X connect 19 0 18 1;
#X connect 20 0 18 2;
#X connect 21 0 18 3;
#X connect 22 0 18 4;
#X connect 23 0 32 0;
#X connect 25 0 19 0;
#X connect 26 0 20 0;
#X connect 27 0 21 0;
#X connect 28 0 22 0;
#X connect 29 0 31 0;
#X connect 30 0 29 0;
#X connect 32 0 18 0;
#X connect 32 2 30 0;
#X coords 0 -1 1 1 606 90 2 300 100;
