#N canvas 504 245 659 359 10;
#X obj 18 20 inlet;
#X obj 268 287 outlet;
#X obj 18 58 sel 0 1 2 3 4 5 6 7 8 9 10 11 12 13 14 15 16 17 18 19
20 21 22 23, f 79;
#X msg 18 159 0;
#X msg 40 139 0;
#X msg 63 119 0;
#X msg 86 99 0;
#X msg 109 159 0;
#X msg 132 139 0;
#X msg 155 119 0;
#X msg 178 99 0;
#X msg 201 159 0;
#X msg 224 139 0;
#X msg 247 119 0;
#X msg 270 98 0;
#X msg 293 159 0;
#X msg 315 139 0;
#X msg 338 119 0;
#X msg 361 99 0;
#X msg 384 159 0;
#X msg 407 139 0;
#X msg 430 119 0;
#X msg 453 99 0;
#X msg 476 159 0;
#X msg 499 139 0;
#X msg 522 119 0;
#X msg 545 99 0;
#X connect 0 0 2 0;
#X connect 2 0 3 0;
#X connect 2 1 4 0;
#X connect 2 2 5 0;
#X connect 2 3 6 0;
#X connect 2 4 7 0;
#X connect 2 5 8 0;
#X connect 2 6 9 0;
#X connect 2 7 10 0;
#X connect 2 8 11 0;
#X connect 2 9 12 0;
#X connect 2 10 13 0;
#X connect 2 11 14 0;
#X connect 2 12 15 0;
#X connect 2 13 16 0;
#X connect 2 14 17 0;
#X connect 2 15 18 0;
#X connect 2 16 19 0;
#X connect 2 17 20 0;
#X connect 2 18 21 0;
#X connect 2 19 22 0;
#X connect 2 20 23 0;
#X connect 2 21 24 0;
#X connect 2 22 25 0;
#X connect 2 23 26 0;
#X connect 3 0 1 0;
#X connect 4 0 1 0;
#X connect 5 0 1 0;
#X connect 6 0 1 0;
#X connect 7 0 1 0;
#X connect 8 0 1 0;
#X connect 9 0 1 0;
#X connect 10 0 1 0;
#X connect 11 0 1 0;
#X connect 12 0 1 0;
#X connect 13 0 1 0;
#X connect 14 0 1 0;
#X connect 15 0 1 0;
#X connect 16 0 1 0;
#X connect 17 0 1 0;
#X connect 18 0 1 0;
#X connect 19 0 1 0;
#X connect 20 0 1 0;
#X connect 21 0 1 0;
#X connect 22 0 1 0;
#X connect 23 0 1 0;
#X connect 24 0 1 0;
#X connect 25 0 1 0;
#X connect 26 0 1 0;
