#N canvas 185 140 1039 448 10;
#X obj 289 333 tapper \$1 \$2 \$3;
#X obj 315 134 nbx 5 12 -1e+37 1e+37 0 0 empty empty empty 0 -8 0 10
-262144 -1 -1 0 256;
#X obj 315 146 nbx 5 12 -1e+37 1e+37 0 0 empty empty empty 0 -8 0 10
-262144 -1 -1 14 256;
#X obj 315 158 nbx 5 12 -1e+37 1e+37 0 0 empty empty empty 0 -8 0 10
-262144 -1 -1 0 256;
#X obj 315 170 nbx 5 12 -1e+37 1e+37 0 0 empty empty empty 0 -8 0 10
-262144 -1 -1 0 256;
#X obj 303 134 vradio 12 1 0 4 empty empty empty 0 -8 0 10 -262144
-1 -1 0;
#X text 276 146 91;
#X obj 368 284 s taps2\$1\$2\$3-receive;
#X obj 368 134 vradio 12 1 0 4 empty empty empty 0 -8 0 10 -262144
-1 -1 0;
#X obj 368 207 t f f b;
#X msg 213 182 set \$1;
#X obj 257 312 t f f;
#X obj 160 96 t b f;
#X msg 160 117 0;
#X obj 391 113 hradio 12 1 0 8 empty empty empty 0 -8 0 10 -262144
-1 -1 1;
#X obj 391 125 hradio 12 1 0 8 empty empty empty 0 -8 0 10 -262144
-1 -1 4;
#X obj 391 137 hradio 12 1 0 8 empty empty empty 0 -8 0 10 -262144
-1 -1 2;
#X obj 494 113 hradio 12 1 0 8 empty empty empty 0 -8 0 10 -262144
-1 -1 0;
#X obj 494 125 hradio 12 1 0 8 empty empty empty 0 -8 0 10 -262144
-1 -1 4;
#X obj 494 137 hradio 12 1 0 8 empty empty empty 0 -8 0 10 -262144
-1 -1 4;
#X obj 597 113 hradio 12 1 0 8 empty empty empty 0 -8 0 10 -262144
-1 -1 3;
#X obj 597 125 hradio 12 1 0 8 empty empty empty 0 -8 0 10 -262144
-1 -1 4;
#X obj 597 137 hradio 12 1 0 8 empty empty empty 0 -8 0 10 -262144
-1 -1 0;
#X obj 700 113 hradio 12 1 0 8 empty empty empty 0 -8 0 10 -262144
-1 -1 4;
#X obj 700 125 hradio 12 1 0 8 empty empty empty 0 -8 0 10 -262144
-1 -1 4;
#X obj 700 137 hradio 12 1 0 8 empty empty empty 0 -8 0 10 -262144
-1 -1 4;
#X obj 803 113 hradio 12 1 0 8 empty empty empty 0 -8 0 10 -262144
-1 -1 4;
#X obj 803 125 hradio 12 1 0 8 empty empty empty 0 -8 0 10 -262144
-1 -1 3;
#X obj 803 137 hradio 12 1 0 8 empty empty empty 0 -8 0 10 -262144
-1 -1 4;
#X obj 391 57 r pads\$1\$2\$3-0;
#X obj 160 75 presets0;
#X obj 155 15 r incrementer\$1\$2\$3;
#X obj 368 29 r inctrigger\$1\$2\$3;
#X obj 438 206 Flusher \$1 \$2 \$3;
#X obj 438 168 bng 15 250 50 0 empty empty empty 17 7 0 10 -262144
-1 -1;
#X text 455 168 Flush buffers;
#X msg 391 239 set \$1;
#X floatatom 391 259 5 0 0 0 - - -, f 5;
#X obj 155 39 unpack f f f f;
#X obj 391 78 moduleighter;
#X obj 494 78 moduleighter;
#X obj 597 78 moduleighter;
#X obj 700 78 moduleighter;
#X obj 803 78 moduleighter;
#X obj 494 57 r pads\$1\$2\$3-1;
#X obj 597 57 r pads\$1\$2\$3-2;
#X obj 700 57 r pads\$1\$2\$3-3;
#X obj 803 57 r pads\$1\$2\$3-4;
#X msg 315 78 set \$1;
#X msg 315 57 set \$1;
#X msg 315 36 set \$1;
#X msg 315 15 set \$1;
#X obj 572 245 PresetsBig \$1 \$2 \$3;
#X obj 588 165 hradio 15 1 0 8 empty empty empty 0 -8 0 10 -262144
-1 -1 0;
#X connect 1 0 0 2;
#X connect 2 0 0 1;
#X connect 3 0 0 3;
#X connect 4 0 0 4;
#X connect 5 0 11 0;
#X connect 8 0 9 0;
#X connect 8 0 10 0;
#X connect 9 0 7 0;
#X connect 9 1 36 0;
#X connect 9 2 34 0;
#X connect 10 0 5 0;
#X connect 11 0 8 0;
#X connect 11 1 0 0;
#X connect 12 0 13 0;
#X connect 12 1 1 0;
#X connect 13 0 8 0;
#X connect 29 0 30 0;
#X connect 29 0 39 0;
#X connect 30 0 12 0;
#X connect 31 0 38 0;
#X connect 32 0 8 0;
#X connect 33 0 37 0;
#X connect 34 0 33 0;
#X connect 36 0 37 0;
#X connect 37 0 0 5;
#X connect 38 0 48 0;
#X connect 38 1 49 0;
#X connect 38 2 50 0;
#X connect 38 3 51 0;
#X connect 39 0 14 0;
#X connect 39 1 15 0;
#X connect 39 2 16 0;
#X connect 40 0 17 0;
#X connect 40 1 18 0;
#X connect 40 2 19 0;
#X connect 41 0 20 0;
#X connect 41 1 21 0;
#X connect 41 2 22 0;
#X connect 42 0 23 0;
#X connect 42 1 24 0;
#X connect 42 2 25 0;
#X connect 43 0 26 0;
#X connect 43 1 27 0;
#X connect 43 2 28 0;
#X connect 44 0 40 0;
#X connect 45 0 41 0;
#X connect 46 0 42 0;
#X connect 47 0 43 0;
#X connect 48 0 1 0;
#X connect 49 0 2 0;
#X connect 50 0 3 0;
#X connect 51 0 4 0;
#X connect 53 0 52 0;
#X coords 0 -1 1 1 606 90 2 300 100;
