#N canvas 364 129 1074 402 10;
#X obj 303 103 bng 15 250 50 0 empty empty empty 17 7 0 10 -262144
-1 -1;
#X obj 39 398 inlet;
#X obj 80 398 loadbang;
#X obj 39 645 s topology\$1\$2\$3-receive;
#X obj 58 626 s gates3\$1\$2\$3-receive;
#X obj 77 607 s gates2\$1\$2\$3-receive;
#X obj 96 588 s gates1\$1\$2\$3-receive;
#X obj 135 550 s taps2\$1\$2\$3-receive;
#X obj 154 531 s delay\$1\$2\$3-receive;
#X obj 116 569 s taps3\$1\$2\$3-receive;
#X obj 232 455 s freqtimes\$1\$2\$3;
#X obj 39 436 unpack f f f f f f f f f f f;
#X msg 39 417 3 0 0 2 0 0 1 3 0 0 0;
#X text 320 103 OFF;
#X obj 212 474 s freqs\$1\$2\$3;
#X obj 193 493 s wheel\$1\$2\$3-receive;
#X obj 174 512 s stereochoice\$1\$2\$3-receive;
#X obj 313 302 tapper \$1 \$2 \$3;
#X obj 315 134 nbx 5 12 -1e+37 1e+37 0 0 empty empty empty 0 -8 0 10
-262144 -1 -1 74 256;
#X obj 315 146 nbx 5 12 -1e+37 1e+37 0 0 empty empty empty 0 -8 0 10
-262144 -1 -1 0 256;
#X obj 315 158 nbx 5 12 -1e+37 1e+37 0 0 empty empty empty 0 -8 0 10
-262144 -1 -1 0 256;
#X obj 315 170 nbx 5 12 -1e+37 1e+37 0 0 empty empty empty 0 -8 0 10
-262144 -1 -1 0 256;
#X obj 303 134 vradio 12 1 0 4 empty empty empty 0 -8 0 10 -262144
-1 -1 0;
#X text 304 120 INCREMENTER;
#X obj 776 392 del;
#X obj 776 259 t b b;
#X obj 776 444 s trigger\$1_wheel;
#X obj 808 297 s gates1\$1\$2\$3-receive;
#X msg 808 278 3;
#X obj 920 344 r delay\$2-send;
#X obj 796 373 s delay\$1;
#X obj 816 354 s delay\$2;
#X obj 836 335 s delay\$3;
#X obj 776 316 t b b b b;
#X obj 887 371 +;
#X obj 869 390 +;
#X obj 914 324 r delay\$3-send;
#X obj 951 372 r delay\$1-send;
#X obj 776 411 t b b;
#X msg 747 280 2, f 2;
#X floatatom 839 411 5 0 0 0 - - -, f 5;
#X text 382 144 91;
#X obj 133 329 s taps2\$1\$2\$3-receive;
#X text 878 410 This clears the shift \; registers.;
#X obj 368 134 vradio 12 1 0 4 empty empty empty 0 -8 0 10 -262144
-1 -1 0;
#X obj 468 242 t f f b;
#X msg 368 197 set \$1;
#X obj 242 249 t f f;
#X obj 839 392 + 10;
#X text 410 145 comment;
#X obj 422 129 hradio 13 1 0 24 empty empty empty 0 -8 0 10 -262144
-1 -1 9;
#N canvas 43 89 559 300 firstincrementer 1;
#X obj 63 19 inlet;
#X obj 63 57 sel 0 1 2 3 4 5 6 7 8 9 10 11 12 13 14 15 16 17 18 19
20 21 22 23;
#X msg 63 158 6;
#X msg 80 138 14;
#X msg 97 118 29;
#X msg 114 98 30;
#X msg 131 158 31;
#X msg 148 138 58;
#X msg 165 118 62;
#X msg 182 98 74;
#X msg 199 158 81;
#X msg 216 138 88;
#X msg 233 118 195;
#X msg 250 97 230;
#X msg 268 158 370;
#X msg 285 138 418;
#X msg 302 118 439;
#X msg 319 98 449;
#X msg 336 158 472;
#X msg 353 138 474;
#X msg 370 118 483;
#X msg 387 98 485;
#X msg 404 158 510;
#X msg 421 138 862;
#X msg 438 118 962;
#X msg 455 98 928;
#X obj 248 236 outlet;
#X connect 0 0 1 0;
#X connect 1 0 2 0;
#X connect 1 1 3 0;
#X connect 1 2 4 0;
#X connect 1 3 5 0;
#X connect 1 4 6 0;
#X connect 1 5 7 0;
#X connect 1 6 8 0;
#X connect 1 7 9 0;
#X connect 1 8 10 0;
#X connect 1 9 11 0;
#X connect 1 10 12 0;
#X connect 1 11 13 0;
#X connect 1 12 14 0;
#X connect 1 13 15 0;
#X connect 1 14 16 0;
#X connect 1 15 17 0;
#X connect 1 16 18 0;
#X connect 1 17 19 0;
#X connect 1 18 20 0;
#X connect 1 19 21 0;
#X connect 1 20 22 0;
#X connect 1 21 23 0;
#X connect 1 22 24 0;
#X connect 1 23 25 0;
#X connect 2 0 26 0;
#X connect 3 0 26 0;
#X connect 4 0 26 0;
#X connect 5 0 26 0;
#X connect 6 0 26 0;
#X connect 7 0 26 0;
#X connect 8 0 26 0;
#X connect 9 0 26 0;
#X connect 10 0 26 0;
#X connect 11 0 26 0;
#X connect 12 0 26 0;
#X connect 13 0 26 0;
#X connect 14 0 26 0;
#X connect 15 0 26 0;
#X connect 16 0 26 0;
#X connect 17 0 26 0;
#X connect 18 0 26 0;
#X connect 19 0 26 0;
#X connect 20 0 26 0;
#X connect 21 0 26 0;
#X connect 22 0 26 0;
#X connect 23 0 26 0;
#X connect 24 0 26 0;
#X connect 25 0 26 0;
#X restore 451 36 pd firstincrementer;
#X obj 368 53 t b f;
#X msg 368 74 0;
#X floatatom 483 70 5 0 0 0 - - -, f 5;
#X floatatom 282 28 5 0 0 0 - - -, f 5;
#X connect 0 0 12 0;
#X connect 1 0 12 0;
#X connect 2 0 12 0;
#X connect 11 0 3 0;
#X connect 11 1 4 0;
#X connect 11 2 5 0;
#X connect 11 3 6 0;
#X connect 11 4 9 0;
#X connect 11 5 7 0;
#X connect 11 6 8 0;
#X connect 11 7 16 0;
#X connect 11 8 15 0;
#X connect 11 9 14 0;
#X connect 11 10 10 0;
#X connect 12 0 11 0;
#X connect 17 0 18 0;
#X connect 17 1 19 0;
#X connect 17 2 20 0;
#X connect 17 3 21 0;
#X connect 18 0 17 1;
#X connect 19 0 17 2;
#X connect 20 0 17 3;
#X connect 21 0 17 4;
#X connect 22 0 47 0;
#X connect 24 0 38 0;
#X connect 25 0 33 0;
#X connect 25 1 28 0;
#X connect 28 0 27 0;
#X connect 29 0 34 0;
#X connect 33 0 24 0;
#X connect 33 1 30 0;
#X connect 33 2 31 0;
#X connect 33 3 32 0;
#X connect 34 0 35 1;
#X connect 35 0 48 0;
#X connect 36 0 34 1;
#X connect 37 0 35 0;
#X connect 38 0 26 0;
#X connect 38 1 39 0;
#X connect 39 0 27 0;
#X connect 40 0 24 1;
#X connect 44 0 45 0;
#X connect 44 0 46 0;
#X connect 45 0 42 0;
#X connect 45 1 17 5;
#X connect 45 2 25 0;
#X connect 46 0 22 0;
#X connect 47 0 44 0;
#X connect 47 1 17 0;
#X connect 48 0 40 0;
#X connect 50 0 51 0;
#X connect 50 0 54 0;
#X connect 51 0 52 0;
#X connect 51 0 55 0;
#X connect 52 0 53 0;
#X connect 52 1 18 0;
#X connect 53 0 44 0;
#X coords 0 -1 1 1 606 90 2 300 100;
