#N canvas 223 131 1074 625 10;
#X obj 303 103 bng 15 250 50 0 empty empty empty 17 7 0 10 -262144
-1 -1;
#X obj 39 398 inlet;
#X obj 80 398 loadbang;
#X obj 39 645 s topology\$1\$2\$3-receive;
#X obj 58 626 s gates3\$1\$2\$3-receive;
#X obj 77 607 s gates2\$1\$2\$3-receive;
#X obj 96 588 s gates1\$1\$2\$3-receive;
#X obj 135 550 s taps2\$1\$2\$3-receive;
#X obj 154 531 s delay\$1\$2\$3-receive;
#X obj 116 569 s taps3\$1\$2\$3-receive;
#X obj 232 455 s freqtimes\$1\$2\$3;
#X obj 39 436 unpack f f f f f f f f f f f;
#X msg 39 417 3 0 0 2 0 0 1 3 0 0 0;
#X text 320 103 OFF;
#X obj 212 474 s freqs\$1\$2\$3;
#X obj 193 493 s wheel\$1\$2\$3-receive;
#X obj 174 512 s stereochoice\$1\$2\$3-receive;
#X obj 313 302 tapper \$1 \$2 \$3;
#X obj 315 134 nbx 5 12 -1e+37 1e+37 0 0 empty empty empty 0 -8 0 10
-262144 -1 -1 0 256;
#X obj 315 146 nbx 5 12 -1e+37 1e+37 0 0 empty empty empty 0 -8 0 10
-262144 -1 -1 646 256;
#X obj 315 158 nbx 5 12 -1e+37 1e+37 0 0 empty empty empty 0 -8 0 10
-262144 -1 -1 0 256;
#X obj 315 170 nbx 5 12 -1e+37 1e+37 0 0 empty empty empty 0 -8 0 10
-262144 -1 -1 0 256;
#X obj 303 134 vradio 12 1 0 4 empty empty empty 0 -8 0 10 -262144
-1 -1 1;
#X text 304 120 INCREMENTER;
#X obj 585 517 del;
#X obj 585 384 t b b;
#X obj 585 594 s trigger\$1_wheel;
#X obj 617 422 s gates1\$1\$2\$3-receive;
#X msg 617 403 3;
#X obj 729 469 r delay\$2-send;
#X obj 605 498 s delay\$1;
#X obj 625 479 s delay\$2;
#X obj 645 460 s delay\$3;
#X obj 585 441 t b b b b;
#X obj 696 496 +;
#X obj 678 515 +;
#X obj 723 449 r delay\$3-send;
#X obj 760 497 r delay\$1-send;
#X obj 585 536 t b b;
#X msg 556 405 2, f 2;
#X floatatom 648 536 5 0 0 0 - - -, f 5;
#X text 382 144 91;
#X obj 133 329 s taps2\$1\$2\$3-receive;
#X text 697 540 This clears the shift \; registers.;
#X obj 368 134 vradio 12 1 0 4 empty empty empty 0 -8 0 10 -262144
-1 -1 1;
#X obj 468 242 t f f b;
#X msg 394 231 set \$1;
#X obj 242 249 t f f;
#X obj 648 517 + 10;
#X text 410 145 comment;
#X connect 0 0 12 0;
#X connect 1 0 12 0;
#X connect 2 0 12 0;
#X connect 11 0 3 0;
#X connect 11 1 4 0;
#X connect 11 2 5 0;
#X connect 11 3 6 0;
#X connect 11 4 9 0;
#X connect 11 5 7 0;
#X connect 11 6 8 0;
#X connect 11 7 16 0;
#X connect 11 8 15 0;
#X connect 11 9 14 0;
#X connect 11 10 10 0;
#X connect 12 0 11 0;
#X connect 17 0 18 0;
#X connect 17 1 19 0;
#X connect 17 2 20 0;
#X connect 17 3 21 0;
#X connect 18 0 17 1;
#X connect 19 0 17 2;
#X connect 20 0 17 3;
#X connect 21 0 17 4;
#X connect 22 0 47 0;
#X connect 24 0 38 0;
#X connect 25 0 33 0;
#X connect 25 1 28 0;
#X connect 28 0 27 0;
#X connect 29 0 34 0;
#X connect 33 0 24 0;
#X connect 33 1 30 0;
#X connect 33 2 31 0;
#X connect 33 3 32 0;
#X connect 34 0 35 1;
#X connect 35 0 48 0;
#X connect 36 0 34 1;
#X connect 37 0 35 0;
#X connect 38 0 26 0;
#X connect 38 1 39 0;
#X connect 39 0 27 0;
#X connect 40 0 24 1;
#X connect 44 0 45 0;
#X connect 44 0 46 0;
#X connect 45 0 42 0;
#X connect 45 1 17 5;
#X connect 45 2 25 0;
#X connect 46 0 22 0;
#X connect 47 0 44 0;
#X connect 47 1 17 0;
#X connect 48 0 40 0;
#X coords 0 -1 1 1 606 90 2 300 100;
