#N canvas 43 185 1323 571 10;
#X obj 11 549 s topology\$1\$2\$3-receive;
#X obj 30 530 s gates3\$1\$2\$3-receive;
#X obj 49 511 s gates2\$1\$2\$3-receive;
#X obj 68 492 s gates1\$1\$2\$3-receive;
#X obj 107 454 s taps2\$1\$2\$3-receive;
#X obj 126 435 s delay\$1\$2\$3-receive;
#X obj 146 416 s wheel\$1\$2\$3-receive;
#X obj 684 309 s trigger\$1;
#X obj 662 328 s trigger\$1_wheel;
#X obj 640 347 s wheel\$1;
#X obj 619 366 s freq\$1;
#X obj 597 385 s freqtime\$1;
#X obj 576 404 s delay\$1;
#X obj 554 473 s tap_indices\$1;
#X obj 533 492 s gates3\$1\$2-topanel;
#X obj 938 309 s trigger\$2;
#X obj 916 328 s trigger\$2_wheel;
#X obj 894 347 s wheel\$2;
#X obj 873 366 s freq\$2;
#X obj 851 385 s freqtime\$2;
#X obj 830 404 s delay\$2;
#X obj 808 473 s tap_indices\$2;
#X obj 787 492 s gates3\$2\$3-topanel;
#X obj 1192 309 s trigger\$3;
#X obj 1170 328 s trigger\$3_wheel;
#X obj 1148 347 s wheel\$3;
#X obj 1127 366 s freq\$3;
#X obj 1105 385 s freqtime\$3;
#X obj 1084 404 s delay\$3;
#X obj 1062 473 s tap_indices\$3;
#X obj 1041 492 s gates3\$3\$1-topanel;
#X obj 787 289 unpack f f f f f f f f;
#X obj 1041 289 unpack f f f f f f f f;
#X obj 304 462 s incrementer\$1\$2\$3;
#X obj 369 441 s inctrigger\$1\$2\$3;
#X text 297 481 Takes list of 5 values;
#X obj 182 14 inlet;
#X text 171 297 all-3 \, taps 1&4;
#X obj 182 275 sel 0 1 2 3 4 5 6 7 8 9 10 11;
#X obj 182 247 sel 12 13 14 15 16 17 18 19 20 21 22 23;
#X text 397 275 left preset panel;
#X text 467 245 middle preset panel;
#X text 620 450 THESE NEED LISTS... if you're going to use them.;
#X obj 182 219 sel 23 24 25;
#X obj 88 473 s taps4\$1\$2\$3-receive;
#X obj 11 339 unpack f f f f f f f f f;
#X obj 176 397 s stereosetting\$1\$2\$3;
#X msg 11 209 1 2 0 3 4 0 3 0 0;
#X obj 87 392 pipe 100;
#X obj 88 371 route 333;
#X msg 11 237 3 0 0 2 333 2 2 0 2;
#X msg 11 264 3 0 0 2 333 1 1 0 2;
#X msg 11 292 3 0 0 2 333 0 1 0 2;
#X obj 182 192 sel 26;
#X obj 182 164 sel 27;
#X msg 11 181 1 3 0 3 4 0 3 0 0;
#X obj 182 136 sel 28, f 7;
#X obj 533 289 unpack a f f f f f f f;
#X floatatom 63 13 5 0 0 0 - - -, f 5;
#X obj 182 108 sel 29;
#X msg 11 125 1 3 0 3 4 0 4 0 0;
#X msg 11 153 1 2 0 3 4 0 4 0 0;
#X obj 182 80 sel 30, f 7;
#X obj 182 52 sel 31;
#X msg 11 97 1 2 0 3 4 0 5 0 0;
#X msg 11 69 1 3 0 3 4 0 5 0 0;
#X obj 410 52 sel 32;
#X obj 410 80 sel 33;
#X msg 261 97 1 3 0 3 4 0 6 0 0;
#X msg 261 69 1 2 0 3 4 0 6 0 0;
#X connect 31 0 22 0;
#X connect 31 1 21 0;
#X connect 31 2 20 0;
#X connect 31 3 19 0;
#X connect 31 4 18 0;
#X connect 31 5 17 0;
#X connect 31 6 16 0;
#X connect 31 7 15 0;
#X connect 32 0 30 0;
#X connect 32 1 29 0;
#X connect 32 2 28 0;
#X connect 32 3 27 0;
#X connect 32 4 26 0;
#X connect 32 5 25 0;
#X connect 32 6 24 0;
#X connect 32 7 23 0;
#X connect 36 0 38 0;
#X connect 36 0 39 0;
#X connect 36 0 43 0;
#X connect 36 0 53 0;
#X connect 36 0 54 0;
#X connect 36 0 56 0;
#X connect 36 0 58 0;
#X connect 36 0 59 0;
#X connect 36 0 63 0;
#X connect 36 0 62 0;
#X connect 36 0 66 0;
#X connect 36 0 67 0;
#X connect 38 0 52 0;
#X connect 38 1 52 0;
#X connect 38 2 52 0;
#X connect 38 3 52 0;
#X connect 38 4 52 0;
#X connect 38 5 52 0;
#X connect 38 6 52 0;
#X connect 38 7 52 0;
#X connect 38 8 52 0;
#X connect 38 9 52 0;
#X connect 38 10 52 0;
#X connect 38 11 52 0;
#X connect 39 0 51 0;
#X connect 39 1 51 0;
#X connect 39 2 51 0;
#X connect 39 3 51 0;
#X connect 39 4 51 0;
#X connect 39 5 51 0;
#X connect 39 6 51 0;
#X connect 39 7 51 0;
#X connect 39 8 51 0;
#X connect 39 9 51 0;
#X connect 39 10 51 0;
#X connect 39 11 51 0;
#X connect 43 0 50 0;
#X connect 43 1 50 0;
#X connect 43 2 50 0;
#X connect 45 0 0 0;
#X connect 45 1 1 0;
#X connect 45 2 2 0;
#X connect 45 3 3 0;
#X connect 45 4 49 0;
#X connect 45 5 4 0;
#X connect 45 6 5 0;
#X connect 45 7 6 0;
#X connect 45 8 46 0;
#X connect 47 0 45 0;
#X connect 48 0 44 0;
#X connect 49 1 48 0;
#X connect 50 0 45 0;
#X connect 51 0 45 0;
#X connect 52 0 45 0;
#X connect 53 0 47 0;
#X connect 54 0 55 0;
#X connect 55 0 45 0;
#X connect 56 0 61 0;
#X connect 57 0 14 0;
#X connect 57 1 13 0;
#X connect 57 2 12 0;
#X connect 57 3 11 0;
#X connect 57 4 10 0;
#X connect 57 5 9 0;
#X connect 57 6 8 0;
#X connect 57 7 7 0;
#X connect 59 0 60 0;
#X connect 60 0 45 0;
#X connect 61 0 45 0;
#X connect 62 0 64 0;
#X connect 63 0 65 0;
#X connect 64 0 45 0;
#X connect 65 0 45 0;
#X connect 66 0 69 0;
#X connect 67 0 68 0;
#X connect 68 0 45 0;
#X connect 69 0 45 0;
