#N canvas 43 169 1317 596 10;
#X obj 303 103 bng 15 250 50 0 empty empty empty 17 7 0 10 -262144
-1 -1;
#X obj 39 328 inlet;
#X obj 80 328 loadbang;
#X obj 39 575 s topology\$1\$2\$3-receive;
#X obj 58 556 s gates3\$1\$2\$3-receive;
#X obj 77 537 s gates2\$1\$2\$3-receive;
#X obj 96 518 s gates1\$1\$2\$3-receive;
#X obj 135 480 s taps2\$1\$2\$3-receive;
#X obj 154 461 s delay\$1\$2\$3-receive;
#X obj 116 499 s taps3\$1\$2\$3-receive;
#X obj 232 385 s freqtimes\$1\$2\$3;
#X obj 39 366 unpack f f f f f f f f f f f;
#X msg 39 347 3 0 0 2 0 0 1 3 0 0 0;
#X text 320 103 OFF;
#X obj 212 404 s freqs\$1\$2\$3;
#X obj 193 423 s wheel\$1\$2\$3-receive;
#X obj 174 442 s stereochoice\$1\$2\$3-receive;
#X obj 289 242 tapper \$1 \$2 \$3;
#X obj 315 134 nbx 5 12 -1e+37 1e+37 0 0 empty empty empty 0 -8 0 10
-262144 -1 -1 0 256;
#X obj 315 146 nbx 5 12 -1e+37 1e+37 0 0 empty empty empty 0 -8 0 10
-262144 -1 -1 0 256;
#X obj 315 158 nbx 5 12 -1e+37 1e+37 0 0 empty empty empty 0 -8 0 10
-262144 -1 -1 0 256;
#X obj 315 170 nbx 5 12 -1e+37 1e+37 0 0 empty empty empty 0 -8 0 10
-262144 -1 -1 0 256;
#X obj 303 134 vradio 12 1 0 4 empty empty empty 0 -8 0 10 -262144
-1 -1 0;
#X text 304 120 INCREMENTER;
#X obj 766 357 del;
#X obj 766 224 t b b;
#X obj 766 409 s trigger\$1_wheel;
#X obj 798 262 s gates1\$1\$2\$3-receive;
#X msg 798 243 3;
#X obj 910 309 r delay\$2-send;
#X obj 786 338 s delay\$1;
#X obj 806 319 s delay\$2;
#X obj 826 300 s delay\$3;
#X obj 766 281 t b b b b;
#X obj 877 336 +;
#X obj 859 355 +;
#X obj 904 289 r delay\$3-send;
#X obj 941 337 r delay\$1-send;
#X obj 766 376 t b b;
#X msg 737 245 2, f 2;
#X floatatom 829 376 5 0 0 0 - - -, f 5;
#X text 276 146 91;
#X obj 453 224 s taps2\$1\$2\$3-receive;
#X text 868 375 This clears the shift \; registers.;
#X obj 368 134 vradio 12 1 0 4 empty empty empty 0 -8 0 10 -262144
-1 -1 0;
#X obj 368 207 t f f b;
#X msg 71 182 set \$1;
#X obj 257 208 t f f;
#X obj 829 357 + 10;
#X obj 40 96 t b f;
#X msg 40 117 0;
#X obj 391 113 hradio 12 1 0 8 empty empty empty 0 -8 0 10 -262144
-1 -1 4;
#X obj 391 125 hradio 12 1 0 8 empty empty empty 0 -8 0 10 -262144
-1 -1 4;
#X obj 391 137 hradio 12 1 0 8 empty empty empty 0 -8 0 10 -262144
-1 -1 2;
#X floatatom 376 -1 5 0 0 0 - - -, f 5;
#X obj 376 16 t f f;
#X obj 376 76 Gate3;
#X obj 408 36 / 8;
#X obj 408 56 int;
#X obj 376 36 % 8;
#X obj 494 113 hradio 12 1 0 8 empty empty empty 0 -8 0 10 -262144
-1 -1 4;
#X obj 494 125 hradio 12 1 0 8 empty empty empty 0 -8 0 10 -262144
-1 -1 4;
#X obj 494 137 hradio 12 1 0 8 empty empty empty 0 -8 0 10 -262144
-1 -1 4;
#X floatatom 479 -1 5 0 0 0 - - -, f 5;
#X obj 479 16 t f f;
#X obj 479 76 Gate3;
#X obj 511 36 / 8;
#X obj 511 56 int;
#X obj 479 36 % 8;
#X obj 597 113 hradio 12 1 0 8 empty empty empty 0 -8 0 10 -262144
-1 -1 3;
#X obj 597 125 hradio 12 1 0 8 empty empty empty 0 -8 0 10 -262144
-1 -1 4;
#X obj 597 137 hradio 12 1 0 8 empty empty empty 0 -8 0 10 -262144
-1 -1 0;
#X floatatom 582 -1 5 0 0 0 - - -, f 5;
#X obj 582 16 t f f;
#X obj 582 76 Gate3;
#X obj 614 36 / 8;
#X obj 614 56 int;
#X obj 582 36 % 8;
#X obj 700 113 hradio 12 1 0 8 empty empty empty 0 -8 0 10 -262144
-1 -1 4;
#X obj 700 125 hradio 12 1 0 8 empty empty empty 0 -8 0 10 -262144
-1 -1 4;
#X obj 700 137 hradio 12 1 0 8 empty empty empty 0 -8 0 10 -262144
-1 -1 4;
#X floatatom 685 -1 5 0 0 0 - - -, f 5;
#X obj 685 16 t f f;
#X obj 685 76 Gate3;
#X obj 717 36 / 8;
#X obj 717 56 int;
#X obj 685 36 % 8;
#X obj 803 113 hradio 12 1 0 8 empty empty empty 0 -8 0 10 -262144
-1 -1 4;
#X obj 803 125 hradio 12 1 0 8 empty empty empty 0 -8 0 10 -262144
-1 -1 3;
#X obj 803 137 hradio 12 1 0 8 empty empty empty 0 -8 0 10 -262144
-1 -1 4;
#X floatatom 788 -1 5 0 0 0 - - -, f 5;
#X obj 788 16 t f f;
#X obj 788 76 Gate3;
#X obj 820 36 / 8;
#X obj 820 56 int;
#X obj 788 36 % 8;
#X obj 376 -21 r pads\$1\$2\$3-0;
#X obj 479 -21 r pads\$1\$2\$3-1;
#X obj 582 -21 r pads\$1\$2\$3-2;
#X obj 685 -21 r pads\$1\$2\$3-3;
#X obj 788 -21 r pads\$1\$2\$3-4;
#X obj 40 -4 presets0;
#X connect 0 0 12 0;
#X connect 1 0 12 0;
#X connect 2 0 12 0;
#X connect 11 0 3 0;
#X connect 11 1 4 0;
#X connect 11 2 5 0;
#X connect 11 3 6 0;
#X connect 11 4 9 0;
#X connect 11 5 7 0;
#X connect 11 6 8 0;
#X connect 11 7 16 0;
#X connect 11 8 15 0;
#X connect 11 9 14 0;
#X connect 11 10 10 0;
#X connect 12 0 11 0;
#X connect 17 0 18 0;
#X connect 17 1 19 0;
#X connect 17 2 20 0;
#X connect 17 3 21 0;
#X connect 18 0 17 1;
#X connect 19 0 17 2;
#X connect 20 0 17 3;
#X connect 21 0 17 4;
#X connect 22 0 47 0;
#X connect 24 0 38 0;
#X connect 25 0 33 0;
#X connect 25 1 28 0;
#X connect 28 0 27 0;
#X connect 29 0 34 0;
#X connect 33 0 24 0;
#X connect 33 1 30 0;
#X connect 33 2 31 0;
#X connect 33 3 32 0;
#X connect 34 0 35 1;
#X connect 35 0 48 0;
#X connect 36 0 34 1;
#X connect 37 0 35 0;
#X connect 38 0 26 0;
#X connect 38 1 39 0;
#X connect 39 0 27 0;
#X connect 40 0 24 1;
#X connect 44 0 45 0;
#X connect 44 0 46 0;
#X connect 45 0 42 0;
#X connect 45 1 17 5;
#X connect 45 2 25 0;
#X connect 46 0 22 0;
#X connect 47 0 44 0;
#X connect 47 1 17 0;
#X connect 48 0 40 0;
#X connect 49 0 50 0;
#X connect 49 1 18 0;
#X connect 50 0 44 0;
#X connect 54 0 55 0;
#X connect 55 0 59 0;
#X connect 55 1 57 0;
#X connect 56 0 51 0;
#X connect 56 1 52 0;
#X connect 56 2 53 0;
#X connect 57 0 58 0;
#X connect 58 0 56 1;
#X connect 59 0 56 0;
#X connect 63 0 64 0;
#X connect 64 0 68 0;
#X connect 64 1 66 0;
#X connect 65 0 60 0;
#X connect 65 1 61 0;
#X connect 65 2 62 0;
#X connect 66 0 67 0;
#X connect 67 0 65 1;
#X connect 68 0 65 0;
#X connect 72 0 73 0;
#X connect 73 0 77 0;
#X connect 73 1 75 0;
#X connect 74 0 69 0;
#X connect 74 1 70 0;
#X connect 74 2 71 0;
#X connect 75 0 76 0;
#X connect 76 0 74 1;
#X connect 77 0 74 0;
#X connect 81 0 82 0;
#X connect 82 0 86 0;
#X connect 82 1 84 0;
#X connect 83 0 78 0;
#X connect 83 1 79 0;
#X connect 83 2 80 0;
#X connect 84 0 85 0;
#X connect 85 0 83 1;
#X connect 86 0 83 0;
#X connect 90 0 91 0;
#X connect 91 0 95 0;
#X connect 91 1 93 0;
#X connect 92 0 87 0;
#X connect 92 1 88 0;
#X connect 92 2 89 0;
#X connect 93 0 94 0;
#X connect 94 0 92 1;
#X connect 95 0 92 0;
#X connect 96 0 54 0;
#X connect 96 0 101 0;
#X connect 97 0 63 0;
#X connect 98 0 72 0;
#X connect 99 0 81 0;
#X connect 100 0 90 0;
#X connect 101 0 49 0;
#X coords 0 -1 1 1 606 90 2 300 100;
