#N canvas 313 119 1038 641 10;
#X obj 201 365 tapper \$1 \$2 \$3;
#X obj 315 134 nbx 5 12 -1e+37 1e+37 0 0 empty empty empty 0 -8 0 10
-262144 -1 -1 61 256;
#X obj 315 146 nbx 5 12 -1e+37 1e+37 0 0 empty empty empty 0 -8 0 10
-262144 -1 -1 0 256;
#X obj 315 158 nbx 5 12 -1e+37 1e+37 0 0 empty empty empty 0 -8 0 10
-262144 -1 -1 0 256;
#X obj 315 170 nbx 5 12 -1e+37 1e+37 0 0 empty empty empty 0 -8 0 10
-262144 -1 -1 0 256;
#X obj 303 134 vradio 12 1 0 4 empty empty empty 0 -8 0 10 -262144
-1 -1 0;
#X text 304 120 INCREMENTER;
#X text 276 146 91;
#X obj 366 390 s taps2\$1\$2\$3-receive;
#X obj 368 134 vradio 12 1 0 4 empty empty empty 0 -8 0 10 -262144
-1 -1 0;
#X obj 368 207 t f f b;
#X msg 71 182 set \$1;
#X obj 178 233 t f f;
#X obj 40 96 t b f;
#X msg 40 117 0;
#X obj 391 113 hradio 12 1 0 8 empty empty empty 0 -8 0 10 -262144
-1 -1 4;
#X obj 391 125 hradio 12 1 0 8 empty empty empty 0 -8 0 10 -262144
-1 -1 4;
#X obj 391 137 hradio 12 1 0 8 empty empty empty 0 -8 0 10 -262144
-1 -1 2;
#X floatatom 376 -1 5 0 0 0 - - -, f 5;
#X obj 376 16 t f f;
#X obj 376 76 Gate3;
#X obj 408 36 / 8;
#X obj 408 56 int;
#X obj 376 36 % 8;
#X obj 494 113 hradio 12 1 0 8 empty empty empty 0 -8 0 10 -262144
-1 -1 4;
#X obj 494 125 hradio 12 1 0 8 empty empty empty 0 -8 0 10 -262144
-1 -1 4;
#X obj 494 137 hradio 12 1 0 8 empty empty empty 0 -8 0 10 -262144
-1 -1 4;
#X floatatom 479 -1 5 0 0 0 - - -, f 5;
#X obj 479 16 t f f;
#X obj 479 76 Gate3;
#X obj 511 36 / 8;
#X obj 511 56 int;
#X obj 479 36 % 8;
#X obj 597 113 hradio 12 1 0 8 empty empty empty 0 -8 0 10 -262144
-1 -1 3;
#X obj 597 125 hradio 12 1 0 8 empty empty empty 0 -8 0 10 -262144
-1 -1 4;
#X obj 597 137 hradio 12 1 0 8 empty empty empty 0 -8 0 10 -262144
-1 -1 0;
#X floatatom 582 -1 5 0 0 0 - - -, f 5;
#X obj 582 16 t f f;
#X obj 582 76 Gate3;
#X obj 614 36 / 8;
#X obj 614 56 int;
#X obj 582 36 % 8;
#X obj 700 113 hradio 12 1 0 8 empty empty empty 0 -8 0 10 -262144
-1 -1 4;
#X obj 700 125 hradio 12 1 0 8 empty empty empty 0 -8 0 10 -262144
-1 -1 4;
#X obj 700 137 hradio 12 1 0 8 empty empty empty 0 -8 0 10 -262144
-1 -1 4;
#X floatatom 685 -1 5 0 0 0 - - -, f 5;
#X obj 685 16 t f f;
#X obj 685 76 Gate3;
#X obj 717 36 / 8;
#X obj 717 56 int;
#X obj 685 36 % 8;
#X obj 803 113 hradio 12 1 0 8 empty empty empty 0 -8 0 10 -262144
-1 -1 4;
#X obj 803 125 hradio 12 1 0 8 empty empty empty 0 -8 0 10 -262144
-1 -1 3;
#X obj 803 137 hradio 12 1 0 8 empty empty empty 0 -8 0 10 -262144
-1 -1 4;
#X floatatom 788 -1 5 0 0 0 - - -, f 5;
#X obj 788 16 t f f;
#X obj 788 76 Gate3;
#X obj 820 36 / 8;
#X obj 820 56 int;
#X obj 788 36 % 8;
#X obj 376 -21 r pads\$1\$2\$3-0;
#X obj 479 -21 r pads\$1\$2\$3-1;
#X obj 582 -21 r pads\$1\$2\$3-2;
#X obj 685 -21 r pads\$1\$2\$3-3;
#X obj 788 -21 r pads\$1\$2\$3-4;
#X obj 40 -4 presets0;
#X obj 80 28 r incrementer\$1\$2\$3;
#X obj 80 47 unpack f f f f f;
#X obj 228 28 r inctrigger\$1\$2\$3;
#X obj 577 213 PresetsBig;
#X obj 438 206 Flusher \$1 \$2 \$3;
#X obj 438 168 bng 15 250 50 0 empty empty empty 17 7 0 10 -262144
-1 -1;
#X text 455 168 Flush buffers;
#X msg 382 274 set \$1;
#X floatatom 382 294 5 0 0 0 - - -, f 5;
#X connect 0 0 1 0;
#X connect 0 1 2 0;
#X connect 0 2 3 0;
#X connect 0 3 4 0;
#X connect 1 0 0 1;
#X connect 2 0 0 2;
#X connect 3 0 0 3;
#X connect 4 0 0 4;
#X connect 5 0 12 0;
#X connect 9 0 10 0;
#X connect 9 0 11 0;
#X connect 10 0 8 0;
#X connect 10 1 73 0;
#X connect 10 2 71 0;
#X connect 11 0 5 0;
#X connect 12 0 9 0;
#X connect 12 1 0 0;
#X connect 13 0 14 0;
#X connect 13 1 1 0;
#X connect 14 0 9 0;
#X connect 18 0 19 0;
#X connect 19 0 23 0;
#X connect 19 1 21 0;
#X connect 20 0 15 0;
#X connect 20 1 16 0;
#X connect 20 2 17 0;
#X connect 21 0 22 0;
#X connect 22 0 20 1;
#X connect 23 0 20 0;
#X connect 27 0 28 0;
#X connect 28 0 32 0;
#X connect 28 1 30 0;
#X connect 29 0 24 0;
#X connect 29 1 25 0;
#X connect 29 2 26 0;
#X connect 30 0 31 0;
#X connect 31 0 29 1;
#X connect 32 0 29 0;
#X connect 36 0 37 0;
#X connect 37 0 41 0;
#X connect 37 1 39 0;
#X connect 38 0 33 0;
#X connect 38 1 34 0;
#X connect 38 2 35 0;
#X connect 39 0 40 0;
#X connect 40 0 38 1;
#X connect 41 0 38 0;
#X connect 45 0 46 0;
#X connect 46 0 50 0;
#X connect 46 1 48 0;
#X connect 47 0 42 0;
#X connect 47 1 43 0;
#X connect 47 2 44 0;
#X connect 48 0 49 0;
#X connect 49 0 47 1;
#X connect 50 0 47 0;
#X connect 54 0 55 0;
#X connect 55 0 59 0;
#X connect 55 1 57 0;
#X connect 56 0 51 0;
#X connect 56 1 52 0;
#X connect 56 2 53 0;
#X connect 57 0 58 0;
#X connect 58 0 56 1;
#X connect 59 0 56 0;
#X connect 60 0 18 0;
#X connect 60 0 65 0;
#X connect 61 0 27 0;
#X connect 62 0 36 0;
#X connect 63 0 45 0;
#X connect 64 0 54 0;
#X connect 65 0 13 0;
#X connect 66 0 67 0;
#X connect 67 0 1 0;
#X connect 67 1 2 0;
#X connect 67 2 3 0;
#X connect 67 3 3 0;
#X connect 67 4 4 0;
#X connect 68 0 9 0;
#X connect 70 0 74 0;
#X connect 71 0 70 0;
#X connect 73 0 74 0;
#X connect 74 0 0 5;
#X coords 0 -1 1 1 606 90 2 300 100;
