#N canvas 556 335 650 408 10;
#X obj 18 20 inlet;
#X obj 166 277 outlet;
#X msg 40 158 0 15;
#X msg 65 138 0 30;
#X msg 90 118 0 31;
#X msg 116 98 0 59;
#X msg 141 159 0 196;
#X msg 167 139 0 371;
#X msg 192 119 0 486;
#X msg 217 98 0 511;
#X msg 243 158 0 863;
#X obj 40 53 sel 0 1 2 3 4 5 8 9 10 11 12 13, f 44;
#X msg 268 139 0 934;
#X msg 294 119 0 938;
#X msg 319 99 0 973;
#X connect 0 0 11 0;
#X connect 2 0 1 0;
#X connect 3 0 1 0;
#X connect 4 0 1 0;
#X connect 5 0 1 0;
#X connect 6 0 1 0;
#X connect 7 0 1 0;
#X connect 8 0 1 0;
#X connect 9 0 1 0;
#X connect 10 0 1 0;
#X connect 11 0 2 0;
#X connect 11 1 3 0;
#X connect 11 2 4 0;
#X connect 11 3 5 0;
#X connect 11 4 6 0;
#X connect 11 5 7 0;
#X connect 11 6 8 0;
#X connect 11 7 9 0;
#X connect 11 8 10 0;
#X connect 11 9 12 0;
#X connect 11 10 13 0;
#X connect 11 11 14 0;
#X connect 12 0 1 0;
#X connect 13 0 1 0;
#X connect 14 0 1 0;
