#N canvas 226 301 1323 543 10;
#X obj 10 509 s topology\$1\$2\$3-receive;
#X obj 29 490 s gates3\$1\$2\$3-receive;
#X obj 48 471 s gates2\$1\$2\$3-receive;
#X obj 67 452 s gates1\$1\$2\$3-receive;
#X obj 106 414 s taps2\$1\$2\$3-receive;
#X obj 125 395 s delay\$1\$2\$3-receive;
#X obj 87 433 s taps3\$1\$2\$3-receive;
#X obj 183 338 s freqtimes\$1\$2\$3;
#X obj 164 357 s freqs\$1\$2\$3;
#X obj 145 376 s wheel\$1\$2\$3-receive;
#X obj 203 319 s stereochoice\$1\$2\$3-receive;
#X obj 684 309 s trigger\$1;
#X obj 662 328 s trigger\$1_wheel;
#X obj 640 347 s wheel\$1;
#X obj 619 366 s freq\$1;
#X obj 597 385 s freqtime\$1;
#X obj 576 404 s delay\$1;
#X obj 554 423 s tap_indices\$1;
#X obj 533 442 s gates3\$1\$2-topanel;
#X obj 938 309 s trigger\$2;
#X obj 916 328 s trigger\$2_wheel;
#X obj 894 347 s wheel\$2;
#X obj 873 366 s freq\$2;
#X obj 851 385 s freqtime\$2;
#X obj 830 404 s delay\$2;
#X obj 808 423 s tap_indices\$2;
#X obj 787 442 s gates3\$2\$3-topanel;
#X obj 1192 309 s trigger\$3;
#X obj 1170 328 s trigger\$3_wheel;
#X obj 1148 347 s wheel\$3;
#X obj 1127 366 s freq\$3;
#X obj 1105 385 s freqtime\$3;
#X obj 1084 404 s delay\$3;
#X obj 1062 423 s tap_indices\$3;
#X obj 1041 442 s gates3\$3\$1-topanel;
#X obj 10 299 unpack f f f f f f f f f f f;
#X obj 533 289 unpack f f f f f f f f;
#X obj 787 289 unpack f f f f f f f f;
#X obj 1041 289 unpack f f f f f f f f;
#X obj 267 443 s incrementer\$1\$2\$3;
#X obj 332 422 s inctrigger\$1\$2\$3;
#X text 260 462 Takes list of 5 values;
#X obj 9 14 inlet;
#X text 171 277 all-3 \, taps 1&4;
#X msg 115 235 3 0 0 2 0 1 1 0 0 0 3;
#X msg 653 117 3 0 0 2 0 2 1 0 0 0 3;
#X msg 10 272 3 0 0 2 0 0 1 0 0 0 3;
#X obj 9 99 sel 0 1 2 3 4 5 6 7 8 9 10 11;
#X obj 227 99 sel 12 13 14 15 16 17 18 19 20 21 22 23;
#X connect 35 0 0 0;
#X connect 35 1 1 0;
#X connect 35 2 2 0;
#X connect 35 3 3 0;
#X connect 35 4 6 0;
#X connect 35 5 4 0;
#X connect 35 6 5 0;
#X connect 35 7 9 0;
#X connect 35 8 8 0;
#X connect 35 9 7 0;
#X connect 35 10 10 0;
#X connect 36 0 18 0;
#X connect 36 1 17 0;
#X connect 36 2 16 0;
#X connect 36 3 15 0;
#X connect 36 4 14 0;
#X connect 36 5 13 0;
#X connect 36 6 12 0;
#X connect 36 7 11 0;
#X connect 37 0 26 0;
#X connect 37 1 25 0;
#X connect 37 2 24 0;
#X connect 37 3 23 0;
#X connect 37 4 22 0;
#X connect 37 5 21 0;
#X connect 37 6 20 0;
#X connect 37 7 19 0;
#X connect 38 0 34 0;
#X connect 38 1 33 0;
#X connect 38 2 32 0;
#X connect 38 3 31 0;
#X connect 38 4 30 0;
#X connect 38 5 29 0;
#X connect 38 6 28 0;
#X connect 38 7 27 0;
#X connect 42 0 47 0;
#X connect 42 0 48 0;
#X connect 44 0 35 0;
#X connect 46 0 35 0;
#X connect 47 0 46 0;
#X connect 47 1 46 0;
#X connect 47 2 46 0;
#X connect 47 3 46 0;
#X connect 47 4 46 0;
#X connect 47 5 46 0;
#X connect 47 6 46 0;
#X connect 47 7 46 0;
#X connect 47 8 46 0;
#X connect 47 9 46 0;
#X connect 47 10 46 0;
#X connect 47 11 46 0;
#X connect 48 0 44 0;
#X connect 48 1 44 0;
#X connect 48 2 44 0;
#X connect 48 3 44 0;
#X connect 48 4 44 0;
#X connect 48 5 44 0;
#X connect 48 6 44 0;
#X connect 48 7 44 0;
#X connect 48 8 44 0;
#X connect 48 9 44 0;
#X connect 48 10 44 0;
#X connect 48 11 44 0;
