#N canvas 43 93 633 448 10;
#X obj 18 20 inlet;
#X msg 86 99 30;
#X msg 109 159 31;
#X msg 132 139 58;
#X msg 155 119 62;
#X msg 178 99 74;
#X msg 201 159 81;
#X msg 224 139 88;
#X msg 247 119 195;
#X msg 270 98 230;
#X msg 293 159 370;
#X msg 315 139 418;
#X msg 338 119 439;
#X msg 361 99 449;
#X msg 384 159 472;
#X msg 407 139 474;
#X msg 430 119 483;
#X msg 453 99 485;
#X msg 476 159 510;
#X msg 499 139 862;
#X msg 522 119 962;
#X msg 545 99 928;
#X obj 268 287 outlet;
#X obj 18 58 sel 0 1 2 3 4 5 6 7 8 9 10 11 12 13 14 15 16 17 18 19
20 21 22 23, f 79;
#X msg 18 159 2 227;
#X msg 40 139 2 341;
#X msg 63 119 2 277;
#X connect 0 0 23 0;
#X connect 1 0 22 0;
#X connect 2 0 22 0;
#X connect 3 0 22 0;
#X connect 4 0 22 0;
#X connect 5 0 22 0;
#X connect 6 0 22 0;
#X connect 7 0 22 0;
#X connect 8 0 22 0;
#X connect 9 0 22 0;
#X connect 10 0 22 0;
#X connect 11 0 22 0;
#X connect 12 0 22 0;
#X connect 13 0 22 0;
#X connect 14 0 22 0;
#X connect 15 0 22 0;
#X connect 16 0 22 0;
#X connect 17 0 22 0;
#X connect 18 0 22 0;
#X connect 19 0 22 0;
#X connect 20 0 22 0;
#X connect 21 0 22 0;
#X connect 23 0 24 0;
#X connect 23 1 25 0;
#X connect 23 2 26 0;
#X connect 23 3 1 0;
#X connect 23 4 2 0;
#X connect 23 5 3 0;
#X connect 23 6 4 0;
#X connect 23 7 5 0;
#X connect 23 8 6 0;
#X connect 23 9 7 0;
#X connect 23 10 8 0;
#X connect 23 11 9 0;
#X connect 23 12 10 0;
#X connect 23 13 11 0;
#X connect 23 14 12 0;
#X connect 23 15 13 0;
#X connect 23 16 14 0;
#X connect 23 17 15 0;
#X connect 23 18 16 0;
#X connect 23 19 17 0;
#X connect 23 20 18 0;
#X connect 23 21 19 0;
#X connect 23 22 20 0;
#X connect 23 23 21 0;
#X connect 24 0 22 0;
#X connect 25 0 22 0;
#X connect 26 0 22 0;
