#N canvas 200 112 1157 640 10;
#X obj 237 403 tapper \$1 \$2 \$3;
#X obj 317 117 nbx 5 17 -1e+37 1e+37 0 0 empty empty empty 0 -8 0 13
-262144 -1 -1 0 256;
#X obj 317 100 nbx 5 17 -1e+37 1e+37 0 0 empty empty empty 0 -8 0 13
-262144 -1 -1 0 256;
#X obj 317 134 nbx 5 17 -1e+37 1e+37 0 0 empty empty empty 0 -8 0 13
-262144 -1 -1 0 256;
#X obj 317 151 nbx 5 17 -1e+37 1e+37 0 0 empty empty empty 0 -8 0 13
-262144 -1 -1 0 256;
#X obj 300 100 vradio 17 1 0 4 empty empty empty 0 -8 0 10 -262144
-1 -1 0;
#X text 275 112 91;
#X obj 384 100 vradio 17 1 0 4 empty empty empty 0 -8 0 10 -262144
-1 -1 0;
#X msg 321 58 set \$1;
#X obj 205 379 t f f;
#X obj 406 128 hradio 15 1 0 6 empty empty empty 0 -8 0 10 -262144
-1 -1 0;
#X obj 406 143 hradio 15 1 0 6 empty empty empty 0 -8 0 10 -262144
-1 -1 0;
#X obj 406 40 r pads\$1\$2\$3-0;
#X obj 25 57 presets0;
#X obj 222 -92 r incrementer\$1\$2\$3;
#X obj 385 11 r inctrigger\$1\$2\$3;
#X obj 417 324 Flusher \$1 \$2 \$3;
#X obj 417 269 bng 13 250 50 0 empty empty empty 17 7 0 10 -262144
-1 -1;
#X text 432 269 Flush buffers;
#X msg 385 298 set \$1;
#X floatatom 385 361 5 0 0 0 - - -, f 5;
#X obj 222 -68 unpack f f f f;
#X obj 406 78 moduleighter;
#X obj 507 40 r pads\$1\$2\$3-1;
#X obj 608 40 r pads\$1\$2\$3-2;
#X msg 317 12 set \$1;
#X msg 317 -9 set \$1;
#X msg 317 -30 set \$1;
#X msg 317 -51 set \$1;
#X obj 802 299 PresetsBig \$1 \$2 \$3;
#X obj 441 104 tgl 20 0 empty empty empty 17 7 0 10 -262144 -1 -1 0
1;
#X obj 542 104 tgl 20 0 empty empty empty 17 7 0 10 -262144 -1 -1 0
1;
#X obj 643 104 tgl 20 0 empty empty empty 17 7 0 10 -262144 -1 -1 0
1;
#X obj 921 -69 r LED\$1\$2\$3;
#X obj 921 -41 t f b;
#X msg 948 61 0 \, 8 \, 16;
#X obj 948 39 r clearpanels\$1\$2\$3;
#X obj 802 243 loadbang;
#X msg 802 271 0;
#X obj 921 87 sel 0 1 2;
#X msg 1000 -24 0 0 0;
#X obj 1000 87 unpack f f f;
#X obj 507 128 hradio 15 1 0 6 empty empty empty 0 -8 0 10 -262144
-1 -1 0;
#X obj 507 143 hradio 15 1 0 6 empty empty empty 0 -8 0 10 -262144
-1 -1 0;
#X obj 608 128 hradio 15 1 0 6 empty empty empty 0 -8 0 10 -262144
-1 -1 0;
#X obj 608 143 hradio 15 1 0 6 empty empty empty 0 -8 0 10 -262144
-1 -1 0;
#X obj 507 78 moduleighter;
#X obj 608 78 moduleighter;
#X obj 385 184 t f b;
#X obj 385 386 t f b;
#X floatatom 513 285 5 0 0 0 - - -, f 5;
#X obj 507 208 + 12;
#X obj 608 207 + 24;
#X obj 406 227 + 6;
#X obj 507 227 + 18;
#X obj 406 207 + 0;
#X obj 608 227 + 30;
#X msg 507 253 set \$1;
#X obj 702 104 panner-presets \$1 \$2 \$3;
#X obj 702 196 s~ panpre\$1\$2\$3-l-send;
#X obj 896 196 s~ panpre\$1\$2\$3-r-send;
#X obj 403 102 tgl 15 0 empty empty empty 17 7 0 10 -262144 -66577
-66577 0 1;
#X obj 403 -65 r BigLED\$1\$2\$3;
#X msg 670 -13 set \$1;
#X floatatom 670 20 5 0 0 0 - - -, f 5;
#X obj 670 -41 t f f;
#X obj 757 -20 sel 1;
#X obj 789 5 bng 15 250 50 0 empty empty empty 17 7 0 10 -262144 -1
-1;
#X msg 757 44 3;
#X obj 757 -60 r roameronoff\$1\$2\$3;
#X obj 670 -84 r stereosetting\$1\$2\$3;
#X obj 757 -39 tgl 15 0 empty empty empty 17 7 0 10 -262144 -1 -1 0
1;
#X obj 25 82 t b f;
#X msg 25 106 0;
#X obj 837 23 loadbang;
#X msg 837 44 0;
#X connect 1 0 0 2;
#X connect 2 0 0 1;
#X connect 3 0 0 3;
#X connect 4 0 0 4;
#X connect 5 0 9 0;
#X connect 5 0 8 0;
#X connect 7 0 8 0;
#X connect 7 0 48 0;
#X connect 8 0 5 0;
#X connect 8 0 7 0;
#X connect 9 0 7 0;
#X connect 9 1 0 0;
#X connect 10 0 55 0;
#X connect 11 0 53 0;
#X connect 12 0 13 0;
#X connect 12 0 22 0;
#X connect 13 0 72 0;
#X connect 14 0 21 0;
#X connect 15 0 7 0;
#X connect 16 0 20 0;
#X connect 17 0 16 0;
#X connect 19 0 20 0;
#X connect 20 0 49 0;
#X connect 21 0 25 0;
#X connect 21 1 26 0;
#X connect 21 2 27 0;
#X connect 21 3 28 0;
#X connect 22 0 10 0;
#X connect 22 1 11 0;
#X connect 23 0 46 0;
#X connect 24 0 47 0;
#X connect 25 0 2 0;
#X connect 26 0 1 0;
#X connect 27 0 3 0;
#X connect 28 0 4 0;
#X connect 33 0 34 0;
#X connect 34 0 39 0;
#X connect 34 1 40 0;
#X connect 35 0 22 0;
#X connect 35 0 46 0;
#X connect 35 0 47 0;
#X connect 36 0 35 0;
#X connect 37 0 38 0;
#X connect 38 0 29 0;
#X connect 39 0 30 0;
#X connect 39 1 31 0;
#X connect 39 2 32 0;
#X connect 40 0 41 0;
#X connect 41 0 30 0;
#X connect 41 1 31 0;
#X connect 41 2 32 0;
#X connect 42 0 51 0;
#X connect 43 0 54 0;
#X connect 44 0 52 0;
#X connect 45 0 56 0;
#X connect 46 0 42 0;
#X connect 46 1 43 0;
#X connect 47 0 44 0;
#X connect 47 1 45 0;
#X connect 48 0 19 0;
#X connect 48 1 17 0;
#X connect 49 0 0 5;
#X connect 49 1 50 0;
#X connect 50 0 29 0;
#X connect 51 0 57 0;
#X connect 52 0 57 0;
#X connect 53 0 57 0;
#X connect 54 0 57 0;
#X connect 55 0 57 0;
#X connect 56 0 57 0;
#X connect 57 0 50 0;
#X connect 58 0 59 0;
#X connect 58 1 60 0;
#X connect 62 0 61 0;
#X connect 63 0 64 0;
#X connect 64 0 58 0;
#X connect 65 0 63 0;
#X connect 65 1 58 0;
#X connect 66 0 68 0;
#X connect 66 1 67 0;
#X connect 67 0 64 0;
#X connect 68 0 58 0;
#X connect 69 0 71 0;
#X connect 70 0 65 0;
#X connect 71 0 66 0;
#X connect 72 0 73 0;
#X connect 72 1 2 0;
#X connect 73 0 5 0;
#X connect 74 0 75 0;
#X connect 75 0 58 0;
#X coords 0 -1 1 1 606 68 2 300 100;
