#N canvas 221 280 693 474 10;
#X obj 94 252 unpack f f;
#X msg 94 140 1 1;
#X msg 94 224 0 0;
#X obj 481 282 pack f f;
#X obj 552 282 pack f f;
#X obj 495 260 unpack f f f f;
#X msg 94 168 0 1;
#X msg 94 196 1 0;
#X obj 39 115 sel 0 1 2 3;
#X obj 495 68 sel 0 1 2 3 4 5 6 7;
#X msg 495 232 0 9 4 14;
#X msg 511 204 4 8 9 14;
#X obj 300 100 signal_router \$1 \$2 \$3 0;
#X obj 39 87 r xor_inline_onoff\$1\$2\$3;
#X obj 495 40 r xor_inline_taps\$1\$2\$3;
#X obj 324 100 signal_router \$1 \$2 \$3 1;
#X msg 522 153 5 0 10 0;
#X connect 0 0 12 0;
#X connect 0 1 15 0;
#X connect 1 0 0 0;
#X connect 2 0 0 0;
#X connect 3 0 12 1;
#X connect 4 0 15 1;
#X connect 5 0 3 0;
#X connect 5 1 3 1;
#X connect 5 2 4 0;
#X connect 5 3 4 1;
#X connect 6 0 0 0;
#X connect 7 0 0 0;
#X connect 8 0 2 0;
#X connect 8 1 7 0;
#X connect 8 2 6 0;
#X connect 8 3 1 0;
#X connect 9 0 10 0;
#X connect 9 1 11 0;
#X connect 9 2 16 0;
#X connect 10 0 5 0;
#X connect 11 0 5 0;
#X connect 13 0 8 0;
#X connect 14 0 9 0;
#X connect 16 0 5 0;
#X coords 0 -1 1 1 48 192 2 300 100;
