#N canvas 266 220 693 474 10;
#X obj 300 100 signal_router 0;
#X obj 344 100 signal_router 1;
#X obj 129 281 unpack f f;
#X msg 129 169 1 1;
#X msg 129 253 0 0;
#X obj 481 282 pack f f;
#X obj 552 282 pack f f;
#X obj 495 260 unpack f f f f;
#X msg 129 197 0 1;
#X msg 129 225 1 0;
#X obj 74 144 sel 0 1 2 3;
#X msg 495 146 0 5 10 14;
#X connect 2 0 0 0;
#X connect 2 1 1 0;
#X connect 3 0 2 0;
#X connect 4 0 2 0;
#X connect 5 0 0 1;
#X connect 6 0 1 1;
#X connect 7 0 5 0;
#X connect 7 1 5 1;
#X connect 7 2 6 0;
#X connect 7 3 6 1;
#X connect 8 0 2 0;
#X connect 9 0 2 0;
#X connect 10 0 4 0;
#X connect 10 1 9 0;
#X connect 10 2 8 0;
#X connect 10 3 3 0;
#X connect 11 0 7 0;
#X coords 0 -1 1 1 88 352 2 300 100;
