#N canvas 607 198 562 353 10;
#X obj 71 229 inlet~;
#X obj 329 228 inlet~;
#X obj 22 16 inlet;
#X obj 188 245 freeverb~;
#X msg 188 87 roomsize \$1;
#X msg 188 109 damping \$1;
#X msg 188 131 width \$1;
#X msg 188 154 wet \$1;
#X msg 188 176 dry \$1;
#X msg 188 198 freeze \$1;
#X msg 188 220 bypass \$1;
#X obj 188 296 outlet~;
#X obj 248 296 outlet~;
#X obj 22 46 t f f f f f;
#X obj 22 159 - 1;
#X obj 50 159 abs;
#X obj 40 137 * 1;
#X obj 59 114 * 1;
#X obj 77 92 - 1;
#X obj 105 92 abs;
#X obj 96 70 * 1;
#X obj 440 31 inlet;
#X connect 0 0 3 0;
#X connect 1 0 3 1;
#X connect 2 0 13 0;
#X connect 3 0 11 0;
#X connect 3 1 12 0;
#X connect 4 0 3 0;
#X connect 5 0 3 0;
#X connect 6 0 3 0;
#X connect 7 0 3 0;
#X connect 8 0 3 0;
#X connect 9 0 3 0;
#X connect 10 0 3 0;
#X connect 13 0 14 0;
#X connect 13 1 16 0;
#X connect 13 2 17 0;
#X connect 13 3 18 0;
#X connect 13 4 20 0;
#X connect 14 0 15 0;
#X connect 15 0 8 0;
#X connect 16 0 7 0;
#X connect 17 0 6 0;
#X connect 18 0 19 0;
#X connect 19 0 5 0;
#X connect 20 0 4 0;
#X connect 21 0 10 0;
