#N canvas 43 81 1040 561 10;
#X obj 338 203 shift_register_sixteen_bit, f 46;
#X obj 297 78 metro 1000;
#X obj 300 41 tgl 15 0 empty empty empty 17 7 0 10 -262144 -1 -1 0
1;
#X floatatom 383 297 5 0 0 0 - - -, f 5;
#X floatatom 464 302 5 0 0 0 - - -, f 5;
#X floatatom 322 288 5 0 0 0 - - -, f 5;
#X floatatom 357 140 5 0 0 0 - - -, f 5;
#X obj 306 143 bng 15 250 50 0 empty empty empty 17 7 0 10 -262144
-1 -1;
#X floatatom 639 260 5 0 0 0 - - -, f 5;
#X floatatom 580 285 5 0 0 0 - - -, f 5;
#X connect 0 0 5 0;
#X connect 0 1 3 0;
#X connect 0 2 4 0;
#X connect 0 15 9 0;
#X connect 0 16 8 0;
#X connect 2 0 1 0;
#X connect 6 0 0 0;
#X connect 7 0 0 0;
