#N canvas 228 153 450 300 10;
#X obj 92 167 roamer;
#X obj 199 167 roamer;
#X obj 296 167 roamer;
#X obj 335 72 loadbang;
#X msg 335 95 1000;
#X obj 70 46 inlet;
#X obj 92 248 outlet;
#X obj 199 248 outlet;
#X obj 296 248 outlet;
#X obj 92 102 tgl 15 0 empty empty empty 17 7 0 10 -262144 -1 -1 0
1;
#X connect 0 0 6 0;
#X connect 1 0 7 0;
#X connect 2 0 8 0;
#X connect 3 0 4 0;
#X connect 4 0 0 1;
#X connect 4 0 1 1;
#X connect 4 0 2 1;
#X connect 5 0 9 0;
#X connect 9 0 0 0;
#X connect 9 0 1 0;
#X connect 9 0 2 0;
