#N canvas 517 165 739 550 10;
#X obj 100 155 random 1000;
#X obj 203 364 line;
#X obj 228 153 random 1000;
#X obj 546 71 Gate;
#X obj 100 183 / 1000;
#X obj 228 181 / 1000;
#X text 97 138 New value;
#X text 223 136 Time to take;
#X obj 228 245 *;
#X floatatom 369 123 5 0 0 0 - - -, f 5;
#X obj 203 289 pack;
#X obj 228 267 t f f;
#X obj 260 289 t b f;
#X obj 274 317 del;
#X obj 274 355 bng 15 250 50 0 empty empty empty 17 7 0 10 -262144
-1 -1;
#X obj 100 88 t b b;
#X obj 203 508 outlet;
#X obj 121 11 inlet;
#X text 164 11 On/Off;
#X obj 121 31 sel 0 1;
#X msg 121 54 1;
#X obj 164 54 t b b;
#X msg 211 54 2;
#X obj 369 28 inlet;
#X obj 20 255 inlet;
#X obj 203 419 line;
#X obj 203 394 pack;
#X obj 452 351 inlet;
#X floatatom 452 380 5 0 0 0 - - -, f 5;
#X text 450 327 Additional ramp time;
#X text 411 28 Max random ramp time;
#X text 5 236 Control value;
#X obj 89 272 t f b;
#X msg 121 306 0;
#X connect 0 0 4 0;
#X connect 1 0 26 0;
#X connect 2 0 5 0;
#X connect 3 1 15 0;
#X connect 4 0 10 0;
#X connect 5 0 8 0;
#X connect 8 0 11 0;
#X connect 9 0 8 1;
#X connect 10 0 1 0;
#X connect 11 0 10 1;
#X connect 11 1 12 0;
#X connect 12 0 13 0;
#X connect 12 1 13 1;
#X connect 13 0 14 0;
#X connect 14 0 3 1;
#X connect 15 0 0 0;
#X connect 15 1 2 0;
#X connect 17 0 19 0;
#X connect 19 0 20 0;
#X connect 19 1 21 0;
#X connect 20 0 3 0;
#X connect 21 0 15 0;
#X connect 21 1 22 0;
#X connect 22 0 3 0;
#X connect 23 0 9 0;
#X connect 24 0 32 0;
#X connect 25 0 16 0;
#X connect 26 0 25 0;
#X connect 27 0 28 0;
#X connect 28 0 26 1;
#X connect 32 0 10 0;
#X connect 32 1 33 0;
#X connect 33 0 19 0;
