#N canvas 104 102 1742 931 10;
#X obj 32 28 cnv 15 1250 500 empty empty empty 20 12 0 14 -99865 -66577
0;
#X obj 282 423 EQandDac;
#X obj 40 42 Shiftshaper2 0 1 2;
#X obj 1008 623 Notes;
#X text 9 370 126;
#X obj 667 42 Shiftshaper2 3 4 5;
#X obj 667 334 presetter 3 4 5;
#X obj 40 334 presetter 0 1 2;
#X text 40 605 - do all presets \; - do global presets \; - quick way
to shut one of three off \;;
#X obj 1393 294 bng 15 250 50 0 empty empty empty 17 7 0 10 -262144
-1 -1;
#X obj 1510 445 s switchbuff0;
#X obj 1354 352 t b b;
#X msg 1322 415 0;
#X text 1356 256 FLUSH 1;
#X msg 1322 528 3;
#X obj 1447 534 bng 15 250 50 0 empty empty empty 17 7 0 10 -262144
-1 -1;
#X msg 1442 616 1;
#X obj 1388 446 s triggerbypass-01;
#X obj 1388 476 s triggerbypass-12;
#X obj 1388 506 s triggerbypass-20;
#X obj 1510 475 s switchbuff1;
#X obj 1510 505 s switchbuff2;
#X obj 1512 603 s negate0;
#X obj 1512 633 s negate1;
#X obj 1512 663 s negate2;
#X msg 1514 560 0;
#X obj 1323 689 s gates1012-send;
#X obj 1383 739 s gates1012-receive;
#X obj 1446 696 bng 15 250 50 0 empty empty empty 17 7 0 10 -262144
-1 -1;
#X obj 1422 576 del 10;
#X connect 9 0 11 0;
#X connect 11 0 10 0;
#X connect 11 0 20 0;
#X connect 11 0 21 0;
#X connect 11 1 12 0;
#X connect 11 1 14 0;
#X connect 12 0 17 0;
#X connect 12 0 18 0;
#X connect 12 0 19 0;
#X connect 14 0 15 0;
#X connect 14 0 26 0;
#X connect 15 0 25 0;
#X connect 15 0 29 0;
#X connect 16 0 22 0;
#X connect 16 0 23 0;
#X connect 16 0 24 0;
#X connect 16 0 28 0;
#X connect 25 0 22 0;
#X connect 25 0 23 0;
#X connect 25 0 24 0;
#X connect 28 0 27 0;
#X connect 29 0 16 0;
