#N canvas 148 183 1060 552 10;
#X obj 787 59 Processor;
#X msg 932 113 \; pd dsp \$1;
#X obj 932 92 tgl 15 0 empty empty empty 17 7 0 10 -262144 -1 -1 0
1;
#X text 490 73 |;
#X text 433 60 |;
#X text 545 59 |;
#X text 25 433 2: 12 or 13 \, 14!!! \; 3: 21 \; wheel: 2 \; delay1:300
\; delay2: 107 \; delay3: 212 \; Oh \, delays don't matter... it's
1-1-0;
#X obj 727 284 signal_router4;
#X obj 496 430 controlpanel;
#X obj 167 214 golomber2 2 0;
#X text 657 59 |;
#X text 768 59 |X;
#X text 433 130 |;
#X text 545 129 |;
#X text 657 129 |;
#X text 768 129 |X;
#X text 433 200 |;
#X text 545 199 |;
#X text 657 199 |;
#X text 768 199 |X;
#X obj 167 74 golomber2 0 1;
#X obj 167 144 golomber2 1 2;
#X connect 2 0 1 0;
