#N canvas 43 100 1296 652 10;
#X obj 296 358 *~;
#X obj 353 358 *~;
#X obj 412 358 *~;
#X obj 469 358 *~;
#X obj 526 358 *~;
#X obj 583 358 *~;
#X obj 638 358 *~;
#X obj 696 358 *~;
#X obj 753 358 *~;
#X obj 810 358 *~;
#X obj 866 358 *~;
#X obj 923 358 *~;
#X obj 32 339 unpack f f f f f f f f f f f f;
#X obj 296 468 *~;
#X obj 353 468 *~;
#X obj 412 468 *~;
#X obj 469 468 *~;
#X obj 526 468 *~;
#X obj 583 468 *~;
#X obj 639 468 *~;
#X obj 695 468 *~;
#X obj 753 468 *~;
#X obj 810 468 *~;
#X obj 866 468 *~;
#X obj 923 468 *~;
#X obj 993 451 unpack f f f f f f f f f f f f;
#X obj 993 33 sel 0 1 2 3 4 5 6 7 8 9 10 11;
#X obj 531 553 bitwiser;
#X obj 180 380 vradio 12 1 0 15 empty empty empty 0 -8 0 10 -228856
-1 -1 5;
#X obj 192 380 vradio 12 1 0 15 empty empty empty 0 -8 0 10 -262144
-1 -1 0;
#X obj 187 368 tgl 12 0 empty empty empty 17 7 0 10 -262130 -1 -1 0
1;
#X msg 36 313 1 0 0 0 0 0 0 0 0 0 0 0;
#X msg 69 271 0 0 1 0 0 0 0 0 0 0 0 0;
#X msg 136 187 0 0 0 0 0 0 1 0 0 0 0 0;
#X msg 152 166 0 0 0 0 0 0 0 1 0 0 0 0;
#X msg 169 145 0 0 0 0 0 0 0 0 1 0 0 0;
#X msg 186 124 0 0 0 0 0 0 0 0 0 1 0 0;
#X msg 202 103 0 0 0 0 0 0 0 0 0 0 1 0;
#X msg 219 82 0 0 0 0 0 0 0 0 0 0 0 1;
#X msg 119 208 0 0 0 0 0 1 0 0 0 0 0 0;
#X msg 102 229 0 0 0 0 1 0 0 0 0 0 0 0;
#X msg 86 250 0 0 0 1 0 0 0 0 0 0 0 0;
#X msg 52 292 0 1 0 0 0 0 0 0 0 0 0 0;
#X msg 993 383 1 0 0 0 0 0 0 0 0 0 0 0;
#X msg 1026 341 0 0 1 0 0 0 0 0 0 0 0 0;
#X msg 1093 257 0 0 0 0 0 0 1 0 0 0 0 0;
#X msg 1109 236 0 0 0 0 0 0 0 1 0 0 0 0;
#X msg 1126 215 0 0 0 0 0 0 0 0 1 0 0 0;
#X msg 1143 194 0 0 0 0 0 0 0 0 0 1 0 0;
#X msg 1159 173 0 0 0 0 0 0 0 0 0 0 1 0;
#X msg 1176 152 0 0 0 0 0 0 0 0 0 0 0 1;
#X msg 1076 278 0 0 0 0 0 1 0 0 0 0 0 0;
#X msg 1059 299 0 0 0 0 1 0 0 0 0 0 0 0;
#X msg 1043 320 0 0 0 1 0 0 0 0 0 0 0 0;
#X msg 1009 362 0 1 0 0 0 0 0 0 0 0 0 0;
#X obj 508 108 inlet;
#X obj 560 108 inlet;
#X obj 560 130 unpack f f;
#X obj 297 258 r~ reg\$1-tap0;
#X obj 354 278 r~ reg\$1-tap1;
#X obj 411 298 r~ reg\$1-tap2;
#X obj 468 318 r~ reg\$1-tap3;
#X obj 525 258 r~ reg\$2-tap0;
#X obj 582 278 r~ reg\$2-tap1;
#X obj 639 297 r~ reg\$2-tap2;
#X obj 696 318 r~ reg\$2-tap3;
#X obj 753 258 r~ reg\$3-tap0;
#X obj 810 278 r~ reg\$3-tap1;
#X obj 867 298 r~ reg\$3-tap2;
#X obj 924 318 r~ reg\$3-tap3;
#X obj 529 585 s~ signal_router\$1\$2\$3-\$4-outlet;
#X obj 36 37 sel 0 1 2 3 4 5 6 7 8 9 10 11;
#X obj 450 33 r~ bitwiser_output0;
#X obj 590 33 r~ bitwiser_output1;
#X obj 730 33 r~ bitwiser_output2;
#X obj 449 78 *~;
#X obj 449 129 *~;
#X connect 0 0 27 2;
#X connect 1 0 27 2;
#X connect 2 0 27 2;
#X connect 3 0 27 2;
#X connect 4 0 27 2;
#X connect 5 0 27 2;
#X connect 6 0 27 2;
#X connect 7 0 27 2;
#X connect 8 0 27 2;
#X connect 9 0 27 2;
#X connect 10 0 27 2;
#X connect 11 0 27 2;
#X connect 12 0 0 1;
#X connect 12 1 1 1;
#X connect 12 2 2 1;
#X connect 12 3 3 1;
#X connect 12 4 4 1;
#X connect 12 5 5 1;
#X connect 12 6 6 1;
#X connect 12 7 7 1;
#X connect 12 8 8 1;
#X connect 12 9 9 1;
#X connect 12 10 10 1;
#X connect 12 11 11 1;
#X connect 13 0 27 1;
#X connect 14 0 27 1;
#X connect 15 0 27 1;
#X connect 16 0 27 1;
#X connect 17 0 27 1;
#X connect 18 0 27 1;
#X connect 19 0 27 1;
#X connect 20 0 27 1;
#X connect 21 0 27 1;
#X connect 22 0 27 1;
#X connect 23 0 27 1;
#X connect 24 0 27 1;
#X connect 25 0 13 1;
#X connect 25 1 14 1;
#X connect 25 2 15 1;
#X connect 25 3 16 1;
#X connect 25 4 17 1;
#X connect 25 5 18 1;
#X connect 25 6 19 1;
#X connect 25 7 20 1;
#X connect 25 8 21 1;
#X connect 25 9 22 1;
#X connect 25 10 23 1;
#X connect 25 11 24 1;
#X connect 26 0 43 0;
#X connect 26 1 54 0;
#X connect 26 2 44 0;
#X connect 26 3 53 0;
#X connect 26 4 52 0;
#X connect 26 5 51 0;
#X connect 26 6 45 0;
#X connect 26 7 46 0;
#X connect 26 8 47 0;
#X connect 26 9 48 0;
#X connect 26 10 49 0;
#X connect 26 11 50 0;
#X connect 27 0 70 0;
#X connect 28 0 26 0;
#X connect 29 0 71 0;
#X connect 30 0 27 0;
#X connect 31 0 12 0;
#X connect 32 0 12 0;
#X connect 33 0 12 0;
#X connect 34 0 12 0;
#X connect 35 0 12 0;
#X connect 36 0 12 0;
#X connect 37 0 12 0;
#X connect 38 0 12 0;
#X connect 39 0 12 0;
#X connect 40 0 12 0;
#X connect 41 0 12 0;
#X connect 42 0 12 0;
#X connect 43 0 25 0;
#X connect 44 0 25 0;
#X connect 45 0 25 0;
#X connect 46 0 25 0;
#X connect 47 0 25 0;
#X connect 48 0 25 0;
#X connect 49 0 25 0;
#X connect 50 0 25 0;
#X connect 51 0 25 0;
#X connect 52 0 25 0;
#X connect 53 0 25 0;
#X connect 54 0 25 0;
#X connect 55 0 30 0;
#X connect 56 0 57 0;
#X connect 57 0 28 0;
#X connect 57 1 29 0;
#X connect 58 0 0 0;
#X connect 58 0 13 0;
#X connect 59 0 1 0;
#X connect 59 0 14 0;
#X connect 60 0 2 0;
#X connect 60 0 15 0;
#X connect 61 0 3 0;
#X connect 61 0 16 0;
#X connect 62 0 4 0;
#X connect 62 0 17 0;
#X connect 63 0 5 0;
#X connect 63 0 18 0;
#X connect 64 0 6 0;
#X connect 64 0 19 0;
#X connect 65 0 7 0;
#X connect 65 0 20 0;
#X connect 66 0 8 0;
#X connect 66 0 21 0;
#X connect 67 0 9 0;
#X connect 67 0 22 0;
#X connect 68 0 10 0;
#X connect 68 0 23 0;
#X connect 69 0 11 0;
#X connect 69 0 24 0;
#X connect 71 0 31 0;
#X connect 71 1 42 0;
#X connect 71 2 32 0;
#X connect 71 3 41 0;
#X connect 71 4 40 0;
#X connect 71 5 39 0;
#X connect 71 6 33 0;
#X connect 71 7 34 0;
#X connect 71 8 35 0;
#X connect 71 9 36 0;
#X connect 71 10 37 0;
#X connect 71 11 38 0;
#X connect 72 0 75 0;
#X connect 72 0 76 0;
#X coords 0 -1 1 1 24 192 2 180 368;
