#N canvas 342 98 939 480 10;
#X obj 153 350 *~;
#X obj 193 350 *~;
#X obj 234 350 *~;
#X obj 171 313 unpack f f f;
#X msg 272 181 0.333 0.166 0.333;
#X msg 295 202 0.166 0.166 0.166;
#X obj 119 402 *~;
#X obj 152 402 *~;
#X obj 179 402 *~;
#X obj 207 402 *~;
#X obj 235 402 *~;
#X obj 272 402 *~;
#X obj 278 355 unpack f f f f f f;
#X msg 290 265 1 0 1 1 0 1;
#X msg 309 285 1 1 1 1 1 1;
#X msg 272 158 0 0 0;
#X msg 271 223 0 0 0 0 0 0;
#X msg 327 244 1 0 0;
#X obj 272 45 sel 0 1 2 3;
#X msg 327 307 1 1 0 0 0 0;
#X obj 272 18 inlet;
#X obj 118 447 outlet~;
#X obj 244 447 outlet~;
#X obj 34 112 inlet~;
#X obj 91 132 inlet~;
#X obj 148 152 inlet~;
#X obj 512 85 inlet;
#X obj 522 106 inlet;
#X obj 547 127 inlet;
#X obj 512 213 pack f f f;
#X obj 513 186 t b f;
#X obj 547 158 t b f;
#X text 506 301 Simplify all of this. Simple stereo controls \, linear.
;
#X connect 0 0 6 0;
#X connect 0 0 7 0;
#X connect 1 0 8 0;
#X connect 1 0 9 0;
#X connect 2 0 10 0;
#X connect 2 0 11 0;
#X connect 3 0 0 1;
#X connect 3 1 1 1;
#X connect 3 2 2 1;
#X connect 4 0 3 0;
#X connect 5 0 3 0;
#X connect 6 0 21 0;
#X connect 7 0 22 0;
#X connect 8 0 21 0;
#X connect 9 0 22 0;
#X connect 10 0 21 0;
#X connect 11 0 22 0;
#X connect 12 0 6 1;
#X connect 12 1 7 1;
#X connect 12 2 8 1;
#X connect 12 3 9 1;
#X connect 12 4 10 1;
#X connect 12 5 11 1;
#X connect 13 0 12 0;
#X connect 14 0 12 0;
#X connect 15 0 3 0;
#X connect 16 0 12 0;
#X connect 17 0 3 0;
#X connect 18 0 15 0;
#X connect 18 0 16 0;
#X connect 18 1 4 0;
#X connect 18 1 13 0;
#X connect 18 2 5 0;
#X connect 18 2 14 0;
#X connect 18 3 17 0;
#X connect 18 3 19 0;
#X connect 19 0 12 0;
#X connect 20 0 18 0;
#X connect 23 0 0 0;
#X connect 24 0 1 0;
#X connect 25 0 2 0;
#X connect 26 0 29 0;
#X connect 27 0 30 0;
#X connect 28 0 31 0;
#X connect 30 0 29 0;
#X connect 30 1 29 1;
#X connect 31 0 29 0;
#X connect 31 1 29 2;
