#N canvas 364 237 829 449 10;
#X msg 166 311 32 32 32 32;
#X msg 183 283 7 15 23 31;
#X obj 244 396 s tap_indices\$2;
#X msg 264 170 0 0 0 0;
#X obj 218 151 t b b b;
#X obj 166 12 inlet;
#X msg 218 208 10 0 0 0;
#X msg 241 189 23 0 0 0;
#X obj 201 255 tappicker \$1 \$2 \$3;
#X obj 221 415 s tap_indices\$1;
#X obj 267 377 s tap_indices\$3;
#X msg 234 123 0 0 0 0 32 0 0 0 32 0 0 0;
#X msg 251 95 0 0 0 0 32 32 0 0 32 32 0 0;
#X msg 201 236 32 32 32 32 32 32 32 32 32 32 32 32;
#X obj 166 33 sel 0 1 2 3 4 5 6;
#X obj 573 113 f;
#X obj 609 113 + 1;
#X msg 591 81 0;
#X obj 573 57 bng 15 250 50 0 empty empty empty 17 7 0 10 -262144 -1
-1;
#X floatatom 573 146 5 0 0 0 - - -, f 5;
#X obj 616 209 % 32;
#X floatatom 616 265 5 0 0 0 - - -, f 5;
#X obj 573 209 / 32;
#X obj 573 237 int;
#X floatatom 573 265 5 0 0 0 - - -, f 5;
#X obj 476 348 pack f f f f f f f f f f f f;
#X obj 573 176 t b f f b;
#X msg 633 292 0;
#X msg 476 320 0;
#X obj 641 33 loadbang;
#X obj 369 8 inlet;
#X obj 679 164 outlet;
#X connect 0 0 2 0;
#X connect 0 0 9 0;
#X connect 0 0 10 0;
#X connect 1 0 2 0;
#X connect 1 0 9 0;
#X connect 1 0 10 0;
#X connect 3 0 10 0;
#X connect 4 0 6 0;
#X connect 4 1 7 0;
#X connect 4 2 3 0;
#X connect 5 0 14 0;
#X connect 6 0 9 0;
#X connect 7 0 2 0;
#X connect 8 0 9 0;
#X connect 8 1 2 0;
#X connect 8 2 10 0;
#X connect 11 0 8 0;
#X connect 12 0 8 0;
#X connect 13 0 8 0;
#X connect 14 0 0 0;
#X connect 14 1 1 0;
#X connect 14 2 13 0;
#X connect 14 3 4 0;
#X connect 14 4 11 0;
#X connect 14 5 12 0;
#X connect 14 6 18 0;
#X connect 15 0 16 0;
#X connect 15 0 19 0;
#X connect 16 0 15 1;
#X connect 17 0 15 1;
#X connect 18 0 15 0;
#X connect 19 0 26 0;
#X connect 19 0 31 0;
#X connect 20 0 21 0;
#X connect 21 0 25 8;
#X connect 22 0 23 0;
#X connect 23 0 24 0;
#X connect 24 0 25 4;
#X connect 25 0 8 0;
#X connect 26 0 28 0;
#X connect 26 1 22 0;
#X connect 26 2 20 0;
#X connect 26 3 27 0;
#X connect 27 0 25 11;
#X connect 27 0 25 10;
#X connect 27 0 25 9;
#X connect 27 0 25 7;
#X connect 27 0 25 6;
#X connect 27 0 25 5;
#X connect 27 0 25 3;
#X connect 27 0 25 2;
#X connect 27 0 25 1;
#X connect 28 0 25 0;
#X connect 29 0 17 0;
#X connect 30 0 15 0;
