#N canvas 322 224 829 498 10;
#X obj 404 258 s tap_indices\$2;
#X obj 192 5 inlet;
#X obj 343 220 tappicker \$1 \$2 \$3;
#X obj 343 277 s tap_indices\$1;
#X obj 466 239 s tap_indices\$3;
#X obj 606 122 inlet;
#X obj 192 360 outlet;
#X obj 192 26 sel 0 1 2 3 4;
#X obj 616 103 inlet;
#X obj 626 84 inlet;
#X obj 244 82 tap_iterator 0 7 4 8;
#X obj 637 65 inlet;
#X obj 209 341 outlet;
#X obj 227 322 outlet;
#X obj 244 303 outlet;
#X obj 343 21 sel 0 1 2 3 4;
#X text 445 21 Trigger without incrementing;
#X obj 659 4 inlet;
#X obj 192 139 tap_iterator 13 13 0 4;
#X obj 209 120 tap_iterator 13 13 4 8;
#X obj 227 101 tap_iterator 13 13 11 0;
#X connect 1 0 7 0;
#X connect 2 0 3 0;
#X connect 2 1 0 0;
#X connect 2 2 4 0;
#X connect 5 0 18 0;
#X connect 7 0 18 0;
#X connect 7 1 19 0;
#X connect 7 2 20 0;
#X connect 7 3 10 0;
#X connect 8 0 19 0;
#X connect 9 0 20 0;
#X connect 10 0 14 0;
#X connect 10 1 2 0;
#X connect 11 0 10 0;
#X connect 15 0 18 1;
#X connect 15 1 19 1;
#X connect 15 2 20 1;
#X connect 15 3 10 1;
#X connect 17 0 15 0;
#X connect 18 0 6 0;
#X connect 18 1 2 0;
#X connect 19 0 12 0;
#X connect 19 1 2 0;
#X connect 20 0 13 0;
#X connect 20 1 2 0;
