#N canvas 346 261 829 498 10;
#X obj 210 422 s tap_indices\$2;
#X obj 166 12 inlet;
#X obj 149 384 tappicker \$1 \$2 \$3;
#X obj 149 441 s tap_indices\$1;
#X obj 272 403 s tap_indices\$3;
#X msg 232 143 0 0 0 0 32 0 0 0 32 0 0 0;
#X msg 248 102 0 0 0 0 32 32 0 0 32 32 0 0;
#X msg 199 232 32 32 32 32 32 32 32 32 32 32 32 32;
#X obj 166 33 sel 0 1 2 3 4 5 6;
#X obj 573 4 inlet;
#X msg 182 278 7 15 23 31 7 15 23 31 7 15 23 31;
#X msg 166 321 32 32 32 32 32 32 32 32 32 32 32 32;
#X msg 215 190 10 0 0 0 23 0 0 0 0 0 0;
#X obj 261 66 tap_iterator 13 13 5 10;
#X obj 535 243 outlet;
#X connect 1 0 8 0;
#X connect 2 0 3 0;
#X connect 2 1 0 0;
#X connect 2 2 4 0;
#X connect 5 0 2 0;
#X connect 6 0 2 0;
#X connect 7 0 2 0;
#X connect 8 0 11 0;
#X connect 8 1 10 0;
#X connect 8 2 7 0;
#X connect 8 3 12 0;
#X connect 8 4 5 0;
#X connect 8 5 6 0;
#X connect 8 6 13 1;
#X connect 9 0 13 0;
#X connect 10 0 2 0;
#X connect 11 0 2 0;
#X connect 12 0 2 0;
#X connect 13 0 14 0;
#X connect 13 1 2 0;
