#N canvas 43 208 573 413 10;
#X msg 142 115 32 32 32 32;
#X msg 181 92 7 15 23 31;
#X obj 186 261 pack f f f f;
#X obj 232 180 random 32;
#X obj 217 200 random 32;
#X obj 201 220 random 32;
#X obj 186 240 random 32;
#X obj 220 364 pack f f f f;
#X obj 295 282 random 32;
#X obj 279 302 random 32;
#X obj 264 322 random 32;
#X obj 247 342 random 32;
#X obj 311 261 pack f f f f;
#X obj 358 180 random 32;
#X obj 342 200 random 32;
#X obj 326 220 random 32;
#X obj 311 240 random 32;
#X obj 186 159 t b b b b b b b b b b b b;
#X obj 129 282 s tap_indices\$1;
#X obj 140 301 s tap_indices\$2;
#X obj 149 320 s tap_indices\$3;
#X msg 342 130 0 0 0 0;
#X obj 341 76 t b b b;
#X obj 142 67 sel 0 1 2 3;
#X obj 94 21 inlet;
#X msg 268 87 10 0 0 0;
#X msg 302 120 23 0 0 0;
#X connect 0 0 18 0;
#X connect 0 0 19 0;
#X connect 0 0 20 0;
#X connect 1 0 18 0;
#X connect 1 0 19 0;
#X connect 1 0 20 0;
#X connect 2 0 18 0;
#X connect 3 0 2 3;
#X connect 4 0 2 2;
#X connect 5 0 2 1;
#X connect 6 0 2 0;
#X connect 7 0 19 0;
#X connect 8 0 7 3;
#X connect 9 0 7 2;
#X connect 10 0 7 1;
#X connect 11 0 7 0;
#X connect 12 0 20 0;
#X connect 13 0 12 3;
#X connect 14 0 12 2;
#X connect 15 0 12 1;
#X connect 16 0 12 0;
#X connect 17 0 6 0;
#X connect 17 1 5 0;
#X connect 17 2 4 0;
#X connect 17 3 3 0;
#X connect 17 4 11 0;
#X connect 17 5 10 0;
#X connect 17 6 9 0;
#X connect 17 7 8 0;
#X connect 17 8 16 0;
#X connect 17 9 15 0;
#X connect 17 10 14 0;
#X connect 17 11 13 0;
#X connect 21 0 18 0;
#X connect 22 0 25 0;
#X connect 22 1 26 0;
#X connect 22 2 21 0;
#X connect 23 0 0 0;
#X connect 23 1 1 0;
#X connect 23 2 17 0;
#X connect 23 3 22 0;
#X connect 24 0 23 0;
#X connect 25 0 20 0;
#X connect 26 0 19 0;
