#N canvas 442 267 829 498 10;
#X obj 404 258 s tap_indices\$2;
#X obj 192 5 inlet;
#X obj 343 220 tappicker \$1 \$2 \$3;
#X obj 343 277 s tap_indices\$1;
#X obj 466 239 s tap_indices\$3;
#X obj 606 122 inlet;
#X obj 616 103 inlet;
#X obj 626 84 inlet;
#X obj 637 64 inlet;
#X text 445 21 Trigger without incrementing;
#X obj 659 4 inlet;
#X obj 210 120 tap_iterator 13 13 4 8;
#X obj 136 325 pack f f f f;
#X obj 136 252 t b f;
#X obj 163 231 t b f;
#X obj 186 208 t b f;
#X obj 136 353 s incrementer\$1\$2\$3;
#X obj 192 26 sel 0 1 2 3;
#X obj 343 21 sel 0 1 2 3;
#X obj 192 139 tap_iterator 13 13 0 4;
#X obj 247 81 tap_iterator 0 7 4 8;
#X obj 229 101 tap_iterator 13 13 11 0;
#X connect 1 0 17 0;
#X connect 2 0 3 0;
#X connect 2 1 0 0;
#X connect 2 2 4 0;
#X connect 5 0 19 0;
#X connect 6 0 11 0;
#X connect 7 0 21 0;
#X connect 8 0 20 0;
#X connect 10 0 18 0;
#X connect 11 0 13 0;
#X connect 11 1 2 0;
#X connect 12 0 16 0;
#X connect 13 0 12 0;
#X connect 13 1 12 1;
#X connect 14 0 12 0;
#X connect 14 1 12 2;
#X connect 15 0 12 0;
#X connect 15 1 12 3;
#X connect 17 0 19 0;
#X connect 17 1 11 0;
#X connect 17 2 21 0;
#X connect 17 3 20 0;
#X connect 18 0 19 1;
#X connect 18 1 11 1;
#X connect 18 2 21 1;
#X connect 18 3 20 1;
#X connect 19 0 12 0;
#X connect 19 1 2 0;
#X connect 20 0 15 0;
#X connect 20 1 2 0;
#X connect 21 0 14 0;
#X connect 21 1 2 0;
