#N canvas 224 150 829 498 10;
#X obj 307 319 s tap_indices\$2;
#X obj 246 12 inlet;
#X obj 246 281 tappicker \$1 \$2 \$3;
#X obj 246 338 s tap_indices\$1;
#X obj 369 300 s tap_indices\$3;
#X msg 311 185 0 0 0 0 32 0 0 0 32 0 0 0;
#X msg 327 166 0 0 0 0 32 32 0 0 32 32 0 0;
#X msg 278 223 32 32 32 32 32 32 32 32 32 32 32 32;
#X obj 521 122 inlet;
#X msg 262 242 7 15 23 31 7 15 23 31 7 15 23 31;
#X msg 246 261 32 32 32 32 32 32 32 32 32 32 32 32;
#X msg 294 204 10 0 0 0 23 0 0 0 0 0 0;
#X obj 192 470 outlet;
#X obj 192 139 tap_iterator 13 13 4 8;
#X obj 246 33 sel 0 1 2 3 4 5 6 7 8 9 10;
#X obj 531 103 inlet;
#X obj 201 451 outlet;
#X obj 232 432 outlet;
#X obj 541 84 inlet;
#X obj 232 101 tap_iterator 13 0 4 8;
#X obj 551 65 inlet;
#X obj 248 413 outlet;
#X obj 248 82 tap_iterator 13 0 1 4;
#X obj 271 63 tap_iterator 0 5 4 8;
#X obj 271 394 outlet;
#X obj 561 46 inlet;
#X obj 201 120 tap_iterator 13 13 0 8;
#X connect 1 0 14 0;
#X connect 2 0 3 0;
#X connect 2 1 0 0;
#X connect 2 2 4 0;
#X connect 5 0 2 0;
#X connect 6 0 2 0;
#X connect 7 0 2 0;
#X connect 8 0 13 0;
#X connect 9 0 2 0;
#X connect 10 0 2 0;
#X connect 11 0 2 0;
#X connect 13 0 12 0;
#X connect 13 1 2 0;
#X connect 14 0 10 0;
#X connect 14 1 9 0;
#X connect 14 2 7 0;
#X connect 14 3 11 0;
#X connect 14 4 5 0;
#X connect 14 5 6 0;
#X connect 14 6 13 1;
#X connect 14 7 26 1;
#X connect 14 8 19 1;
#X connect 14 9 22 1;
#X connect 14 10 23 1;
#X connect 15 0 26 0;
#X connect 18 0 19 0;
#X connect 19 0 17 0;
#X connect 19 1 2 0;
#X connect 20 0 22 0;
#X connect 22 0 21 0;
#X connect 22 1 2 0;
#X connect 23 0 24 0;
#X connect 23 1 2 0;
#X connect 25 0 23 0;
#X connect 26 0 16 0;
#X connect 26 1 2 0;
