#N canvas 306 234 829 498 10;
#X obj 454 258 s tap_indices\$2;
#X obj 192 5 inlet;
#X obj 393 220 tappicker \$1 \$2 \$3;
#X obj 393 277 s tap_indices\$1;
#X obj 516 239 s tap_indices\$3;
#X obj 521 122 inlet;
#X obj 192 360 outlet;
#X obj 531 103 inlet;
#X obj 209 341 outlet;
#X obj 227 322 outlet;
#X obj 541 84 inlet;
#X obj 551 65 inlet;
#X obj 244 303 outlet;
#X obj 262 284 outlet;
#X obj 561 46 inlet;
#X obj 192 26 sel 0 1 2 3 4;
#X obj 192 139 tap_iterator 13 13 0 4;
#X obj 262 63 tap_iterator 3 2 1 0;
#X obj 244 82 tap_iterator 7 6 5 4;
#X obj 227 101 tap_iterator 11 10 9 8;
#X obj 209 120 tap_iterator 15 14 13 10;
#X connect 1 0 15 0;
#X connect 2 0 3 0;
#X connect 2 1 0 0;
#X connect 2 2 4 0;
#X connect 5 0 16 0;
#X connect 7 0 20 0;
#X connect 10 0 19 0;
#X connect 11 0 18 0;
#X connect 14 0 17 0;
#X connect 15 0 16 0;
#X connect 15 1 20 0;
#X connect 15 2 19 0;
#X connect 15 3 18 0;
#X connect 15 4 17 0;
#X connect 16 0 6 0;
#X connect 16 1 2 0;
#X connect 17 0 13 0;
#X connect 17 1 2 0;
#X connect 18 0 12 0;
#X connect 18 1 2 0;
#X connect 19 0 9 0;
#X connect 19 1 2 0;
#X connect 20 0 8 0;
#X connect 20 1 2 0;
