#N canvas 80 251 450 461 10;
#X obj 131 32 nbx 5 14 -1e+37 1e+37 0 0 empty empty empty 0 -8 0 10
-262144 -1 -1 0 256;
#X obj 174 104 int;
#X floatatom 174 178 5 0 0 0 - - -, f 5;
#X floatatom 131 178 5 0 0 0 - - -, f 5;
#X obj 217 104 int;
#X floatatom 217 178 5 0 0 0 - - -, f 5;
#X obj 260 104 int;
#X floatatom 260 178 5 0 0 0 - - -, f 5;
#X obj 116 277 outlet;
#X obj 174 273 outlet;
#X obj 217 243 outlet;
#X obj 260 273 outlet;
#X obj 131 9 inlet;
#X obj 174 75 / 32;
#X obj 217 75 / 32;
#X obj 260 75 / 32;
#X obj 131 134 % 32;
#X obj 174 134 % 32;
#X obj 217 134 % 32;
#X obj 260 134 % 32;
#X floatatom 99 248 5 0 0 0 - - -, f 5;
#X obj 95 205 t b f;
#X msg 258 201 set \$1;
#X connect 0 0 13 0;
#X connect 0 0 16 0;
#X connect 1 0 14 0;
#X connect 1 0 17 0;
#X connect 2 0 10 0;
#X connect 3 0 21 0;
#X connect 4 0 15 0;
#X connect 4 0 18 0;
#X connect 5 0 9 0;
#X connect 6 0 19 0;
#X connect 7 0 22 0;
#X connect 12 0 0 0;
#X connect 13 0 1 0;
#X connect 14 0 4 0;
#X connect 15 0 6 0;
#X connect 16 0 3 0;
#X connect 17 0 2 0;
#X connect 18 0 5 0;
#X connect 19 0 7 0;
#X connect 20 0 8 0;
#X connect 21 0 20 0;
#X connect 21 1 11 0;
#X connect 22 0 20 0;
