#N canvas 308 246 576 387 10;
#X obj 332 27 inlet;
#X obj 264 213 sel;
#X obj 332 114 bng 15 250 50 0 empty empty empty 17 7 0 10 -262144
-1 -1;
#X obj 254 114 bng 15 250 50 0 empty empty empty 17 7 0 10 -262144
-1 -1;
#X floatatom 282 274 5 0 0 0 - - -, f 5;
#X floatatom 330 274 5 0 0 0 - - -, f 5;
#X obj 188 186 sel;
#X obj 206 223 sel;
#X obj 167 114 bng 15 250 50 0 empty empty empty 17 7 0 10 -262144
-1 -1;
#X floatatom 224 274 5 0 0 0 - - -, f 5;
#X obj 87 114 bng 15 250 50 0 empty empty empty 17 7 0 10 -262144 -1
-1;
#X floatatom 171 274 5 0 0 0 - - -, f 5;
#X obj 232 314 pack f f f f;
#X obj 232 345 outlet;
#X obj 264 146 random 32;
#X obj 188 146 random 32;
#X obj 254 80 del 1;
#X obj 167 80 del 1;
#X obj 87 81 del 1;
#X obj 332 174 random 32;
#X obj 87 155 f 31;
#X connect 0 0 2 0;
#X connect 1 0 3 0;
#X connect 1 1 4 0;
#X connect 2 0 16 0;
#X connect 2 0 19 0;
#X connect 3 0 14 0;
#X connect 4 0 7 1;
#X connect 4 0 12 2;
#X connect 5 0 6 1;
#X connect 5 0 12 3;
#X connect 6 0 8 0;
#X connect 6 1 7 0;
#X connect 7 0 8 0;
#X connect 7 1 9 0;
#X connect 8 0 15 0;
#X connect 9 0 12 1;
#X connect 10 0 20 0;
#X connect 11 0 12 0;
#X connect 12 0 13 0;
#X connect 14 0 1 0;
#X connect 15 0 6 0;
#X connect 16 0 3 0;
#X connect 16 0 17 0;
#X connect 17 0 8 0;
#X connect 17 0 18 0;
#X connect 18 0 10 0;
#X connect 19 0 1 1;
#X connect 19 0 5 0;
#X connect 20 0 11 0;
