#N canvas 89 239 450 461 10;
#X obj 131 32 nbx 5 14 -1e+37 1e+37 0 0 empty empty empty 0 -8 0 10
-262144 -1 -1 65527 256;
#X obj 131 134 % 16;
#X obj 174 75 / 16;
#X obj 174 104 int;
#X obj 174 134 % 16;
#X floatatom 174 178 5 0 0 0 - - -, f 5;
#X floatatom 131 178 5 0 0 0 - - -, f 5;
#X obj 217 75 / 16;
#X obj 217 104 int;
#X obj 217 134 % 16;
#X floatatom 217 178 5 0 0 0 - - -, f 5;
#X obj 260 75 / 16;
#X obj 260 104 int;
#X obj 260 134 % 16;
#X floatatom 260 178 5 0 0 0 - - -, f 5;
#X obj 131 243 outlet;
#X obj 174 273 outlet;
#X obj 217 243 outlet;
#X obj 260 273 outlet;
#X obj 131 9 inlet;
#X connect 0 0 1 0;
#X connect 0 0 2 0;
#X connect 1 0 6 0;
#X connect 2 0 3 0;
#X connect 3 0 4 0;
#X connect 3 0 7 0;
#X connect 4 0 5 0;
#X connect 5 0 17 0;
#X connect 6 0 18 0;
#X connect 7 0 8 0;
#X connect 8 0 9 0;
#X connect 8 0 11 0;
#X connect 9 0 10 0;
#X connect 10 0 16 0;
#X connect 11 0 12 0;
#X connect 12 0 13 0;
#X connect 13 0 14 0;
#X connect 14 0 15 0;
#X connect 19 0 0 0;
