#N canvas 399 228 790 489 10;
#X obj 170 31 inlet;
#X obj 202 87 sel 0 1 2 3 4 5;
#X obj 388 361 s wheel\$1;
#X obj 428 342 s wheel\$2;
#X obj 469 323 s wheel\$3;
#X obj 170 59 t b f;
#X obj 170 316 t b b b;
#X obj 388 304 unpack f f f;
#X obj 369 156 random 65536;
#X obj 468 156 random 65535;
#X obj 567 156 random 65535;
#X obj 660 173 pack f f f;
#X obj 287 139 t b b b;
#X obj 270 162 random 65536;
#X msg 219 266 65535 0 0;
#X obj 236 228 random 65536;
#X obj 236 247 pack f 0 0;
#X obj 193 363 s trigger\$2_wheel;
#X obj 216 344 s trigger\$3_wheel;
#X obj 170 382 s trigger\$1_wheel;
#X msg 202 285 2 0 0;
#X msg 253 200 2 2 2;
#X obj 270 181 pack f 2 2;
#X connect 0 0 5 0;
#X connect 1 0 20 0;
#X connect 1 1 14 0;
#X connect 1 2 15 0;
#X connect 1 3 21 0;
#X connect 1 4 13 0;
#X connect 1 5 12 0;
#X connect 5 0 6 0;
#X connect 5 1 1 0;
#X connect 6 0 19 0;
#X connect 6 1 17 0;
#X connect 6 2 18 0;
#X connect 7 0 2 0;
#X connect 7 1 3 0;
#X connect 7 2 4 0;
#X connect 8 0 11 0;
#X connect 9 0 11 1;
#X connect 10 0 11 2;
#X connect 11 0 7 0;
#X connect 12 0 8 0;
#X connect 12 1 9 0;
#X connect 12 2 10 0;
#X connect 13 0 22 0;
#X connect 14 0 7 0;
#X connect 15 0 16 0;
#X connect 16 0 7 0;
#X connect 20 0 7 0;
#X connect 21 0 7 0;
#X connect 22 0 7 0;
