#N canvas 43 229 1273 526 10;
#X obj 86 380 *~;
#X obj 284 164 vradio 13 1 0 4 empty empty empty 0 -8 0 10 -262144
-1 -1 1;
#X obj 9 162 sel 0 1 2 3;
#X obj 671 155 vradio 13 1 0 7 empty empty empty 0 -8 0 10 -262144
-1 -1 5;
#X obj 340 165 vradio 13 1 0 5 empty empty empty 0 -8 0 10 -262144
-1 -1 2;
#X text 709 150 DELAY;
#X obj 758 150 hradio 24 1 0 2 empty empty empty 0 -8 0 10 -228856
-1 -1 0;
#X obj 758 174 hradio 24 1 0 2 empty empty empty 0 -8 0 10 -262144
-1 -1 0;
#X obj 934 327 *~;
#X obj 970 327 *~;
#X obj 1001 347 *~;
#X obj 1037 347 *~;
#X obj 908 363 bitwiser;
#X obj 952 174 sel 0 1;
#X obj 1032 198 sel 0 1;
#X msg 975 193 0 1;
#X msg 952 214 1 0;
#X msg 1055 217 0 1;
#X msg 1032 238 1 0;
#X obj 952 235 unpack f f;
#X obj 1032 258 unpack f f;
#X obj 404 164 vradio 13 1 0 4 empty empty empty 0 -8 0 10 -262144
-1 -1 0;
#X obj 608 164 vradio 13 1 0 5 empty empty empty 0 -8 0 10 -262144
-1 -1 0;
#X obj 9 336 s topology\$1;
#X obj 40 317 s topology\$2;
#X obj 72 298 s topology\$3;
#X obj 87 410 throw~ reg\$1-inlet;
#X obj 404 272 s xor_inline_onoff\$1\$2\$3;
#X obj 934 298 r~ signal_router\$1\$2\$3-0-outlet;
#X obj 1001 316 r~ signal_router\$1\$2\$3-1-outlet;
#X obj 1010 133 unpack f f f;
#X msg 1010 114 0 0 0;
#X msg 1047 76 0 1 1;
#X obj 461 165 vradio 12 1 0 4 empty empty empty 0 -8 0 10 -262144
-1 -1 3;
#X text 459 150 GATES 1;
#X msg 1028 95 1 0 0;
#X text 607 150 TAPS 2;
#X obj 1010 38 sel 0 1 2 3;
#X msg 1065 57 0 0 1;
#X obj 284 310 s topology\$1\$2\$3-send;
#X obj 284 65 r topology\$1\$2\$3-receive;
#X obj 9 143 r topology\$1\$2\$3-send;
#X obj 340 291 s gates3\$1\$2\$3-send;
#X obj 340 84 r gates3\$1\$2\$3-receive;
#X obj 461 253 s gates1\$1\$2\$3-send;
#X obj 608 291 s taps2\$1\$2\$3-send;
#X obj 671 272 s delay\$1\$2\$3-send;
#X obj 404 103 r gates2\$1\$2\$3-receive;
#X obj 461 122 r gates1\$1\$2\$3-receive;
#X obj 608 84 r taps2\$1\$2\$3-receive;
#X obj 1010 19 r gates1\$1\$2\$3-send;
#X obj 671 103 r delay\$1\$2\$3-receive;
#X obj 206 164 vradio 13 1 0 5 empty empty empty 0 -8 0 10 -262144
-1 -1 0;
#X obj 206 262 triggerer \$1 \$2 \$3;
#X text 206 150 WHEEL;
#X obj 530 164 vradio 13 1 0 5 empty empty empty 0 -8 0 10 -262144
-1 -1 4;
#X text 532 150 TAPS 4;
#X obj 206 46 r wheel\$1\$2\$3-receive;
#X msg 46 202 1 1 0 1;
#X msg 27 221 2 2 2 0;
#X msg 9 240 0 0 0 0;
#X obj 9 260 unpack f f f f;
#X text 282 150 TOPOS;
#X text 297 163 OFF \; 3 \; 1 \; 1+;
#X text 339 150 GATES3;
#X text 418 162 OFF \; L \; R \; ALL;
#X text 403 150 GATES2;
#X text 622 163 0 4 \; 4 8 \; 0 11 \; 5 8 \; 548;
#X text 473 163 LEFT \; RIGHT \; XOR \; NULL;
#X text 220 163 1 1 1 \; 16 1 1 \; R 0 0 \; R 1 1 \; R R R \;;
#X obj 647 412 Translator \$1 \$2 \$3;
#X text 354 164 BYP \; XOR \; 1XOR \; MIX \;;
#X obj 530 310 s taps4\$1\$2\$3-send;
#X obj 530 65 r taps4\$1\$2\$3-receive;
#X text 544 163 ZEROES \; 1234 \; 1-12 \; RAND \; RAND+31;
#X msg 64 183 3 3 0 1;
#X text 2 69 Note \, on 1+ (3 3 0 1) \; the delay after the third \;
register doesn't have any \; effect because the tap comes \; before
it.;
#X text 684 154 1s \; 3 \, 25 \; 6 \, 5 \; Fast \; Harmonics \; Polyrhythm
\; Long;
#X connect 0 0 26 0;
#X connect 1 0 39 0;
#X connect 2 0 60 0;
#X connect 2 1 59 0;
#X connect 2 2 58 0;
#X connect 2 3 75 0;
#X connect 3 0 46 0;
#X connect 4 0 42 0;
#X connect 6 0 13 0;
#X connect 7 0 14 0;
#X connect 8 0 12 1;
#X connect 9 0 12 2;
#X connect 10 0 12 1;
#X connect 11 0 12 2;
#X connect 12 0 0 0;
#X connect 13 0 16 0;
#X connect 13 1 15 0;
#X connect 14 0 18 0;
#X connect 14 1 17 0;
#X connect 15 0 19 0;
#X connect 16 0 19 0;
#X connect 17 0 20 0;
#X connect 18 0 20 0;
#X connect 19 0 8 1;
#X connect 19 1 10 1;
#X connect 20 0 9 1;
#X connect 20 1 11 1;
#X connect 21 0 27 0;
#X connect 22 0 45 0;
#X connect 28 0 8 0;
#X connect 28 0 9 0;
#X connect 29 0 10 0;
#X connect 29 0 11 0;
#X connect 30 0 6 0;
#X connect 30 1 7 0;
#X connect 30 2 12 0;
#X connect 31 0 30 0;
#X connect 32 0 30 0;
#X connect 33 0 44 0;
#X connect 35 0 30 0;
#X connect 37 0 31 0;
#X connect 37 1 35 0;
#X connect 37 2 32 0;
#X connect 37 3 38 0;
#X connect 38 0 30 0;
#X connect 40 0 1 0;
#X connect 41 0 2 0;
#X connect 43 0 4 0;
#X connect 47 0 21 0;
#X connect 48 0 33 0;
#X connect 49 0 22 0;
#X connect 50 0 37 0;
#X connect 51 0 3 0;
#X connect 52 0 53 0;
#X connect 55 0 72 0;
#X connect 57 0 52 0;
#X connect 58 0 61 0;
#X connect 59 0 61 0;
#X connect 60 0 61 0;
#X connect 61 0 23 0;
#X connect 61 1 24 0;
#X connect 61 2 25 0;
#X connect 61 3 0 1;
#X connect 73 0 55 0;
#X connect 75 0 61 0;
#X coords 0 -1 1 1 606 100 2 200 150;
