#N canvas 67 89 1637 809 10;
#X obj 1457 357 r ctl-46;
#X obj 35 344 r ctl-58;
#X obj 322 341 r ctl-59;
#X obj 1365 357 r ctl-60;
#X obj 963 68 r ctl-61;
#X obj 999 118 r ctl-62;
#X obj 1457 413 s cyclebutton;
#X obj 1365 413 s setbutton;
#X obj 35 372 sel 127;
#X obj 322 372 sel 127;
#X obj 999 146 sel 127;
#X obj 1457 385 sel 127;
#X obj 1365 385 sel 127;
#X obj 104 28 r fromconverter;
#X obj 104 -1 Converter;
#X obj 590 92 Gate;
#X obj 827 92 Gate;
#X obj 102 452 tgl 15 0 empty empty empty 17 7 0 10 -262144 -1 -1 1
1;
#X obj 172 421 tgl 15 0 empty empty empty 17 7 0 10 -262144 -1 -1 0
1;
#X obj 103 230 loadbang;
#X obj 1303 474 r ctl-42;
#X obj 1161 474 r ctl-43;
#X obj 1232 474 r ctl-44;
#X obj 1445 474 r ctl-45;
#X obj 1374 474 r ctl-41;
#X obj 827 642 Gate5, f 10;
#X obj 604 724 s pads012-1;
#X obj 590 744 s pads012-0;
#X obj 618 704 s pads012-2;
#X obj 827 744 s pads345-0;
#X obj 841 724 s pads345-1;
#X obj 855 704 s pads345-2;
#X obj 590 637 Gate5, f 10;
#X floatatom 827 270 5 0 0 0 - - -, f 5;
#X obj 963 93 sel 127;
#X msg 999 238 1;
#X msg 413 582 0;
#X obj 492 562 t f f;
#X text 1028 70 Marker forward / back;
#X obj 723 669 s LED012;
#X obj 955 673 s LED345;
#X obj 827 308 t f b;
#X floatatom 590 270 5 0 0 0 - - -, f 5;
#X obj 590 308 t f b;
#X obj 854 337 s clearpanels345;
#X obj 617 340 s clearpanels012;
#X obj 103 250 t b b b;
#X obj 386 533 t b b;
#X obj 279 74 sel 6 14 22;
#X obj 370 74 sel 7 15 23;
#X obj 104 75 sel 16 17 18 19 20 21, f 25;
#X text 169 54 Main Presets;
#X text 276 52 Left Triggers;
#X text 371 52 Right Triggers;
#X obj 919 494 Gate;
#X obj 687 494 Gate;
#X obj 300 212 s trigger1_wheel;
#X obj 279 232 s trigger0_wheel;
#X obj 321 192 s trigger2_wheel;
#X obj 370 172 s trigger3_wheel;
#X obj 391 152 s trigger4_wheel;
#X obj 412 132 s trigger5_wheel;
#X msg 104 128 0;
#X msg 128 107 1;
#X msg 153 128 2;
#X msg 177 107 3;
#X msg 202 128 4;
#X msg 226 105 5;
#X obj 154 192 s globalpresets;
#X obj 102 550 s BigLED012;
#X obj 172 507 s BigLED345;
#X obj 1445 502 sel 127;
#X obj 1445 530 s recordbutton;
#X obj 1303 502 sel 127;
#X obj 1303 530 s stopbutton;
#X obj 1161 587 s roameronoff012;
#X obj 1232 559 s roameronoff345;
#X obj 1161 535 sel 127;
#X obj 1232 517 sel 127;
#X obj 102 476 + 0;
#X obj 172 476 + 0;
#X obj 1256 392 r fader-7;
#X obj 1256 343 r trim-7;
#X obj 1161 364 s wheeler0;
#X obj 1161 413 s wheeler1;
#X obj 1161 343 r trim-6;
#X obj 1161 392 r fader-6;
#X obj 1256 364 s wheeler3;
#X obj 1256 413 s wheeler4;
#X msg 103 279 1;
#X msg 172 284 0;
#X text 215 24 S \, M \, R buttons;
#X floatatom 999 477 5 0 0 0 - - -, f 5;
#X obj 687 551 f;
#X obj 723 551 +;
#X obj 687 522 t b f;
#X floatatom 723 580 5 0 0 0 - - -, f 5;
#X obj 723 619 mod 3;
#X obj 919 551 f;
#X obj 955 551 +;
#X obj 919 523 t b f;
#X floatatom 955 581 5 0 0 0 - - -, f 5;
#X obj 955 624 mod 3;
#X msg 70 403 0;
#X msg 35 434 1;
#X msg 322 434 0;
#X msg 292 403 1;
#X text 1047 90 Left or Right Shiftshaper;
#X msg 963 238 0;
#X text 565 72 The S and the M buttons continue through the gates...
;
#X obj 1374 569 sel 127;
#X obj 1374 608 s playbutton;
#X connect 0 0 11 0;
#X connect 1 0 8 0;
#X connect 2 0 9 0;
#X connect 3 0 12 0;
#X connect 4 0 34 0;
#X connect 5 0 10 0;
#X connect 8 0 104 0;
#X connect 8 0 103 0;
#X connect 9 0 106 0;
#X connect 9 0 105 0;
#X connect 10 0 35 0;
#X connect 11 0 6 0;
#X connect 12 0 7 0;
#X connect 13 0 50 0;
#X connect 15 0 42 0;
#X connect 16 0 33 0;
#X connect 17 0 69 0;
#X connect 17 0 79 0;
#X connect 18 0 70 0;
#X connect 18 0 80 0;
#X connect 19 0 46 0;
#X connect 20 0 73 0;
#X connect 21 0 77 0;
#X connect 22 0 78 0;
#X connect 23 0 71 0;
#X connect 24 0 110 0;
#X connect 25 0 29 0;
#X connect 25 1 30 0;
#X connect 25 2 31 0;
#X connect 32 0 27 0;
#X connect 32 1 26 0;
#X connect 32 2 28 0;
#X connect 33 0 41 0;
#X connect 34 0 108 0;
#X connect 35 0 92 0;
#X connect 36 0 37 0;
#X connect 37 0 94 1;
#X connect 37 0 99 1;
#X connect 37 1 101 0;
#X connect 37 1 96 0;
#X connect 41 0 25 0;
#X connect 41 1 44 0;
#X connect 42 0 43 0;
#X connect 43 0 32 0;
#X connect 43 1 45 0;
#X connect 46 0 47 0;
#X connect 46 1 89 0;
#X connect 46 2 90 0;
#X connect 47 0 93 0;
#X connect 47 0 98 0;
#X connect 47 1 36 0;
#X connect 48 0 57 0;
#X connect 48 1 56 0;
#X connect 48 2 58 0;
#X connect 48 3 49 0;
#X connect 49 0 59 0;
#X connect 49 1 60 0;
#X connect 49 2 61 0;
#X connect 49 3 16 1;
#X connect 49 3 15 1;
#X connect 50 0 62 0;
#X connect 50 1 63 0;
#X connect 50 2 64 0;
#X connect 50 3 65 0;
#X connect 50 4 66 0;
#X connect 50 5 67 0;
#X connect 50 6 48 0;
#X connect 54 0 100 0;
#X connect 55 0 95 0;
#X connect 62 0 68 0;
#X connect 63 0 68 0;
#X connect 64 0 68 0;
#X connect 65 0 68 0;
#X connect 66 0 68 0;
#X connect 67 0 68 0;
#X connect 71 0 72 0;
#X connect 73 0 74 0;
#X connect 77 0 75 0;
#X connect 78 0 76 0;
#X connect 79 0 15 0;
#X connect 79 0 55 0;
#X connect 80 0 54 0;
#X connect 80 0 16 0;
#X connect 81 0 88 0;
#X connect 82 0 87 0;
#X connect 85 0 83 0;
#X connect 86 0 84 0;
#X connect 89 0 17 0;
#X connect 90 0 18 0;
#X connect 92 0 55 1;
#X connect 92 0 54 1;
#X connect 93 0 94 0;
#X connect 94 0 93 1;
#X connect 94 0 96 0;
#X connect 95 0 93 0;
#X connect 95 1 94 1;
#X connect 96 0 97 0;
#X connect 97 0 39 0;
#X connect 97 0 32 1;
#X connect 98 0 99 0;
#X connect 99 0 98 1;
#X connect 99 0 101 0;
#X connect 100 0 98 0;
#X connect 100 1 99 1;
#X connect 101 0 102 0;
#X connect 102 0 25 1;
#X connect 102 0 40 0;
#X connect 103 0 18 0;
#X connect 104 0 17 0;
#X connect 105 0 17 0;
#X connect 106 0 18 0;
#X connect 108 0 92 0;
#X connect 110 0 111 0;
