#N canvas 67 89 1432 662 10;
#X msg 672 377 \; pd dsp \$1;
#X obj 745 645 dac~;
#X obj 83 13 loadbang;
#X obj 322 546 t f f;
#X obj 268 592 abs;
#X obj 268 573 - 1;
#X obj 498 598 *~;
#X obj 553 598 *~;
#X obj 980 598 *~;
#X obj 1171 598 *~;
#X obj 1064 524 t f f;
#X obj 1064 562 abs;
#X obj 1064 543 - 1;
#X msg 83 208 0.5;
#X floatatom 1081 416 5 0 0 0 - - -, f 5;
#X floatatom 291 394 5 0 0 0 - - -, f 5;
#X obj 338 108 r fader-0;
#X obj 338 88 r trim-0;
#X obj 381 524 *~;
#X obj 192 524 *~;
#X obj 980 547 *~;
#X obj 1172 551 *~;
#X msg 338 31 1;
#X obj 190 336 r~ panpre012-l-send;
#X obj 381 336 r~ panpre012-r-send;
#X obj 980 336 r~ panpre345-l-send;
#X obj 1171 336 r~ panpre345-r-send;
#X obj 517 541 Reverber;
#X floatatom 517 453 5 0 0 0 - - -, f 5;
#X msg 304 31 0;
#X obj 668 124 r stopbutton;
#X obj 338 128 r trim-1;
#X obj 828 119 r fader-2;
#X obj 828 99 r trim-2;
#X msg 794 31 0;
#X obj 737 492 random 99999;
#X floatatom 737 520 5 0 0 0 - - -, f 5;
#X msg 737 545 open -bytes 4 recording\$1.wav;
#X obj 737 573 writesf~ 2;
#X obj 639 428 sel 0 1;
#X msg 639 556 stop;
#X msg 662 518 start;
#X obj 705 464 t b b;
#X obj 301 201 cnv 15 748 88 empty empty empty 20 12 0 14 -191407 -66577
0;
#X obj 616 236 tgl 25 0 empty empty empty 17 7 0 10 -262144 -1 -1 0
1;
#X text 645 241 DSP;
#X obj 341 226 hsl 128 15 0 1 0 0 empty empty empty -2 -8 0 10 -262144
-1 -1 6350 1;
#X obj 831 226 hsl 128 15 0 1 0 0 empty empty empty -2 -8 0 10 -262144
-1 -1 6350 1;
#X obj 341 203 hsl 128 15 0.001 1 1 0 empty empty empty -2 -8 0 10
-262144 -1 -1 11426 1;
#X obj 831 203 hsl 128 15 0.001 1 1 0 empty empty empty -2 -8 0 10
-262144 -1 -1 9212 1;
#X text 309 226 Pan;
#X text 799 226 Pan;
#X obj 474 153 * 10000;
#X obj 341 249 hsl 128 15 0 1 0 0 empty empty empty -2 -8 0 10 -262144
-1 -1 12700 1;
#X obj 831 249 hsl 128 15 0 1 0 0 empty empty empty -2 -8 0 10 -262144
-1 -1 12700 1;
#X text 799 249 Vol;
#X text 309 249 Vol;
#X obj 828 159 r fader-3;
#X obj 642 269 tgl 15 0 empty empty empty 17 7 0 10 -262144 -1 -1 0
1;
#X obj 615 203 hradio 20 1 0 6 empty empty empty 0 -8 0 5 -262144 -1
-1 1;
#X obj 831 272 hsl 128 15 0 1 0 0 empty empty empty -2 -8 0 10 -262144
-1 -1 0 1;
#X text 799 272 Rev;
#X obj 341 272 hsl 128 15 0 1 0 0 empty empty empty -2 -8 0 10 -262144
-1 -1 0 1;
#X text 309 272 Rev;
#X obj 828 139 r trim-3;
#X obj 615 146 r globalpresets;
#X obj 662 169 r recordbutton;
#X obj 338 148 r fader-1;
#X obj 677 241 tgl 15 0 empty empty empty 17 7 0 10 -262144 -1 -1 0
1;
#X text 694 241 Record;
#X obj 964 203 cnv 15 31 17 empty empty empty 20 12 0 14 -262144 -66577
0;
#X floatatom 964 203 5 0 0 0 - - -, f 5;
#X obj 474 203 cnv 15 31 17 empty empty empty 20 12 0 14 -262144 -66577
0;
#X floatatom 474 203 5 0 0 0 - - -, f 5;
#X obj 470 42 cnv 15 31 17 empty empty empty 20 12 0 14 -262144 -66577
0;
#X obj 1276 71 Controller_Input;
#X obj 191 459 bp~, f 6;
#X obj 382 487 bp~, f 6;
#X obj 517 167 r qfactleft;
#X obj 981 499 bp~, f 6;
#X obj 1172 507 bp~, f 8;
#X obj 1086 141 r qfactright;
#X obj 517 203 cnv 15 31 17 empty empty empty 20 12 0 14 -262144 -66577
0;
#X floatatom 517 203 5 0 0 0 - - -, f 5;
#X obj 1007 203 cnv 15 31 17 empty empty empty 20 12 0 14 -262144 -66577
0;
#X floatatom 1007 203 5 0 0 0 - - -, f 5;
#X obj 546 44 loadbang;
#X obj 964 148 * 10000;
#X msg 828 31 1;
#X text 609 46 Q-factor;
#X text 658 270 REVERB;
#X msg 560 97 1.5;
#X msg 518 97 2.5;
#X msg 861 31 0.15;
#X msg 83 185 0.5;
#X text 309 203 BP;
#X text 799 203 BP;
#X connect 2 0 94 0;
#X connect 2 0 13 0;
#X connect 2 0 22 0;
#X connect 2 0 88 0;
#X connect 2 0 29 0;
#X connect 2 0 34 0;
#X connect 2 0 93 0;
#X connect 3 0 5 0;
#X connect 3 1 7 1;
#X connect 4 0 6 1;
#X connect 5 0 4 0;
#X connect 6 0 1 0;
#X connect 6 0 38 0;
#X connect 7 0 1 1;
#X connect 7 0 38 1;
#X connect 8 0 1 0;
#X connect 8 0 38 0;
#X connect 9 0 1 1;
#X connect 9 0 38 1;
#X connect 10 0 12 0;
#X connect 10 1 9 1;
#X connect 11 0 8 1;
#X connect 12 0 11 0;
#X connect 13 0 46 0;
#X connect 13 0 47 0;
#X connect 14 0 79 1;
#X connect 14 0 80 1;
#X connect 15 0 76 1;
#X connect 15 0 77 1;
#X connect 16 0 46 0;
#X connect 17 0 48 0;
#X connect 18 0 27 2;
#X connect 19 0 27 1;
#X connect 20 0 8 0;
#X connect 21 0 9 0;
#X connect 22 0 53 0;
#X connect 23 0 76 0;
#X connect 24 0 77 0;
#X connect 25 0 79 0;
#X connect 26 0 80 0;
#X connect 27 0 6 0;
#X connect 27 1 7 0;
#X connect 28 0 27 0;
#X connect 29 0 62 0;
#X connect 30 0 58 0;
#X connect 31 0 53 0;
#X connect 32 0 47 0;
#X connect 33 0 49 0;
#X connect 34 0 60 0;
#X connect 35 0 36 0;
#X connect 36 0 37 0;
#X connect 37 0 38 0;
#X connect 39 0 40 0;
#X connect 39 1 42 0;
#X connect 40 0 38 0;
#X connect 41 0 38 0;
#X connect 42 0 41 0;
#X connect 42 1 35 0;
#X connect 44 0 0 0;
#X connect 46 0 3 0;
#X connect 47 0 10 0;
#X connect 48 0 52 0;
#X connect 49 0 87 0;
#X connect 52 0 73 0;
#X connect 53 0 19 1;
#X connect 53 0 18 1;
#X connect 54 0 20 1;
#X connect 54 0 21 1;
#X connect 57 0 60 0;
#X connect 58 0 27 3;
#X connect 62 0 28 0;
#X connect 64 0 54 0;
#X connect 65 0 59 0;
#X connect 66 0 44 0;
#X connect 67 0 62 0;
#X connect 68 0 39 0;
#X connect 71 0 14 0;
#X connect 73 0 15 0;
#X connect 76 0 19 0;
#X connect 77 0 18 0;
#X connect 78 0 83 0;
#X connect 79 0 20 0;
#X connect 80 0 21 0;
#X connect 81 0 85 0;
#X connect 83 0 76 2;
#X connect 83 0 77 2;
#X connect 85 0 79 2;
#X connect 85 0 80 2;
#X connect 86 0 91 0;
#X connect 86 0 92 0;
#X connect 87 0 71 0;
#X connect 88 0 54 0;
#X connect 91 0 85 0;
#X connect 92 0 83 0;
#X connect 93 0 49 0;
#X connect 94 0 48 0;
#X coords 0 -1 1 1 750 90 2 300 200;
