#N canvas 195 132 1470 812 10;
#X msg 664 301 \; pd dsp \$1;
#X obj 775 655 dac~;
#X obj 83 53 loadbang;
#X obj 496 489 t f f;
#X obj 466 562 abs;
#X obj 466 543 - 1;
#X obj 518 588 *~;
#X obj 563 588 *~;
#X obj 1055 588 *~;
#X obj 1098 588 *~;
#X obj 976 502 t f f;
#X obj 976 540 abs;
#X obj 976 521 - 1;
#X msg 115 188 0.5;
#X floatatom 880 429 5 0 0 0 - - -;
#X floatatom 124 428 5 0 0 0 - - -;
#X obj 384 171 r fader-0;
#X obj 350 102 r trim-0;
#X obj 381 514 *~;
#X obj 192 514 *~;
#X obj 1068 504 *~;
#X obj 1201 514 *~;
#X msg 384 71 1;
#X obj 190 338 r~ panpre012-l-send;
#X obj 381 338 r~ panpre012-r-send;
#X obj 1070 338 r~ panpre345-l-send;
#X obj 1201 338 r~ panpre345-r-send;
#X obj 517 531 Reverber;
#X floatatom 528 453 5 0 0 0 - - -;
#X obj 605 123 r stopbutton;
#X obj 496 171 r trim-1;
#X obj 815 171 r fader-2;
#X obj 780 132 r trim-2;
#X obj 760 430 random 99999;
#X floatatom 760 458 5 0 0 0 - - -;
#X msg 760 483 open -bytes 4 recording\$1.wav;
#X obj 737 605 writesf~ 2;
#X obj 700 373 sel 0 1;
#X msg 700 482 stop;
#X msg 719 446 start;
#X obj 719 402 t b b;
#X obj 301 201 cnv 15 748 88 empty empty empty 20 12 0 14 -191407 -66577
0;
#X obj 664 231 tgl 25 0 empty empty empty 17 7 0 10 -262144 -1 -1 0
1;
#X text 693 236 DSP;
#X obj 499 206 hsl 100 15 0 1 0 0 empty empty empty -2 -8 0 10 -262144
-1 -1 4950 1;
#X obj 353 206 hsl 100 15 0.001 1 1 0 empty empty empty -2 -8 0 10
-262144 -1 -1 8907 1;
#X text 475 205 Pan;
#X text 362 245 Vol;
#X obj 605 234 tgl 15 0 empty empty empty 17 7 0 10 -262144 -1 -1 0
1;
#X obj 615 203 hradio 20 1 0 6 empty empty empty 0 -8 0 5 -262144 -1
-1 0;
#X text 506 245 Rev;
#X obj 908 171 r trim-3;
#X obj 615 146 r globalpresets;
#X obj 664 169 r recordbutton;
#X obj 528 142 r fader-1;
#X obj 720 234 tgl 15 0 empty empty empty 17 7 0 10 -262144 -1 -1 0
1;
#X text 737 234 Record;
#X obj 1126 128 cnv 15 31 17 empty empty empty 20 12 0 14 -262144 -66577
0;
#X obj 191 445 bp~, f 6;
#X obj 382 445 bp~, f 6;
#X obj 208 127 r qfactleft;
#X obj 1069 446 bp~, f 6;
#X obj 1201 446 bp~, f 8;
#X obj 1102 96 r qfactright;
#X obj 208 163 cnv 15 31 17 empty empty empty 20 12 0 14 -262144 -66577
0;
#X floatatom 208 163 5 0 0 0 - - -;
#X obj 1102 128 cnv 15 31 17 empty empty empty 20 12 0 14 -262144 -66577
0;
#X floatatom 1102 128 5 0 0 0 - - -;
#X obj 880 400 * 10000;
#X msg 815 71 1;
#X text 621 235 REVERB;
#X msg 1102 71 1.5;
#X msg 208 71 2.5;
#X msg 780 71 0.15;
#X msg 83 188 0.5;
#X text 334 205 BP;
#X text 764 205 BP;
#X obj 635 412 - 1;
#X obj 635 441 abs;
#X msg 635 71 0;
#X obj 384 230 vsl 35 50 0 1 0 0 empty empty empty 0 -9 0 10 -262144
-1 -1 4900 1;
#X obj 528 230 vsl 35 50 0 1 0 0 empty empty empty 0 -9 0 10 -262144
-1 -1 0 1;
#X obj 911 206 hsl 100 15 0 1 0 0 empty empty empty -2 -8 0 10 -262144
-1 -1 4950 1;
#X obj 783 206 hsl 100 15 0.001 1 1 0 empty empty empty -2 -8 0 10
-262144 -1 -1 7181 1;
#X text 887 205 Pan;
#X obj 815 230 vsl 35 50 0 1 0 0 empty empty empty 0 -9 0 10 -262144
-1 -1 4900 1;
#X obj 124 371 * 10000;
#X text 793 244 Vol;
#X obj 270 393 s flushitall012;
#X obj 1016 246 bng 25 250 50 0 empty empty empty 17 7 0 10 -262144
-1 -1;
#X obj 1016 301 s flushitall345;
#X text 1010 272 FLUSH;
#X obj 310 246 bng 25 250 50 0 empty empty empty 17 7 0 10 -262144
-1 -1;
#X text 304 272 FLUSH;
#X obj 310 145 r cyclebutton;
#X obj 310 174 bng 15 250 50 0 empty empty empty 17 7 0 10 -262144
-1 -1;
#X obj 1016 145 r setbutton;
#X obj 1016 174 bng 15 250 50 0 empty empty empty 17 7 0 10 -262144
-1 -1;
#X obj 1061 223 Globalizer;
#X msg 528 71 0;
#X text 921 245 Rev;
#X obj 943 230 vsl 35 50 0 1 0 0 empty empty empty 0 -9 0 10 -262144
-1 -1 0 1;
#X obj 1054 531 Reverber;
#X msg 943 71 0;
#X obj 943 95 r fader-3;
#X obj 819 550 Controller_Input;
#X connect 2 0 74 0;
#X connect 2 0 13 0;
#X connect 2 0 22 0;
#X connect 2 0 69 0;
#X connect 2 0 73 0;
#X connect 2 0 79 0;
#X connect 2 0 72 0;
#X connect 2 0 71 0;
#X connect 2 0 99 0;
#X connect 2 0 103 0;
#X connect 3 0 5 0;
#X connect 3 1 7 1;
#X connect 4 0 6 1;
#X connect 5 0 4 0;
#X connect 6 0 1 0;
#X connect 6 0 36 0;
#X connect 7 0 1 1;
#X connect 7 0 36 1;
#X connect 8 0 1 0;
#X connect 8 0 36 0;
#X connect 9 0 1 1;
#X connect 9 0 36 1;
#X connect 10 0 12 0;
#X connect 10 1 9 1;
#X connect 11 0 8 1;
#X connect 12 0 11 0;
#X connect 13 0 44 0;
#X connect 13 0 82 0;
#X connect 14 0 61 1;
#X connect 14 0 62 1;
#X connect 15 0 58 1;
#X connect 15 0 59 1;
#X connect 16 0 80 0;
#X connect 17 0 45 0;
#X connect 18 0 27 2;
#X connect 19 0 27 1;
#X connect 20 0 102 1;
#X connect 21 0 102 2;
#X connect 22 0 80 0;
#X connect 23 0 58 0;
#X connect 24 0 59 0;
#X connect 25 0 61 0;
#X connect 26 0 62 0;
#X connect 27 0 6 0;
#X connect 27 1 7 0;
#X connect 28 0 27 0;
#X connect 29 0 48 0;
#X connect 30 0 44 0;
#X connect 31 0 85 0;
#X connect 32 0 83 0;
#X connect 33 0 34 0;
#X connect 34 0 35 0;
#X connect 35 0 36 0;
#X connect 37 0 38 0;
#X connect 37 1 40 0;
#X connect 38 0 36 0;
#X connect 39 0 36 0;
#X connect 40 0 39 0;
#X connect 40 1 33 0;
#X connect 42 0 0 0;
#X connect 44 0 3 0;
#X connect 45 0 86 0;
#X connect 48 0 77 0;
#X connect 49 0 98 0;
#X connect 51 0 82 0;
#X connect 52 0 49 0;
#X connect 53 0 42 0;
#X connect 54 0 81 0;
#X connect 55 0 37 0;
#X connect 58 0 19 0;
#X connect 59 0 18 0;
#X connect 60 0 65 0;
#X connect 61 0 20 0;
#X connect 62 0 21 0;
#X connect 63 0 67 0;
#X connect 65 0 58 2;
#X connect 65 0 59 2;
#X connect 67 0 61 2;
#X connect 67 0 62 2;
#X connect 68 0 14 0;
#X connect 69 0 85 0;
#X connect 71 0 67 0;
#X connect 72 0 65 0;
#X connect 73 0 83 0;
#X connect 74 0 45 0;
#X connect 77 0 78 0;
#X connect 78 0 27 3;
#X connect 78 0 102 3;
#X connect 79 0 48 0;
#X connect 80 0 18 1;
#X connect 80 0 19 1;
#X connect 81 0 28 0;
#X connect 82 0 10 0;
#X connect 83 0 68 0;
#X connect 85 0 21 1;
#X connect 85 0 20 1;
#X connect 86 0 15 0;
#X connect 89 0 90 0;
#X connect 92 0 88 0;
#X connect 94 0 95 0;
#X connect 95 0 92 0;
#X connect 96 0 97 0;
#X connect 97 0 89 0;
#X connect 99 0 81 0;
#X connect 101 0 102 0;
#X connect 102 0 8 0;
#X connect 102 1 9 0;
#X connect 103 0 101 0;
#X connect 104 0 101 0;
#X coords 0 -1 1 1 750 90 2 300 200;
