#N canvas 67 162 1576 897 10;
#X obj 562 23 inlet;
#X obj 457 284 bng 15 250 50 0 empty empty empty 17 7 0 10 -262144
-1 -1;
#X msg 493 260 set \$1 \$2 \$3;
#X obj 493 182 r gates3\$1\$2-frompanel;
#X msg 660 260 set \$1 \$2 \$3;
#X msg 827 260 set \$1 \$2 \$3;
#X msg 493 299 1 0 0;
#X msg 660 299 1 0 0;
#X msg 827 299 1 0 0;
#X floatatom 20 73 5 0 0 0 - - -, f 5;
#X floatatom 140 48 5 0 0 0 - - -, f 5;
#X obj 20 111 expr $f1 \; if ($f1 >= $f2 \, $f1 \, $f2);
#X obj 140 72 t b f;
#X floatatom 167 153 5 0 0 0 - - -, f 5;
#X obj 167 180 expr $f1 \; if ($f1 >= $f2 \, $f1 \, $f2);
#X obj 218 135 t b f;
#X obj 20 24 r delay\$1-send;
#X obj 140 24 r delay\$2-send;
#X obj 218 107 r delay\$3-send;
#X msg 581 347 1 1 1;
#X obj 493 365 s gates3\$1\$2-topanel;
#X obj 660 365 s gates3\$2\$3-topanel;
#X obj 827 365 s gates3\$3\$1-topanel;
#X msg 493 584 31 13 10 18;
#X obj 493 474 r tap_indices\$1-send;
#X msg 493 542 set \$1 \$2 \$3 \$4;
#X msg 643 584 31 20 21 17;
#X msg 643 542 set \$1 \$2 \$3 \$4;
#X obj 643 474 r tap_indices\$2-send;
#X msg 793 584 31 11 27 15;
#X msg 793 542 set \$1 \$2 \$3 \$4;
#X obj 793 474 r tap_indices\$3-send;
#X msg 581 684 0 0 0 0;
#X obj 493 702 s tap_indices\$1;
#X obj 643 702 s tap_indices\$2;
#X obj 793 702 s tap_indices\$3;
#X obj 806 221 Gate;
#X obj 639 221 Gate;
#X obj 472 221 Gate;
#X obj 772 508 Gate;
#X obj 622 508 Gate;
#X obj 472 508 Gate;
#X msg 1182 203 2;
#X msg 1209 167 set \$1;
#X obj 1182 167 bng 15 250 50 0 empty empty empty 17 7 0 10 -262144
-1 -1;
#X msg 1267 128 2;
#X msg 641 120 1;
#X obj 562 85 t b b b;
#X obj 1182 138 t b f;
#X obj 1267 54 loadbang;
#X floatatom 1374 668 5 0 0 0 - - -, f 5;
#X msg 1203 650 set \$1;
#X obj 1374 113 bng 15 250 50 0 empty empty empty 17 7 0 10 -262144
-1 -1;
#X obj 1203 518 r topology\$1\$2\$3-send;
#X obj 1374 729 s topology\$1\$2\$3-receive;
#X obj 1182 590 Gate;
#X obj 364 790 outlet;
#X obj 581 131 t b b;
#X obj 457 569 bng 15 250 50 0 empty empty empty 17 7 0 10 -262144
-1 -1;
#X floatatom 1163 491 5 0 0 0 - - -, f 5;
#X obj 457 98 bng 15 250 50 0 empty empty empty 17 7 0 10 -262144 -1
-1;
#X text 409 98 BACK ON;
#X obj 364 271 del;
#X obj 675 9 r flushitall\$1\$2\$3;
#X obj 660 182 r gates3\$2\$3-frompanel;
#X obj 827 182 r gates3\$3\$1-frompanel;
#X obj 457 62 del;
#X obj 472 23 * 2;
#X obj 1306 95 t b b;
#X floatatom 978 584 5 0 0 0 - - -, f 5;
#X obj 957 508 Gate;
#X obj 978 702 s gates1\$1\$2\$3-send;
#X obj 978 474 r gates1\$1\$2\$3-receive;
#X msg 1032 149 0;
#X obj 373 183 + 30;
#X connect 0 0 47 0;
#X connect 0 0 62 0;
#X connect 1 0 6 0;
#X connect 1 0 7 0;
#X connect 1 0 8 0;
#X connect 1 0 58 0;
#X connect 2 0 6 0;
#X connect 3 0 38 1;
#X connect 4 0 7 0;
#X connect 5 0 8 0;
#X connect 6 0 20 0;
#X connect 7 0 21 0;
#X connect 8 0 22 0;
#X connect 9 0 11 0;
#X connect 10 0 12 0;
#X connect 11 1 13 0;
#X connect 12 0 11 0;
#X connect 12 1 11 1;
#X connect 13 0 14 0;
#X connect 14 1 67 0;
#X connect 15 0 14 0;
#X connect 15 1 14 1;
#X connect 16 0 9 0;
#X connect 17 0 10 0;
#X connect 18 0 15 0;
#X connect 19 0 20 0;
#X connect 19 0 21 0;
#X connect 19 0 22 0;
#X connect 23 0 33 0;
#X connect 24 0 41 1;
#X connect 25 0 23 0;
#X connect 26 0 34 0;
#X connect 27 0 26 0;
#X connect 28 0 40 1;
#X connect 29 0 35 0;
#X connect 30 0 29 0;
#X connect 31 0 39 1;
#X connect 32 0 33 0;
#X connect 32 0 34 0;
#X connect 32 0 35 0;
#X connect 36 1 5 0;
#X connect 37 1 4 0;
#X connect 38 1 2 0;
#X connect 39 1 30 0;
#X connect 40 1 27 0;
#X connect 41 1 25 0;
#X connect 42 0 38 0;
#X connect 42 0 37 0;
#X connect 42 0 36 0;
#X connect 42 0 55 0;
#X connect 42 0 59 0;
#X connect 43 0 42 0;
#X connect 44 0 42 0;
#X connect 45 0 48 0;
#X connect 46 0 48 0;
#X connect 47 0 66 0;
#X connect 47 1 57 0;
#X connect 47 2 46 0;
#X connect 48 0 44 0;
#X connect 48 1 43 0;
#X connect 49 0 45 0;
#X connect 50 0 54 0;
#X connect 51 0 50 0;
#X connect 52 0 50 0;
#X connect 52 0 45 0;
#X connect 53 0 55 1;
#X connect 55 1 51 0;
#X connect 57 0 32 0;
#X connect 57 0 19 0;
#X connect 57 1 73 0;
#X connect 58 0 23 0;
#X connect 58 0 26 0;
#X connect 58 0 29 0;
#X connect 58 0 69 0;
#X connect 59 0 39 0;
#X connect 59 0 40 0;
#X connect 59 0 41 0;
#X connect 59 0 70 0;
#X connect 60 0 1 0;
#X connect 60 0 68 0;
#X connect 62 0 56 0;
#X connect 63 0 47 0;
#X connect 64 0 37 1;
#X connect 65 0 36 1;
#X connect 66 0 60 0;
#X connect 67 0 66 1;
#X connect 67 0 74 0;
#X connect 68 0 52 0;
#X connect 68 1 45 0;
#X connect 69 0 71 0;
#X connect 70 1 69 0;
#X connect 72 0 70 1;
#X connect 73 0 54 0;
#X connect 74 0 62 1;
