#N canvas 465 281 971 582 10;
#X floatatom 20 73 5 0 0 0 - - -, f 5;
#X floatatom 140 48 5 0 0 0 - - -, f 5;
#X obj 20 111 expr $f1 \; if ($f1 >= $f2 \, $f1 \, $f2);
#X obj 140 72 t b f;
#X floatatom 167 153 5 0 0 0 - - -, f 5;
#X obj 167 180 expr $f1 \; if ($f1 >= $f2 \, $f1 \, $f2);
#X obj 218 135 t b f;
#X obj 20 24 r delay\$1-send;
#X obj 140 24 r delay\$2-send;
#X obj 218 107 r delay\$3-send;
#X floatatom 314 238 5 0 0 0 - - -, f 5;
#X obj 490 147 inlet;
#X msg 625 398 0;
#X obj 490 341 del;
#X msg 566 398 1;
#X obj 595 459 s negate\$1;
#X obj 595 488 s negate\$2;
#X obj 595 517 s negate\$3;
#X obj 490 380 t b b;
#X obj 421 293 + 10;
#X obj 421 255 * 1.5;
#X obj 545 147 r flushitall\$1\$2\$3;
#X obj 490 218 bng 15 250 50 0 empty empty empty 17 7 0 10 -262144
-1 -1;
#X connect 0 0 2 0;
#X connect 1 0 3 0;
#X connect 2 1 4 0;
#X connect 3 0 2 0;
#X connect 3 1 2 1;
#X connect 4 0 5 0;
#X connect 5 1 10 0;
#X connect 6 0 5 0;
#X connect 6 1 5 1;
#X connect 7 0 0 0;
#X connect 8 0 1 0;
#X connect 9 0 6 0;
#X connect 10 0 20 0;
#X connect 11 0 22 0;
#X connect 12 0 15 0;
#X connect 12 0 16 0;
#X connect 12 0 17 0;
#X connect 13 0 18 0;
#X connect 14 0 15 0;
#X connect 14 0 16 0;
#X connect 14 0 17 0;
#X connect 18 1 14 0;
#X connect 19 0 13 1;
#X connect 20 0 19 0;
#X connect 21 0 22 0;
#X connect 22 0 12 0;
#X connect 22 0 13 0;
