#N canvas 144 187 1138 568 10;
#X obj 395 9 inlet;
#X obj 497 191 bng 15 250 50 0 empty empty empty 17 7 0 10 -262144
-1 -1;
#X msg 497 163 set \$1 \$2 \$3;
#X obj 497 35 r gates3\$1\$2-frompanel;
#X obj 646 219 bng 15 250 50 0 empty empty empty 17 7 0 10 -262144
-1 -1;
#X msg 646 191 set \$1 \$2 \$3;
#X obj 646 63 r gates3\$1\$2-frompanel;
#X obj 795 247 bng 15 250 50 0 empty empty empty 17 7 0 10 -262144
-1 -1;
#X msg 795 219 set \$1 \$2 \$3;
#X obj 795 91 r gates3\$1\$2-frompanel;
#X msg 497 207 0 0 0;
#X msg 646 235 0 0 0;
#X msg 795 263 0 0 0;
#X floatatom 70 83 5 0 0 0 - - -, f 5;
#X floatatom 210 59 5 0 0 0 - - -, f 5;
#X obj 70 110 expr $f1 \; if ($f1 >= $f2 \, $f1 \, $f2);
#X obj 210 83 t b f;
#X floatatom 242 151 5 0 0 0 - - -, f 5;
#X obj 242 178 expr $f1 \; if ($f1 >= $f2 \, $f1 \, $f2);
#X obj 382 151 t b f;
#X obj 70 35 r delay\$1-send;
#X obj 210 35 r delay\$2-send;
#X obj 382 123 r delay\$3-send;
#X obj 261 336 del;
#X msg 437 428 1 1 1;
#X obj 497 235 s gates3\$1\$2-topanel;
#X obj 646 263 s gates3\$2\$3-topanel;
#X obj 795 291 s gates3\$3\$1-topanel;
#X msg 572 441 26 0 0 0;
#X obj 572 426 bng 15 250 50 0 empty empty empty 17 7 0 10 -262144
-1 -1;
#X obj 572 331 r tap_indices\$1-send;
#X msg 572 399 set \$1 \$2 \$3 \$4;
#X msg 722 441 30 0 0 0;
#X obj 722 426 bng 15 250 50 0 empty empty empty 17 7 0 10 -262144
-1 -1;
#X msg 722 399 set \$1 \$2 \$3 \$4;
#X obj 722 331 r tap_indices\$2-send;
#X msg 872 441 0 0 0 0;
#X obj 872 426 bng 15 250 50 0 empty empty empty 17 7 0 10 -262144
-1 -1;
#X msg 872 399 set \$1 \$2 \$3 \$4;
#X obj 872 331 r tap_indices\$3-send;
#X msg 428 452 0 0 0 0;
#X obj 572 469 s tap_indices\$1;
#X obj 722 469 s tap_indices\$2;
#X obj 872 469 s tap_indices\$3;
#X obj 770 171 Gate;
#X obj 621 133 Gate;
#X obj 472 91 Gate;
#X obj 847 365 Gate;
#X obj 697 367 Gate;
#X obj 547 365 Gate;
#X msg 1068 187 2;
#X msg 1068 165 set \$1;
#X obj 1123 165 bng 15 250 50 0 empty empty empty 17 7 0 10 -262144
-1 -1;
#X msg 1106 98 2;
#X msg 1068 97 1;
#X obj 396 246 t b b b;
#X obj 319 271 t b b;
#X obj 622 361 bng 15 250 50 0 empty empty empty 17 7 0 10 -262144
-1 -1;
#X obj 1069 132 t b f;
#X obj 1071 41 loadbang;
#X floatatom 69 425 5 0 0 0 - - -, f 5;
#X msg 69 385 set \$1;
#X obj 157 388 bng 15 250 50 0 empty empty empty 17 7 0 10 -262144
-1 -1;
#X obj 69 305 r topology\$1\$2\$3-send;
#X obj 69 446 s topology\$1\$2\$3-receive;
#X obj 44 347 Gate;
#X msg 282 386 1;
#X obj 414 215 * 2;
#X obj 157 509 outlet;
#X connect 0 0 55 0;
#X connect 1 0 10 0;
#X connect 2 0 10 0;
#X connect 3 0 46 1;
#X connect 4 0 11 0;
#X connect 5 0 11 0;
#X connect 6 0 45 1;
#X connect 7 0 12 0;
#X connect 8 0 12 0;
#X connect 9 0 44 1;
#X connect 10 0 25 0;
#X connect 11 0 26 0;
#X connect 12 0 27 0;
#X connect 13 0 15 0;
#X connect 14 0 16 0;
#X connect 15 1 17 0;
#X connect 16 0 15 0;
#X connect 16 1 15 1;
#X connect 17 0 18 0;
#X connect 18 1 67 0;
#X connect 19 0 18 0;
#X connect 19 1 18 1;
#X connect 20 0 13 0;
#X connect 21 0 14 0;
#X connect 22 0 19 0;
#X connect 23 0 1 0;
#X connect 23 0 4 0;
#X connect 23 0 7 0;
#X connect 23 0 29 0;
#X connect 23 0 33 0;
#X connect 23 0 37 0;
#X connect 23 0 62 0;
#X connect 24 0 25 0;
#X connect 24 0 26 0;
#X connect 24 0 27 0;
#X connect 28 0 41 0;
#X connect 29 0 28 0;
#X connect 30 0 49 1;
#X connect 30 0 57 0;
#X connect 31 0 28 0;
#X connect 32 0 42 0;
#X connect 33 0 32 0;
#X connect 34 0 32 0;
#X connect 35 0 48 1;
#X connect 36 0 43 0;
#X connect 37 0 36 0;
#X connect 38 0 36 0;
#X connect 39 0 47 1;
#X connect 40 0 41 0;
#X connect 40 0 42 0;
#X connect 40 0 43 0;
#X connect 44 1 8 0;
#X connect 45 1 5 0;
#X connect 46 1 2 0;
#X connect 47 1 38 0;
#X connect 48 1 34 0;
#X connect 49 1 31 0;
#X connect 50 0 46 0;
#X connect 50 0 45 0;
#X connect 50 0 44 0;
#X connect 50 0 49 0;
#X connect 50 0 48 0;
#X connect 50 0 47 0;
#X connect 50 0 65 0;
#X connect 51 0 50 0;
#X connect 52 0 50 0;
#X connect 53 0 58 0;
#X connect 54 0 58 0;
#X connect 55 0 56 0;
#X connect 55 1 24 0;
#X connect 55 1 40 0;
#X connect 55 1 66 0;
#X connect 55 2 54 0;
#X connect 56 0 53 0;
#X connect 56 1 23 0;
#X connect 58 0 52 0;
#X connect 58 1 51 0;
#X connect 59 0 53 0;
#X connect 60 0 64 0;
#X connect 61 0 60 0;
#X connect 62 0 60 0;
#X connect 62 0 68 0;
#X connect 63 0 65 1;
#X connect 65 1 61 0;
#X connect 66 0 64 0;
#X connect 67 0 23 1;
