#N canvas 43 245 996 449 10;
#X obj 52 113 inlet;
#X obj 247 1 inlet;
#X obj 208 166 spigot;
#X obj 235 222 spigot;
#X obj 235 250 outlet;
#X obj 208 194 outlet;
#X obj 262 306 outlet;
#X obj 262 278 spigot;
#X obj 247 147 unpack f f f f f;
#X obj 289 334 spigot;
#X obj 289 362 outlet;
#X obj 316 418 outlet;
#X obj 316 390 spigot;
#X msg 247 126 1 0 0 0 0;
#X msg 264 107 0 1 0 0 0;
#X msg 282 88 0 0 1 0 0;
#X msg 299 69 0 0 0 1 0;
#X obj 247 21 sel 0 1 2 3 4;
#X msg 317 50 0 0 0 0 1;
#X floatatom 69 247 5 0 0 0 - - -, f 5;
#X connect 0 0 2 0;
#X connect 0 0 3 0;
#X connect 0 0 7 0;
#X connect 0 0 9 0;
#X connect 0 0 12 0;
#X connect 0 0 19 0;
#X connect 1 0 17 0;
#X connect 2 0 5 0;
#X connect 3 0 4 0;
#X connect 7 0 6 0;
#X connect 8 0 2 1;
#X connect 8 1 3 1;
#X connect 8 2 7 1;
#X connect 8 3 9 1;
#X connect 8 4 12 1;
#X connect 9 0 10 0;
#X connect 12 0 11 0;
#X connect 13 0 8 0;
#X connect 14 0 8 0;
#X connect 15 0 8 0;
#X connect 16 0 8 0;
#X connect 17 0 13 0;
#X connect 17 1 14 0;
#X connect 17 2 15 0;
#X connect 17 3 16 0;
#X connect 17 4 18 0;
#X connect 18 0 8 0;
