#N canvas 255 273 996 449 10;
#X obj 148 208 inlet;
#X obj 241 44 inlet;
#X obj 208 226 spigot;
#X obj 259 226 spigot;
#X obj 259 254 outlet;
#X obj 208 254 outlet;
#X obj 241 73 sel 0 1 2;
#X obj 310 254 outlet;
#X obj 241 187 unpack f f f;
#X msg 241 158 1 0 0;
#X obj 310 226 spigot;
#X msg 258 130 0 1 0;
#X msg 275 102 0 0 1;
#X connect 0 0 2 0;
#X connect 0 0 3 0;
#X connect 0 0 10 0;
#X connect 1 0 6 0;
#X connect 2 0 5 0;
#X connect 3 0 4 0;
#X connect 6 0 9 0;
#X connect 6 1 11 0;
#X connect 6 2 12 0;
#X connect 8 0 2 1;
#X connect 8 1 3 1;
#X connect 8 2 10 1;
#X connect 9 0 8 0;
#X connect 10 0 7 0;
#X connect 11 0 8 0;
#X connect 12 0 8 0;
