#N canvas 67 89 586 690 10;
#X obj 211 312 s pads012-0;
#X obj 292 312 s pads012-1;
#X obj 373 312 s pads012-2;
#X obj 238 579 s pads345-0;
#X obj 319 579 s pads345-1;
#X obj 400 579 s pads345-2;
#X msg 99 265 0 0 0;
#X obj 99 294 unpack f f f;
#X obj 99 561 unpack f f f;
#X obj 99 63 sel 0 1 2 3 4 5;
#X obj 99 236 t b b;
#X obj 113 207 t b b;
#X msg 99 532 0 0 0;
#X obj 99 503 t b b;
#X obj 113 474 t b b;
#X obj 128 178 t b b;
#X obj 128 445 t b b;
#X obj 142 149 t b b;
#X obj 157 121 t b b;
#X obj 171 91 t b b;
#X obj 142 416 t b b;
#X obj 157 387 t b b;
#X obj 171 358 t b b;
#X msg 211 138 2;
#X msg 238 463 2;
#X msg 237 493 3;
#X msg 292 109 13;
#X msg 319 376 14;
#X msg 319 405 15;
#X msg 319 521 16;
#X msg 373 254 26;
#X msg 373 225 27;
#X msg 373 196 28;
#X msg 373 167 29;
#X msg 400 434 1;
#X obj 99 34 inlet;
#X connect 6 0 7 0;
#X connect 7 0 0 0;
#X connect 7 1 1 0;
#X connect 7 2 2 0;
#X connect 8 0 3 0;
#X connect 8 1 4 0;
#X connect 8 2 5 0;
#X connect 9 0 10 0;
#X connect 9 0 13 0;
#X connect 9 1 11 0;
#X connect 9 1 14 0;
#X connect 9 2 15 0;
#X connect 9 2 16 0;
#X connect 9 3 17 0;
#X connect 9 3 20 0;
#X connect 9 4 18 0;
#X connect 9 4 21 0;
#X connect 9 5 19 0;
#X connect 9 5 22 0;
#X connect 10 0 30 0;
#X connect 10 1 6 0;
#X connect 11 0 31 0;
#X connect 11 1 6 0;
#X connect 12 0 8 0;
#X connect 13 0 29 0;
#X connect 13 1 12 0;
#X connect 14 0 25 0;
#X connect 14 1 12 0;
#X connect 15 0 32 0;
#X connect 15 1 6 0;
#X connect 16 0 24 0;
#X connect 16 1 12 0;
#X connect 17 0 33 0;
#X connect 17 1 6 0;
#X connect 18 0 23 0;
#X connect 18 1 6 0;
#X connect 19 0 26 0;
#X connect 19 1 6 0;
#X connect 20 0 34 0;
#X connect 20 1 12 0;
#X connect 21 0 28 0;
#X connect 21 1 12 0;
#X connect 22 0 27 0;
#X connect 22 1 12 0;
#X connect 23 0 0 0;
#X connect 24 0 3 0;
#X connect 25 0 3 0;
#X connect 26 0 1 0;
#X connect 27 0 4 0;
#X connect 28 0 4 0;
#X connect 29 0 4 0;
#X connect 30 0 2 0;
#X connect 31 0 2 0;
#X connect 32 0 2 0;
#X connect 33 0 2 0;
#X connect 34 0 5 0;
#X connect 35 0 9 0;
