#N canvas 67 87 1853 993 10;
#X obj 300 448 shift_register_sixteen_bit~;
#X obj 476 122 hradio 12 1 0 32 empty empty empty 0 -8 0 10 -262144
-1 -1 31;
#X obj 476 134 hradio 12 1 0 32 empty empty empty 0 -8 0 10 -262144
-1 -1 27;
#X obj 476 146 hradio 12 1 0 32 empty empty empty 0 -8 0 10 -262144
-1 -1 23;
#X obj 476 158 hradio 12 1 0 32 empty empty empty 0 -8 0 10 -228856
-1 -1 30;
#X obj 680 448 shift_register_sixteen_bit~;
#X obj 476 78 unpack f f f f;
#X obj 203 610 s~ reg\$1-tap0;
#X obj 352 638 s~ reg\$1-tap1;
#X obj 460 122 vradio 12 1 0 2 empty empty empty 0 -8 0 10 -262144
-1 -1 0;
#X obj 460 146 vradio 12 1 0 2 empty empty empty 0 -8 0 10 -262144
-1 -1 0;
#X obj 444 134 vradio 12 1 0 2 empty empty empty 0 -8 0 10 -262144
-1 -1 0;
#X obj 1371 235 triple_bitwise \$1 \$2;
#X obj 393 610 s~ reg\$1-tap2;
#X obj 539 610 s~ reg\$1-tap3;
#X obj 688 797 delwrite~ buffer\$1 1000;
#X obj 1118 402 delread~ buffer\$1;
#X obj 688 607 *~;
#X obj 774 603 *~;
#X obj 1116 607 *~;
#X obj 1348 637 *~;
#X obj 1347 674 throw~ reg\$2-inlet;
#X obj 301 353 catch~ reg\$1-inlet;
#X obj 1116 644 throw~ reg\$1-inlet;
#X obj 866 607 *~;
#X obj 865 644 throw~ reg\$2-inlet;
#X obj 1304 589 unpack f f f f f;
#X floatatom 724 607 5 0 0 0 - - -, f 5;
#X floatatom 810 607 5 0 0 0 - - -, f 5;
#X floatatom 900 607 5 0 0 0 - - -, f 5;
#X floatatom 1152 607 5 0 0 0 - - -, f 5;
#X floatatom 1397 637 5 0 0 0 - - -, f 5;
#X msg 1304 542 1 0 0 1 0;
#X msg 1304 502 0 0 0 0 0;
#X text 1374 503 OFF;
#X text 1373 543 SINGLE;
#X msg 1304 522 0 0 1 0 0;
#X text 1374 524 BYPASS;
#X msg 1304 562 0 1 0 0 1;
#X text 1375 563 BYPASS DELAY;
#X obj 1304 482 sel 0 1 2 3;
#X obj 1304 462 r topology\$1;
#X obj 476 57 r tap_indices\$1;
#X obj 330 89 r wheel\$1;
#X obj 20 130 r delay\$1;
#X obj 303 123 bng 14 250 50 0 empty empty empty 17 7 0 10 -262144
-1 -1;
#X obj 99 106 r trigger\$1_wheel;
#X obj 316 742 tgl 15 0 empty empty empty 17 7 0 10 -262144 -1 -1 1
1;
#X obj 102 724 loadbang, f 9;
#X obj 460 781 tabwrite~ scope\$1;
#X obj 476 313 chooser;
#X obj 584 543 signal_router_sixteen_bit;
#X obj 204 543 signal_router_sixteen_bit;
#X obj 393 543 signal_router_sixteen_bit;
#X obj 774 543 signal_router_sixteen_bit;
#X obj 20 165 s delay\$1-send;
#X obj 391 32 unpack f f f;
#X obj 390 11 r gates3\$1\$2-topanel;
#X obj 1340 390 s gates3\$1\$2-frompanel;
#X obj 1340 351 pack f f f, f 20;
#X obj 1573 390 s tap_indices\$1-send;
#X obj 1573 351 pack f f f f, f 25;
#X obj 1693 267 t b f;
#X obj 1644 295 t b f;
#X obj 1609 267 t b f;
#X obj 1371 295 t b f;
#X obj 1430 323 t b f;
#X obj 316 763 metro 150;
#X obj 233 8 r wheeler\$1;
#X obj 233 37 t b f;
#X obj 320 66 * 150;
#X obj 362 137 cnv 15 78 42 empty empty empty 20 12 0 14 -262144 -66577
0;
#N canvas 43 85 450 250 (subpatch) 0;
#X array scope\$1 79 float 1;
#A 0 0 0 0 0 0 0 0 0 0 0 0 0 0 0 0 0 0 0 0 0 0 0 0 0 0 0 0 0 0 0 0
0 0 0 0 0 0 0 0 0 0 0 0 0 0 0 0 0 0 0 0 0 0 0 0 0 0 0 0 0 0 0 0 0 0
0 0 0 0 0 0 0 0 0 0 0 0 0 0;
#X coords 0 1 78 0 79 42 2 0 0;
#X restore 362 137 graph;
#X obj 302 148 cnv 15 31 17 empty empty empty 20 12 0 14 -262144 -66577
0;
#X floatatom 303 148 5 0 0 0 - - -, f 5;
#X obj 321 123 cnv 15 31 17 empty empty empty 20 12 0 14 -262144 -66577
0;
#X floatatom 320 123 5 0 0 0 - - -, f 5;
#X obj 1148 431 delread~ buffer\$1-2;
#X obj 775 729 *~;
#X obj 688 758 *~;
#X msg 914 701 1 0;
#X msg 950 701 0 1;
#X obj 914 740 unpack;
#X obj 1148 460 *~;
#X obj 1117 460 *~;
#X obj 1117 510 +~;
#X msg 884 407 1 0;
#X msg 950 405 0 1;
#X obj 952 442 unpack;
#X obj 914 376 sel 0 1;
#X obj 914 350 tgl 15 0 empty empty empty 17 7 0 10 -262144 -1 -1 0
1;
#X msg 869 332 0;
#X obj 914 321 r switchbuff\$1;
#X obj 459 407 r triggerbypass-\$1\$2;
#X obj 775 768 delwrite~ buffer\$1-2 1000;
#X obj 301 424 *~;
#X obj 316 382 r negate\$1;
#X obj 476 351 chooser;
#X obj 476 370 chooser;
#X obj 476 332 chooser;
#X floatatom 1693 170 5 0 0 0 - - -, f 5;
#X floatatom 1644 158 5 0 0 0 - - -, f 5;
#X floatatom 1609 146 5 0 0 0 - - -, f 5;
#X floatatom 1573 134 5 0 0 0 - - -, f 5;
#X floatatom 1371 146 5 0 0 0 - - -, f 5;
#X floatatom 1430 170 5 0 0 0 - - -, f 5;
#X floatatom 1340 158 5 0 0 0 - - -, f 5;
#X floatatom 1026 165 5 0 0 0 - - -, f 5;
#X obj 303 224 f;
#X text 663 166 |;
#X text 567 166 |;
#X text 760 166 |;
#X connect 0 0 52 2;
#X connect 0 0 53 2;
#X connect 0 1 52 3;
#X connect 0 1 53 3;
#X connect 0 2 52 4;
#X connect 0 2 53 4;
#X connect 0 3 52 5;
#X connect 0 3 53 5;
#X connect 0 4 52 6;
#X connect 0 4 53 6;
#X connect 0 5 52 7;
#X connect 0 5 53 7;
#X connect 0 6 52 8;
#X connect 0 6 53 8;
#X connect 0 7 52 9;
#X connect 0 7 53 9;
#X connect 0 8 52 10;
#X connect 0 8 53 10;
#X connect 0 9 52 11;
#X connect 0 9 53 11;
#X connect 0 10 52 12;
#X connect 0 10 53 12;
#X connect 0 11 52 13;
#X connect 0 11 53 13;
#X connect 0 12 52 14;
#X connect 0 12 53 14;
#X connect 0 13 52 15;
#X connect 0 13 53 15;
#X connect 0 14 52 16;
#X connect 0 14 53 16;
#X connect 0 15 5 0;
#X connect 0 15 49 0;
#X connect 0 15 52 17;
#X connect 0 15 53 17;
#X connect 1 0 50 0;
#X connect 1 0 103 0;
#X connect 2 0 97 0;
#X connect 2 0 102 0;
#X connect 3 0 99 0;
#X connect 3 0 101 0;
#X connect 4 0 98 0;
#X connect 4 0 100 0;
#X connect 5 0 51 2;
#X connect 5 0 54 2;
#X connect 5 1 51 3;
#X connect 5 1 54 3;
#X connect 5 2 51 4;
#X connect 5 2 54 4;
#X connect 5 3 51 5;
#X connect 5 3 54 5;
#X connect 5 4 51 6;
#X connect 5 4 54 6;
#X connect 5 5 51 7;
#X connect 5 5 54 7;
#X connect 5 6 51 8;
#X connect 5 6 54 8;
#X connect 5 7 51 9;
#X connect 5 7 54 9;
#X connect 5 8 51 10;
#X connect 5 8 54 10;
#X connect 5 9 51 11;
#X connect 5 9 54 11;
#X connect 5 10 51 12;
#X connect 5 10 54 12;
#X connect 5 11 51 13;
#X connect 5 11 54 13;
#X connect 5 12 51 14;
#X connect 5 12 54 14;
#X connect 5 13 51 15;
#X connect 5 13 54 15;
#X connect 5 14 51 16;
#X connect 5 14 54 16;
#X connect 5 15 18 0;
#X connect 5 15 24 0;
#X connect 5 15 51 17;
#X connect 5 15 54 17;
#X connect 6 0 1 0;
#X connect 6 1 2 0;
#X connect 6 2 3 0;
#X connect 6 3 4 0;
#X connect 9 0 104 0;
#X connect 10 0 105 0;
#X connect 11 0 106 0;
#X connect 12 0 17 0;
#X connect 16 0 84 0;
#X connect 17 0 79 0;
#X connect 17 0 78 0;
#X connect 18 0 79 0;
#X connect 18 0 78 0;
#X connect 19 0 23 0;
#X connect 20 0 21 0;
#X connect 22 0 95 0;
#X connect 24 0 25 0;
#X connect 26 0 27 0;
#X connect 26 1 28 0;
#X connect 26 2 29 0;
#X connect 26 3 30 0;
#X connect 26 4 31 0;
#X connect 27 0 17 1;
#X connect 28 0 18 1;
#X connect 29 0 24 1;
#X connect 30 0 19 1;
#X connect 31 0 20 1;
#X connect 32 0 26 0;
#X connect 33 0 26 0;
#X connect 36 0 26 0;
#X connect 38 0 26 0;
#X connect 40 0 33 0;
#X connect 40 1 36 0;
#X connect 40 2 32 0;
#X connect 40 3 38 0;
#X connect 41 0 40 0;
#X connect 42 0 6 0;
#X connect 43 0 76 0;
#X connect 44 0 74 0;
#X connect 45 0 108 0;
#X connect 46 0 45 0;
#X connect 47 0 67 0;
#X connect 48 0 47 0;
#X connect 48 0 91 0;
#X connect 50 0 52 0;
#X connect 50 1 51 0;
#X connect 51 0 7 0;
#X connect 51 1 8 0;
#X connect 52 0 7 0;
#X connect 52 1 8 0;
#X connect 53 0 13 0;
#X connect 53 1 14 0;
#X connect 54 0 13 0;
#X connect 54 1 14 0;
#X connect 56 0 11 0;
#X connect 56 1 9 0;
#X connect 56 2 10 0;
#X connect 57 0 56 0;
#X connect 59 0 58 0;
#X connect 61 0 60 0;
#X connect 62 0 61 0;
#X connect 62 1 61 3;
#X connect 63 0 61 0;
#X connect 63 1 61 2;
#X connect 64 0 61 0;
#X connect 64 1 61 1;
#X connect 65 0 59 0;
#X connect 65 1 59 1;
#X connect 66 0 59 0;
#X connect 66 1 59 2;
#X connect 67 0 49 0;
#X connect 68 0 69 0;
#X connect 69 0 45 0;
#X connect 69 1 70 0;
#X connect 70 0 76 0;
#X connect 74 0 55 0;
#X connect 74 0 107 0;
#X connect 76 0 108 1;
#X connect 77 0 83 0;
#X connect 78 0 94 0;
#X connect 79 0 15 0;
#X connect 80 0 82 0;
#X connect 81 0 82 0;
#X connect 82 0 79 1;
#X connect 82 1 78 1;
#X connect 83 0 85 1;
#X connect 84 0 85 0;
#X connect 85 0 19 0;
#X connect 85 0 20 0;
#X connect 86 0 88 0;
#X connect 87 0 88 0;
#X connect 88 0 84 1;
#X connect 88 1 83 1;
#X connect 89 0 86 0;
#X connect 89 0 80 0;
#X connect 89 1 87 0;
#X connect 89 1 81 0;
#X connect 90 0 89 0;
#X connect 91 0 90 0;
#X connect 92 0 90 0;
#X connect 93 0 0 1;
#X connect 95 0 0 0;
#X connect 96 0 95 1;
#X connect 97 0 52 1;
#X connect 97 1 51 1;
#X connect 98 0 53 1;
#X connect 98 1 54 1;
#X connect 99 0 53 0;
#X connect 99 1 54 0;
#X connect 100 0 62 0;
#X connect 101 0 63 0;
#X connect 102 0 64 0;
#X connect 103 0 61 0;
#X connect 104 0 65 0;
#X connect 104 0 12 0;
#X connect 105 0 66 0;
#X connect 105 0 12 1;
#X connect 106 0 59 0;
#X connect 106 0 12 2;
#X connect 107 0 16 0;
#X connect 107 0 77 0;
#X connect 108 0 0 1;
#X coords 0 -1 1 1 558 60 2 302 122;
