#N canvas 57 122 1348 870 10;
#X obj 403 607 panner;
#X obj 436 541 r~ reg\$1-tap0;
#X obj 505 562 r~ reg\$2-tap0;
#X obj 575 583 r~ reg\$3-tap0;
#X obj 351 455 inlet;
#X obj 403 352 unpack f f f;
#X text 406 810 Need to put limits so can't exceed 1 and zero in panner?
;
#X obj 403 290 t b b;
#X msg 403 328 0.5 0.5 0.5;
#X msg 609 308 0.333 0.333 0.333;
#X obj 609 473 unpack f f f;
#X obj 418 238 t b b;
#X msg 418 266 0 0.5 1;
#X msg 609 256 0.666 0.333 0.666;
#X text 336 437 selector;
#X obj 473 607 panner;
#X obj 542 607 panner;
#X obj 403 691 outlet~;
#X obj 404 639 +~;
#X obj 561 639 +~;
#X obj 404 667 +~;
#X obj 561 667 +~;
#X obj 561 691 outlet~;
#X text 479 157 Mono \, Split \, Single \, Roaming;
#X obj 434 186 t b b;
#X msg 434 214 0.5 0 0;
#X msg 609 204 0.5 0 0;
#X obj 403 158 sel 0 1 2 3;
#X text 896 206 Make all of them go through roamers \, so it sets the
line instantly... so the line works for both the stero shifts and the
roamers....;
#X floatatom 343 291 5 0 0 0 - - -;
#X obj 403 382 roamer;
#X obj 668 378 loadbang;
#X obj 444 402 roamer;
#X obj 489 425 roamer;
#X msg 636 364 1;
#X msg 596 396 1000;
#X msg 668 421 400;
#X obj 401 471 cnv 15 198 58 empty empty empty 20 12 0 14 -191407 -66577
0;
#X obj 403 473 hradio 13 1 0 4 empty empty empty 0 -8 0 10 -262144
-1 -1 0;
#X obj 406 512 hsl 50 15 0 1 0 0 empty empty empty -2 -8 0 10 -262144
-1 -1 2450 1;
#X obj 476 512 hsl 50 15 0 1 0 0 empty empty empty -2 -8 0 10 -262144
-1 -1 2450 1;
#X obj 545 512 hsl 50 15 0 1 0 0 empty empty empty -2 -8 0 10 -262144
-1 -1 2450 1;
#X obj 513 492 vsl 15 15 0 1 0 0 empty empty empty 0 -9 0 10 -262144
-1 -1 466 1;
#X obj 581 492 vsl 15 15 0 1 0 0 empty empty empty 0 -9 0 10 -262144
-1 -1 466 1;
#X obj 443 492 vsl 15 15 0 1 0 0 empty empty empty 0 -9 0 10 -262144
-1 -1 466 1;
#X obj 543 472 cnv 15 31 17 empty empty empty 20 12 0 14 -262144 -66577
0;
#X obj 468 472 cnv 15 31 17 empty empty empty 20 12 0 14 -262144 -66577
0;
#X floatatom 468 472 5 0 0 0 - - -;
#X floatatom 542 472 5 0 0 0 - - -;
#X msg 609 338 0.333 0.333 0.333;
#X obj 609 176 t b b;
#X connect 0 0 18 0;
#X connect 0 1 21 0;
#X connect 1 0 0 2;
#X connect 2 0 15 2;
#X connect 3 0 16 2;
#X connect 4 0 38 0;
#X connect 5 0 30 0;
#X connect 5 1 32 0;
#X connect 5 2 33 0;
#X connect 7 0 8 0;
#X connect 7 1 9 0;
#X connect 8 0 5 0;
#X connect 9 0 10 0;
#X connect 10 0 44 0;
#X connect 10 1 42 0;
#X connect 10 2 43 0;
#X connect 11 0 12 0;
#X connect 11 1 13 0;
#X connect 12 0 5 0;
#X connect 13 0 10 0;
#X connect 15 0 18 1;
#X connect 15 1 19 0;
#X connect 16 0 20 1;
#X connect 16 1 19 1;
#X connect 18 0 20 0;
#X connect 19 0 21 1;
#X connect 20 0 17 0;
#X connect 21 0 22 0;
#X connect 24 0 25 0;
#X connect 24 1 26 0;
#X connect 25 0 5 0;
#X connect 26 0 10 0;
#X connect 27 0 7 0;
#X connect 27 1 11 0;
#X connect 27 2 24 0;
#X connect 27 3 50 0;
#X connect 29 0 27 0;
#X connect 30 0 39 0;
#X connect 31 0 36 0;
#X connect 31 0 35 0;
#X connect 32 0 40 0;
#X connect 33 0 41 0;
#X connect 34 0 30 1;
#X connect 34 0 32 1;
#X connect 34 0 33 1;
#X connect 35 0 47 0;
#X connect 36 0 48 0;
#X connect 38 0 29 0;
#X connect 39 0 0 0;
#X connect 40 0 15 0;
#X connect 41 0 16 0;
#X connect 42 0 15 1;
#X connect 43 0 16 1;
#X connect 44 0 0 1;
#X connect 47 0 30 2;
#X connect 47 0 32 2;
#X connect 47 0 33 2;
#X connect 48 0 30 3;
#X connect 48 0 32 3;
#X connect 48 0 33 3;
#X connect 49 0 10 0;
#X connect 50 0 49 0;
#X connect 50 1 34 0;
#X coords 0 -1 1 1 200 60 2 400 470;
