#N canvas 1228 423 531 453 10;
#X obj 200 200 hradio 15 1 0 6 empty empty empty 0 -8 0 10 -262144
-1 -1 2;
#X obj 200 215 hradio 15 1 0 6 empty empty empty 0 -8 0 10 -262144
-1 -1 2;
#X obj 68 27 inlet;
#X obj 200 149 moduleighter;
#X obj 108 367 outlet;
#X obj 100 216 + \$1;
#X obj 153 240 + \$2;
#X connect 0 0 5 0;
#X connect 1 0 6 0;
#X connect 2 0 3 0;
#X connect 3 0 0 0;
#X connect 3 1 1 0;
#X connect 5 0 4 0;
#X connect 6 0 4 0;
#X coords 0 -1 1 1 90 30 2 200 200;
