#N canvas 700 311 659 359 10;
#X obj 18 5 inlet;
#X obj 268 287 outlet;
#X msg 87 99 1 91;
#X msg 133 139 1 72;
#X msg 225 139 1 718;
#X msg 249 119 1 791;
#X msg 272 97 1 182;
#X obj 18 58 sel 0 1 2 3 4 5 8 9 10 11 12 13, f 37;
#X msg 18 159 1 218;
#X msg 64 119 1 227;
#X msg 202 159 1 227;
#X msg 179 99 1 254;
#X msg 41 139 1 576;
#X msg 110 159 1 127;
#X msg 156 119 1 561;
#X connect 0 0 7 0;
#X connect 2 0 1 0;
#X connect 3 0 1 0;
#X connect 4 0 1 0;
#X connect 5 0 1 0;
#X connect 6 0 1 0;
#X connect 7 0 8 0;
#X connect 7 1 12 0;
#X connect 7 2 9 0;
#X connect 7 3 2 0;
#X connect 7 4 13 0;
#X connect 7 5 3 0;
#X connect 7 6 14 0;
#X connect 7 7 11 0;
#X connect 7 8 10 0;
#X connect 7 9 4 0;
#X connect 7 10 5 0;
#X connect 7 11 6 0;
#X connect 8 0 1 0;
#X connect 9 0 1 0;
#X connect 10 0 1 0;
#X connect 11 0 1 0;
#X connect 12 0 1 0;
#X connect 13 0 1 0;
#X connect 14 0 1 0;
