#N canvas 289 364 1323 650 10;
#X obj 241 589 s topology\$1\$2\$3-receive;
#X obj 260 570 s gates3\$1\$2\$3-receive;
#X obj 279 551 s gates2\$1\$2\$3-receive;
#X obj 298 532 s gates1\$1\$2\$3-receive;
#X obj 337 494 s taps2\$1\$2\$3-receive;
#X obj 356 475 s delay\$1\$2\$3-receive;
#X obj 376 456 s wheel\$1\$2\$3-receive;
#X obj 412 38 inlet;
#X obj 412 315 sel 0 1 2 3 4 5 6 7 8 9 10 11;
#X obj 412 287 sel 12 13 14 15 16 17 18 19 20 21 22 23;
#X text 597 315 left preset panel;
#X text 657 285 middle preset panel;
#X obj 412 259 sel 23 24 25;
#X obj 318 513 s taps4\$1\$2\$3-receive;
#X obj 241 379 unpack f f f f f f f f f;
#X obj 406 437 s stereosetting\$1\$2\$3;
#X msg 241 249 1 2 0 3 4 0 3 0 0;
#X obj 317 432 pipe 100;
#X obj 318 411 route 333;
#X msg 241 277 3 0 0 2 333 2 2 0 2;
#X msg 241 304 3 0 0 2 333 1 1 0 2;
#X msg 241 332 3 0 0 2 333 0 1 0 2;
#X obj 412 232 sel 26;
#X obj 412 204 sel 27;
#X msg 241 221 1 3 0 3 4 0 3 0 0;
#X obj 412 176 sel 28, f 7;
#X obj 412 148 sel 29;
#X msg 241 165 1 3 0 3 4 0 4 0 0;
#X msg 241 193 1 2 0 3 4 0 4 0 0;
#X obj 412 120 sel 30, f 7;
#X obj 412 92 sel 31;
#X msg 241 137 1 2 0 3 4 0 5 0 0;
#X msg 241 109 1 3 0 3 4 0 5 0 0;
#X obj 1030 92 sel 32;
#X obj 1030 120 sel 33;
#X msg 881 137 1 3 0 3 4 0 6 0 0;
#X msg 881 109 1 2 0 3 4 0 6 0 0;
#X obj 881 361 t l;
#X floatatom 1030 56 5 0 0 0 - - -, f 5;
#X text 411 335 1 small register \, taps 1&4;
#X text 478 134 Experimenting... Feel free to change.;
#X connect 7 0 8 0;
#X connect 7 0 9 0;
#X connect 7 0 12 0;
#X connect 7 0 22 0;
#X connect 7 0 23 0;
#X connect 7 0 25 0;
#X connect 7 0 26 0;
#X connect 7 0 30 0;
#X connect 7 0 29 0;
#X connect 7 0 38 0;
#X connect 8 0 21 0;
#X connect 8 1 21 0;
#X connect 8 2 21 0;
#X connect 8 3 21 0;
#X connect 8 4 21 0;
#X connect 8 5 21 0;
#X connect 8 6 21 0;
#X connect 8 7 21 0;
#X connect 8 8 21 0;
#X connect 8 9 21 0;
#X connect 8 10 21 0;
#X connect 8 11 21 0;
#X connect 9 0 20 0;
#X connect 9 1 20 0;
#X connect 9 2 20 0;
#X connect 9 3 20 0;
#X connect 9 4 20 0;
#X connect 9 5 20 0;
#X connect 9 6 20 0;
#X connect 9 7 20 0;
#X connect 9 8 20 0;
#X connect 9 9 20 0;
#X connect 9 10 20 0;
#X connect 9 11 20 0;
#X connect 12 0 19 0;
#X connect 12 1 19 0;
#X connect 12 2 19 0;
#X connect 14 0 0 0;
#X connect 14 1 1 0;
#X connect 14 2 2 0;
#X connect 14 3 3 0;
#X connect 14 4 18 0;
#X connect 14 5 4 0;
#X connect 14 6 5 0;
#X connect 14 7 6 0;
#X connect 14 8 15 0;
#X connect 16 0 14 0;
#X connect 17 0 13 0;
#X connect 18 1 17 0;
#X connect 19 0 14 0;
#X connect 20 0 14 0;
#X connect 21 0 14 0;
#X connect 22 0 16 0;
#X connect 23 0 24 0;
#X connect 24 0 14 0;
#X connect 25 0 28 0;
#X connect 26 0 27 0;
#X connect 27 0 14 0;
#X connect 28 0 14 0;
#X connect 29 0 31 0;
#X connect 30 0 32 0;
#X connect 31 0 14 0;
#X connect 32 0 14 0;
#X connect 33 0 36 0;
#X connect 34 0 35 0;
#X connect 35 0 37 0;
#X connect 36 0 37 0;
#X connect 37 0 14 0;
#X connect 38 0 33 0;
#X connect 38 0 34 0;
