#N canvas 1030 422 633 448 10;
#X obj 18 20 inlet;
#X obj 268 287 outlet;
#X msg 18 187 2 227;
#X msg 40 167 2 341;
#X msg 63 147 2 277;
#X msg 86 126 2 0;
#X msg 109 190 2 0;
#X msg 131 169 2 0;
#X msg 154 149 2 0;
#X msg 177 129 2 0;
#X msg 200 189 2 0;
#X msg 222 169 2 0;
#X msg 245 149 2 0;
#X msg 268 128 2 0;
#X obj 18 58 sel 24 25 26 27 28 29 30 31 32 33 34 35, f 46;
#X connect 0 0 14 0;
#X connect 2 0 1 0;
#X connect 3 0 1 0;
#X connect 4 0 1 0;
#X connect 5 0 1 0;
#X connect 6 0 1 0;
#X connect 7 0 1 0;
#X connect 8 0 1 0;
#X connect 9 0 1 0;
#X connect 10 0 1 0;
#X connect 11 0 1 0;
#X connect 12 0 1 0;
#X connect 13 0 1 0;
#X connect 14 0 2 0;
#X connect 14 1 3 0;
#X connect 14 2 4 0;
#X connect 14 3 5 0;
#X connect 14 4 6 0;
#X connect 14 5 7 0;
#X connect 14 6 8 0;
#X connect 14 7 9 0;
#X connect 14 8 10 0;
#X connect 14 9 11 0;
#X connect 14 10 12 0;
#X connect 14 11 13 0;
