#N canvas 67 124 1609 890 10;
#X obj 306 443 tapper \$1 \$2 \$3;
#X msg 471 208 set \$1;
#X obj 482 349 t f f;
#X obj 556 190 r pads\$1\$2\$3-0;
#X obj 581 651 presets0;
#X obj 24 179 r incrementer\$1\$2\$3;
#X obj 534 38 r inctrigger\$1\$2\$3;
#X obj 861 422 Flusher \$1 \$2 \$3;
#X floatatom 534 680 5 0 0 0 - - -, f 5;
#X obj 24 203 unpack f f f f;
#X obj 657 190 r pads\$1\$2\$3-1;
#X obj 758 190 r pads\$1\$2\$3-2;
#X msg 24 232 set \$1;
#X msg 24 249 set \$1;
#X msg 24 266 set \$1;
#X msg 24 283 set \$1;
#X obj 1149 740 PresetsBig \$1 \$2 \$3;
#X obj 1071 81 r LED\$1\$2\$3;
#X obj 1071 109 t f b;
#X msg 1098 211 0 \, 8 \, 16;
#X obj 1098 189 r clearpanels\$1\$2\$3;
#X obj 1149 576 loadbang;
#X msg 1149 664 0;
#X msg 1150 126 0 0 0;
#X obj 1150 237 unpack f f f;
#X obj 534 705 t f b;
#X floatatom 1080 723 5 0 0 0 - - -, f 5;
#X msg 1080 311 set \$1;
#X obj 931 386 s~ panpre\$1\$2\$3-l-send;
#X obj 1109 386 s~ panpre\$1\$2\$3-r-send;
#X obj 553 65 r BigLED\$1\$2\$3;
#X msg 852 87 set \$1;
#X floatatom 852 120 5 0 0 0 - - -, f 5;
#X obj 852 59 t f f;
#X obj 939 80 sel 1;
#X obj 971 105 bng 15 250 50 0 empty empty empty 17 7 0 10 -262144
-1 -1;
#X msg 939 154 3;
#X obj 939 40 r roameronoff\$1\$2\$3;
#X obj 852 16 r stereosetting\$1\$2\$3;
#X obj 939 61 tgl 15 0 empty empty empty 17 7 0 10 -262144 -1 -1 0
1;
#X obj 927 193 loadbang;
#X msg 927 214 0;
#X obj 682 651 presets1;
#X obj 793 651 presets2;
#X obj 223 205 route 0 1 2 3;
#X obj 223 232 t b f;
#X msg 534 102 0;
#X obj 223 249 t b f;
#X msg 534 123 1;
#X obj 223 266 t b f;
#X obj 222 283 t b f;
#X msg 534 144 2;
#X msg 534 165 3;
#X obj 1071 237 sel 0 1 2;
#X obj 451 251 cnv 15 604 66 empty empty empty 20 12 0 14 -233017 -66577
0;
#X obj 467 267 nbx 5 17 -1e+37 1e+37 0 0 empty empty empty 0 -8 0 13
-262144 -1 -1 0 256;
#X obj 467 250 nbx 5 17 -1e+37 1e+37 0 0 empty empty empty 0 -8 0 13
-262144 -1 -1 196 256;
#X obj 467 284 nbx 5 17 -1e+37 1e+37 0 0 empty empty empty 0 -8 0 13
-262144 -1 -1 227 256;
#X obj 467 301 nbx 5 17 -1e+37 1e+37 0 0 empty empty empty 0 -8 0 13
-262144 -1 -1 0 256;
#X obj 450 250 vradio 17 1 0 4 empty empty empty 0 -8 0 10 -262144
-1 -1 2;
#X obj 534 250 vradio 17 1 0 4 empty empty empty 0 -8 0 10 -262144
-1 -1 2;
#X obj 591 254 tgl 20 0 empty empty empty 17 7 0 10 -262144 -1 -1 0
1;
#X obj 692 254 tgl 20 0 empty empty empty 17 7 0 10 -262144 -1 -1 0
1;
#X obj 793 254 tgl 20 0 empty empty empty 17 7 0 10 -262144 -1 -1 1
1;
#X obj 553 252 tgl 15 0 empty empty empty 17 7 0 10 -262144 -66577
-66577 1 1;
#X obj 852 254 panner-presets \$1 \$2 \$3;
#X obj 556 281 preset-panel 0 6;
#X obj 657 281 preset-panel 12 18;
#X obj 758 281 preset-panel 24 30;
#X floatatom 798 329 5 0 0 0 - - -, f 5;
#X floatatom 697 329 5 0 0 0 - - -, f 5;
#X floatatom 596 329 5 0 0 0 - - -, f 5;
#X text 125 370 Fourth preset num box \; doesn't ever get used. \;
Not sure what I had it for.;
#X obj 581 610 f;
#X obj 682 610 f;
#X obj 783 610 f;
#X obj 861 346 bng 15 250 50 0 empty empty empty 17 7 0 10 -262144
-1 -1;
#X obj 661 524 route 0 1 2;
#X msg 661 497 \$2 \$1;
#X obj 661 473 pack;
#X msg 606 376 0;
#X msg 707 374 1;
#X msg 808 371 2;
#X obj 581 574 bng 15 250 50 0 empty empty empty 17 7 0 10 -262144
-1 -1;
#X obj 682 574 bng 15 250 50 0 empty empty empty 17 7 0 10 -262144
-1 -1;
#X obj 783 574 bng 15 250 50 0 empty empty empty 17 7 0 10 -262144
-1 -1;
#X obj 682 789 s preset-and-confirm\$1\$2\$3;
#X msg 661 440 304093;
#X obj 223 166 r preset-and-confirm\$1\$2\$3;
#X connect 1 0 59 0;
#X connect 1 0 60 0;
#X connect 2 0 60 0;
#X connect 2 1 0 0;
#X connect 3 0 66 0;
#X connect 4 0 86 0;
#X connect 5 0 9 0;
#X connect 6 0 60 0;
#X connect 7 0 87 0;
#X connect 8 0 25 0;
#X connect 9 0 12 0;
#X connect 9 1 13 0;
#X connect 9 2 14 0;
#X connect 9 3 15 0;
#X connect 10 0 67 0;
#X connect 11 0 68 0;
#X connect 12 0 56 0;
#X connect 13 0 55 0;
#X connect 14 0 57 0;
#X connect 15 0 58 0;
#X connect 17 0 18 0;
#X connect 18 0 53 0;
#X connect 18 1 23 0;
#X connect 20 0 19 0;
#X connect 21 0 22 0;
#X connect 22 0 16 0;
#X connect 23 0 24 0;
#X connect 24 0 61 0;
#X connect 24 1 62 0;
#X connect 24 2 63 0;
#X connect 25 0 0 5;
#X connect 25 1 26 0;
#X connect 26 0 16 0;
#X connect 27 0 26 0;
#X connect 30 0 64 0;
#X connect 31 0 32 0;
#X connect 32 0 65 0;
#X connect 33 0 31 0;
#X connect 33 1 65 0;
#X connect 34 0 36 0;
#X connect 34 1 35 0;
#X connect 35 0 32 0;
#X connect 36 0 65 0;
#X connect 37 0 39 0;
#X connect 38 0 33 0;
#X connect 39 0 34 0;
#X connect 40 0 41 0;
#X connect 41 0 65 0;
#X connect 42 0 86 0;
#X connect 43 0 86 0;
#X connect 44 0 45 0;
#X connect 44 1 47 0;
#X connect 44 2 49 0;
#X connect 44 3 50 0;
#X connect 45 0 46 0;
#X connect 45 1 56 0;
#X connect 46 0 60 0;
#X connect 47 0 48 0;
#X connect 47 1 55 0;
#X connect 48 0 60 0;
#X connect 49 0 51 0;
#X connect 49 1 57 0;
#X connect 50 0 52 0;
#X connect 50 1 58 0;
#X connect 51 0 60 0;
#X connect 52 0 60 0;
#X connect 53 0 61 0;
#X connect 53 1 62 0;
#X connect 53 2 63 0;
#X connect 55 0 0 3;
#X connect 56 0 0 4;
#X connect 57 0 0 2;
#X connect 58 0 0 1;
#X connect 59 0 2 0;
#X connect 59 0 1 0;
#X connect 60 0 1 0;
#X connect 60 0 8 0;
#X connect 65 0 28 0;
#X connect 65 1 29 0;
#X connect 66 0 27 0;
#X connect 66 0 71 0;
#X connect 67 0 27 0;
#X connect 67 0 70 0;
#X connect 68 0 69 0;
#X connect 68 0 27 0;
#X connect 69 0 75 1;
#X connect 69 0 76 0;
#X connect 69 0 82 0;
#X connect 70 0 74 1;
#X connect 70 0 76 0;
#X connect 70 0 81 0;
#X connect 71 0 73 1;
#X connect 71 0 76 0;
#X connect 71 0 80 0;
#X connect 73 0 4 0;
#X connect 74 0 42 0;
#X connect 75 0 43 0;
#X connect 76 0 7 0;
#X connect 77 0 83 0;
#X connect 77 1 84 0;
#X connect 77 2 85 0;
#X connect 78 0 77 0;
#X connect 79 0 78 0;
#X connect 80 0 79 1;
#X connect 81 0 79 1;
#X connect 82 0 79 1;
#X connect 83 0 73 0;
#X connect 84 0 74 0;
#X connect 85 0 75 0;
#X connect 87 0 79 0;
#X connect 88 0 44 0;
#X coords 0 -1 1 1 606 68 2 450 250;
