#N canvas 67 124 1621 890 10;
#X obj 398 431 tapper \$1 \$2 \$3;
#X msg 450 221 set \$1;
#X obj 481 377 t f f;
#X obj 556 190 r pads\$1\$2\$3-0;
#X obj 556 541 presets0;
#X obj 184 179 r incrementer\$1\$2\$3;
#X obj 534 48 r inctrigger\$1\$2\$3;
#X floatatom 534 388 5 0 0 0 - - -;
#X obj 184 203 unpack f f f f;
#X obj 657 190 r pads\$1\$2\$3-1;
#X obj 758 190 r pads\$1\$2\$3-2;
#X msg 184 232 set \$1;
#X msg 184 249 set \$1;
#X msg 184 266 set \$1;
#X msg 184 283 set \$1;
#X obj 1274 448 PresetsBig \$1 \$2 \$3;
#X obj 1171 121 r LED\$1\$2\$3;
#X obj 1171 149 t f b;
#X msg 1198 211 0 \, 8 \, 16;
#X obj 1198 189 r clearpanels\$1\$2\$3;
#X obj 1274 390 loadbang;
#X msg 1274 419 0;
#X msg 1250 167 0 0 0;
#X obj 1250 237 unpack f f f;
#X obj 534 413 t f b;
#X floatatom 1185 431 5 0 0 0 - - -;
#X msg 1185 345 set \$1;
#X obj 851 386 s~ panpre\$1\$2\$3-l-send;
#X obj 1046 386 s~ panpre\$1\$2\$3-r-send;
#X obj 553 75 r BigLED\$1\$2\$3;
#X msg 852 137 set \$1;
#X floatatom 852 170 5 0 0 0 - - -;
#X obj 852 109 t f f;
#X obj 939 130 sel 1;
#X obj 971 155 bng 15 250 50 0 empty empty empty 17 7 0 10 -262144
-1 -1;
#X msg 939 154 3;
#X obj 939 90 r roameronoff\$1\$2\$3;
#X obj 852 66 r stereosetting\$1\$2\$3;
#X obj 939 111 tgl 15 0 empty empty empty 17 7 0 10 -262144 -1 -1 0
1;
#X obj 927 193 loadbang;
#X msg 927 214 0;
#X obj 659 541 presets1;
#X obj 768 541 presets2;
#X obj 313 205 route 0 1 2 3;
#X obj 313 232 t b f;
#X msg 534 102 0;
#X obj 313 249 t b f;
#X msg 534 123 1;
#X obj 313 266 t b f;
#X obj 312 283 t b f;
#X msg 534 144 2;
#X msg 534 165 3;
#X obj 1171 237 sel 0 1 2;
#X obj 450 251 cnv 15 716 66 empty empty empty 20 12 0 14 -233017 -66577
0;
#X obj 467 267 nbx 5 17 -1e+37 1e+37 0 0 empty empty empty 0 -8 0 13
-262144 -1 -1 0 256;
#X obj 467 250 nbx 5 17 -1e+37 1e+37 0 0 empty empty empty 0 -8 0 13
-262144 -1 -1 0 256;
#X obj 467 284 nbx 5 17 -1e+37 1e+37 0 0 empty empty empty 0 -8 0 13
-262144 -1 -1 0 256;
#X obj 467 301 nbx 5 17 -1e+37 1e+37 0 0 empty empty empty 0 -8 0 13
-262144 -1 -1 0 256;
#X obj 450 250 vradio 17 1 0 4 empty empty empty 0 -8 0 10 -262144
-1 -1 1;
#X obj 534 250 vradio 17 1 0 4 empty empty empty 0 -8 0 10 -262144
-1 -1 1;
#X obj 591 254 tgl 20 0 empty empty empty 17 7 0 10 -262144 -1 -1 1
1;
#X obj 692 254 tgl 20 0 empty empty empty 17 7 0 10 -262144 -1 -1 0
1;
#X obj 793 254 tgl 20 0 empty empty empty 17 7 0 10 -262144 -1 -1 0
1;
#X obj 553 252 tgl 15 0 empty empty empty 17 7 0 10 -262144 -66577
-66577 1 1;
#X obj 852 254 panner-presets \$1 \$2 \$3;
#X obj 556 281 preset-panel 0 6;
#X obj 657 281 preset-panel 12 18;
#X obj 758 281 preset-panel 24 30;
#X floatatom 758 360 5 0 0 0 - - -;
#X floatatom 659 360 5 0 0 0 - - -;
#X floatatom 556 360 5 0 0 0 - - -;
#X text 256 316 Fourth preset num box \; doesn't ever get used. \;
Not sure what I had it for.;
#X obj 556 609 s preset-and-confirm\$1\$2\$3;
#X obj 313 166 r preset-and-confirm\$1\$2\$3;
#X obj 398 586 Flusher2 \$1 \$2 \$3;
#X obj 758 439 route 26 27 28 29 30 31;
#X obj 975 457 bng 15 250 50 0 empty empty empty 17 7 0 10 -262144
-1 -1;
#X obj 975 568 t b b;
#X obj 556 327 t f f;
#X obj 659 327 t f f;
#X obj 758 327 t f f;
#X text 669 460 In preset objects: first number is \; 0: 0 4 \; 1:
4 8 \; 2: 0 11 \; 3: 0 7 4 8;
#X text 1227 472 Topology \, gate \, 2-tap and 1-tap settings...;
#X text 561 496 4-tap settings;
#X connect 0 0 74 0;
#X connect 1 0 58 0;
#X connect 1 0 59 0;
#X connect 2 0 59 0;
#X connect 2 1 0 0;
#X connect 3 0 65 0;
#X connect 4 0 72 0;
#X connect 5 0 8 0;
#X connect 6 0 59 0;
#X connect 7 0 24 0;
#X connect 8 0 11 0;
#X connect 8 1 12 0;
#X connect 8 2 13 0;
#X connect 8 3 14 0;
#X connect 9 0 66 0;
#X connect 10 0 67 0;
#X connect 11 0 55 0;
#X connect 12 0 54 0;
#X connect 13 0 56 0;
#X connect 14 0 57 0;
#X connect 16 0 17 0;
#X connect 17 0 52 0;
#X connect 17 1 22 0;
#X connect 19 0 18 0;
#X connect 20 0 21 0;
#X connect 21 0 15 0;
#X connect 22 0 23 0;
#X connect 23 0 60 0;
#X connect 23 1 61 0;
#X connect 23 2 62 0;
#X connect 24 0 0 1;
#X connect 24 1 25 0;
#X connect 25 0 15 0;
#X connect 26 0 25 0;
#X connect 29 0 63 0;
#X connect 30 0 31 0;
#X connect 31 0 64 0;
#X connect 32 0 30 0;
#X connect 32 1 64 0;
#X connect 33 0 35 0;
#X connect 33 1 34 0;
#X connect 34 0 31 0;
#X connect 35 0 64 0;
#X connect 36 0 38 0;
#X connect 37 0 32 0;
#X connect 38 0 33 0;
#X connect 39 0 40 0;
#X connect 40 0 64 0;
#X connect 41 0 72 0;
#X connect 42 0 72 0;
#X connect 43 0 44 0;
#X connect 43 1 46 0;
#X connect 43 2 48 0;
#X connect 43 3 49 0;
#X connect 44 0 45 0;
#X connect 44 1 55 0;
#X connect 45 0 59 0;
#X connect 46 0 47 0;
#X connect 46 1 54 0;
#X connect 47 0 59 0;
#X connect 48 0 50 0;
#X connect 48 1 56 0;
#X connect 49 0 51 0;
#X connect 49 1 57 0;
#X connect 50 0 59 0;
#X connect 51 0 59 0;
#X connect 52 0 60 0;
#X connect 52 1 61 0;
#X connect 52 2 62 0;
#X connect 54 0 0 4;
#X connect 55 0 0 5;
#X connect 56 0 0 3;
#X connect 57 0 0 2;
#X connect 58 0 2 0;
#X connect 58 0 1 0;
#X connect 59 0 1 0;
#X connect 59 0 7 0;
#X connect 64 0 27 0;
#X connect 64 1 28 0;
#X connect 65 0 78 0;
#X connect 66 0 79 0;
#X connect 67 0 80 0;
#X connect 68 0 75 0;
#X connect 69 0 41 0;
#X connect 70 0 4 0;
#X connect 73 0 43 0;
#X connect 75 0 76 0;
#X connect 75 1 76 0;
#X connect 75 2 76 0;
#X connect 75 3 76 0;
#X connect 75 4 76 0;
#X connect 75 5 76 0;
#X connect 75 6 42 0;
#X connect 76 0 77 0;
#X connect 77 0 74 0;
#X connect 77 1 25 0;
#X connect 78 0 70 0;
#X connect 78 1 26 0;
#X connect 79 0 69 0;
#X connect 79 1 26 0;
#X connect 80 0 68 0;
#X connect 80 1 26 0;
#X coords 0 -1 1 1 717 68 2 450 250;
