#N canvas 621 304 633 448 10;
#X obj 18 20 inlet;
#X obj 268 287 outlet;
#X msg 18 187 2 227;
#X msg 40 167 2 341;
#X msg 63 147 2 277;
#X obj 18 58 sel 0 1 2 3 4 5 8 9 10 11 12 13, f 40;
#X msg 86 126 2 0;
#X msg 109 190 2 0;
#X msg 132 169 2 0;
#X msg 155 149 2 0;
#X msg 178 129 2 0;
#X msg 201 189 2 0;
#X msg 224 169 2 0;
#X msg 247 149 2 0;
#X msg 270 128 2 0;
#X connect 0 0 5 0;
#X connect 2 0 1 0;
#X connect 3 0 1 0;
#X connect 4 0 1 0;
#X connect 5 0 2 0;
#X connect 5 1 3 0;
#X connect 5 2 4 0;
#X connect 5 3 6 0;
#X connect 5 4 7 0;
#X connect 5 5 8 0;
#X connect 5 6 9 0;
#X connect 5 7 10 0;
#X connect 5 8 11 0;
#X connect 5 9 12 0;
#X connect 5 10 13 0;
#X connect 5 11 14 0;
#X connect 6 0 1 0;
#X connect 7 0 1 0;
#X connect 8 0 1 0;
#X connect 9 0 1 0;
#X connect 10 0 1 0;
#X connect 11 0 1 0;
#X connect 12 0 1 0;
#X connect 13 0 1 0;
#X connect 14 0 1 0;
