#N canvas 136 311 659 359 10;
#X obj 18 5 inlet;
#X obj 268 287 outlet;
#X msg 87 99 1 91;
#X msg 134 139 1 72;
#X msg 227 139 1 718;
#X msg 250 119 1 791;
#X msg 273 97 1 182;
#X msg 18 159 1 218;
#X msg 64 119 1 227;
#X msg 203 159 1 227;
#X msg 180 99 1 254;
#X msg 41 139 1 576;
#X msg 110 159 1 127;
#X msg 157 119 1 561;
#X obj 18 58 sel 12 13 14 15 16 17 20 21 22 23 24 25, f 47;
#X connect 0 0 14 0;
#X connect 2 0 1 0;
#X connect 3 0 1 0;
#X connect 4 0 1 0;
#X connect 5 0 1 0;
#X connect 6 0 1 0;
#X connect 7 0 1 0;
#X connect 8 0 1 0;
#X connect 9 0 1 0;
#X connect 10 0 1 0;
#X connect 11 0 1 0;
#X connect 12 0 1 0;
#X connect 13 0 1 0;
#X connect 14 0 7 0;
#X connect 14 1 11 0;
#X connect 14 2 8 0;
#X connect 14 3 2 0;
#X connect 14 4 12 0;
#X connect 14 5 3 0;
#X connect 14 6 13 0;
#X connect 14 7 10 0;
#X connect 14 8 9 0;
#X connect 14 9 4 0;
#X connect 14 10 5 0;
#X connect 14 11 6 0;
