#N canvas 192 276 693 474 10;
#X obj 244 172 unpack f f;
#X msg 244 60 1 1;
#X msg 244 144 0 0;
#X obj 335 172 pack f f;
#X obj 398 172 pack f f;
#X obj 335 153 unpack f f f f;
#X msg 244 88 0 1;
#X msg 244 116 1 0;
#X obj 189 35 sel 0 1 2 3;
#X obj 189 7 r xor_inline_onoff\$1\$2\$3;
#X obj 335 129 r xor_inline_taps\$1\$2\$3;
#X obj 330 220 signal_router \$1 \$2 \$3 1;
#X obj 300 220 signal_router \$1 \$2 \$3 0;
#X connect 0 0 12 0;
#X connect 0 1 11 0;
#X connect 1 0 0 0;
#X connect 2 0 0 0;
#X connect 3 0 12 1;
#X connect 4 0 11 1;
#X connect 5 0 3 0;
#X connect 5 1 3 1;
#X connect 5 2 4 0;
#X connect 5 3 4 1;
#X connect 6 0 0 0;
#X connect 7 0 0 0;
#X connect 8 0 2 0;
#X connect 8 1 7 0;
#X connect 8 2 6 0;
#X connect 8 3 1 0;
#X connect 9 0 8 0;
#X connect 10 0 5 0;
#X coords 0 -1 1 1 60 240 2 300 220;
