#N canvas 43 182 1250 534 10;
#X obj 294 251 inlet~;
#X obj 351 251 inlet~;
#X obj 408 251 inlet~;
#X obj 465 251 inlet~;
#X obj 522 251 inlet~;
#X obj 579 251 inlet~;
#X obj 636 251 inlet~;
#X obj 693 251 inlet~;
#X obj 750 251 inlet~;
#X obj 807 251 inlet~;
#X obj 864 251 inlet~;
#X obj 921 251 inlet~;
#X obj 978 251 inlet~;
#X obj 1035 251 inlet~;
#X obj 1092 251 inlet~;
#X obj 1149 251 inlet~;
#X obj 9 21 inlet;
#X obj 293 304 *~;
#X obj 294 441 throw~ \$0-signal;
#X obj 41 516 catch~ \$0-signal;
#X obj 42 574 outlet~;
#X obj 9 287 unpack f f f f f f f f f f f f f f f f;
#X obj 351 304 *~;
#X obj 352 420 throw~ \$0-signal;
#X obj 409 304 *~;
#X obj 410 398 throw~ \$0-signal;
#X obj 466 304 *~;
#X obj 467 376 throw~ \$0-signal;
#X obj 522 304 *~;
#X obj 523 441 throw~ \$0-signal;
#X obj 580 304 *~;
#X obj 581 420 throw~ \$0-signal;
#X obj 637 304 *~;
#X obj 638 398 throw~ \$0-signal;
#X obj 694 304 *~;
#X obj 695 376 throw~ \$0-signal;
#X obj 751 304 *~;
#X obj 750 441 throw~ \$0-signal;
#X obj 807 304 *~;
#X obj 808 420 throw~ \$0-signal;
#X obj 865 304 *~;
#X obj 866 398 throw~ \$0-signal;
#X obj 922 304 *~;
#X obj 923 376 throw~ \$0-signal;
#X obj 978 304 *~;
#X obj 979 441 throw~ \$0-signal;
#X obj 1036 304 *~;
#X obj 1037 420 throw~ \$0-signal;
#X obj 1093 304 *~;
#X obj 1094 398 throw~ \$0-signal;
#X obj 1150 304 *~;
#X obj 1151 376 throw~ \$0-signal;
#X msg 238 218 0 0 0 0 0 0 0 0 0 0 0 0 0 0 0 1;
#X msg 239 197 0 0 0 0 0 0 0 0 0 0 0 0 0 0 1 0;
#X msg 239 177 0 0 0 0 0 0 0 0 0 0 0 0 0 1 0 0;
#X msg 239 157 0 0 0 0 0 0 0 0 0 0 0 0 1 0 0 0;
#X msg 239 137 0 0 0 0 0 0 0 0 0 0 0 1 0 0 0 0;
#X msg 239 117 0 0 0 0 0 0 0 0 0 0 1 0 0 0 0 0;
#X msg 239 97 0 0 0 0 0 0 0 0 0 1 0 0 0 0 0 0;
#X msg 239 76 0 0 0 0 0 0 0 0 1 0 0 0 0 0 0 0;
#X msg 9 217 0 0 0 0 0 0 0 1 0 0 0 0 0 0 0 0;
#X msg 9 196 0 0 0 0 0 0 1 0 0 0 0 0 0 0 0 0;
#X msg 9 176 0 0 0 0 0 1 0 0 0 0 0 0 0 0 0 0;
#X msg 10 156 0 0 0 0 1 0 0 0 0 0 0 0 0 0 0 0;
#X msg 10 136 0 0 0 1 0 0 0 0 0 0 0 0 0 0 0 0;
#X msg 10 116 0 0 1 0 0 0 0 0 0 0 0 0 0 0 0 0;
#X msg 10 96 0 1 0 0 0 0 0 0 0 0 0 0 0 0 0 0;
#X msg 10 76 1 0 0 0 0 0 0 0 0 0 0 0 0 0 0 0;
#X obj 323 334 *~;
#X obj 168 575 outlet~;
#X obj 1219 317 unpack f f f f f f f f f f f f f f f f;
#X obj 381 334 *~;
#X obj 439 334 *~;
#X obj 496 334 *~;
#X obj 552 334 *~;
#X obj 610 334 *~;
#X obj 667 334 *~;
#X obj 724 334 *~;
#X obj 781 334 *~;
#X obj 837 334 *~;
#X obj 895 334 *~;
#X obj 952 334 *~;
#X obj 1008 334 *~;
#X obj 1066 334 *~;
#X obj 1123 334 *~;
#X obj 1180 334 *~;
#X obj 167 517 catch~ \$0-signal2;
#X obj 324 611 throw~ \$0-signal2;
#X obj 382 590 throw~ \$0-signal2;
#X obj 440 568 throw~ \$0-signal2;
#X obj 497 546 throw~ \$0-signal2;
#X obj 553 611 throw~ \$0-signal2;
#X obj 611 590 throw~ \$0-signal2;
#X obj 668 568 throw~ \$0-signal2;
#X obj 725 546 throw~ \$0-signal2;
#X obj 780 611 throw~ \$0-signal2;
#X obj 838 590 throw~ \$0-signal2;
#X obj 896 568 throw~ \$0-signal2;
#X obj 953 546 throw~ \$0-signal2;
#X obj 1009 611 throw~ \$0-signal2;
#X obj 1067 590 throw~ \$0-signal2;
#X obj 1124 568 throw~ \$0-signal2;
#X obj 1181 546 throw~ \$0-signal2;
#X obj 59 21 inlet;
#X msg 557 66 0 0 0 0 0 0 0 0 0 0 0 0 0 0 0 0;
#X msg 1407 289 0 0 0 0 0 0 0 0 0 0 0 0 0 0 0 0;
#X obj 380 54 bng 15 250 50 0 empty empty empty 17 7 0 10 -262144 -1
-1;
#X obj 1505 268 bng 15 250 50 0 empty empty empty 17 7 0 10 -262144
-1 -1;
#X obj 11 51 sel 0 1 2 3 4 5 6 7 8 9 10 11 12 13 14 15;
#X msg 1448 218 0 0 0 0 0 0 0 0 0 0 0 0 0 0 0 1;
#X msg 1449 197 0 0 0 0 0 0 0 0 0 0 0 0 0 0 1 0;
#X msg 1449 177 0 0 0 0 0 0 0 0 0 0 0 0 0 1 0 0;
#X msg 1449 157 0 0 0 0 0 0 0 0 0 0 0 0 1 0 0 0;
#X msg 1449 137 0 0 0 0 0 0 0 0 0 0 0 1 0 0 0 0;
#X msg 1449 117 0 0 0 0 0 0 0 0 0 0 1 0 0 0 0 0;
#X msg 1449 97 0 0 0 0 0 0 0 0 0 1 0 0 0 0 0 0;
#X msg 1449 76 0 0 0 0 0 0 0 0 1 0 0 0 0 0 0 0;
#X msg 1219 217 0 0 0 0 0 0 0 1 0 0 0 0 0 0 0 0;
#X msg 1219 196 0 0 0 0 0 0 1 0 0 0 0 0 0 0 0 0;
#X msg 1219 176 0 0 0 0 0 1 0 0 0 0 0 0 0 0 0 0;
#X msg 1220 156 0 0 0 0 1 0 0 0 0 0 0 0 0 0 0 0;
#X msg 1220 136 0 0 0 1 0 0 0 0 0 0 0 0 0 0 0 0;
#X msg 1220 116 0 0 1 0 0 0 0 0 0 0 0 0 0 0 0 0;
#X msg 1220 96 0 1 0 0 0 0 0 0 0 0 0 0 0 0 0 0;
#X msg 1220 76 1 0 0 0 0 0 0 0 0 0 0 0 0 0 0 0;
#X obj 1221 38 sel 0 1 2 3 4 5 6 7 8 9 10 11 12 13 14 15;
#X connect 0 0 17 0;
#X connect 0 0 68 0;
#X connect 1 0 22 0;
#X connect 1 0 71 0;
#X connect 2 0 24 0;
#X connect 2 0 72 0;
#X connect 3 0 26 0;
#X connect 3 0 73 0;
#X connect 4 0 28 0;
#X connect 4 0 74 0;
#X connect 5 0 30 0;
#X connect 5 0 75 0;
#X connect 6 0 32 0;
#X connect 6 0 76 0;
#X connect 7 0 34 0;
#X connect 7 0 77 0;
#X connect 8 0 36 0;
#X connect 8 0 78 0;
#X connect 9 0 38 0;
#X connect 9 0 79 0;
#X connect 10 0 40 0;
#X connect 10 0 80 0;
#X connect 11 0 42 0;
#X connect 11 0 81 0;
#X connect 12 0 44 0;
#X connect 12 0 82 0;
#X connect 13 0 46 0;
#X connect 13 0 83 0;
#X connect 14 0 48 0;
#X connect 14 0 84 0;
#X connect 15 0 50 0;
#X connect 15 0 85 0;
#X connect 16 0 108 0;
#X connect 17 0 18 0;
#X connect 19 0 20 0;
#X connect 21 0 17 1;
#X connect 21 1 22 1;
#X connect 21 2 24 1;
#X connect 21 3 26 1;
#X connect 21 4 28 1;
#X connect 21 5 30 1;
#X connect 21 6 32 1;
#X connect 21 7 34 1;
#X connect 21 8 36 1;
#X connect 21 9 38 1;
#X connect 21 10 40 1;
#X connect 21 11 42 1;
#X connect 21 12 44 1;
#X connect 21 13 46 1;
#X connect 21 14 48 1;
#X connect 21 15 50 1;
#X connect 22 0 23 0;
#X connect 24 0 25 0;
#X connect 26 0 27 0;
#X connect 28 0 29 0;
#X connect 30 0 31 0;
#X connect 32 0 33 0;
#X connect 34 0 35 0;
#X connect 36 0 37 0;
#X connect 38 0 39 0;
#X connect 40 0 41 0;
#X connect 42 0 43 0;
#X connect 44 0 45 0;
#X connect 46 0 47 0;
#X connect 48 0 49 0;
#X connect 50 0 51 0;
#X connect 52 0 21 0;
#X connect 53 0 21 0;
#X connect 54 0 21 0;
#X connect 56 0 21 0;
#X connect 57 0 21 0;
#X connect 58 0 21 0;
#X connect 59 0 21 0;
#X connect 60 0 21 0;
#X connect 61 0 21 0;
#X connect 62 0 21 0;
#X connect 63 0 21 0;
#X connect 64 0 21 0;
#X connect 65 0 21 0;
#X connect 66 0 21 0;
#X connect 67 0 21 0;
#X connect 68 0 87 0;
#X connect 70 0 68 1;
#X connect 70 1 71 1;
#X connect 70 2 72 1;
#X connect 70 3 73 1;
#X connect 70 4 74 1;
#X connect 70 5 75 1;
#X connect 70 6 76 1;
#X connect 70 7 77 1;
#X connect 70 8 78 1;
#X connect 70 9 79 1;
#X connect 70 10 80 1;
#X connect 70 11 81 1;
#X connect 70 12 82 1;
#X connect 70 13 83 1;
#X connect 70 14 84 1;
#X connect 70 15 85 1;
#X connect 71 0 88 0;
#X connect 72 0 89 0;
#X connect 73 0 90 0;
#X connect 74 0 91 0;
#X connect 75 0 92 0;
#X connect 76 0 93 0;
#X connect 77 0 94 0;
#X connect 78 0 95 0;
#X connect 79 0 96 0;
#X connect 80 0 97 0;
#X connect 81 0 98 0;
#X connect 82 0 99 0;
#X connect 83 0 100 0;
#X connect 84 0 101 0;
#X connect 85 0 102 0;
#X connect 86 0 69 0;
#X connect 103 0 125 0;
#X connect 104 0 21 0;
#X connect 105 0 70 0;
#X connect 106 0 104 0;
#X connect 107 0 105 0;
#X connect 108 0 67 0;
#X connect 108 1 66 0;
#X connect 108 2 65 0;
#X connect 108 3 64 0;
#X connect 108 4 63 0;
#X connect 108 5 62 0;
#X connect 108 6 61 0;
#X connect 108 7 60 0;
#X connect 108 8 59 0;
#X connect 108 9 58 0;
#X connect 108 10 57 0;
#X connect 108 11 56 0;
#X connect 108 12 55 0;
#X connect 108 13 54 0;
#X connect 108 14 53 0;
#X connect 108 15 52 0;
#X connect 108 16 106 0;
#X connect 109 0 70 0;
#X connect 110 0 70 0;
#X connect 111 0 70 0;
#X connect 112 0 70 0;
#X connect 113 0 70 0;
#X connect 114 0 70 0;
#X connect 115 0 70 0;
#X connect 116 0 70 0;
#X connect 117 0 70 0;
#X connect 118 0 70 0;
#X connect 119 0 70 0;
#X connect 120 0 70 0;
#X connect 121 0 70 0;
#X connect 122 0 70 0;
#X connect 123 0 70 0;
#X connect 124 0 70 0;
#X connect 125 0 124 0;
#X connect 125 1 123 0;
#X connect 125 2 122 0;
#X connect 125 3 121 0;
#X connect 125 4 120 0;
#X connect 125 5 119 0;
#X connect 125 6 118 0;
#X connect 125 7 117 0;
#X connect 125 8 116 0;
#X connect 125 9 115 0;
#X connect 125 10 114 0;
#X connect 125 11 113 0;
#X connect 125 12 112 0;
#X connect 125 13 111 0;
#X connect 125 14 110 0;
#X connect 125 15 109 0;
#X connect 125 16 107 0;
