#N canvas 327 297 855 473 10;
#X obj 95 38 hradio 44 1 0 2 empty empty empty 0 -8 0 10 -228856 -1
-1 0;
#X obj 95 82 hradio 44 1 0 2 empty empty empty 0 -8 0 10 -262144 -1
-1 0;
#X obj 59 237 r~ signal_router0-outlet;
#X obj 252 237 r~ signal_router1-outlet;
#X obj 58 299 *~;
#X obj 94 299 *~;
#X obj 251 299 *~;
#X obj 287 299 *~;
#X obj 331 414 bitwiser;
#X obj 51 49 vradio 33 1 0 2 empty empty empty 0 -8 0 10 -262144 -1
-1 0;
#X obj 14 1 loadbang;
#X msg 98 3 0;
#X obj 332 445 s~ four_xor_send;
#X obj 263 82 sel 0 1;
#X obj 482 96 sel 0 1;
#X msg 286 135 0 1;
#X msg 263 156 1 0;
#X msg 505 165 0 1;
#X msg 482 186 1 0;
#X obj 263 177 unpack f f;
#X obj 482 206 unpack f f;
#X connect 0 0 13 0;
#X connect 1 0 14 0;
#X connect 2 0 4 0;
#X connect 2 0 5 0;
#X connect 3 0 6 0;
#X connect 3 0 7 0;
#X connect 4 0 8 1;
#X connect 5 0 8 2;
#X connect 6 0 8 1;
#X connect 7 0 8 2;
#X connect 8 0 12 0;
#X connect 9 0 8 0;
#X connect 10 0 11 0;
#X connect 11 0 0 0;
#X connect 11 0 9 0;
#X connect 11 0 1 0;
#X connect 13 0 16 0;
#X connect 13 1 15 0;
#X connect 14 0 18 0;
#X connect 14 1 17 0;
#X connect 15 0 19 0;
#X connect 16 0 19 0;
#X connect 17 0 20 0;
#X connect 18 0 20 0;
#X connect 19 0 4 1;
#X connect 19 1 6 1;
#X connect 20 0 5 1;
#X connect 20 1 7 1;
#X coords 0 -1 1 1 143 88 2 40 38;
