#N canvas 67 123 1296 629 10;
#X obj 297 359 *~;
#X obj 354 359 *~;
#X obj 413 359 *~;
#X obj 470 359 *~;
#X obj 527 359 *~;
#X obj 584 359 *~;
#X obj 639 359 *~;
#X obj 697 359 *~;
#X obj 754 359 *~;
#X obj 811 359 *~;
#X obj 867 359 *~;
#X obj 924 359 *~;
#X obj 296 468 *~;
#X obj 353 468 *~;
#X obj 412 468 *~;
#X obj 462 467 *~;
#X obj 526 468 *~;
#X obj 583 468 *~;
#X obj 639 468 *~;
#X obj 695 468 *~;
#X obj 753 468 *~;
#X obj 810 468 *~;
#X obj 866 468 *~;
#X obj 923 468 *~;
#X obj 531 553 bitwiser;
#X obj 180 380 vradio 12 1 0 15 empty empty empty 0 -8 0 10 -228856
-1 -1 5;
#X obj 192 380 vradio 12 1 0 15 empty empty empty 0 -8 0 10 -262144
-1 -1 0;
#X obj 186 368 tgl 12 0 empty empty empty 17 7 0 10 -262144 -1 -1 0
1;
#X obj 7 381 inlet;
#X obj 59 381 inlet;
#X obj 59 403 unpack f f;
#X obj 297 258 r~ reg\$1-tap0;
#X obj 354 278 r~ reg\$1-tap1;
#X obj 411 298 r~ reg\$1-tap2;
#X obj 468 318 r~ reg\$1-tap3;
#X obj 525 258 r~ reg\$2-tap0;
#X obj 582 278 r~ reg\$2-tap1;
#X obj 639 297 r~ reg\$2-tap2;
#X obj 753 258 r~ reg\$3-tap0;
#X obj 810 278 r~ reg\$3-tap1;
#X obj 867 298 r~ reg\$3-tap2;
#X obj 924 318 r~ reg\$3-tap3;
#X obj 529 585 s~ signal_router\$1\$2\$3-\$4-outlet;
#X obj 497 359 *~;
#X obj 498 468 *~;
#X obj 725 359 *~;
#X obj 724 468 *~;
#X obj 896 359 *~;
#X obj 895 468 *~;
#X msg 36 313 1 0 0 0 0 0 0 0 0 0 0 0 0 0 0;
#X msg 53 292 0 1 0 0 0 0 0 0 0 0 0 0 0 0 0;
#X msg 71 271 0 0 1 0 0 0 0 0 0 0 0 0 0 0 0;
#X msg 88 250 0 0 0 1 0 0 0 0 0 0 0 0 0 0 0;
#X msg 106 229 0 0 0 0 1 0 0 0 0 0 0 0 0 0 0;
#X msg 123 207 0 0 0 0 0 1 0 0 0 0 0 0 0 0 0;
#X msg 141 187 0 0 0 0 0 0 1 0 0 0 0 0 0 0 0;
#X msg 158 166 0 0 0 0 0 0 0 1 0 0 0 0 0 0 0;
#X msg 176 145 0 0 0 0 0 0 0 0 1 0 0 0 0 0 0;
#X msg 193 124 0 0 0 0 0 0 0 0 0 1 0 0 0 0 0;
#X msg 211 103 0 0 0 0 0 0 0 0 0 0 1 0 0 0 0;
#X msg 228 82 0 0 0 0 0 0 0 0 0 0 0 1 0 0 0;
#X msg 246 62 0 0 0 0 0 0 0 0 0 0 0 0 1 0 0;
#X msg 263 42 0 0 0 0 0 0 0 0 0 0 0 0 0 1 0;
#X msg 281 22 0 0 0 0 0 0 0 0 0 0 0 0 0 0 1;
#X obj 36 -3 sel 0 1 2 3 4 5 6 7 8 9 10 11 12 13 14;
#X msg 1090 229 0 0 0 0 1 0 0 0 0 0 0 0 0 0 0;
#X msg 1107 207 0 0 0 0 0 1 0 0 0 0 0 0 0 0 0;
#X msg 1125 187 0 0 0 0 0 0 1 0 0 0 0 0 0 0 0;
#X msg 1142 166 0 0 0 0 0 0 0 1 0 0 0 0 0 0 0;
#X msg 1160 145 0 0 0 0 0 0 0 0 1 0 0 0 0 0 0;
#X msg 1177 124 0 0 0 0 0 0 0 0 0 1 0 0 0 0 0;
#X msg 1195 103 0 0 0 0 0 0 0 0 0 0 1 0 0 0 0;
#X msg 1212 82 0 0 0 0 0 0 0 0 0 0 0 1 0 0 0;
#X msg 1230 62 0 0 0 0 0 0 0 0 0 0 0 0 1 0 0;
#X msg 1247 42 0 0 0 0 0 0 0 0 0 0 0 0 0 1 0;
#X msg 1265 22 0 0 0 0 0 0 0 0 0 0 0 0 0 0 1;
#X obj 1020 -3 sel 0 1 2 3 4 5 6 7 8 9 10 11 12 13 14;
#X msg 1026 313 1 0 0 0 0 0 0 0 0 0 0 0 0 0 0;
#X msg 1043 292 0 1 0 0 0 0 0 0 0 0 0 0 0 0 0;
#X msg 1061 271 0 0 1 0 0 0 0 0 0 0 0 0 0 0 0;
#X msg 1078 250 0 0 0 1 0 0 0 0 0 0 0 0 0 0 0;
#X obj 1043 451 unpack f f f f f f f f f f f f f f f;
#X obj 22 341 unpack f f f f f f f f f f f f f f f;
#X obj 499 207 r~ bitwiser_output\$1;
#X obj 724 204 r~ bitwiser_output\$2;
#X obj 698 324 r~ reg\$2-tap3;
#X obj 897 204 r~ bitwiser_output\$3;
#X connect 0 0 24 2;
#X connect 1 0 24 2;
#X connect 2 0 24 2;
#X connect 3 0 24 2;
#X connect 4 0 24 2;
#X connect 5 0 24 2;
#X connect 6 0 24 2;
#X connect 7 0 24 2;
#X connect 8 0 24 2;
#X connect 9 0 24 2;
#X connect 10 0 24 2;
#X connect 11 0 24 2;
#X connect 12 0 24 1;
#X connect 13 0 24 1;
#X connect 14 0 24 1;
#X connect 15 0 24 1;
#X connect 16 0 24 1;
#X connect 17 0 24 1;
#X connect 18 0 24 1;
#X connect 19 0 24 1;
#X connect 20 0 24 1;
#X connect 21 0 24 1;
#X connect 22 0 24 1;
#X connect 23 0 24 1;
#X connect 24 0 42 0;
#X connect 25 0 76 0;
#X connect 26 0 64 0;
#X connect 27 0 24 0;
#X connect 28 0 27 0;
#X connect 29 0 30 0;
#X connect 30 0 25 0;
#X connect 30 1 26 0;
#X connect 31 0 0 0;
#X connect 31 0 12 0;
#X connect 32 0 1 0;
#X connect 32 0 13 0;
#X connect 33 0 2 0;
#X connect 33 0 14 0;
#X connect 34 0 3 0;
#X connect 34 0 15 0;
#X connect 35 0 4 0;
#X connect 35 0 16 0;
#X connect 36 0 5 0;
#X connect 36 0 17 0;
#X connect 37 0 6 0;
#X connect 37 0 18 0;
#X connect 38 0 8 0;
#X connect 38 0 20 0;
#X connect 39 0 9 0;
#X connect 39 0 21 0;
#X connect 40 0 10 0;
#X connect 40 0 22 0;
#X connect 41 0 11 0;
#X connect 41 0 23 0;
#X connect 43 0 24 2;
#X connect 44 0 24 1;
#X connect 45 0 24 2;
#X connect 46 0 24 1;
#X connect 47 0 24 2;
#X connect 48 0 24 1;
#X connect 49 0 82 0;
#X connect 50 0 82 0;
#X connect 51 0 82 0;
#X connect 52 0 82 0;
#X connect 53 0 82 0;
#X connect 54 0 82 0;
#X connect 55 0 82 0;
#X connect 56 0 82 0;
#X connect 57 0 82 0;
#X connect 58 0 82 0;
#X connect 59 0 82 0;
#X connect 60 0 82 0;
#X connect 64 0 49 0;
#X connect 64 1 50 0;
#X connect 64 2 51 0;
#X connect 64 3 52 0;
#X connect 64 4 53 0;
#X connect 64 5 54 0;
#X connect 64 6 55 0;
#X connect 64 7 56 0;
#X connect 64 8 57 0;
#X connect 64 9 58 0;
#X connect 64 10 59 0;
#X connect 64 11 60 0;
#X connect 64 12 61 0;
#X connect 64 13 62 0;
#X connect 64 14 63 0;
#X connect 65 0 81 0;
#X connect 66 0 81 0;
#X connect 67 0 81 0;
#X connect 68 0 81 0;
#X connect 69 0 81 0;
#X connect 70 0 81 0;
#X connect 71 0 81 0;
#X connect 72 0 81 0;
#X connect 73 0 81 0;
#X connect 74 0 81 0;
#X connect 75 0 81 0;
#X connect 76 0 77 0;
#X connect 76 1 78 0;
#X connect 76 2 79 0;
#X connect 76 3 80 0;
#X connect 76 4 65 0;
#X connect 76 5 66 0;
#X connect 76 6 67 0;
#X connect 76 7 68 0;
#X connect 76 8 69 0;
#X connect 76 9 70 0;
#X connect 76 10 71 0;
#X connect 76 11 72 0;
#X connect 76 12 73 0;
#X connect 76 13 74 0;
#X connect 76 14 75 0;
#X connect 77 0 81 0;
#X connect 78 0 81 0;
#X connect 79 0 81 0;
#X connect 80 0 81 0;
#X connect 81 0 12 1;
#X connect 81 1 13 1;
#X connect 81 2 14 1;
#X connect 81 3 15 1;
#X connect 81 4 44 1;
#X connect 81 5 16 1;
#X connect 81 6 17 1;
#X connect 81 7 18 1;
#X connect 81 8 19 1;
#X connect 81 9 46 1;
#X connect 81 10 20 1;
#X connect 81 11 21 1;
#X connect 81 12 22 1;
#X connect 81 13 48 1;
#X connect 81 14 23 1;
#X connect 82 0 0 1;
#X connect 82 1 1 1;
#X connect 82 2 2 1;
#X connect 82 3 3 1;
#X connect 82 4 43 1;
#X connect 82 5 4 1;
#X connect 82 6 5 1;
#X connect 82 7 6 1;
#X connect 82 8 7 1;
#X connect 82 9 45 1;
#X connect 82 10 8 1;
#X connect 82 11 9 1;
#X connect 82 12 10 1;
#X connect 82 13 47 1;
#X connect 82 14 11 1;
#X connect 83 0 43 0;
#X connect 83 0 44 0;
#X connect 84 0 45 0;
#X connect 84 0 46 0;
#X connect 85 0 7 0;
#X connect 85 0 19 0;
#X connect 86 0 47 0;
#X connect 86 0 48 0;
#X coords 0 -1 1 1 24 192 2 180 368;
