#N canvas 137 298 1534 695 10;
#X obj 105 115 f;
#X obj 141 115 + 1;
#X msg 120 66 0;
#X floatatom 281 111 5 0 0 0 - - -, f 5;
#X obj 1127 167 % 32;
#X floatatom 1127 223 5 0 0 0 - - -, f 5;
#X obj 867 167 / 32;
#X obj 867 195 int;
#X floatatom 867 253 5 0 0 0 - - -, f 5;
#X obj 120 46 loadbang;
#X obj 286 300 f \$1;
#X obj 654 519 t b b b b b b b b b b b b;
#X msg 654 500 set \$1;
#X floatatom 654 604 5 0 0 0 - - -, f 5;
#X floatatom 669 588 5 0 0 0 - - -, f 5;
#X msg 669 481 set \$1;
#X obj 525 289 f \$2;
#X obj 775 289 f \$3;
#X obj 1035 289 f \$4;
#X obj 286 272 t b b b b;
#X floatatom 285 394 5 0 0 0 - - -, f 5;
#X floatatom 301 378 5 0 0 0 - - -, f 5;
#X floatatom 318 362 5 0 0 0 - - -, f 5;
#X floatatom 335 346 5 0 0 0 - - -, f 5;
#X floatatom 351 394 5 0 0 0 - - -, f 5;
#X floatatom 368 378 5 0 0 0 - - -, f 5;
#X floatatom 385 362 5 0 0 0 - - -, f 5;
#X floatatom 401 346 5 0 0 0 - - -, f 5;
#X floatatom 418 394 5 0 0 0 - - -, f 5;
#X floatatom 435 378 5 0 0 0 - - -, f 5;
#X floatatom 451 362 5 0 0 0 - - -, f 5;
#X floatatom 468 346 5 0 0 0 - - -, f 5;
#X obj 285 327 sel 0 1 2 3 4 5 6 7 8 9 10 11;
#X floatatom 525 394 5 0 0 0 - - -, f 5;
#X floatatom 541 378 5 0 0 0 - - -, f 5;
#X floatatom 558 362 5 0 0 0 - - -, f 5;
#X floatatom 575 346 5 0 0 0 - - -, f 5;
#X floatatom 591 394 5 0 0 0 - - -, f 5;
#X floatatom 608 378 5 0 0 0 - - -, f 5;
#X floatatom 625 362 5 0 0 0 - - -, f 5;
#X floatatom 641 346 5 0 0 0 - - -, f 5;
#X floatatom 658 394 5 0 0 0 - - -, f 5;
#X floatatom 675 378 5 0 0 0 - - -, f 5;
#X floatatom 691 362 5 0 0 0 - - -, f 5;
#X floatatom 708 346 5 0 0 0 - - -, f 5;
#X obj 525 327 sel 0 1 2 3 4 5 6 7 8 9 10 11;
#X floatatom 775 394 5 0 0 0 - - -, f 5;
#X floatatom 791 378 5 0 0 0 - - -, f 5;
#X floatatom 808 362 5 0 0 0 - - -, f 5;
#X floatatom 825 346 5 0 0 0 - - -, f 5;
#X floatatom 841 394 5 0 0 0 - - -, f 5;
#X floatatom 858 378 5 0 0 0 - - -, f 5;
#X floatatom 875 362 5 0 0 0 - - -, f 5;
#X floatatom 891 346 5 0 0 0 - - -, f 5;
#X floatatom 908 394 5 0 0 0 - - -, f 5;
#X floatatom 925 378 5 0 0 0 - - -, f 5;
#X floatatom 941 362 5 0 0 0 - - -, f 5;
#X floatatom 958 346 5 0 0 0 - - -, f 5;
#X obj 775 327 sel 0 1 2 3 4 5 6 7 8 9 10 11;
#X floatatom 1035 394 5 0 0 0 - - -, f 5;
#X floatatom 1051 378 5 0 0 0 - - -, f 5;
#X floatatom 1068 362 5 0 0 0 - - -, f 5;
#X floatatom 1085 346 5 0 0 0 - - -, f 5;
#X floatatom 1101 394 5 0 0 0 - - -, f 5;
#X floatatom 1118 378 5 0 0 0 - - -, f 5;
#X floatatom 1135 362 5 0 0 0 - - -, f 5;
#X floatatom 1151 346 5 0 0 0 - - -, f 5;
#X floatatom 1168 394 5 0 0 0 - - -, f 5;
#X floatatom 1185 378 5 0 0 0 - - -, f 5;
#X floatatom 1201 362 5 0 0 0 - - -, f 5;
#X floatatom 1218 346 5 0 0 0 - - -, f 5;
#X obj 1035 327 sel 0 1 2 3 4 5 6 7 8 9 10 11;
#X floatatom 685 572 5 0 0 0 - - -, f 5;
#X floatatom 700 556 5 0 0 0 - - -, f 5;
#X floatatom 716 604 5 0 0 0 - - -, f 5;
#X floatatom 732 588 5 0 0 0 - - -, f 5;
#X floatatom 747 572 5 0 0 0 - - -, f 5;
#X floatatom 763 556 5 0 0 0 - - -, f 5;
#X floatatom 779 604 5 0 0 0 - - -, f 5;
#X floatatom 794 588 5 0 0 0 - - -, f 5;
#X floatatom 810 572 5 0 0 0 - - -, f 5;
#X floatatom 826 556 5 0 0 0 - - -, f 5;
#X msg 684 462 set \$1;
#X msg 699 443 set \$1;
#X msg 716 500 set \$1;
#X msg 732 481 set \$1;
#X msg 747 462 set \$1;
#X msg 763 443 set \$1;
#X msg 779 500 set \$1;
#X msg 794 481 set \$1;
#X msg 809 462 set \$1;
#X msg 824 443 set \$1;
#X obj 867 223 % 32;
#X obj 604 167 / 32;
#X obj 604 195 int;
#X obj 604 223 % 32;
#X obj 374 204 / 32;
#X obj 374 231 int;
#X obj 374 250 % 32;
#X floatatom 604 252 5 0 0 0 - - -, f 5;
#X floatatom 374 269 5 0 0 0 - - -, f 5;
#X msg 374 295 set \$1;
#X msg 604 299 set \$1;
#X msg 867 298 set \$1;
#X msg 1127 300 set \$1;
#X obj 729 128 t b b f f;
#X obj 644 631 pack f f f f f f f f f f f f;
#X obj 644 666 outlet;
#X obj 281 24 inlet;
#X obj 281 67 bng 15 250 50 0 empty empty empty 17 7 0 10 -262144 -1
-1;
#X obj 105 10 inlet;
#X msg 122 150 set \$1;
#X obj 105 206 outlet;
#X connect 0 0 1 0;
#X connect 0 0 111 0;
#X connect 0 0 112 0;
#X connect 1 0 0 1;
#X connect 2 0 0 1;
#X connect 3 0 105 0;
#X connect 4 0 5 0;
#X connect 5 0 104 0;
#X connect 6 0 7 0;
#X connect 7 0 92 0;
#X connect 7 0 93 0;
#X connect 8 0 103 0;
#X connect 9 0 2 0;
#X connect 10 0 32 0;
#X connect 11 0 13 0;
#X connect 11 1 14 0;
#X connect 11 2 72 0;
#X connect 11 3 73 0;
#X connect 11 4 74 0;
#X connect 11 5 75 0;
#X connect 11 6 76 0;
#X connect 11 7 77 0;
#X connect 11 8 78 0;
#X connect 11 9 79 0;
#X connect 11 10 80 0;
#X connect 11 11 81 0;
#X connect 12 0 13 0;
#X connect 13 0 106 0;
#X connect 14 0 106 1;
#X connect 15 0 14 0;
#X connect 16 0 45 0;
#X connect 17 0 58 0;
#X connect 18 0 71 0;
#X connect 19 0 10 0;
#X connect 19 1 16 0;
#X connect 19 2 17 0;
#X connect 19 3 18 0;
#X connect 20 0 12 0;
#X connect 21 0 15 0;
#X connect 22 0 82 0;
#X connect 23 0 83 0;
#X connect 24 0 84 0;
#X connect 25 0 85 0;
#X connect 26 0 86 0;
#X connect 27 0 87 0;
#X connect 28 0 88 0;
#X connect 29 0 89 0;
#X connect 30 0 90 0;
#X connect 31 0 91 0;
#X connect 32 0 20 0;
#X connect 32 1 21 0;
#X connect 32 2 22 0;
#X connect 32 3 23 0;
#X connect 32 4 24 0;
#X connect 32 5 25 0;
#X connect 32 6 26 0;
#X connect 32 7 27 0;
#X connect 32 8 28 0;
#X connect 32 9 29 0;
#X connect 32 10 30 0;
#X connect 32 11 31 0;
#X connect 33 0 12 0;
#X connect 34 0 15 0;
#X connect 35 0 82 0;
#X connect 36 0 83 0;
#X connect 37 0 84 0;
#X connect 38 0 85 0;
#X connect 39 0 86 0;
#X connect 40 0 87 0;
#X connect 41 0 88 0;
#X connect 42 0 89 0;
#X connect 43 0 90 0;
#X connect 44 0 91 0;
#X connect 45 0 33 0;
#X connect 45 1 34 0;
#X connect 45 2 35 0;
#X connect 45 3 36 0;
#X connect 45 4 37 0;
#X connect 45 5 38 0;
#X connect 45 6 39 0;
#X connect 45 7 40 0;
#X connect 45 8 41 0;
#X connect 45 9 42 0;
#X connect 45 10 43 0;
#X connect 45 11 44 0;
#X connect 46 0 12 0;
#X connect 47 0 15 0;
#X connect 48 0 82 0;
#X connect 49 0 83 0;
#X connect 50 0 84 0;
#X connect 51 0 85 0;
#X connect 52 0 86 0;
#X connect 53 0 87 0;
#X connect 54 0 88 0;
#X connect 55 0 89 0;
#X connect 56 0 90 0;
#X connect 57 0 91 0;
#X connect 58 0 46 0;
#X connect 58 1 47 0;
#X connect 58 2 48 0;
#X connect 58 3 49 0;
#X connect 58 4 50 0;
#X connect 58 5 51 0;
#X connect 58 6 52 0;
#X connect 58 7 53 0;
#X connect 58 8 54 0;
#X connect 58 9 55 0;
#X connect 58 10 56 0;
#X connect 58 11 57 0;
#X connect 59 0 12 0;
#X connect 60 0 15 0;
#X connect 61 0 82 0;
#X connect 62 0 83 0;
#X connect 63 0 84 0;
#X connect 64 0 85 0;
#X connect 65 0 86 0;
#X connect 66 0 87 0;
#X connect 67 0 88 0;
#X connect 68 0 89 0;
#X connect 69 0 90 0;
#X connect 70 0 91 0;
#X connect 71 0 59 0;
#X connect 71 1 60 0;
#X connect 71 2 61 0;
#X connect 71 3 62 0;
#X connect 71 4 63 0;
#X connect 71 5 64 0;
#X connect 71 6 65 0;
#X connect 71 7 66 0;
#X connect 71 8 67 0;
#X connect 71 9 68 0;
#X connect 71 10 69 0;
#X connect 71 11 70 0;
#X connect 72 0 106 2;
#X connect 73 0 106 3;
#X connect 74 0 106 4;
#X connect 75 0 106 5;
#X connect 76 0 106 6;
#X connect 77 0 106 7;
#X connect 78 0 106 8;
#X connect 79 0 106 9;
#X connect 80 0 106 10;
#X connect 81 0 106 11;
#X connect 82 0 72 0;
#X connect 83 0 73 0;
#X connect 84 0 74 0;
#X connect 85 0 75 0;
#X connect 86 0 76 0;
#X connect 87 0 77 0;
#X connect 88 0 78 0;
#X connect 89 0 79 0;
#X connect 90 0 80 0;
#X connect 91 0 81 0;
#X connect 92 0 8 0;
#X connect 93 0 94 0;
#X connect 94 0 95 0;
#X connect 94 0 96 0;
#X connect 95 0 99 0;
#X connect 96 0 97 0;
#X connect 97 0 98 0;
#X connect 98 0 100 0;
#X connect 99 0 102 0;
#X connect 100 0 101 0;
#X connect 101 0 23 0;
#X connect 101 0 22 0;
#X connect 101 0 21 0;
#X connect 101 0 20 0;
#X connect 101 0 27 0;
#X connect 101 0 26 0;
#X connect 101 0 25 0;
#X connect 101 0 24 0;
#X connect 101 0 31 0;
#X connect 101 0 30 0;
#X connect 101 0 29 0;
#X connect 101 0 28 0;
#X connect 102 0 36 0;
#X connect 102 0 35 0;
#X connect 102 0 34 0;
#X connect 102 0 33 0;
#X connect 102 0 40 0;
#X connect 102 0 39 0;
#X connect 102 0 38 0;
#X connect 102 0 37 0;
#X connect 102 0 44 0;
#X connect 102 0 43 0;
#X connect 102 0 42 0;
#X connect 102 0 41 0;
#X connect 103 0 49 0;
#X connect 103 0 48 0;
#X connect 103 0 47 0;
#X connect 103 0 46 0;
#X connect 103 0 53 0;
#X connect 103 0 52 0;
#X connect 103 0 51 0;
#X connect 103 0 50 0;
#X connect 103 0 57 0;
#X connect 103 0 56 0;
#X connect 103 0 55 0;
#X connect 103 0 54 0;
#X connect 104 0 62 0;
#X connect 104 0 61 0;
#X connect 104 0 60 0;
#X connect 104 0 59 0;
#X connect 104 0 66 0;
#X connect 104 0 65 0;
#X connect 104 0 64 0;
#X connect 104 0 63 0;
#X connect 104 0 70 0;
#X connect 104 0 69 0;
#X connect 104 0 68 0;
#X connect 104 0 67 0;
#X connect 105 0 11 0;
#X connect 105 1 19 0;
#X connect 105 2 6 0;
#X connect 105 3 4 0;
#X connect 106 0 107 0;
#X connect 108 0 109 0;
#X connect 109 0 3 0;
#X connect 110 0 0 0;
#X connect 111 0 3 0;
