#N canvas 243 191 758 513 10;
#X obj 235 279 tappicker_unit;
#X obj 253 260 tappicker_unit;
#X obj 272 241 tappicker_unit;
#X obj 291 222 tappicker_unit;
#X obj 310 203 tappicker_unit;
#X obj 329 184 tappicker_unit;
#X obj 347 165 tappicker_unit;
#X obj 366 146 tappicker_unit;
#X obj 385 127 tappicker_unit;
#X obj 404 108 tappicker_unit;
#X obj 423 89 tappicker_unit;
#X obj 442 70 tappicker_unit;
#X obj 235 41 unpack f f f f f f f f f f f f, f 35;
#X obj 235 308 pack f f f f;
#X obj 320 308 pack f f f f;
#X obj 407 308 pack f f f f;
#X obj 235 12 inlet;
#X obj 235 336 outlet;
#X obj 320 336 outlet;
#X obj 407 338 outlet;
#X connect 0 0 13 0;
#X connect 1 0 13 1;
#X connect 2 0 13 2;
#X connect 3 0 13 3;
#X connect 4 0 14 0;
#X connect 5 0 14 1;
#X connect 6 0 14 2;
#X connect 7 0 14 3;
#X connect 8 0 15 0;
#X connect 9 0 15 1;
#X connect 10 0 15 2;
#X connect 11 0 15 3;
#X connect 12 0 0 0;
#X connect 12 1 1 0;
#X connect 12 2 2 0;
#X connect 12 3 3 0;
#X connect 12 4 4 0;
#X connect 12 5 5 0;
#X connect 12 6 6 0;
#X connect 12 7 7 0;
#X connect 12 8 8 0;
#X connect 12 9 9 0;
#X connect 12 10 10 0;
#X connect 12 11 11 0;
#X connect 13 0 17 0;
#X connect 14 0 18 0;
#X connect 15 0 19 0;
#X connect 16 0 12 0;
