#N canvas 673 346 959 554 10;
#X obj 525 418 s tap_indices\$2;
#X obj 222 37 inlet;
#X obj 473 320 tappicker \$1 \$2 \$3;
#X obj 500 457 s tap_indices\$1;
#X obj 578 379 s tap_indices\$3;
#X obj 687 221 inlet;
#X obj 677 182 inlet;
#X obj 667 143 inlet;
#X obj 657 104 inlet;
#X text 541 37 Trigger without incrementing;
#X obj 351 37 inlet;
#X obj 222 485 pack f f f f;
#X obj 240 386 t b f;
#X obj 259 347 t b f;
#X obj 278 308 t b f;
#X obj 222 513 s incrementer\$1\$2\$3;
#X obj 222 66 sel 0 1 2 3, f 13;
#X obj 351 66 sel 0 1 2 3, f 12;
#X obj 278 122 tap_iterator 0 7 4 8, f 21;
#X obj 240 200 tap_iterator 13 13 4 8;
#X obj 222 239 tap_iterator 13 13 0 4;
#X obj 259 161 tap_iterator 13 13 11 0;
#X obj 473 418 t b l;
#X obj 473 501 outlet;
#X text 29 129 13 here is: NO GATE. \; All others signify which \;
tap row to XOR with the other \; .;
#X connect 1 0 16 0;
#X connect 2 0 22 0;
#X connect 2 1 0 0;
#X connect 2 2 4 0;
#X connect 5 0 20 0;
#X connect 6 0 19 0;
#X connect 7 0 21 0;
#X connect 8 0 18 0;
#X connect 10 0 17 0;
#X connect 11 0 15 0;
#X connect 12 0 11 0;
#X connect 12 1 11 1;
#X connect 13 0 11 0;
#X connect 13 1 11 2;
#X connect 14 0 11 0;
#X connect 14 1 11 3;
#X connect 16 0 20 0;
#X connect 16 1 19 0;
#X connect 16 2 21 0;
#X connect 16 3 18 0;
#X connect 17 0 20 1;
#X connect 17 1 19 1;
#X connect 17 2 21 1;
#X connect 17 3 18 1;
#X connect 18 0 14 0;
#X connect 18 1 2 0;
#X connect 19 0 12 0;
#X connect 19 1 2 0;
#X connect 20 0 11 0;
#X connect 20 1 2 0;
#X connect 21 0 13 0;
#X connect 21 1 2 0;
#X connect 22 0 23 0;
#X connect 22 1 3 0;
