#N canvas 952 199 576 387 10;
#X obj 332 27 inlet;
#X obj 254 216 sel;
#X obj 332 50 bng 15 250 50 0 empty empty empty 17 7 0 10 -262144 -1
-1;
#X obj 254 99 bng 15 250 50 0 empty empty empty 17 7 0 10 -262144 -1
-1;
#X floatatom 269 277 5 0 0 0 - - -;
#X floatatom 332 277 5 0 0 0 - - -;
#X obj 167 189 sel;
#X obj 182 226 sel;
#X obj 167 117 bng 15 250 50 0 empty empty empty 17 7 0 10 -262144
-1 -1;
#X floatatom 200 276 5 0 0 0 - - -;
#X obj 87 189 sel;
#X obj 105 218 sel;
#X obj 87 134 bng 15 250 50 0 empty empty empty 17 7 0 10 -262144 -1
-1;
#X obj 120 247 sel;
#X floatatom 135 276 5 0 0 0 - - -;
#X obj 206 303 pack f f f f;
#X obj 206 332 outlet;
#X obj 87 160 random 32;
#X obj 254 160 random 32;
#X obj 332 198 random 32;
#X obj 167 160 random 32;
#X obj 254 65 del 1;
#X obj 167 83 del 1;
#X obj 87 101 del 1;
#X connect 0 0 2 0;
#X connect 1 0 3 0;
#X connect 1 1 4 0;
#X connect 2 0 19 0;
#X connect 2 0 21 0;
#X connect 3 0 18 0;
#X connect 4 0 7 1;
#X connect 4 0 11 1;
#X connect 4 0 15 2;
#X connect 5 0 6 1;
#X connect 5 0 10 1;
#X connect 5 0 15 3;
#X connect 6 0 8 0;
#X connect 6 1 7 0;
#X connect 7 0 8 0;
#X connect 7 1 9 0;
#X connect 8 0 20 0;
#X connect 9 0 13 1;
#X connect 9 0 15 1;
#X connect 10 0 12 0;
#X connect 10 1 11 0;
#X connect 11 0 12 0;
#X connect 11 1 13 0;
#X connect 12 0 17 0;
#X connect 13 0 12 0;
#X connect 13 1 14 0;
#X connect 14 0 15 0;
#X connect 15 0 16 0;
#X connect 17 0 10 0;
#X connect 18 0 1 0;
#X connect 19 0 1 1;
#X connect 19 0 5 0;
#X connect 20 0 6 0;
#X connect 21 0 3 0;
#X connect 21 0 22 0;
#X connect 22 0 8 0;
#X connect 22 0 23 0;
#X connect 23 0 12 0;
