#N canvas 80 208 384 503 10;
#X obj 132 36 unpack f f f;
#X floatatom 132 389 5 0 0 0 - - -, f 5;
#X floatatom 149 373 5 0 0 0 - - -, f 5;
#X floatatom 167 357 5 0 0 0 - - -, f 5;
#X floatatom 185 341 5 0 0 0 - - -, f 5;
#X floatatom 172 268 5 0 0 0 - - -, f 5;
#X floatatom 189 252 5 0 0 0 - - -, f 5;
#X floatatom 207 236 5 0 0 0 - - -, f 5;
#X floatatom 225 220 5 0 0 0 - - -, f 5;
#X obj 213 75 tapsfour;
#X floatatom 213 147 5 0 0 0 - - -, f 5;
#X floatatom 230 131 5 0 0 0 - - -, f 5;
#X floatatom 248 115 5 0 0 0 - - -, f 5;
#X floatatom 266 99 5 0 0 0 - - -, f 5;
#X obj 132 424 s tap_indices\$1;
#X obj 132 405 pack f f f f;
#X obj 171 303 s tap_indices\$2;
#X obj 171 284 pack f f f f;
#X obj 213 163 pack f f f f;
#X obj 213 182 s tap_indices\$3;
#X obj 132 17 inlet;
#X obj 132 322 tapsfour;
#X obj 172 201 tapsfour;
#X connect 0 0 21 0;
#X connect 0 1 22 0;
#X connect 0 2 9 0;
#X connect 1 0 15 0;
#X connect 2 0 15 1;
#X connect 3 0 15 2;
#X connect 4 0 15 3;
#X connect 5 0 17 0;
#X connect 6 0 17 1;
#X connect 7 0 17 2;
#X connect 8 0 17 3;
#X connect 9 0 10 0;
#X connect 9 1 11 0;
#X connect 9 2 12 0;
#X connect 9 3 13 0;
#X connect 10 0 18 0;
#X connect 11 0 18 1;
#X connect 12 0 18 2;
#X connect 13 0 18 3;
#X connect 15 0 14 0;
#X connect 17 0 16 0;
#X connect 18 0 19 0;
#X connect 20 0 0 0;
#X connect 21 0 1 0;
#X connect 21 1 2 0;
#X connect 21 2 3 0;
#X connect 21 3 4 0;
#X connect 22 0 5 0;
#X connect 22 1 6 0;
#X connect 22 2 7 0;
#X connect 22 3 8 0;
