#N canvas 176 149 1257 730 10;
#X msg 87 214 0 0 0;
#X msg 102 193 1 1 1;
#X obj 87 237 s gates3\$1\$2-topanel;
#X obj 87 61 r gates3\$1\$2\$3-send;
#X obj 87 257 s gates3\$2\$3-topanel;
#X obj 87 277 s gates3\$3\$1-topanel;
#X obj 331 519 unpack f f f;
#X obj 331 576 s delay\$1;
#X obj 365 557 s delay\$2;
#X obj 400 538 s delay\$3;
#X msg 345 481 3 25 0;
#X obj 331 336 r delay\$1\$2\$3-send;
#X msg 331 500 1 1 1;
#X msg 360 462 6 5 0;
#X obj 301 305 s xor_inline_taps\$1\$2\$3;
#X msg 308 279 0 0 5 0;
#X msg 363 203 0 5 6 10;
#X msg 377 184 5 0 10 0;
#X obj 308 70 sel 0 1 2 3 4 5 6 7 8 9 10;
#X msg 405 146 0 0 10 0;
#X msg 419 127 0 5 10 0;
#X msg 433 108 0 1 5 0;
#X msg 449 89 0 6 5 10;
#X msg 391 165 5 0 10 0;
#X obj 308 41 r taps2\$1\$2\$3-send;
#X msg 321 260 5 0 10 0;
#X msg 335 241 0 0 13 0;
#X msg 349 222 5 0 10 0;
#X obj 544 201 sel 0 1 2 3 4;
#X obj 544 450 s tap_indices\$1;
#X obj 682 449 s tap_indices\$2;
#X obj 820 448 s tap_indices\$3;
#X msg 544 322 0 0 0 0;
#X msg 682 323 0 0 0 0;
#X msg 820 323 0 0 0 0;
#X msg 544 284 1 2 3 4;
#X msg 682 285 1 2 3 4;
#X msg 820 285 1 2 3 4;
#X msg 544 246 1 2 3 4;
#X msg 682 247 5 6 7 8;
#X msg 820 247 9 10 11 12;
#X obj 544 305 t b b b;
#X obj 544 267 t b b b;
#X obj 544 229 t b b b;
#X obj 27 574 s topology\$1\$2\$3-receive;
#X obj 43 555 s gates3\$1\$2\$3-receive;
#X obj 60 536 s gates2\$1\$2\$3-receive;
#X obj 76 517 s gates1\$1\$2\$3-receive;
#X obj 109 479 s taps2\$1\$2\$3-receive;
#X obj 142 441 s stereochoice\$1\$2\$3-receive;
#X obj 126 460 s delay\$1\$2\$3-receive;
#X obj 93 498 s taps3\$1\$2\$3-receive;
#X obj 175 403 s freqs\$1\$2\$3-receive;
#X obj 203 383 s freqtimes\$1\$2\$3;
#X obj 27 365 unpack f f f f f f f f f f f;
#X msg 159 422 s wheel\$1\$2\$3-receive;
#X obj 27 336 r presets\$1\$2\$3;
#X msg 118 172 1 0 0;
#X obj 87 90 sel 0 1 2 3;
#X msg 134 151 1 1 0;
#X msg 134 131 1 0 0;
#X obj 544 173 r taps4\$1\$2\$3-send;
#X obj 544 343 t b b b;
#X obj 544 360 taps4randomizer;
#X obj 682 361 taps4randomizer;
#X obj 820 361 taps4randomizer;
#X obj 544 382 t b b b;
#X obj 544 399 taps4randomizer-and31;
#X obj 682 400 taps4randomizer-and31;
#X obj 820 400 taps4randomizer-and31;
#X msg 389 424 100 200 400;
#X msg 403 405 50 175 275;
#X msg 134 111 1 1 1;
#X msg 374 443 30 60 90;
#X obj 331 365 sel 0 1 2 3 4 5;
#X msg 420 383 1000 500 250;
#X connect 0 0 2 0;
#X connect 0 0 4 0;
#X connect 0 0 5 0;
#X connect 1 0 2 0;
#X connect 1 0 4 0;
#X connect 1 0 5 0;
#X connect 3 0 58 0;
#X connect 6 0 7 0;
#X connect 6 1 8 0;
#X connect 6 2 9 0;
#X connect 10 0 6 0;
#X connect 11 0 74 0;
#X connect 12 0 6 0;
#X connect 13 0 6 0;
#X connect 15 0 14 0;
#X connect 16 0 14 0;
#X connect 17 0 14 0;
#X connect 18 0 15 0;
#X connect 18 1 25 0;
#X connect 18 2 26 0;
#X connect 18 3 27 0;
#X connect 18 4 16 0;
#X connect 18 5 17 0;
#X connect 18 6 23 0;
#X connect 18 7 19 0;
#X connect 18 8 20 0;
#X connect 18 9 21 0;
#X connect 18 10 22 0;
#X connect 19 0 14 0;
#X connect 20 0 14 0;
#X connect 21 0 14 0;
#X connect 22 0 14 0;
#X connect 23 0 14 0;
#X connect 24 0 18 0;
#X connect 25 0 14 0;
#X connect 26 0 14 0;
#X connect 27 0 14 0;
#X connect 28 0 41 0;
#X connect 28 1 42 0;
#X connect 28 2 43 0;
#X connect 28 3 62 0;
#X connect 28 4 66 0;
#X connect 32 0 29 0;
#X connect 33 0 30 0;
#X connect 34 0 31 0;
#X connect 35 0 29 0;
#X connect 36 0 30 0;
#X connect 37 0 31 0;
#X connect 38 0 29 0;
#X connect 39 0 30 0;
#X connect 40 0 31 0;
#X connect 41 0 32 0;
#X connect 41 1 33 0;
#X connect 41 2 34 0;
#X connect 42 0 35 0;
#X connect 42 1 36 0;
#X connect 42 2 37 0;
#X connect 43 0 38 0;
#X connect 43 1 39 0;
#X connect 43 2 40 0;
#X connect 54 0 44 0;
#X connect 54 1 45 0;
#X connect 54 2 46 0;
#X connect 54 3 47 0;
#X connect 54 4 51 0;
#X connect 54 5 48 0;
#X connect 54 6 50 0;
#X connect 54 7 49 0;
#X connect 54 8 55 0;
#X connect 54 9 52 0;
#X connect 54 10 53 0;
#X connect 56 0 54 0;
#X connect 57 0 2 0;
#X connect 57 0 4 0;
#X connect 57 0 5 0;
#X connect 58 0 0 0;
#X connect 58 1 1 0;
#X connect 58 2 57 0;
#X connect 58 3 59 0;
#X connect 58 3 60 0;
#X connect 58 3 72 0;
#X connect 59 0 2 0;
#X connect 60 0 5 0;
#X connect 61 0 28 0;
#X connect 62 0 63 0;
#X connect 62 1 64 0;
#X connect 62 2 65 0;
#X connect 63 0 29 0;
#X connect 64 0 30 0;
#X connect 65 0 31 0;
#X connect 66 0 67 0;
#X connect 66 1 68 0;
#X connect 66 2 69 0;
#X connect 67 0 29 0;
#X connect 68 0 30 0;
#X connect 69 0 31 0;
#X connect 70 0 6 0;
#X connect 71 0 6 0;
#X connect 72 0 4 0;
#X connect 73 0 6 0;
#X connect 74 0 12 0;
#X connect 74 1 10 0;
#X connect 74 2 13 0;
#X connect 74 3 73 0;
#X connect 74 4 70 0;
#X connect 74 5 71 0;
#X connect 74 6 75 0;
#X connect 75 0 6 0;
