#N canvas 378 256 790 489 10;
#X obj 202 58 inlet;
#X obj 303 383 s wheel\$1;
#X obj 372 383 s wheel\$2;
#X obj 441 383 s wheel\$3;
#X obj 338 345 unpack f f f;
#X obj 381 269 pack f f f;
#X obj 262 173 t b b b;
#X obj 232 269 pack f 0 0;
#X obj 247 221 pack f 2 2;
#X obj 232 250 random 7000;
#X obj 247 202 random 7000;
#X obj 328 191 random 7000;
#X obj 409 191 random 7000;
#X obj 490 191 random 7000;
#X msg 217 298 65535 2 2;
#X obj 202 87 sel 0 1 2 3 4;
#X msg 202 327 32768 32768 32768;
#X connect 0 0 15 0;
#X connect 4 0 1 0;
#X connect 4 1 2 0;
#X connect 4 2 3 0;
#X connect 5 0 4 0;
#X connect 6 0 11 0;
#X connect 6 1 12 0;
#X connect 6 2 13 0;
#X connect 7 0 4 0;
#X connect 8 0 4 0;
#X connect 9 0 7 0;
#X connect 10 0 8 0;
#X connect 11 0 5 0;
#X connect 12 0 5 1;
#X connect 13 0 5 2;
#X connect 14 0 4 0;
#X connect 15 0 16 0;
#X connect 15 1 14 0;
#X connect 15 2 9 0;
#X connect 15 3 10 0;
#X connect 15 4 6 0;
#X connect 16 0 4 0;
