#N canvas 1162 534 619 300 10;
#X obj 170 90 r~ reg\$1-tap0;
#X obj 194 119 r~ reg\$1-tap1;
#X obj 310 90 r~ reg\$1-tap2;
#X obj 332 119 r~ reg\$1-tap3;
#X obj 148 148 bitwiser;
#X obj 288 148 bitwiser;
#X obj 188 218 bitwiser;
#X obj 148 61 inlet;
#X obj 288 61 inlet;
#X obj 354 200 inlet;
#X obj 189 254 outlet~;
#X obj 242 254 s~ bitwiser_output\$1;
#X connect 0 0 4 1;
#X connect 1 0 4 2;
#X connect 2 0 5 1;
#X connect 3 0 5 2;
#X connect 4 0 6 1;
#X connect 5 0 6 2;
#X connect 6 0 10 0;
#X connect 6 0 11 0;
#X connect 7 0 4 0;
#X connect 8 0 5 0;
#X connect 9 0 6 0;
