#N canvas 211 298 607 768 10;
#X obj 206 561 scopeXYZ~ 2048;
#X obj 65 543 inlet;
#X obj 314 410 *~;
#X obj 315 342 r~ channel\$1;
#X obj 234 287 r frequency\$1;
#X obj 329 371 r amplitude\$1;
#X msg 206 100 draw line;
#X msg 206 140 draw fill;
#X msg 206 77 draw point;
#X msg 206 120 draw linestrip;
#X msg 206 160 draw tri;
#X msg 206 182 draw tristrip;
#X msg 206 205 draw trifan;
#X msg 206 226 draw quad;
#X msg 206 248 draw quadstrip;
#X obj 206 9 r linestyle\$1;
#X obj 206 38 sel 0 1 2 3 4 5 6 7 8;
#X floatatom 348 521 5 0 0 0 - - -, f 5;
#X obj 338 158 loadbang;
#X obj 234 322 phasor~ 30;
#X msg 338 495 0;
#X obj 243 518 *~;
#X msg 394 218 14;
#X text 423 218 Width;
#X obj 232 392 -~ 0.5;
#X obj 232 460 abs~;
#X obj 232 434 *~ 2;
#X connect 1 0 0 0;
#X connect 2 0 0 2;
#X connect 3 0 2 0;
#X connect 4 0 19 0;
#X connect 5 0 2 1;
#X connect 6 0 0 0;
#X connect 7 0 0 0;
#X connect 8 0 0 0;
#X connect 9 0 0 0;
#X connect 10 0 0 0;
#X connect 11 0 0 0;
#X connect 12 0 0 0;
#X connect 13 0 0 0;
#X connect 14 0 0 0;
#X connect 15 0 16 0;
#X connect 16 0 8 0;
#X connect 16 1 6 0;
#X connect 16 2 9 0;
#X connect 16 3 7 0;
#X connect 16 4 10 0;
#X connect 16 5 11 0;
#X connect 16 6 12 0;
#X connect 16 7 13 0;
#X connect 16 8 14 0;
#X connect 17 0 0 3;
#X connect 18 0 20 0;
#X connect 18 0 22 0;
#X connect 19 0 24 0;
#X connect 20 0 17 0;
#X connect 21 0 0 1;
#X connect 22 0 21 1;
#X connect 24 0 26 0;
#X connect 25 0 21 0;
#X connect 26 0 25 0;
