#N canvas 82 103 1665 831 10;
#X msg 99 494 set \$1 \$2 \$3 \$4 \$5 \$6 \$7;
#X msg 99 571 add \$1 \$2 \$3 \$4 \$5 \$6 \$7;
#X msg 99 616 center -7 -3 -0.22 -37 0 0 0.25 \;;
#X obj 257 356 unpack s s s;
#X obj 88 652 route left center right;
#X msg 230 237 right center left;
#X msg 379 494 set \$1 \$2 \$3 \$4 \$5 \$6 \$7;
#X msg 379 571 add \$1 \$2 \$3 \$4 \$5 \$6 \$7;
#X msg 379 616 right -7 3 -0.22 37 0 0 0.25 \;;
#X obj 368 652 route left center right;
#X msg 697 508 set \$1 \$2 \$3 \$4 \$5 \$6 \$7;
#X msg 697 585 add \$1 \$2 \$3 \$4 \$5 \$6 \$7;
#X msg 697 630 left -7 0 -0.22 0 0 0 0.25 \;;
#X msg 648 557 set;
#X msg 628 586 set \$1;
#X obj 686 666 route left center right;
#X msg 99 532 -7 0 -0.22 0 0 0 0.25;
#X obj 99 456 r toring1;
#X obj 379 453 r toring2;
#X obj 697 454 r toring3;
#X obj 178 689 s toring3;
#X obj 133 711 s toring2;
#X obj 88 689 s toring1;
#X obj 458 689 s toring3;
#X obj 413 711 s toring2;
#X obj 368 689 s toring1;
#X obj 776 703 s toring3;
#X obj 731 725 s toring2;
#X obj 686 703 s toring1;
#X msg 697 546 -7 3 -0.22 37 0 0 0.25;
#X msg 379 532 -7 -3 -0.22 -37 0 0 0.25;
#X obj 230 358 bng 15 250 50 0 empty empty empty 17 7 0 10 -262144
-1 -1;
#X obj 230 392 s push;
#X obj 609 528 t b a b;
#X obj 605 612 r push;
#X msg 330 543 set;
#X msg 310 572 set \$1;
#X obj 291 514 t b a b;
#X obj 287 598 r push;
#X msg 60 543 set;
#X msg 40 572 set \$1;
#X obj 41 428 t b a b;
#X obj 17 598 r push;
#X msg 230 264 center right left;
#X obj 230 322 t b a;
#X text 343 237 Swap;
#X text 342 264 Shift Right;
#X msg 230 206 right left center;
#X text 339 206 Shift Left;
#X text 977 232 Lower Left;
#X text 972 272 Upper Middle;
#X text 979 310 Lower Right;
#X obj 230 46 inlet;
#X obj 230 134 sel 0 1 2;
#X obj 816 7 inlet;
#X obj 1134 249 s toring1;
#X obj 1134 289 s toring2;
#X obj 1134 328 s toring3;
#X obj 1121 25 sel 0 1 2 3;
#X obj 1404 185 t b b b;
#X text 1457 185 Vertical;
#X obj 734 185 t b b b;
#X text 787 185 Vertical;
#X msg 769 231 -7 -3 -0.22 -37 0 0 0.25;
#X msg 753 282 -7 3 -0.22 37 0 0 0.25;
#X msg 733 310 -7 0 -0.22 0 0 0 0.25;
#X msg 1454 229 -7 -3 -0.22 -37 0 0 0.25;
#X msg 1423 282 -7 3 -0.22 37 0 0 0.25;
#X msg 1403 310 -7 0 -0.22 0 0 0 0.25;
#X connect 0 0 16 0;
#X connect 1 0 2 0;
#X connect 2 0 4 0;
#X connect 3 0 41 0;
#X connect 3 1 37 0;
#X connect 3 2 33 0;
#X connect 4 0 22 0;
#X connect 4 1 21 0;
#X connect 4 2 20 0;
#X connect 5 0 44 0;
#X connect 6 0 30 0;
#X connect 7 0 8 0;
#X connect 8 0 9 0;
#X connect 9 0 25 0;
#X connect 9 1 24 0;
#X connect 9 2 23 0;
#X connect 10 0 29 0;
#X connect 11 0 12 0;
#X connect 12 0 15 0;
#X connect 13 0 12 0;
#X connect 14 0 12 0;
#X connect 15 0 28 0;
#X connect 15 1 27 0;
#X connect 15 2 26 0;
#X connect 16 0 1 0;
#X connect 17 0 0 0;
#X connect 18 0 6 0;
#X connect 19 0 10 0;
#X connect 29 0 11 0;
#X connect 30 0 7 0;
#X connect 31 0 32 0;
#X connect 33 0 29 0;
#X connect 33 1 14 0;
#X connect 33 2 13 0;
#X connect 34 0 12 0;
#X connect 35 0 8 0;
#X connect 36 0 8 0;
#X connect 37 0 30 0;
#X connect 37 1 36 0;
#X connect 37 2 35 0;
#X connect 38 0 8 0;
#X connect 39 0 2 0;
#X connect 40 0 2 0;
#X connect 41 0 16 0;
#X connect 41 1 40 0;
#X connect 41 2 39 0;
#X connect 42 0 2 0;
#X connect 43 0 44 0;
#X connect 44 0 31 0;
#X connect 44 1 3 0;
#X connect 47 0 44 0;
#X connect 52 0 53 0;
#X connect 53 0 47 0;
#X connect 53 1 5 0;
#X connect 53 2 43 0;
#X connect 54 0 58 0;
#X connect 58 0 61 0;
#X connect 58 1 61 0;
#X connect 58 2 59 0;
#X connect 58 3 59 0;
#X connect 59 0 68 0;
#X connect 59 1 67 0;
#X connect 59 2 66 0;
#X connect 61 0 65 0;
#X connect 61 1 64 0;
#X connect 61 2 63 0;
#X connect 63 0 55 0;
#X connect 64 0 56 0;
#X connect 65 0 57 0;
#X connect 66 0 55 0;
#X connect 67 0 56 0;
#X connect 68 0 57 0;
