#N canvas 68 279 505 709 10;
#X obj 117 278 translateXYZ, f 16;
#X obj 144 249 line;
#X obj 213 249 line;
#X floatatom 144 95 5 0 0 0 - - -, f 5;
#X floatatom 179 95 5 0 0 0 - - -, f 5;
#X floatatom 213 95 5 0 0 0 - - -, f 5;
#X obj 144 66 unpack f f f;
#X obj 144 219 pack;
#X obj 165 133 r speed;
#X obj 179 220 pack;
#X obj 200 162 r speed;
#X obj 213 220 pack;
#X obj 234 191 r speed;
#X obj 179 249 line;
#X obj 117 8 inlet;
#X obj 117 627 outlet;
#X obj 144 549 line;
#X obj 213 549 line;
#X floatatom 144 395 5 0 0 0 - - -, f 5;
#X floatatom 179 395 5 0 0 0 - - -, f 5;
#X floatatom 213 395 5 0 0 0 - - -, f 5;
#X obj 144 366 unpack f f f;
#X obj 144 519 pack;
#X obj 165 433 r speed;
#X obj 179 520 pack;
#X obj 200 462 r speed;
#X obj 213 520 pack;
#X obj 234 491 r speed;
#X obj 179 549 line;
#X obj 117 578 rotateXYZ, f 16;
#X obj 144 337 r rotate\$1;
#X obj 144 37 r translator\$1;
#X connect 0 0 29 0;
#X connect 1 0 0 1;
#X connect 2 0 0 3;
#X connect 3 0 7 0;
#X connect 4 0 9 0;
#X connect 5 0 11 0;
#X connect 6 0 3 0;
#X connect 6 1 4 0;
#X connect 6 2 5 0;
#X connect 7 0 1 0;
#X connect 8 0 7 1;
#X connect 9 0 13 0;
#X connect 10 0 9 1;
#X connect 11 0 2 0;
#X connect 12 0 11 1;
#X connect 13 0 0 2;
#X connect 14 0 0 0;
#X connect 16 0 29 1;
#X connect 17 0 29 3;
#X connect 18 0 22 0;
#X connect 19 0 24 0;
#X connect 20 0 26 0;
#X connect 21 0 18 0;
#X connect 21 1 19 0;
#X connect 21 2 20 0;
#X connect 22 0 16 0;
#X connect 23 0 22 1;
#X connect 24 0 28 0;
#X connect 25 0 24 1;
#X connect 26 0 17 0;
#X connect 27 0 26 1;
#X connect 28 0 29 2;
#X connect 29 0 15 0;
#X connect 30 0 21 0;
#X connect 31 0 6 0;
